M48
; DRILL file {KiCad 8.0.9} date 2025-05-16T14:56:25+0100
; FORMAT={-:-/ absolute / inch / decimal}
; #@! TF.CreationDate,2025-05-16T14:56:25+01:00
; #@! TF.GenerationSoftware,Kicad,Pcbnew,8.0.9
; #@! TF.FileFunction,Plated,1,4,PTH
FMAT,2
INCH
; #@! TA.AperFunction,Plated,PTH,ViaDrill
T1C0.0059
; #@! TA.AperFunction,Plated,PTH,ComponentDrill
T2C0.0098
; #@! TA.AperFunction,Plated,PTH,ViaDrill
T3C0.0118
; #@! TA.AperFunction,Plated,PTH,ViaDrill
T4C0.0157
; #@! TA.AperFunction,Plated,PTH,ViaDrill
T5C0.0197
; #@! TA.AperFunction,Plated,PTH,ComponentDrill
T6C0.0236
; #@! TA.AperFunction,Plated,PTH,ComponentDrill
T7C0.0748
%
G90
G05
T1
X6.5693Y-3.5134
X6.6142Y-3.5669
X6.6976Y-3.5929
X6.7512Y-3.7252
X6.8622Y-4.1031
X7.0176Y-4.4643
X7.1334Y-3.9288
X7.152Y-4.2921
X7.1712Y-3.8914
X7.1781Y-4.0699
X7.1902Y-3.915
X7.262Y-4.01
X7.2669Y-3.8177
X7.485Y-3.5697
T2
X7.0191Y-4.1237
X7.0732Y-4.0696
X7.0732Y-4.1779
X7.1274Y-4.1237
T3
X4.6311Y-4.5533
X4.6906Y-4.5533
X4.7815Y-4.6748
X4.8504Y-2.8543
X4.9224Y-4.4673
X4.9917Y-4.5283
X4.9921Y-4.5539
X5.1346Y-3.0752
X5.2579Y-2.7264
X5.3189Y-2.639
X5.4661Y-4.5346
X5.6165Y-4.4157
X5.7185Y-3.6417
X5.8343Y-4.4764
X5.835Y-4.5276
X6.0394Y-4.478
X6.0531Y-3.9764
X6.0539Y-3.9417
X6.1461Y-4.4972
X6.1937Y-4.5685
X6.2835Y-4.2677
X6.3417Y-4.4449
X6.389Y-3.6421
X6.4213Y-4.5705
X6.4425Y-4.1165
X6.463Y-4.3232
X6.4937Y-4.1165
X6.6467Y-3.7167
X6.6488Y-3.3724
X6.6541Y-3.9002
X6.7118Y-3.5358
X6.7835Y-4.2126
X6.8166Y-4.1082
X6.8921Y-3.9299
X6.9882Y-4.2244
X7.0002Y-3.8581
X7.035Y-3.6004
X7.0861Y-4.3273
X7.1259Y-3.8668
X7.1729Y-4.1668
X7.2508Y-4.0512
X7.289Y-4.161
X7.3547Y-3.6059
X7.3886Y-4.1819
X7.4116Y-3.4488
X7.4116Y-3.6378
T4
X5.0004Y-2.7697
X5.6457Y-4.426
X6.4425Y-4.1835
X6.7563Y-3.7959
X6.788Y-3.6927
X6.8539Y-3.7984
X6.8701Y-3.4969
X6.9008Y-3.5677
X7.0849Y-3.4827
X7.0876Y-3.6655
X7.2122Y-4.3281
T5
X4.9014Y-3.813
T7
X4.9014Y-3.313
X4.9014Y-4.313
T6
G00X7.4152Y-3.3732
M15
G01X7.4585Y-3.3732
M16
G05
G00X7.4152Y-3.7134
M15
G01X7.4585Y-3.7134
M16
G05
G00X7.5896Y-3.3732
M15
G01X7.6132Y-3.3732
M16
G05
G00X7.5896Y-3.7134
M15
G01X7.6132Y-3.7134
M16
G05
M30
