%TF.GenerationSoftware,KiCad,Pcbnew,8.0.9*%
%TF.CreationDate,2025-05-16T14:56:25+01:00*%
%TF.ProjectId,bizcamera,62697a63-616d-4657-9261-2e6b69636164,rev?*%
%TF.SameCoordinates,Original*%
%TF.FileFunction,Copper,L3,Inr*%
%TF.FilePolarity,Positive*%
%FSLAX46Y46*%
G04 Gerber Fmt 4.6, Leading zero omitted, Abs format (unit mm)*
G04 Created by KiCad (PCBNEW 8.0.9) date 2025-05-16 14:56:25*
%MOMM*%
%LPD*%
G01*
G04 APERTURE LIST*
%TA.AperFunction,ComponentPad*%
%ADD10C,0.600000*%
%TD*%
%TA.AperFunction,ComponentPad*%
%ADD11C,3.000000*%
%TD*%
%TA.AperFunction,HeatsinkPad*%
%ADD12O,2.100000X1.000000*%
%TD*%
%TA.AperFunction,HeatsinkPad*%
%ADD13O,1.600000X1.000000*%
%TD*%
%TA.AperFunction,ViaPad*%
%ADD14C,0.500000*%
%TD*%
%TA.AperFunction,ViaPad*%
%ADD15C,0.350000*%
%TD*%
%TA.AperFunction,ViaPad*%
%ADD16C,1.000000*%
%TD*%
%TA.AperFunction,ViaPad*%
%ADD17C,0.600000*%
%TD*%
%TA.AperFunction,ViaPad*%
%ADD18C,0.700000*%
%TD*%
%TA.AperFunction,Conductor*%
%ADD19C,0.500000*%
%TD*%
%TA.AperFunction,Conductor*%
%ADD20C,0.350000*%
%TD*%
%TA.AperFunction,Conductor*%
%ADD21C,0.200000*%
%TD*%
%TA.AperFunction,Conductor*%
%ADD22C,1.000000*%
%TD*%
G04 APERTURE END LIST*
D10*
%TO.N,-BATT*%
%TO.C,U1*%
X178285000Y-104742500D03*
X179660000Y-103367500D03*
X179660000Y-106117500D03*
X181035000Y-104742500D03*
%TD*%
D11*
%TO.N,+BATT*%
%TO.C,BT1*%
X124495000Y-84150000D03*
X124495000Y-109550000D03*
%TD*%
D12*
%TO.N,-BATT*%
%TO.C,J3*%
X188895000Y-94320000D03*
D13*
X193075000Y-94320000D03*
D12*
X188895000Y-85680000D03*
D13*
X193075000Y-85680000D03*
%TD*%
D14*
%TO.N,+3V3*%
X126800000Y-115670000D03*
X126790000Y-115020000D03*
X125030000Y-113470000D03*
X121450000Y-118740000D03*
D15*
X184580000Y-96970000D03*
D14*
X153750000Y-101000000D03*
X162280000Y-92510000D03*
X148210000Y-115000000D03*
X177805000Y-97995000D03*
X145250000Y-92500000D03*
D15*
X181187500Y-99792500D03*
D14*
X161080000Y-112900000D03*
X178690000Y-91450000D03*
%TO.N,-BATT*%
X117630000Y-115655000D03*
X186810000Y-91590000D03*
X156110000Y-114230000D03*
X133550000Y-69250000D03*
D15*
X171480000Y-94620000D03*
D16*
X124495000Y-96850000D03*
D17*
X173140600Y-104348934D03*
D14*
X168825000Y-94405000D03*
X135100000Y-67030000D03*
X163100000Y-116090000D03*
X148190000Y-113700000D03*
D17*
X172300000Y-107000000D03*
D14*
X157320000Y-116040000D03*
D15*
X190120000Y-90670000D03*
D14*
X119140000Y-115655000D03*
D17*
X153400000Y-113740000D03*
D14*
X130420000Y-78110000D03*
D17*
X163640000Y-106260000D03*
D15*
X170120000Y-91260000D03*
D14*
X153770000Y-100120000D03*
X138840000Y-115180000D03*
X169013750Y-99066250D03*
D17*
X142660000Y-112160000D03*
D15*
X182147500Y-98842500D03*
X182630000Y-99440000D03*
D14*
X170480000Y-89810000D03*
D18*
X180026250Y-93103750D03*
D14*
%TO.N,+1V8*%
X175060000Y-99820000D03*
X187670000Y-106220000D03*
D18*
X174089502Y-96480000D03*
D15*
X184455000Y-101855000D03*
D14*
X159600000Y-108400000D03*
D18*
X179955993Y-88459579D03*
X143400000Y-112420000D03*
D14*
X164940000Y-104560000D03*
D18*
X183190000Y-109932500D03*
D15*
X182325000Y-103375000D03*
D14*
X177500000Y-107300000D03*
D18*
X175280000Y-90620000D03*
D14*
%TO.N,Net-(U3-~{CS})*%
X168880000Y-85660000D03*
D18*
X171611164Y-96416082D03*
%TO.N,/QSPI_SD0*%
X172415122Y-93794878D03*
X174500000Y-88820000D03*
D15*
%TO.N,Net-(U4-~{CE})*%
X168000000Y-90600000D03*
X166860000Y-89240000D03*
%TO.N,+1V1*%
X174300000Y-104220000D03*
D14*
X180997500Y-98217500D03*
X184170000Y-102900000D03*
X179987498Y-109912500D03*
%TO.N,/XOUT*%
X164160000Y-109810000D03*
D15*
X178247502Y-113392500D03*
D14*
%TO.N,Net-(U1-GPIO25)*%
X185140000Y-105690000D03*
X123200000Y-72500000D03*
%TO.N,+5V*%
X188255000Y-92400000D03*
X188255000Y-87600000D03*
D18*
%TO.N,Net-(D1-A)*%
X127010000Y-70350000D03*
D14*
X182192850Y-105835890D03*
D15*
%TO.N,/XTAL_EN*%
X181660000Y-109020000D03*
D17*
X163640000Y-104560000D03*
%TD*%
D19*
%TO.N,+1V8*%
X147290000Y-108410000D02*
X143400000Y-112300000D01*
X182512500Y-110610000D02*
X166440000Y-110610000D01*
X183190000Y-109932500D02*
X182512500Y-110610000D01*
X177050000Y-107750000D02*
X177500000Y-107300000D01*
X164940000Y-105300000D02*
X167390000Y-107750000D01*
D20*
X175280000Y-95289502D02*
X175280000Y-90620000D01*
D21*
X184455000Y-101855000D02*
X183845000Y-101855000D01*
D19*
X166440000Y-110610000D02*
X164240000Y-108410000D01*
X181009579Y-88459579D02*
X179955993Y-88459579D01*
X167390000Y-107750000D02*
X177050000Y-107750000D01*
X159610000Y-108410000D02*
X159600000Y-108400000D01*
X187670000Y-106220000D02*
X186560000Y-105110000D01*
X159600000Y-108400000D02*
X159590000Y-108410000D01*
D20*
X174089502Y-96480000D02*
X175280000Y-95289502D01*
X177440421Y-88459579D02*
X175280000Y-90620000D01*
D19*
X164940000Y-104560000D02*
X164940000Y-105300000D01*
X187670000Y-106220000D02*
X186902500Y-106220000D01*
D20*
X179955993Y-88459579D02*
X177440421Y-88459579D01*
D19*
X186560000Y-105110000D02*
X186560000Y-94010000D01*
D20*
X175060000Y-99820000D02*
X174550000Y-99310000D01*
D19*
X159590000Y-108410000D02*
X147290000Y-108410000D01*
D20*
X174550000Y-96940498D02*
X174089502Y-96480000D01*
X174550000Y-99310000D02*
X174550000Y-96940498D01*
D19*
X164240000Y-108410000D02*
X159610000Y-108410000D01*
X186560000Y-94010000D02*
X181009579Y-88459579D01*
X186902500Y-106220000D02*
X183190000Y-109932500D01*
D21*
X183845000Y-101855000D02*
X182325000Y-103375000D01*
D20*
%TO.N,Net-(U3-~{CS})*%
X171611164Y-96416082D02*
X171611164Y-95681164D01*
X168880000Y-92950000D02*
X168880000Y-85660000D01*
X171611164Y-95681164D02*
X168880000Y-92950000D01*
D21*
%TO.N,/QSPI_SD0*%
X174500000Y-88820000D02*
X172415122Y-90904878D01*
X172415122Y-90904878D02*
X172415122Y-93794878D01*
%TO.N,Net-(U4-~{CE})*%
X166860000Y-89240000D02*
X166860000Y-89460000D01*
X166860000Y-89460000D02*
X168000000Y-90600000D01*
%TO.N,+1V1*%
X174300000Y-104220000D02*
X174307500Y-104212500D01*
X182287500Y-109912500D02*
X179987498Y-109912500D01*
X184170000Y-102900000D02*
X185800000Y-104530000D01*
X177500000Y-101750000D02*
X180997500Y-98252500D01*
X185800000Y-104800000D02*
X185212500Y-104212500D01*
X184880000Y-102190000D02*
X184880000Y-101678959D01*
X183286459Y-100900000D02*
X180997500Y-98611041D01*
X184170000Y-102900000D02*
X184880000Y-102190000D01*
X174307500Y-104212500D02*
X177500000Y-104212500D01*
X185800000Y-104800000D02*
X185800000Y-106400000D01*
X177500000Y-104212500D02*
X177500000Y-101750000D01*
X180997500Y-98611041D02*
X180997500Y-98217500D01*
X180997500Y-98252500D02*
X180997500Y-98217500D01*
X184101041Y-100900000D02*
X183286459Y-100900000D01*
X184880000Y-101678959D02*
X184101041Y-100900000D01*
X185212500Y-104212500D02*
X177500000Y-104212500D01*
X185800000Y-106400000D02*
X182287500Y-109912500D01*
X185800000Y-104530000D02*
X185800000Y-104800000D01*
D20*
%TO.N,/XOUT*%
X164160000Y-109810000D02*
X164160000Y-110460000D01*
X164160000Y-110460000D02*
X167092500Y-113392500D01*
X167092500Y-113392500D02*
X178247502Y-113392500D01*
%TO.N,Net-(U1-GPIO25)*%
X173340000Y-107090000D02*
X138750000Y-72500000D01*
X176896827Y-107090000D02*
X173340000Y-107090000D01*
X177261827Y-106725000D02*
X176896827Y-107090000D01*
X138750000Y-72500000D02*
X123200000Y-72500000D01*
X184720000Y-105690000D02*
X183685000Y-106725000D01*
X183685000Y-106725000D02*
X177261827Y-106725000D01*
X185140000Y-105690000D02*
X184720000Y-105690000D01*
D19*
%TO.N,+5V*%
X188255000Y-87600000D02*
X188255000Y-92400000D01*
%TO.N,Net-(D1-A)*%
X137382060Y-70350000D02*
X172462060Y-105430000D01*
X172462060Y-105430000D02*
X176390000Y-105430000D01*
X182192850Y-105835890D02*
X181786960Y-105430000D01*
X181786960Y-105430000D02*
X176390000Y-105430000D01*
X127010000Y-70350000D02*
X137382060Y-70350000D01*
D21*
%TO.N,/XTAL_EN*%
X163640000Y-104560000D02*
X163640000Y-105020000D01*
X167640000Y-109020000D02*
X181660000Y-109020000D01*
X163640000Y-105020000D02*
X167640000Y-109020000D01*
D22*
%TO.N,+BATT*%
X122995000Y-85650000D02*
X122995000Y-108050000D01*
X124495000Y-84150000D02*
X122995000Y-85650000D01*
X122995000Y-108050000D02*
X124495000Y-109550000D01*
%TD*%
%TA.AperFunction,Conductor*%
%TO.N,+3V3*%
G36*
X180863541Y-98974461D02*
G01*
X180874089Y-98983313D01*
X183071244Y-101180468D01*
X183071246Y-101180469D01*
X183071247Y-101180470D01*
X183151171Y-101226614D01*
X183240315Y-101250500D01*
X183923137Y-101250500D01*
X183973917Y-101268982D01*
X183978998Y-101273639D01*
X184074998Y-101369639D01*
X184097836Y-101418615D01*
X184083850Y-101470813D01*
X184039584Y-101501808D01*
X184019137Y-101504500D01*
X183798853Y-101504500D01*
X183709714Y-101528385D01*
X183709710Y-101528386D01*
X183629785Y-101574531D01*
X182266062Y-102938254D01*
X182222560Y-102960420D01*
X182191878Y-102965279D01*
X182191874Y-102965280D01*
X182071777Y-103026473D01*
X181976473Y-103121777D01*
X181915280Y-103241875D01*
X181915279Y-103241880D01*
X181894196Y-103374997D01*
X181894196Y-103375002D01*
X181915279Y-103508119D01*
X181915280Y-103508124D01*
X181976473Y-103628222D01*
X182075390Y-103727139D01*
X182098228Y-103776115D01*
X182084242Y-103828313D01*
X182039976Y-103859308D01*
X182019529Y-103862000D01*
X180134643Y-103862000D01*
X180083863Y-103843518D01*
X180056843Y-103796718D01*
X180066227Y-103743500D01*
X180071968Y-103734908D01*
X180087145Y-103715128D01*
X180140861Y-103645125D01*
X180196330Y-103511209D01*
X180215250Y-103367500D01*
X180214256Y-103359953D01*
X180204012Y-103282142D01*
X180196330Y-103223791D01*
X180140861Y-103089875D01*
X180092210Y-103026472D01*
X180052621Y-102974878D01*
X179937625Y-102886639D01*
X179803709Y-102831170D01*
X179803706Y-102831169D01*
X179660001Y-102812250D01*
X179659999Y-102812250D01*
X179516293Y-102831169D01*
X179516290Y-102831170D01*
X179382374Y-102886639D01*
X179267378Y-102974878D01*
X179179139Y-103089874D01*
X179123670Y-103223790D01*
X179123669Y-103223793D01*
X179104750Y-103367499D01*
X179104750Y-103367500D01*
X179123669Y-103511206D01*
X179123670Y-103511209D01*
X179179139Y-103645125D01*
X179248032Y-103734908D01*
X179264282Y-103786446D01*
X179243602Y-103836372D01*
X179195669Y-103861324D01*
X179185357Y-103862000D01*
X177929500Y-103862000D01*
X177878720Y-103843518D01*
X177851700Y-103796718D01*
X177850500Y-103783000D01*
X177850500Y-101927903D01*
X177868982Y-101877123D01*
X177873628Y-101872053D01*
X180762368Y-98983312D01*
X180811343Y-98960475D01*
X180863541Y-98974461D01*
G37*
%TD.AperFunction*%
%TA.AperFunction,Conductor*%
G36*
X193002208Y-65300624D02*
G01*
X193297823Y-65317225D01*
X193306619Y-65318216D01*
X193596337Y-65367441D01*
X193604953Y-65369408D01*
X193887333Y-65450761D01*
X193895678Y-65453681D01*
X194167166Y-65566135D01*
X194175142Y-65569975D01*
X194432352Y-65712129D01*
X194439835Y-65716832D01*
X194679496Y-65886881D01*
X194686412Y-65892396D01*
X194863622Y-66050761D01*
X194905526Y-66088208D01*
X194911791Y-66094473D01*
X195107599Y-66313582D01*
X195113122Y-66320508D01*
X195283161Y-66560155D01*
X195287875Y-66567656D01*
X195430022Y-66824854D01*
X195433865Y-66832836D01*
X195546315Y-67104313D01*
X195549241Y-67112675D01*
X195630588Y-67395036D01*
X195632560Y-67403673D01*
X195681782Y-67693377D01*
X195682774Y-67702180D01*
X195699376Y-67997791D01*
X195699500Y-68002221D01*
X195699500Y-116997778D01*
X195699376Y-117002208D01*
X195682774Y-117297819D01*
X195681782Y-117306622D01*
X195632560Y-117596326D01*
X195630588Y-117604963D01*
X195549241Y-117887324D01*
X195546315Y-117895686D01*
X195433865Y-118167163D01*
X195430022Y-118175145D01*
X195287875Y-118432343D01*
X195283161Y-118439844D01*
X195113122Y-118679491D01*
X195107599Y-118686417D01*
X194911791Y-118905526D01*
X194905526Y-118911791D01*
X194686417Y-119107599D01*
X194679491Y-119113122D01*
X194439844Y-119283161D01*
X194432343Y-119287875D01*
X194175145Y-119430022D01*
X194167163Y-119433865D01*
X193895686Y-119546315D01*
X193887324Y-119549241D01*
X193604963Y-119630588D01*
X193596326Y-119632560D01*
X193306622Y-119681782D01*
X193297819Y-119682774D01*
X193002208Y-119699376D01*
X192997778Y-119699500D01*
X114502222Y-119699500D01*
X114497792Y-119699376D01*
X114202180Y-119682774D01*
X114193377Y-119681782D01*
X113903673Y-119632560D01*
X113895036Y-119630588D01*
X113612675Y-119549241D01*
X113604313Y-119546315D01*
X113332836Y-119433865D01*
X113324854Y-119430022D01*
X113067656Y-119287875D01*
X113060159Y-119283163D01*
X112820505Y-119113120D01*
X112813582Y-119107599D01*
X112782611Y-119079922D01*
X112594473Y-118911791D01*
X112588208Y-118905526D01*
X112392400Y-118686417D01*
X112386877Y-118679491D01*
X112259842Y-118500452D01*
X112216832Y-118439835D01*
X112212129Y-118432352D01*
X112069975Y-118175142D01*
X112066134Y-118167163D01*
X111953684Y-117895686D01*
X111950761Y-117887333D01*
X111869408Y-117604953D01*
X111867441Y-117596337D01*
X111818216Y-117306619D01*
X111817225Y-117297819D01*
X111800624Y-117002208D01*
X111800500Y-116997778D01*
X111800500Y-115655000D01*
X117124353Y-115655000D01*
X117144834Y-115797455D01*
X117204622Y-115928372D01*
X117204623Y-115928373D01*
X117298872Y-116037143D01*
X117419947Y-116114953D01*
X117558039Y-116155500D01*
X117701960Y-116155500D01*
X117701961Y-116155500D01*
X117840053Y-116114953D01*
X117961128Y-116037143D01*
X118055377Y-115928373D01*
X118115165Y-115797457D01*
X118135647Y-115655000D01*
X118634353Y-115655000D01*
X118654834Y-115797455D01*
X118714622Y-115928372D01*
X118714623Y-115928373D01*
X118808872Y-116037143D01*
X118929947Y-116114953D01*
X119068039Y-116155500D01*
X119211960Y-116155500D01*
X119211961Y-116155500D01*
X119350053Y-116114953D01*
X119466682Y-116040000D01*
X156814353Y-116040000D01*
X156834834Y-116182455D01*
X156894622Y-116313372D01*
X156894623Y-116313373D01*
X156988872Y-116422143D01*
X157109947Y-116499953D01*
X157248039Y-116540500D01*
X157391960Y-116540500D01*
X157391961Y-116540500D01*
X157530053Y-116499953D01*
X157651128Y-116422143D01*
X157745377Y-116313373D01*
X157805165Y-116182457D01*
X157818458Y-116090000D01*
X162594353Y-116090000D01*
X162614834Y-116232455D01*
X162674622Y-116363372D01*
X162674623Y-116363373D01*
X162768872Y-116472143D01*
X162889947Y-116549953D01*
X163028039Y-116590500D01*
X163171960Y-116590500D01*
X163171961Y-116590500D01*
X163310053Y-116549953D01*
X163431128Y-116472143D01*
X163525377Y-116363373D01*
X163585165Y-116232457D01*
X163605647Y-116090000D01*
X163585165Y-115947543D01*
X163525377Y-115816627D01*
X163431128Y-115707857D01*
X163310053Y-115630047D01*
X163171961Y-115589500D01*
X163028039Y-115589500D01*
X162889947Y-115630047D01*
X162889946Y-115630047D01*
X162768871Y-115707857D01*
X162674622Y-115816627D01*
X162614834Y-115947544D01*
X162594353Y-116090000D01*
X157818458Y-116090000D01*
X157825647Y-116040000D01*
X157805165Y-115897543D01*
X157745377Y-115766627D01*
X157651128Y-115657857D01*
X157530053Y-115580047D01*
X157391961Y-115539500D01*
X157248039Y-115539500D01*
X157109947Y-115580047D01*
X157109946Y-115580047D01*
X156988871Y-115657857D01*
X156894622Y-115766627D01*
X156834834Y-115897544D01*
X156814353Y-116040000D01*
X119466682Y-116040000D01*
X119471128Y-116037143D01*
X119565377Y-115928373D01*
X119625165Y-115797457D01*
X119645647Y-115655000D01*
X119625165Y-115512543D01*
X119565377Y-115381627D01*
X119471128Y-115272857D01*
X119350053Y-115195047D01*
X119298807Y-115180000D01*
X138334353Y-115180000D01*
X138354834Y-115322455D01*
X138414622Y-115453372D01*
X138465895Y-115512544D01*
X138508872Y-115562143D01*
X138629947Y-115639953D01*
X138768039Y-115680500D01*
X138911960Y-115680500D01*
X138911961Y-115680500D01*
X139050053Y-115639953D01*
X139171128Y-115562143D01*
X139265377Y-115453373D01*
X139325165Y-115322457D01*
X139345647Y-115180000D01*
X139325165Y-115037543D01*
X139265377Y-114906627D01*
X139171128Y-114797857D01*
X139050053Y-114720047D01*
X138911961Y-114679500D01*
X138768039Y-114679500D01*
X138629947Y-114720047D01*
X138629946Y-114720047D01*
X138508871Y-114797857D01*
X138414622Y-114906627D01*
X138354834Y-115037544D01*
X138334353Y-115180000D01*
X119298807Y-115180000D01*
X119211961Y-115154500D01*
X119068039Y-115154500D01*
X118929947Y-115195047D01*
X118929946Y-115195047D01*
X118808871Y-115272857D01*
X118714622Y-115381627D01*
X118654834Y-115512544D01*
X118634353Y-115655000D01*
X118135647Y-115655000D01*
X118115165Y-115512543D01*
X118055377Y-115381627D01*
X117961128Y-115272857D01*
X117840053Y-115195047D01*
X117701961Y-115154500D01*
X117558039Y-115154500D01*
X117419947Y-115195047D01*
X117419946Y-115195047D01*
X117298871Y-115272857D01*
X117204622Y-115381627D01*
X117144834Y-115512544D01*
X117124353Y-115655000D01*
X111800500Y-115655000D01*
X111800500Y-113700000D01*
X147684353Y-113700000D01*
X147704834Y-113842455D01*
X147764622Y-113973372D01*
X147764623Y-113973373D01*
X147858872Y-114082143D01*
X147979947Y-114159953D01*
X148118039Y-114200500D01*
X148261960Y-114200500D01*
X148261961Y-114200500D01*
X148400053Y-114159953D01*
X148521128Y-114082143D01*
X148615377Y-113973373D01*
X148675165Y-113842457D01*
X148689896Y-113739999D01*
X152844750Y-113739999D01*
X152844750Y-113740000D01*
X152863669Y-113883706D01*
X152863670Y-113883709D01*
X152919139Y-114017625D01*
X153007378Y-114132621D01*
X153095618Y-114200329D01*
X153122375Y-114220861D01*
X153256291Y-114276330D01*
X153352097Y-114288943D01*
X153399999Y-114295250D01*
X153400000Y-114295250D01*
X153400001Y-114295250D01*
X153435927Y-114290520D01*
X153543709Y-114276330D01*
X153655561Y-114230000D01*
X155604353Y-114230000D01*
X155624834Y-114372455D01*
X155684622Y-114503372D01*
X155684623Y-114503373D01*
X155778872Y-114612143D01*
X155899947Y-114689953D01*
X156038039Y-114730500D01*
X156181960Y-114730500D01*
X156181961Y-114730500D01*
X156320053Y-114689953D01*
X156441128Y-114612143D01*
X156535377Y-114503373D01*
X156595165Y-114372457D01*
X156615647Y-114230000D01*
X156595165Y-114087543D01*
X156535377Y-113956627D01*
X156441128Y-113847857D01*
X156320053Y-113770047D01*
X156181961Y-113729500D01*
X156038039Y-113729500D01*
X155899947Y-113770047D01*
X155899946Y-113770047D01*
X155778871Y-113847857D01*
X155684622Y-113956627D01*
X155624834Y-114087544D01*
X155604353Y-114230000D01*
X153655561Y-114230000D01*
X153677625Y-114220861D01*
X153792621Y-114132621D01*
X153880861Y-114017625D01*
X153936330Y-113883709D01*
X153955250Y-113740000D01*
X153954326Y-113732985D01*
X153942838Y-113645726D01*
X153936330Y-113596291D01*
X153880861Y-113462375D01*
X153857709Y-113432203D01*
X153792621Y-113347378D01*
X153677625Y-113259139D01*
X153543709Y-113203670D01*
X153543706Y-113203669D01*
X153400001Y-113184750D01*
X153399999Y-113184750D01*
X153256293Y-113203669D01*
X153256290Y-113203670D01*
X153122374Y-113259139D01*
X153007378Y-113347378D01*
X152919139Y-113462374D01*
X152863670Y-113596290D01*
X152863669Y-113596293D01*
X152844750Y-113739999D01*
X148689896Y-113739999D01*
X148695647Y-113700000D01*
X148675165Y-113557543D01*
X148615377Y-113426627D01*
X148521128Y-113317857D01*
X148400053Y-113240047D01*
X148261961Y-113199500D01*
X148118039Y-113199500D01*
X147979947Y-113240047D01*
X147979946Y-113240047D01*
X147858871Y-113317857D01*
X147764622Y-113426627D01*
X147704834Y-113557544D01*
X147684353Y-113700000D01*
X111800500Y-113700000D01*
X111800500Y-85576082D01*
X122244500Y-85576082D01*
X122244500Y-108123917D01*
X122273341Y-108268913D01*
X122273342Y-108268915D01*
X122329913Y-108405489D01*
X122329915Y-108405493D01*
X122351270Y-108437454D01*
X122391880Y-108498232D01*
X122412048Y-108528416D01*
X122808805Y-108925173D01*
X122831643Y-108974149D01*
X122826484Y-109009892D01*
X122817580Y-109032582D01*
X122817578Y-109032587D01*
X122759198Y-109288364D01*
X122759198Y-109288370D01*
X122739592Y-109549998D01*
X122739592Y-109550001D01*
X122759198Y-109811629D01*
X122759198Y-109811635D01*
X122817577Y-110067410D01*
X122913431Y-110311642D01*
X123044614Y-110538857D01*
X123190079Y-110721265D01*
X123208195Y-110743981D01*
X123400521Y-110922433D01*
X123617296Y-111070228D01*
X123853677Y-111184063D01*
X123853679Y-111184063D01*
X123853680Y-111184064D01*
X124104378Y-111261394D01*
X124104380Y-111261394D01*
X124104385Y-111261396D01*
X124363818Y-111300500D01*
X124363822Y-111300500D01*
X124626178Y-111300500D01*
X124626182Y-111300500D01*
X124885615Y-111261396D01*
X124885620Y-111261394D01*
X124885622Y-111261394D01*
X124987171Y-111230070D01*
X125136323Y-111184063D01*
X125372704Y-111070228D01*
X125589479Y-110922433D01*
X125781805Y-110743981D01*
X125945386Y-110538857D01*
X126076568Y-110311643D01*
X126172420Y-110067416D01*
X126172420Y-110067413D01*
X126172422Y-110067410D01*
X126230801Y-109811635D01*
X126230801Y-109811634D01*
X126230802Y-109811630D01*
X126250408Y-109550000D01*
X126230802Y-109288370D01*
X126230801Y-109288364D01*
X126172422Y-109032589D01*
X126076568Y-108788357D01*
X125945386Y-108561143D01*
X125781805Y-108356019D01*
X125631323Y-108216392D01*
X125589477Y-108177565D01*
X125372707Y-108029774D01*
X125372706Y-108029773D01*
X125372704Y-108029772D01*
X125136323Y-107915937D01*
X125136320Y-107915936D01*
X125136319Y-107915935D01*
X124885621Y-107838605D01*
X124885623Y-107838605D01*
X124819592Y-107828652D01*
X124626182Y-107799500D01*
X124363818Y-107799500D01*
X124170407Y-107828652D01*
X124104377Y-107838605D01*
X123951613Y-107885727D01*
X123897641Y-107883034D01*
X123872466Y-107866098D01*
X123768639Y-107762271D01*
X123745801Y-107713295D01*
X123745500Y-107706410D01*
X123745500Y-100120000D01*
X153264353Y-100120000D01*
X153284834Y-100262455D01*
X153344622Y-100393372D01*
X153344623Y-100393373D01*
X153438872Y-100502143D01*
X153559947Y-100579953D01*
X153698039Y-100620500D01*
X153841960Y-100620500D01*
X153841961Y-100620500D01*
X153980053Y-100579953D01*
X154101128Y-100502143D01*
X154195377Y-100393373D01*
X154255165Y-100262457D01*
X154275647Y-100120000D01*
X154255165Y-99977543D01*
X154195377Y-99846627D01*
X154101128Y-99737857D01*
X153980053Y-99660047D01*
X153841961Y-99619500D01*
X153698039Y-99619500D01*
X153559947Y-99660047D01*
X153559946Y-99660047D01*
X153438871Y-99737857D01*
X153344622Y-99846627D01*
X153284834Y-99977544D01*
X153264353Y-100120000D01*
X123745500Y-100120000D01*
X123745500Y-97342021D01*
X123763982Y-97291241D01*
X123810782Y-97264221D01*
X123864000Y-97273605D01*
X123891390Y-97299989D01*
X123904523Y-97320890D01*
X123904525Y-97320893D01*
X124024107Y-97440475D01*
X124167308Y-97530455D01*
X124167312Y-97530457D01*
X124212959Y-97546429D01*
X124326941Y-97586313D01*
X124326944Y-97586313D01*
X124326946Y-97586314D01*
X124494997Y-97605249D01*
X124495000Y-97605249D01*
X124495003Y-97605249D01*
X124663053Y-97586314D01*
X124663054Y-97586314D01*
X124663055Y-97586313D01*
X124663059Y-97586313D01*
X124822690Y-97530456D01*
X124965890Y-97440477D01*
X125085477Y-97320890D01*
X125175456Y-97177690D01*
X125231313Y-97018059D01*
X125231314Y-97018053D01*
X125250249Y-96850003D01*
X125250249Y-96849996D01*
X125231314Y-96681946D01*
X125231314Y-96681945D01*
X125230365Y-96679234D01*
X125193139Y-96572844D01*
X125175457Y-96522312D01*
X125175455Y-96522308D01*
X125120398Y-96434686D01*
X125085477Y-96379110D01*
X125085475Y-96379108D01*
X125085475Y-96379107D01*
X124965892Y-96259524D01*
X124822691Y-96169544D01*
X124822687Y-96169542D01*
X124663053Y-96113685D01*
X124495003Y-96094751D01*
X124494997Y-96094751D01*
X124326946Y-96113685D01*
X124326945Y-96113685D01*
X124167312Y-96169542D01*
X124167308Y-96169544D01*
X124024108Y-96259524D01*
X124024107Y-96259524D01*
X123904524Y-96379107D01*
X123904524Y-96379108D01*
X123891391Y-96400009D01*
X123848724Y-96433172D01*
X123794723Y-96431151D01*
X123754655Y-96394892D01*
X123745500Y-96357978D01*
X123745500Y-85993589D01*
X123763982Y-85942809D01*
X123768627Y-85937739D01*
X123872467Y-85833899D01*
X123921440Y-85811063D01*
X123951612Y-85814272D01*
X124104378Y-85861394D01*
X124104380Y-85861394D01*
X124104385Y-85861396D01*
X124363818Y-85900500D01*
X124363822Y-85900500D01*
X124626178Y-85900500D01*
X124626182Y-85900500D01*
X124885615Y-85861396D01*
X124885620Y-85861394D01*
X124885622Y-85861394D01*
X124987171Y-85830070D01*
X125136323Y-85784063D01*
X125372704Y-85670228D01*
X125589479Y-85522433D01*
X125781805Y-85343981D01*
X125945386Y-85138857D01*
X126076568Y-84911643D01*
X126172420Y-84667416D01*
X126172421Y-84667412D01*
X126172422Y-84667410D01*
X126230801Y-84411635D01*
X126230801Y-84411634D01*
X126230802Y-84411630D01*
X126250408Y-84150000D01*
X126230802Y-83888370D01*
X126230801Y-83888364D01*
X126172422Y-83632589D01*
X126076568Y-83388357D01*
X125945385Y-83161142D01*
X125781805Y-82956019D01*
X125589477Y-82777565D01*
X125372707Y-82629774D01*
X125372706Y-82629773D01*
X125372704Y-82629772D01*
X125136323Y-82515937D01*
X125136320Y-82515936D01*
X125136319Y-82515935D01*
X124885621Y-82438605D01*
X124885623Y-82438605D01*
X124819592Y-82428652D01*
X124626182Y-82399500D01*
X124363818Y-82399500D01*
X124170407Y-82428652D01*
X124104377Y-82438605D01*
X123853680Y-82515935D01*
X123853679Y-82515936D01*
X123617292Y-82629774D01*
X123400522Y-82777565D01*
X123208194Y-82956019D01*
X123044614Y-83161142D01*
X122913431Y-83388357D01*
X122817577Y-83632589D01*
X122759198Y-83888364D01*
X122759198Y-83888370D01*
X122739592Y-84149998D01*
X122739592Y-84150001D01*
X122759198Y-84411629D01*
X122759198Y-84411635D01*
X122817578Y-84667412D01*
X122817578Y-84667414D01*
X122826483Y-84690102D01*
X122827830Y-84744124D01*
X122808806Y-84774824D01*
X122412049Y-85171582D01*
X122370010Y-85234500D01*
X122329916Y-85294504D01*
X122329913Y-85294510D01*
X122273342Y-85431084D01*
X122273341Y-85431086D01*
X122244500Y-85576082D01*
X111800500Y-85576082D01*
X111800500Y-78110000D01*
X129914353Y-78110000D01*
X129934834Y-78252455D01*
X129994622Y-78383372D01*
X129994623Y-78383373D01*
X130088872Y-78492143D01*
X130209947Y-78569953D01*
X130348039Y-78610500D01*
X130491960Y-78610500D01*
X130491961Y-78610500D01*
X130630053Y-78569953D01*
X130751128Y-78492143D01*
X130845377Y-78383373D01*
X130905165Y-78252457D01*
X130925647Y-78110000D01*
X130905165Y-77967543D01*
X130845377Y-77836627D01*
X130751128Y-77727857D01*
X130630053Y-77650047D01*
X130491961Y-77609500D01*
X130348039Y-77609500D01*
X130209947Y-77650047D01*
X130209946Y-77650047D01*
X130088871Y-77727857D01*
X129994622Y-77836627D01*
X129934834Y-77967544D01*
X129914353Y-78110000D01*
X111800500Y-78110000D01*
X111800500Y-72500000D01*
X122694353Y-72500000D01*
X122714834Y-72642455D01*
X122774622Y-72773372D01*
X122774623Y-72773373D01*
X122868872Y-72882143D01*
X122989947Y-72959953D01*
X123128039Y-73000500D01*
X123271960Y-73000500D01*
X123271961Y-73000500D01*
X123410053Y-72959953D01*
X123427658Y-72948639D01*
X123444150Y-72938041D01*
X123486860Y-72925500D01*
X138541030Y-72925500D01*
X138591810Y-72943982D01*
X138596891Y-72948639D01*
X172041511Y-106393259D01*
X172064349Y-106442235D01*
X172050363Y-106494433D01*
X172025157Y-106517532D01*
X172022378Y-106519136D01*
X171907378Y-106607378D01*
X171819139Y-106722374D01*
X171763670Y-106856290D01*
X171763669Y-106856293D01*
X171744750Y-106999999D01*
X171744750Y-107000000D01*
X171763669Y-107143706D01*
X171765011Y-107148712D01*
X171762644Y-107149346D01*
X171764597Y-107194270D01*
X171731692Y-107237136D01*
X171689258Y-107249500D01*
X167630035Y-107249500D01*
X167579255Y-107231018D01*
X167574174Y-107226361D01*
X165463639Y-105115825D01*
X165440801Y-105066849D01*
X165440500Y-105059964D01*
X165440500Y-104601448D01*
X165441304Y-104590205D01*
X165445647Y-104560000D01*
X165441304Y-104529792D01*
X165440500Y-104518550D01*
X165440500Y-104494110D01*
X165440499Y-104494105D01*
X165440498Y-104494103D01*
X165432380Y-104463803D01*
X165430493Y-104454603D01*
X165425165Y-104417543D01*
X165415368Y-104396091D01*
X165410923Y-104383726D01*
X165406392Y-104366814D01*
X165387245Y-104333651D01*
X165383802Y-104326971D01*
X165365378Y-104286628D01*
X165354488Y-104274060D01*
X165345777Y-104261827D01*
X165340500Y-104252686D01*
X165308531Y-104220717D01*
X165304701Y-104216603D01*
X165271129Y-104177858D01*
X165271128Y-104177857D01*
X165262998Y-104172632D01*
X165249850Y-104162036D01*
X165247314Y-104159500D01*
X165246374Y-104158957D01*
X165202191Y-104133447D01*
X165198982Y-104131491D01*
X165150054Y-104100047D01*
X165150048Y-104100045D01*
X165147481Y-104099291D01*
X165138098Y-104095273D01*
X165137968Y-104095588D01*
X165133186Y-104093607D01*
X165076207Y-104078340D01*
X165074398Y-104077832D01*
X165011962Y-104059500D01*
X165011961Y-104059500D01*
X164868039Y-104059500D01*
X164868038Y-104059500D01*
X164805611Y-104077829D01*
X164803803Y-104078337D01*
X164746813Y-104093608D01*
X164742032Y-104095588D01*
X164741902Y-104095275D01*
X164732527Y-104099289D01*
X164729950Y-104100046D01*
X164729947Y-104100047D01*
X164729946Y-104100047D01*
X164729940Y-104100050D01*
X164680993Y-104131505D01*
X164677786Y-104133460D01*
X164632686Y-104159499D01*
X164632677Y-104159505D01*
X164630138Y-104162045D01*
X164617002Y-104172630D01*
X164608878Y-104177851D01*
X164608873Y-104177856D01*
X164575295Y-104216605D01*
X164571455Y-104220729D01*
X164539501Y-104252684D01*
X164534220Y-104261831D01*
X164525513Y-104274058D01*
X164514624Y-104286624D01*
X164514621Y-104286630D01*
X164496194Y-104326975D01*
X164492753Y-104333651D01*
X164473607Y-104366815D01*
X164473605Y-104366820D01*
X164469074Y-104383729D01*
X164464630Y-104396093D01*
X164454834Y-104417545D01*
X164449505Y-104454605D01*
X164447618Y-104463803D01*
X164439500Y-104494103D01*
X164439500Y-104518550D01*
X164438696Y-104529792D01*
X164434353Y-104559999D01*
X164438696Y-104590205D01*
X164439500Y-104601448D01*
X164439500Y-105133096D01*
X164421018Y-105183876D01*
X164374218Y-105210896D01*
X164321000Y-105201512D01*
X164304639Y-105188957D01*
X164097102Y-104981420D01*
X164074264Y-104932444D01*
X164088250Y-104880246D01*
X164090276Y-104877483D01*
X164120861Y-104837625D01*
X164176330Y-104703709D01*
X164195250Y-104560000D01*
X164176330Y-104416291D01*
X164120861Y-104282375D01*
X164098078Y-104252684D01*
X164032621Y-104167378D01*
X163917625Y-104079139D01*
X163783709Y-104023670D01*
X163783706Y-104023669D01*
X163640001Y-104004750D01*
X163639999Y-104004750D01*
X163496293Y-104023669D01*
X163496290Y-104023670D01*
X163362374Y-104079139D01*
X163247378Y-104167378D01*
X163159139Y-104282374D01*
X163103670Y-104416290D01*
X163103669Y-104416293D01*
X163084750Y-104559999D01*
X163084750Y-104560000D01*
X163103669Y-104703706D01*
X163103670Y-104703709D01*
X163159139Y-104837625D01*
X163247378Y-104952621D01*
X163253757Y-104957515D01*
X163258589Y-104961223D01*
X163287627Y-105006796D01*
X163289500Y-105023899D01*
X163289500Y-105066144D01*
X163312102Y-105150495D01*
X163312103Y-105150500D01*
X163313385Y-105155285D01*
X163313386Y-105155288D01*
X163359530Y-105235212D01*
X163694207Y-105569889D01*
X163717045Y-105618865D01*
X163703059Y-105671062D01*
X163658793Y-105702058D01*
X163645105Y-105703860D01*
X163645134Y-105704074D01*
X163496293Y-105723669D01*
X163496290Y-105723670D01*
X163362374Y-105779139D01*
X163247378Y-105867378D01*
X163159139Y-105982374D01*
X163103670Y-106116290D01*
X163103669Y-106116293D01*
X163084750Y-106259999D01*
X163084750Y-106260000D01*
X163103669Y-106403706D01*
X163103670Y-106403709D01*
X163159139Y-106537625D01*
X163247378Y-106652621D01*
X163335618Y-106720329D01*
X163362375Y-106740861D01*
X163496291Y-106796330D01*
X163592097Y-106808943D01*
X163639999Y-106815250D01*
X163640000Y-106815250D01*
X163640001Y-106815250D01*
X163675927Y-106810520D01*
X163783709Y-106796330D01*
X163917625Y-106740861D01*
X164032621Y-106652621D01*
X164120861Y-106537625D01*
X164176330Y-106403709D01*
X164195250Y-106260000D01*
X164195250Y-106259999D01*
X164195926Y-106254866D01*
X164197638Y-106255091D01*
X164213732Y-106210873D01*
X164260532Y-106183853D01*
X164313750Y-106193237D01*
X164330106Y-106205788D01*
X167359531Y-109235212D01*
X167397539Y-109273220D01*
X167424789Y-109300470D01*
X167504710Y-109346613D01*
X167504712Y-109346614D01*
X167593856Y-109370500D01*
X179636063Y-109370500D01*
X179686843Y-109388982D01*
X179713863Y-109435782D01*
X179704479Y-109489000D01*
X179678774Y-109515959D01*
X179656369Y-109530357D01*
X179562120Y-109639127D01*
X179502332Y-109770044D01*
X179481851Y-109912500D01*
X179497200Y-110019257D01*
X179486132Y-110072151D01*
X179443654Y-110105556D01*
X179419004Y-110109500D01*
X166680036Y-110109500D01*
X166629256Y-110091018D01*
X166624175Y-110086361D01*
X164547316Y-108009501D01*
X164433187Y-107943608D01*
X164433183Y-107943607D01*
X164305894Y-107909500D01*
X164305892Y-107909500D01*
X159717377Y-107909500D01*
X159695120Y-107906300D01*
X159671961Y-107899500D01*
X159528039Y-107899500D01*
X159504880Y-107906300D01*
X159482623Y-107909500D01*
X147224105Y-107909500D01*
X147096816Y-107943607D01*
X147096812Y-107943608D01*
X146982683Y-108009501D01*
X143191076Y-111801108D01*
X143142100Y-111823946D01*
X143089902Y-111809960D01*
X143072542Y-111793341D01*
X143052621Y-111767379D01*
X142937625Y-111679139D01*
X142803709Y-111623670D01*
X142803706Y-111623669D01*
X142660001Y-111604750D01*
X142659999Y-111604750D01*
X142516293Y-111623669D01*
X142516290Y-111623670D01*
X142382374Y-111679139D01*
X142267378Y-111767378D01*
X142179139Y-111882374D01*
X142123670Y-112016290D01*
X142123669Y-112016293D01*
X142104750Y-112159999D01*
X142104750Y-112160000D01*
X142123669Y-112303706D01*
X142123670Y-112303709D01*
X142179139Y-112437625D01*
X142267378Y-112552621D01*
X142355618Y-112620329D01*
X142382375Y-112640861D01*
X142516291Y-112696330D01*
X142603648Y-112707831D01*
X142659999Y-112715250D01*
X142660000Y-112715250D01*
X142803709Y-112696330D01*
X142803712Y-112696328D01*
X142805183Y-112696135D01*
X142857941Y-112707831D01*
X142878170Y-112726367D01*
X142971717Y-112848282D01*
X143026180Y-112890072D01*
X143097159Y-112944536D01*
X143097161Y-112944537D01*
X143097163Y-112944538D01*
X143189490Y-112982781D01*
X143243238Y-113005044D01*
X143337122Y-113017404D01*
X143399999Y-113025682D01*
X143400000Y-113025682D01*
X143400001Y-113025682D01*
X143455054Y-113018434D01*
X143556762Y-113005044D01*
X143702841Y-112944536D01*
X143828282Y-112848282D01*
X143924536Y-112722841D01*
X143985044Y-112576762D01*
X144004891Y-112426006D01*
X144027353Y-112380459D01*
X147474175Y-108933639D01*
X147523151Y-108910801D01*
X147530036Y-108910500D01*
X159524108Y-108910500D01*
X159544107Y-108910500D01*
X159544108Y-108910500D01*
X163999964Y-108910500D01*
X164050744Y-108928982D01*
X164055825Y-108933639D01*
X164297387Y-109175201D01*
X164320225Y-109224177D01*
X164306239Y-109276375D01*
X164261973Y-109307370D01*
X164237611Y-109308823D01*
X164237611Y-109309500D01*
X164088039Y-109309500D01*
X163949947Y-109350047D01*
X163949946Y-109350047D01*
X163828871Y-109427857D01*
X163734622Y-109536627D01*
X163674834Y-109667544D01*
X163654353Y-109810000D01*
X163674834Y-109952455D01*
X163674835Y-109952458D01*
X163727361Y-110067471D01*
X163734500Y-110100289D01*
X163734500Y-110516020D01*
X163763496Y-110624234D01*
X163763497Y-110624238D01*
X163819516Y-110721265D01*
X166749251Y-113650998D01*
X166749256Y-113651004D01*
X166749257Y-113651004D01*
X166752013Y-113653760D01*
X166752015Y-113653763D01*
X166831237Y-113732985D01*
X166895430Y-113770047D01*
X166928259Y-113789001D01*
X166928263Y-113789003D01*
X167036481Y-113818000D01*
X167036482Y-113818000D01*
X178207799Y-113818000D01*
X178220156Y-113818972D01*
X178231832Y-113820822D01*
X178247501Y-113823304D01*
X178247502Y-113823304D01*
X178247503Y-113823304D01*
X178263171Y-113820822D01*
X178274847Y-113818972D01*
X178287205Y-113818000D01*
X178303517Y-113818000D01*
X178303520Y-113818000D01*
X178332109Y-113810338D01*
X178340160Y-113808628D01*
X178380628Y-113802219D01*
X178388679Y-113798116D01*
X178393426Y-113795698D01*
X178408851Y-113789776D01*
X178411739Y-113789003D01*
X178448835Y-113767584D01*
X178452412Y-113765642D01*
X178500722Y-113741028D01*
X178596030Y-113645720D01*
X178620644Y-113597410D01*
X178622586Y-113593833D01*
X178644005Y-113556737D01*
X178644778Y-113553849D01*
X178650700Y-113538424D01*
X178657219Y-113525629D01*
X178657220Y-113525628D01*
X178657220Y-113525627D01*
X178657221Y-113525626D01*
X178663630Y-113485158D01*
X178665340Y-113477107D01*
X178673002Y-113448518D01*
X178673002Y-113432203D01*
X178673975Y-113419844D01*
X178678306Y-113392501D01*
X178678306Y-113392498D01*
X178673975Y-113365155D01*
X178673002Y-113352796D01*
X178673002Y-113336484D01*
X178673002Y-113336482D01*
X178665341Y-113307891D01*
X178663630Y-113299844D01*
X178657221Y-113259374D01*
X178650699Y-113246575D01*
X178644780Y-113231155D01*
X178644005Y-113228262D01*
X178622600Y-113191188D01*
X178620626Y-113187553D01*
X178596028Y-113139277D01*
X178500724Y-113043973D01*
X178498272Y-113042723D01*
X178452442Y-113019372D01*
X178448819Y-113017404D01*
X178411742Y-112995998D01*
X178411743Y-112995998D01*
X178411366Y-112995897D01*
X178408844Y-112995221D01*
X178393437Y-112989307D01*
X178380628Y-112982781D01*
X178380626Y-112982780D01*
X178380623Y-112982779D01*
X178380624Y-112982779D01*
X178340171Y-112976372D01*
X178332087Y-112974654D01*
X178331541Y-112974507D01*
X178303520Y-112967000D01*
X178303519Y-112967000D01*
X178287205Y-112967000D01*
X178274847Y-112966027D01*
X178263171Y-112964177D01*
X178247503Y-112961696D01*
X178247501Y-112961696D01*
X178231832Y-112964177D01*
X178220156Y-112966027D01*
X178207799Y-112967000D01*
X167301469Y-112967000D01*
X167250689Y-112948518D01*
X167245608Y-112943861D01*
X164608639Y-110306891D01*
X164585801Y-110257915D01*
X164585500Y-110251030D01*
X164585500Y-110100289D01*
X164592639Y-110067471D01*
X164600565Y-110050116D01*
X164645165Y-109952457D01*
X164665647Y-109810000D01*
X164654668Y-109733641D01*
X164665735Y-109680751D01*
X164708213Y-109647346D01*
X164762225Y-109649060D01*
X164788725Y-109666540D01*
X166132683Y-111010498D01*
X166236137Y-111070228D01*
X166246814Y-111076392D01*
X166374108Y-111110500D01*
X166374110Y-111110500D01*
X182578390Y-111110500D01*
X182578392Y-111110500D01*
X182705686Y-111076392D01*
X182819814Y-111010500D01*
X183288655Y-110541658D01*
X183334205Y-110519196D01*
X183346762Y-110517544D01*
X183492841Y-110457036D01*
X183618282Y-110360782D01*
X183714536Y-110235341D01*
X183775044Y-110089262D01*
X183776696Y-110076705D01*
X183799159Y-110031153D01*
X187086675Y-106743639D01*
X187135651Y-106720801D01*
X187142536Y-106720500D01*
X187741961Y-106720500D01*
X187804423Y-106702158D01*
X187806203Y-106701660D01*
X187863182Y-106686393D01*
X187863181Y-106686393D01*
X187863186Y-106686392D01*
X187863190Y-106686389D01*
X187867968Y-106684411D01*
X187868099Y-106684727D01*
X187877495Y-106680704D01*
X187880053Y-106679953D01*
X187929006Y-106648491D01*
X187932180Y-106646557D01*
X187977314Y-106620500D01*
X187979845Y-106617969D01*
X187993004Y-106607363D01*
X188001128Y-106602143D01*
X188034710Y-106563385D01*
X188038526Y-106559286D01*
X188070500Y-106527314D01*
X188075780Y-106518167D01*
X188084488Y-106505937D01*
X188095377Y-106493373D01*
X188113807Y-106453015D01*
X188117246Y-106446347D01*
X188136390Y-106413190D01*
X188136390Y-106413188D01*
X188136392Y-106413186D01*
X188140925Y-106396266D01*
X188145372Y-106383899D01*
X188155165Y-106362457D01*
X188160047Y-106328497D01*
X188160493Y-106325392D01*
X188162378Y-106316199D01*
X188170500Y-106285892D01*
X188170500Y-106261448D01*
X188171304Y-106250205D01*
X188173290Y-106236390D01*
X188175647Y-106220000D01*
X188171304Y-106189792D01*
X188170500Y-106178550D01*
X188170500Y-106154110D01*
X188170499Y-106154105D01*
X188162381Y-106123807D01*
X188160493Y-106114603D01*
X188155165Y-106077543D01*
X188145368Y-106056091D01*
X188140923Y-106043726D01*
X188136392Y-106026814D01*
X188117245Y-105993651D01*
X188113802Y-105986971D01*
X188095378Y-105946628D01*
X188084488Y-105934060D01*
X188075777Y-105921827D01*
X188070500Y-105912686D01*
X188038531Y-105880717D01*
X188034701Y-105876603D01*
X188001128Y-105837857D01*
X187993001Y-105832634D01*
X187979849Y-105822035D01*
X187083639Y-104925825D01*
X187060801Y-104876849D01*
X187060500Y-104869964D01*
X187060500Y-94246082D01*
X187594500Y-94246082D01*
X187594500Y-94393918D01*
X187599285Y-94417973D01*
X187623341Y-94538913D01*
X187623342Y-94538915D01*
X187679913Y-94675489D01*
X187679916Y-94675495D01*
X187762047Y-94798414D01*
X187762053Y-94798421D01*
X187866578Y-94902946D01*
X187866585Y-94902952D01*
X187928044Y-94944017D01*
X187989505Y-94985084D01*
X187989510Y-94985086D01*
X188126084Y-95041657D01*
X188126086Y-95041658D01*
X188271082Y-95070500D01*
X189518918Y-95070500D01*
X189663913Y-95041658D01*
X189663915Y-95041657D01*
X189800495Y-94985084D01*
X189923416Y-94902951D01*
X190027951Y-94798416D01*
X190110084Y-94675495D01*
X190166658Y-94538913D01*
X190195500Y-94393918D01*
X190195500Y-94246082D01*
X192024500Y-94246082D01*
X192024500Y-94393918D01*
X192029285Y-94417973D01*
X192053341Y-94538913D01*
X192053342Y-94538915D01*
X192109913Y-94675489D01*
X192109916Y-94675495D01*
X192192047Y-94798414D01*
X192192053Y-94798421D01*
X192296578Y-94902946D01*
X192296585Y-94902952D01*
X192358044Y-94944017D01*
X192419505Y-94985084D01*
X192419510Y-94985086D01*
X192556084Y-95041657D01*
X192556086Y-95041658D01*
X192701082Y-95070500D01*
X193448918Y-95070500D01*
X193593913Y-95041658D01*
X193593915Y-95041657D01*
X193730495Y-94985084D01*
X193853416Y-94902951D01*
X193957951Y-94798416D01*
X194040084Y-94675495D01*
X194096658Y-94538913D01*
X194125500Y-94393918D01*
X194125500Y-94246082D01*
X194096658Y-94101087D01*
X194040084Y-93964505D01*
X193998929Y-93902912D01*
X193957952Y-93841585D01*
X193957946Y-93841578D01*
X193853421Y-93737053D01*
X193853414Y-93737047D01*
X193730495Y-93654916D01*
X193730489Y-93654913D01*
X193593915Y-93598342D01*
X193593913Y-93598341D01*
X193448918Y-93569500D01*
X192701082Y-93569500D01*
X192556086Y-93598341D01*
X192556084Y-93598342D01*
X192419510Y-93654913D01*
X192419504Y-93654916D01*
X192296585Y-93737047D01*
X192296578Y-93737053D01*
X192192053Y-93841578D01*
X192192047Y-93841585D01*
X192109916Y-93964504D01*
X192109913Y-93964510D01*
X192053342Y-94101084D01*
X192053341Y-94101086D01*
X192025083Y-94243151D01*
X192024500Y-94246082D01*
X190195500Y-94246082D01*
X190166658Y-94101087D01*
X190110084Y-93964505D01*
X190068929Y-93902912D01*
X190027952Y-93841585D01*
X190027946Y-93841578D01*
X189923421Y-93737053D01*
X189923414Y-93737047D01*
X189800495Y-93654916D01*
X189800489Y-93654913D01*
X189663915Y-93598342D01*
X189600819Y-93585791D01*
X189554621Y-93557756D01*
X189537251Y-93506585D01*
X189556837Y-93456220D01*
X189595783Y-93432001D01*
X189617135Y-93426281D01*
X189748365Y-93350515D01*
X189855515Y-93243365D01*
X189931281Y-93112135D01*
X189970500Y-92965766D01*
X189970500Y-92814234D01*
X189931281Y-92667865D01*
X189909191Y-92629605D01*
X189892340Y-92600418D01*
X189855515Y-92536635D01*
X189855514Y-92536634D01*
X189855513Y-92536632D01*
X189748367Y-92429486D01*
X189617136Y-92353719D01*
X189617132Y-92353718D01*
X189470768Y-92314500D01*
X189470766Y-92314500D01*
X189319234Y-92314500D01*
X189319231Y-92314500D01*
X189172867Y-92353718D01*
X189172863Y-92353719D01*
X189041632Y-92429486D01*
X188934487Y-92536631D01*
X188865155Y-92656717D01*
X188860486Y-92660633D01*
X188859678Y-92664281D01*
X188819500Y-92814231D01*
X188819500Y-92965768D01*
X188858718Y-93112132D01*
X188858719Y-93112136D01*
X188934486Y-93243367D01*
X189041632Y-93350513D01*
X189165595Y-93422084D01*
X189200331Y-93463481D01*
X189200331Y-93517520D01*
X189165595Y-93558916D01*
X189126095Y-93569500D01*
X188271082Y-93569500D01*
X188126086Y-93598341D01*
X188126084Y-93598342D01*
X187989510Y-93654913D01*
X187989504Y-93654916D01*
X187866585Y-93737047D01*
X187866578Y-93737053D01*
X187762053Y-93841578D01*
X187762047Y-93841585D01*
X187679916Y-93964504D01*
X187679913Y-93964510D01*
X187623342Y-94101084D01*
X187623341Y-94101086D01*
X187595083Y-94243151D01*
X187594500Y-94246082D01*
X187060500Y-94246082D01*
X187060500Y-93944110D01*
X187060499Y-93944105D01*
X187049887Y-93904500D01*
X187026392Y-93816814D01*
X186960500Y-93702686D01*
X186867314Y-93609500D01*
X184847814Y-91590000D01*
X186304353Y-91590000D01*
X186324834Y-91732455D01*
X186384622Y-91863372D01*
X186384623Y-91863373D01*
X186478872Y-91972143D01*
X186599947Y-92049953D01*
X186738039Y-92090500D01*
X186881960Y-92090500D01*
X186881961Y-92090500D01*
X187020053Y-92049953D01*
X187141128Y-91972143D01*
X187235377Y-91863373D01*
X187295165Y-91732457D01*
X187315647Y-91590000D01*
X187295165Y-91447543D01*
X187235377Y-91316627D01*
X187141128Y-91207857D01*
X187020053Y-91130047D01*
X186881961Y-91089500D01*
X186738039Y-91089500D01*
X186599947Y-91130047D01*
X186599946Y-91130047D01*
X186478871Y-91207857D01*
X186384622Y-91316627D01*
X186324834Y-91447544D01*
X186304353Y-91590000D01*
X184847814Y-91590000D01*
X184108093Y-90850279D01*
X181316895Y-88059080D01*
X181202766Y-87993187D01*
X181202762Y-87993186D01*
X181075473Y-87959079D01*
X181075471Y-87959079D01*
X180316975Y-87959079D01*
X180268883Y-87942754D01*
X180258834Y-87935043D01*
X180258831Y-87935042D01*
X180258829Y-87935040D01*
X180112761Y-87874537D01*
X180112752Y-87874534D01*
X179955994Y-87853897D01*
X179955992Y-87853897D01*
X179799233Y-87874534D01*
X179799224Y-87874537D01*
X179653156Y-87935040D01*
X179653151Y-87935043D01*
X179545360Y-88017754D01*
X179497268Y-88034079D01*
X177384400Y-88034079D01*
X177276186Y-88063075D01*
X177276182Y-88063076D01*
X177179155Y-88119095D01*
X175303492Y-89994758D01*
X175257943Y-90017221D01*
X175123240Y-90034955D01*
X175123231Y-90034958D01*
X174977163Y-90095461D01*
X174977159Y-90095464D01*
X174851717Y-90191717D01*
X174755464Y-90317159D01*
X174755461Y-90317163D01*
X174694958Y-90463231D01*
X174694955Y-90463240D01*
X174674318Y-90619999D01*
X174674318Y-90620000D01*
X174694955Y-90776759D01*
X174694958Y-90776768D01*
X174755461Y-90922836D01*
X174755463Y-90922838D01*
X174755464Y-90922841D01*
X174838175Y-91030632D01*
X174854500Y-91078724D01*
X174854500Y-95080531D01*
X174836018Y-95131311D01*
X174831361Y-95136392D01*
X174112994Y-95854758D01*
X174067445Y-95877221D01*
X173932742Y-95894955D01*
X173932733Y-95894958D01*
X173786665Y-95955461D01*
X173786661Y-95955464D01*
X173661219Y-96051717D01*
X173564966Y-96177159D01*
X173564963Y-96177163D01*
X173504460Y-96323231D01*
X173504457Y-96323240D01*
X173483820Y-96479999D01*
X173483820Y-96480000D01*
X173504457Y-96636759D01*
X173504460Y-96636768D01*
X173564963Y-96782836D01*
X173564965Y-96782838D01*
X173564966Y-96782841D01*
X173577348Y-96798977D01*
X173661219Y-96908282D01*
X173703360Y-96940617D01*
X173786661Y-97004536D01*
X173786663Y-97004537D01*
X173786665Y-97004538D01*
X173899643Y-97051335D01*
X173932740Y-97065044D01*
X174055812Y-97081246D01*
X174103745Y-97106198D01*
X174124425Y-97156124D01*
X174124500Y-97159570D01*
X174124500Y-99366020D01*
X174153496Y-99474234D01*
X174153497Y-99474238D01*
X174195291Y-99546627D01*
X174209515Y-99571263D01*
X174551897Y-99913645D01*
X174574230Y-99958257D01*
X174574833Y-99962450D01*
X174574835Y-99962458D01*
X174634622Y-100093372D01*
X174634623Y-100093373D01*
X174728872Y-100202143D01*
X174849947Y-100279953D01*
X174988039Y-100320500D01*
X175131960Y-100320500D01*
X175131961Y-100320500D01*
X175270053Y-100279953D01*
X175391128Y-100202143D01*
X175485377Y-100093373D01*
X175545165Y-99962457D01*
X175565647Y-99820000D01*
X175545165Y-99677543D01*
X175485377Y-99546627D01*
X175391128Y-99437857D01*
X175270053Y-99360047D01*
X175270052Y-99360046D01*
X175192766Y-99337353D01*
X175159162Y-99317414D01*
X174998639Y-99156891D01*
X174975801Y-99107915D01*
X174975500Y-99101030D01*
X174975500Y-96884482D01*
X174975499Y-96884477D01*
X174964751Y-96844364D01*
X174946503Y-96776261D01*
X174890485Y-96679235D01*
X174811263Y-96600013D01*
X174747110Y-96535860D01*
X174724272Y-96486884D01*
X174738258Y-96434686D01*
X174747099Y-96424149D01*
X175620484Y-95550766D01*
X175676503Y-95453739D01*
X175705500Y-95345521D01*
X175705500Y-95233484D01*
X175705500Y-93103749D01*
X179420568Y-93103749D01*
X179420568Y-93103750D01*
X179441205Y-93260509D01*
X179441208Y-93260518D01*
X179501711Y-93406586D01*
X179501713Y-93406588D01*
X179501714Y-93406591D01*
X179516823Y-93426281D01*
X179597967Y-93532032D01*
X179631492Y-93557756D01*
X179723409Y-93628286D01*
X179723411Y-93628287D01*
X179723413Y-93628288D01*
X179787692Y-93654913D01*
X179869488Y-93688794D01*
X179973996Y-93702552D01*
X180026249Y-93709432D01*
X180026250Y-93709432D01*
X180026251Y-93709432D01*
X180077499Y-93702685D01*
X180183012Y-93688794D01*
X180329091Y-93628286D01*
X180454532Y-93532032D01*
X180550786Y-93406591D01*
X180611294Y-93260512D01*
X180631932Y-93103750D01*
X180611294Y-92946988D01*
X180584232Y-92881654D01*
X180550788Y-92800913D01*
X180550787Y-92800911D01*
X180550786Y-92800909D01*
X180478969Y-92707315D01*
X180454532Y-92675467D01*
X180361829Y-92604335D01*
X180329091Y-92579214D01*
X180329088Y-92579213D01*
X180329086Y-92579211D01*
X180183018Y-92518708D01*
X180183009Y-92518705D01*
X180026251Y-92498068D01*
X180026249Y-92498068D01*
X179869490Y-92518705D01*
X179869481Y-92518708D01*
X179723413Y-92579211D01*
X179723409Y-92579214D01*
X179597967Y-92675467D01*
X179501714Y-92800909D01*
X179501711Y-92800913D01*
X179441208Y-92946981D01*
X179441205Y-92946990D01*
X179420568Y-93103749D01*
X175705500Y-93103749D01*
X175705500Y-91078724D01*
X175721825Y-91030632D01*
X175804536Y-90922841D01*
X175865044Y-90776762D01*
X175882778Y-90642053D01*
X175905240Y-90596506D01*
X177593530Y-88908218D01*
X177642506Y-88885380D01*
X177649391Y-88885079D01*
X179497268Y-88885079D01*
X179545360Y-88901404D01*
X179565950Y-88917203D01*
X179653152Y-88984115D01*
X179653154Y-88984115D01*
X179653156Y-88984117D01*
X179766134Y-89030914D01*
X179799231Y-89044623D01*
X179903739Y-89058381D01*
X179955992Y-89065261D01*
X179955993Y-89065261D01*
X179955994Y-89065261D01*
X179995183Y-89060101D01*
X180112755Y-89044623D01*
X180258834Y-88984115D01*
X180268883Y-88976403D01*
X180316975Y-88960079D01*
X180769543Y-88960079D01*
X180820323Y-88978561D01*
X180825404Y-88983218D01*
X186036361Y-94194175D01*
X186059199Y-94243151D01*
X186059500Y-94250036D01*
X186059500Y-104103096D01*
X186041018Y-104153876D01*
X185994218Y-104180896D01*
X185941000Y-104171512D01*
X185924639Y-104158957D01*
X184721542Y-102955860D01*
X184698704Y-102906884D01*
X184712690Y-102854686D01*
X184721531Y-102844150D01*
X185160470Y-102405212D01*
X185206614Y-102325288D01*
X185230500Y-102236143D01*
X185230500Y-102143856D01*
X185230500Y-101632815D01*
X185206614Y-101543671D01*
X185197789Y-101528386D01*
X185160470Y-101463748D01*
X185160469Y-101463747D01*
X185095212Y-101398490D01*
X184316253Y-100619530D01*
X184236330Y-100573386D01*
X184236326Y-100573385D01*
X184147187Y-100549500D01*
X184147185Y-100549500D01*
X183464363Y-100549500D01*
X183413583Y-100531018D01*
X183408502Y-100526361D01*
X182819300Y-99937159D01*
X182796462Y-99888183D01*
X182810448Y-99835985D01*
X182839294Y-99810909D01*
X182883220Y-99788528D01*
X182978528Y-99693220D01*
X183039719Y-99573126D01*
X183055381Y-99474238D01*
X183060804Y-99440002D01*
X183060804Y-99439997D01*
X183039720Y-99306880D01*
X183039719Y-99306875D01*
X183039719Y-99306874D01*
X182978528Y-99186780D01*
X182978527Y-99186779D01*
X182978526Y-99186777D01*
X182883222Y-99091473D01*
X182763124Y-99030280D01*
X182763119Y-99030279D01*
X182631840Y-99009487D01*
X182584576Y-98983289D01*
X182565210Y-98932839D01*
X182566170Y-98919108D01*
X182578304Y-98842500D01*
X182557219Y-98709374D01*
X182496028Y-98589280D01*
X182496027Y-98589279D01*
X182496026Y-98589277D01*
X182400722Y-98493973D01*
X182280624Y-98432780D01*
X182280619Y-98432779D01*
X182147502Y-98411696D01*
X182147498Y-98411696D01*
X182014380Y-98432779D01*
X182014375Y-98432780D01*
X181894277Y-98493973D01*
X181798972Y-98589278D01*
X181798972Y-98589279D01*
X181737773Y-98709387D01*
X181698251Y-98746241D01*
X181644286Y-98749069D01*
X181611523Y-98729382D01*
X181446029Y-98563888D01*
X181423191Y-98514912D01*
X181430027Y-98475215D01*
X181482665Y-98359957D01*
X181503147Y-98217500D01*
X181482665Y-98075043D01*
X181422877Y-97944127D01*
X181328628Y-97835357D01*
X181207553Y-97757547D01*
X181069461Y-97717000D01*
X180925539Y-97717000D01*
X180787447Y-97757547D01*
X180787446Y-97757547D01*
X180666371Y-97835357D01*
X180572122Y-97944127D01*
X180512334Y-98075044D01*
X180491853Y-98217500D01*
X180491853Y-98217503D01*
X180491878Y-98217678D01*
X180491853Y-98217797D01*
X180491853Y-98223150D01*
X180490732Y-98223150D01*
X180480805Y-98270571D01*
X180469542Y-98284774D01*
X177219531Y-101534785D01*
X177214401Y-101543671D01*
X177180852Y-101601780D01*
X177176541Y-101609247D01*
X177173385Y-101614713D01*
X177173385Y-101614714D01*
X177149500Y-101703853D01*
X177149500Y-103783000D01*
X177131018Y-103833780D01*
X177084218Y-103860800D01*
X177070500Y-103862000D01*
X174553595Y-103862000D01*
X174517730Y-103853389D01*
X174433126Y-103810281D01*
X174433125Y-103810280D01*
X174433124Y-103810280D01*
X174300002Y-103789196D01*
X174299998Y-103789196D01*
X174166880Y-103810279D01*
X174166875Y-103810280D01*
X174046777Y-103871473D01*
X173951473Y-103966777D01*
X173890280Y-104086875D01*
X173890279Y-104086880D01*
X173869196Y-104219997D01*
X173869196Y-104220002D01*
X173890279Y-104353119D01*
X173890280Y-104353124D01*
X173951473Y-104473222D01*
X174046777Y-104568526D01*
X174046779Y-104568527D01*
X174046780Y-104568528D01*
X174166874Y-104629719D01*
X174166878Y-104629719D01*
X174166880Y-104629720D01*
X174299998Y-104650804D01*
X174300000Y-104650804D01*
X174300002Y-104650804D01*
X174399112Y-104635106D01*
X174433126Y-104629719D01*
X174547171Y-104571609D01*
X174583036Y-104563000D01*
X177453856Y-104563000D01*
X177663300Y-104563000D01*
X177714080Y-104581482D01*
X177741100Y-104628282D01*
X177741624Y-104652312D01*
X177729750Y-104742499D01*
X177729750Y-104742500D01*
X177742611Y-104840188D01*
X177730915Y-104892947D01*
X177688043Y-104925844D01*
X177664287Y-104929500D01*
X173521013Y-104929500D01*
X173470233Y-104911018D01*
X173443213Y-104864218D01*
X173452597Y-104811000D01*
X173472921Y-104787825D01*
X173533221Y-104741555D01*
X173562261Y-104703709D01*
X173621461Y-104626559D01*
X173676930Y-104492643D01*
X173695850Y-104348934D01*
X173692958Y-104326971D01*
X173684382Y-104261831D01*
X173676930Y-104205225D01*
X173621461Y-104071309D01*
X173584906Y-104023670D01*
X173533221Y-103956312D01*
X173418225Y-103868073D01*
X173284309Y-103812604D01*
X173284306Y-103812603D01*
X173140601Y-103793684D01*
X173140599Y-103793684D01*
X172996893Y-103812603D01*
X172996890Y-103812604D01*
X172862974Y-103868073D01*
X172747978Y-103956312D01*
X172659739Y-104071308D01*
X172604270Y-104205224D01*
X172604269Y-104205227D01*
X172585350Y-104348933D01*
X172585350Y-104348934D01*
X172604269Y-104492640D01*
X172604270Y-104492643D01*
X172659739Y-104626559D01*
X172747978Y-104741555D01*
X172808279Y-104787825D01*
X172837314Y-104833401D01*
X172830261Y-104886978D01*
X172790419Y-104923486D01*
X172760187Y-104929500D01*
X172702096Y-104929500D01*
X172651316Y-104911018D01*
X172646235Y-104906361D01*
X166806124Y-99066250D01*
X168508103Y-99066250D01*
X168528584Y-99208705D01*
X168588372Y-99339622D01*
X168673493Y-99437857D01*
X168682622Y-99448393D01*
X168803697Y-99526203D01*
X168941789Y-99566750D01*
X169085710Y-99566750D01*
X169085711Y-99566750D01*
X169223803Y-99526203D01*
X169344878Y-99448393D01*
X169439127Y-99339623D01*
X169498915Y-99208707D01*
X169519397Y-99066250D01*
X169498915Y-98923793D01*
X169439127Y-98792877D01*
X169344878Y-98684107D01*
X169223803Y-98606297D01*
X169085711Y-98565750D01*
X168941789Y-98565750D01*
X168803697Y-98606297D01*
X168803696Y-98606297D01*
X168682621Y-98684107D01*
X168588372Y-98792877D01*
X168528584Y-98923794D01*
X168508103Y-99066250D01*
X166806124Y-99066250D01*
X156979871Y-89239997D01*
X166429196Y-89239997D01*
X166429196Y-89240002D01*
X166450280Y-89373124D01*
X166450280Y-89373125D01*
X166466544Y-89405044D01*
X166500889Y-89472450D01*
X166507778Y-89501145D01*
X166508824Y-89501008D01*
X166509500Y-89506144D01*
X166531575Y-89588528D01*
X166531576Y-89588533D01*
X166533384Y-89595285D01*
X166579531Y-89675214D01*
X167563254Y-90658936D01*
X167585420Y-90702439D01*
X167590279Y-90733120D01*
X167590280Y-90733125D01*
X167651473Y-90853222D01*
X167746777Y-90948526D01*
X167746779Y-90948527D01*
X167746780Y-90948528D01*
X167866874Y-91009719D01*
X167866878Y-91009719D01*
X167866880Y-91009720D01*
X167999998Y-91030804D01*
X168000000Y-91030804D01*
X168000002Y-91030804D01*
X168099112Y-91015106D01*
X168133126Y-91009719D01*
X168253220Y-90948528D01*
X168284224Y-90917524D01*
X168319639Y-90882110D01*
X168368615Y-90859272D01*
X168420813Y-90873258D01*
X168451808Y-90917524D01*
X168454500Y-90937971D01*
X168454500Y-93006020D01*
X168483496Y-93114234D01*
X168483497Y-93114238D01*
X168539516Y-93211265D01*
X169182188Y-93853936D01*
X169205026Y-93902912D01*
X169191040Y-93955109D01*
X169146774Y-93986105D01*
X169092940Y-93981395D01*
X169083617Y-93976256D01*
X169035057Y-93945049D01*
X169035054Y-93945048D01*
X169035053Y-93945047D01*
X168896961Y-93904500D01*
X168753039Y-93904500D01*
X168614947Y-93945047D01*
X168614946Y-93945047D01*
X168493871Y-94022857D01*
X168399622Y-94131627D01*
X168339834Y-94262544D01*
X168319353Y-94405000D01*
X168339834Y-94547455D01*
X168399622Y-94678372D01*
X168464395Y-94753124D01*
X168493872Y-94787143D01*
X168614947Y-94864953D01*
X168753039Y-94905500D01*
X168896960Y-94905500D01*
X168896961Y-94905500D01*
X169035053Y-94864953D01*
X169156128Y-94787143D01*
X169250377Y-94678373D01*
X169310165Y-94547457D01*
X169330647Y-94405000D01*
X169310165Y-94262543D01*
X169256177Y-94144326D01*
X169251895Y-94090456D01*
X169283240Y-94046437D01*
X169335548Y-94032866D01*
X169383899Y-94055647D01*
X171162525Y-95834273D01*
X171185363Y-95883249D01*
X171185664Y-95890134D01*
X171185664Y-95957357D01*
X171169339Y-96005449D01*
X171086628Y-96113240D01*
X171086625Y-96113245D01*
X171026122Y-96259313D01*
X171026119Y-96259322D01*
X171005482Y-96416081D01*
X171005482Y-96416082D01*
X171026119Y-96572841D01*
X171026122Y-96572850D01*
X171086625Y-96718918D01*
X171086627Y-96718920D01*
X171086628Y-96718923D01*
X171128418Y-96773385D01*
X171182881Y-96844364D01*
X171235158Y-96884477D01*
X171308323Y-96940618D01*
X171308325Y-96940619D01*
X171308327Y-96940620D01*
X171421305Y-96987417D01*
X171454402Y-97001126D01*
X171558910Y-97014884D01*
X171611163Y-97021764D01*
X171611164Y-97021764D01*
X171611165Y-97021764D01*
X171650354Y-97016604D01*
X171767926Y-97001126D01*
X171914005Y-96940618D01*
X172039446Y-96844364D01*
X172135700Y-96718923D01*
X172196208Y-96572844D01*
X172216846Y-96416082D01*
X172196208Y-96259320D01*
X172182499Y-96226223D01*
X172135702Y-96113245D01*
X172135699Y-96113240D01*
X172052989Y-96005449D01*
X172036664Y-95957357D01*
X172036664Y-95625148D01*
X172036663Y-95625143D01*
X172016734Y-95550766D01*
X172007667Y-95516927D01*
X171951649Y-95419901D01*
X171872427Y-95340679D01*
X171655790Y-95124042D01*
X171632952Y-95075066D01*
X171646938Y-95022868D01*
X171675785Y-94997792D01*
X171733220Y-94968528D01*
X171828528Y-94873220D01*
X171889719Y-94753126D01*
X171901559Y-94678372D01*
X171910804Y-94620002D01*
X171910804Y-94619997D01*
X171889720Y-94486880D01*
X171889719Y-94486875D01*
X171889719Y-94486874D01*
X171828528Y-94366780D01*
X171828527Y-94366779D01*
X171828526Y-94366777D01*
X171733222Y-94271473D01*
X171613124Y-94210280D01*
X171613119Y-94210279D01*
X171480002Y-94189196D01*
X171479998Y-94189196D01*
X171346880Y-94210279D01*
X171346875Y-94210280D01*
X171226777Y-94271473D01*
X171131472Y-94366778D01*
X171131472Y-94366779D01*
X171102207Y-94424214D01*
X171062685Y-94461068D01*
X171008720Y-94463896D01*
X170975957Y-94444209D01*
X170326625Y-93794877D01*
X171809440Y-93794877D01*
X171809440Y-93794878D01*
X171830077Y-93951637D01*
X171830080Y-93951646D01*
X171890583Y-94097714D01*
X171890585Y-94097716D01*
X171890586Y-94097719D01*
X171926349Y-94144326D01*
X171986839Y-94223160D01*
X172038165Y-94262543D01*
X172112281Y-94319414D01*
X172112283Y-94319415D01*
X172112285Y-94319416D01*
X172225263Y-94366213D01*
X172258360Y-94379922D01*
X172362868Y-94393680D01*
X172415121Y-94400560D01*
X172415122Y-94400560D01*
X172415123Y-94400560D01*
X172465581Y-94393917D01*
X172571884Y-94379922D01*
X172717963Y-94319414D01*
X172843404Y-94223160D01*
X172939658Y-94097719D01*
X173000166Y-93951640D01*
X173020804Y-93794878D01*
X173000166Y-93638116D01*
X172966880Y-93557756D01*
X172939660Y-93492041D01*
X172939659Y-93492039D01*
X172939658Y-93492037D01*
X172843404Y-93366596D01*
X172843403Y-93366595D01*
X172796529Y-93330626D01*
X172767494Y-93285050D01*
X172765622Y-93267952D01*
X172765622Y-91082781D01*
X172784104Y-91032001D01*
X172788750Y-91026931D01*
X174375249Y-89440431D01*
X174424224Y-89417594D01*
X174441411Y-89417968D01*
X174500000Y-89425682D01*
X174656762Y-89405044D01*
X174802841Y-89344536D01*
X174928282Y-89248282D01*
X175024536Y-89122841D01*
X175085044Y-88976762D01*
X175105682Y-88820000D01*
X175085044Y-88663238D01*
X175024536Y-88517159D01*
X174970072Y-88446180D01*
X174928282Y-88391717D01*
X174857303Y-88337254D01*
X174802841Y-88295464D01*
X174802838Y-88295463D01*
X174802836Y-88295461D01*
X174656768Y-88234958D01*
X174656759Y-88234955D01*
X174500001Y-88214318D01*
X174499999Y-88214318D01*
X174343240Y-88234955D01*
X174343231Y-88234958D01*
X174197163Y-88295461D01*
X174197159Y-88295464D01*
X174071717Y-88391717D01*
X173975464Y-88517159D01*
X173975461Y-88517163D01*
X173914958Y-88663231D01*
X173914955Y-88663240D01*
X173894318Y-88819999D01*
X173894318Y-88820001D01*
X173902029Y-88878578D01*
X173890332Y-88931337D01*
X173879566Y-88944750D01*
X172134653Y-90689663D01*
X172088508Y-90769588D01*
X172088507Y-90769592D01*
X172064622Y-90858731D01*
X172064622Y-93267952D01*
X172046140Y-93318732D01*
X172033715Y-93330626D01*
X171986840Y-93366595D01*
X171890586Y-93492037D01*
X171890583Y-93492041D01*
X171830080Y-93638109D01*
X171830077Y-93638118D01*
X171809440Y-93794877D01*
X170326625Y-93794877D01*
X169328639Y-92796891D01*
X169305801Y-92747915D01*
X169305500Y-92741030D01*
X169305500Y-91259997D01*
X169689196Y-91259997D01*
X169689196Y-91260002D01*
X169710279Y-91393119D01*
X169710280Y-91393124D01*
X169771473Y-91513222D01*
X169866777Y-91608526D01*
X169866779Y-91608527D01*
X169866780Y-91608528D01*
X169986874Y-91669719D01*
X169986878Y-91669719D01*
X169986880Y-91669720D01*
X170119998Y-91690804D01*
X170120000Y-91690804D01*
X170120002Y-91690804D01*
X170219112Y-91675106D01*
X170253126Y-91669719D01*
X170373220Y-91608528D01*
X170468528Y-91513220D01*
X170529719Y-91393126D01*
X170550804Y-91260000D01*
X170542545Y-91207857D01*
X170529720Y-91126880D01*
X170529719Y-91126875D01*
X170529719Y-91126874D01*
X170468528Y-91006780D01*
X170468527Y-91006779D01*
X170468526Y-91006777D01*
X170373222Y-90911473D01*
X170253124Y-90850280D01*
X170253119Y-90850279D01*
X170120002Y-90829196D01*
X170119998Y-90829196D01*
X169986880Y-90850279D01*
X169986875Y-90850280D01*
X169866777Y-90911473D01*
X169771473Y-91006777D01*
X169710280Y-91126875D01*
X169710279Y-91126880D01*
X169689196Y-91259997D01*
X169305500Y-91259997D01*
X169305500Y-89810000D01*
X169974353Y-89810000D01*
X169994834Y-89952455D01*
X170054622Y-90083372D01*
X170147259Y-90190281D01*
X170148872Y-90192143D01*
X170269947Y-90269953D01*
X170408039Y-90310500D01*
X170551960Y-90310500D01*
X170551961Y-90310500D01*
X170690053Y-90269953D01*
X170811128Y-90192143D01*
X170905377Y-90083373D01*
X170965165Y-89952457D01*
X170985647Y-89810000D01*
X170965165Y-89667543D01*
X170905377Y-89536627D01*
X170811128Y-89427857D01*
X170690053Y-89350047D01*
X170551961Y-89309500D01*
X170408039Y-89309500D01*
X170269947Y-89350047D01*
X170269946Y-89350047D01*
X170148871Y-89427857D01*
X170054622Y-89536627D01*
X169994834Y-89667544D01*
X169974353Y-89810000D01*
X169305500Y-89810000D01*
X169305500Y-87599999D01*
X187749353Y-87599999D01*
X187753696Y-87630205D01*
X187754500Y-87641448D01*
X187754500Y-92358550D01*
X187753696Y-92369792D01*
X187749353Y-92400000D01*
X187753592Y-92429486D01*
X187753696Y-92430205D01*
X187754500Y-92441448D01*
X187754500Y-92465894D01*
X187762618Y-92496194D01*
X187764505Y-92505392D01*
X187769834Y-92542455D01*
X187769835Y-92542457D01*
X187779627Y-92563899D01*
X187779628Y-92563900D01*
X187784075Y-92576270D01*
X187788608Y-92593186D01*
X187807754Y-92626348D01*
X187811196Y-92633025D01*
X187829623Y-92673373D01*
X187840508Y-92685935D01*
X187849219Y-92698168D01*
X187849224Y-92698176D01*
X187854500Y-92707314D01*
X187886466Y-92739280D01*
X187890296Y-92743394D01*
X187923872Y-92782143D01*
X187932002Y-92787368D01*
X187945147Y-92797961D01*
X187947686Y-92800500D01*
X187992785Y-92826538D01*
X187992796Y-92826544D01*
X187995985Y-92828487D01*
X188044947Y-92859953D01*
X188044949Y-92859953D01*
X188044950Y-92859954D01*
X188047511Y-92860706D01*
X188056906Y-92864728D01*
X188057037Y-92864413D01*
X188061816Y-92866393D01*
X188086097Y-92872898D01*
X188118827Y-92881667D01*
X188120557Y-92882153D01*
X188183039Y-92900500D01*
X188326961Y-92900500D01*
X188389423Y-92882158D01*
X188391203Y-92881660D01*
X188448182Y-92866393D01*
X188448181Y-92866393D01*
X188448186Y-92866392D01*
X188448190Y-92866389D01*
X188452968Y-92864411D01*
X188453099Y-92864727D01*
X188462495Y-92860704D01*
X188465053Y-92859953D01*
X188514006Y-92828491D01*
X188517180Y-92826557D01*
X188562314Y-92800500D01*
X188564845Y-92797969D01*
X188578006Y-92787362D01*
X188586128Y-92782143D01*
X188619710Y-92743385D01*
X188623526Y-92739286D01*
X188655500Y-92707314D01*
X188660780Y-92698167D01*
X188669491Y-92685935D01*
X188680377Y-92673373D01*
X188698807Y-92633015D01*
X188702245Y-92626348D01*
X188714955Y-92604333D01*
X188719621Y-92600418D01*
X188720431Y-92596769D01*
X188721390Y-92593188D01*
X188721392Y-92593186D01*
X188725924Y-92576269D01*
X188730372Y-92563899D01*
X188740165Y-92542457D01*
X188745493Y-92505396D01*
X188747380Y-92496194D01*
X188755500Y-92465892D01*
X188755500Y-92441448D01*
X188756304Y-92430205D01*
X188760647Y-92400000D01*
X188756304Y-92369792D01*
X188755500Y-92358550D01*
X188755500Y-90669997D01*
X189689196Y-90669997D01*
X189689196Y-90670002D01*
X189710279Y-90803119D01*
X189710280Y-90803124D01*
X189771473Y-90923222D01*
X189866777Y-91018526D01*
X189866779Y-91018527D01*
X189866780Y-91018528D01*
X189986874Y-91079719D01*
X189986878Y-91079719D01*
X189986880Y-91079720D01*
X190119998Y-91100804D01*
X190120000Y-91100804D01*
X190120002Y-91100804D01*
X190233793Y-91082781D01*
X190253126Y-91079719D01*
X190373220Y-91018528D01*
X190468528Y-90923220D01*
X190529719Y-90803126D01*
X190550804Y-90670000D01*
X190529719Y-90536874D01*
X190468528Y-90416780D01*
X190468527Y-90416779D01*
X190468526Y-90416777D01*
X190373222Y-90321473D01*
X190253124Y-90260280D01*
X190253119Y-90260279D01*
X190120002Y-90239196D01*
X190119998Y-90239196D01*
X189986880Y-90260279D01*
X189986875Y-90260280D01*
X189866777Y-90321473D01*
X189771473Y-90416777D01*
X189710280Y-90536875D01*
X189710279Y-90536880D01*
X189689196Y-90669997D01*
X188755500Y-90669997D01*
X188755500Y-87641448D01*
X188756304Y-87630205D01*
X188760647Y-87600000D01*
X188756304Y-87569792D01*
X188755500Y-87558550D01*
X188755500Y-87534110D01*
X188755499Y-87534105D01*
X188755498Y-87534103D01*
X188747380Y-87503803D01*
X188745493Y-87494603D01*
X188740165Y-87457543D01*
X188730368Y-87436091D01*
X188725921Y-87423719D01*
X188721392Y-87406814D01*
X188721391Y-87406812D01*
X188720431Y-87403229D01*
X188720473Y-87402747D01*
X188718658Y-87401477D01*
X188714955Y-87395665D01*
X188702247Y-87373654D01*
X188698802Y-87366971D01*
X188680378Y-87326628D01*
X188669488Y-87314060D01*
X188660777Y-87301827D01*
X188655500Y-87292686D01*
X188623531Y-87260717D01*
X188619701Y-87256603D01*
X188586129Y-87217858D01*
X188586128Y-87217857D01*
X188577998Y-87212632D01*
X188564850Y-87202036D01*
X188562314Y-87199500D01*
X188562311Y-87199498D01*
X188517191Y-87173447D01*
X188513982Y-87171491D01*
X188465054Y-87140047D01*
X188465048Y-87140045D01*
X188462481Y-87139291D01*
X188453098Y-87135273D01*
X188452968Y-87135588D01*
X188448186Y-87133607D01*
X188391207Y-87118340D01*
X188389398Y-87117832D01*
X188326962Y-87099500D01*
X188326961Y-87099500D01*
X188183039Y-87099500D01*
X188183038Y-87099500D01*
X188120611Y-87117829D01*
X188118803Y-87118337D01*
X188061813Y-87133608D01*
X188057032Y-87135588D01*
X188056902Y-87135275D01*
X188047527Y-87139289D01*
X188044950Y-87140046D01*
X188044947Y-87140047D01*
X188044946Y-87140047D01*
X188044940Y-87140050D01*
X187995993Y-87171505D01*
X187992786Y-87173460D01*
X187947686Y-87199499D01*
X187947677Y-87199505D01*
X187945138Y-87202045D01*
X187932002Y-87212630D01*
X187923878Y-87217851D01*
X187923873Y-87217856D01*
X187890295Y-87256605D01*
X187886455Y-87260729D01*
X187854501Y-87292684D01*
X187849220Y-87301831D01*
X187840513Y-87314058D01*
X187829624Y-87326624D01*
X187829621Y-87326630D01*
X187811194Y-87366975D01*
X187807753Y-87373651D01*
X187788607Y-87406815D01*
X187788605Y-87406820D01*
X187784074Y-87423729D01*
X187779630Y-87436093D01*
X187769834Y-87457545D01*
X187764505Y-87494605D01*
X187762618Y-87503803D01*
X187754500Y-87534103D01*
X187754500Y-87558550D01*
X187753696Y-87569792D01*
X187749353Y-87599999D01*
X169305500Y-87599999D01*
X169305500Y-85950289D01*
X169312639Y-85917471D01*
X169365165Y-85802457D01*
X169385647Y-85660000D01*
X169377895Y-85606082D01*
X187594500Y-85606082D01*
X187594500Y-85753917D01*
X187623341Y-85898913D01*
X187623342Y-85898915D01*
X187679913Y-86035489D01*
X187679916Y-86035495D01*
X187762047Y-86158414D01*
X187762053Y-86158421D01*
X187866578Y-86262946D01*
X187866584Y-86262951D01*
X187989505Y-86345084D01*
X187989510Y-86345086D01*
X188126084Y-86401657D01*
X188126086Y-86401658D01*
X188271082Y-86430500D01*
X189126095Y-86430500D01*
X189176875Y-86448982D01*
X189203895Y-86495782D01*
X189194511Y-86549000D01*
X189165595Y-86577916D01*
X189041632Y-86649486D01*
X188934486Y-86756632D01*
X188858719Y-86887863D01*
X188858718Y-86887867D01*
X188819500Y-87034231D01*
X188819500Y-87185768D01*
X188859679Y-87335719D01*
X188859636Y-87336199D01*
X188861453Y-87337471D01*
X188865155Y-87343283D01*
X188934486Y-87463367D01*
X189041632Y-87570513D01*
X189041634Y-87570514D01*
X189041635Y-87570515D01*
X189172865Y-87646281D01*
X189319234Y-87685500D01*
X189319236Y-87685500D01*
X189470764Y-87685500D01*
X189470766Y-87685500D01*
X189617135Y-87646281D01*
X189748365Y-87570515D01*
X189855515Y-87463365D01*
X189931281Y-87332135D01*
X189970500Y-87185766D01*
X189970500Y-87034234D01*
X189931281Y-86887865D01*
X189855515Y-86756635D01*
X189855514Y-86756634D01*
X189855513Y-86756632D01*
X189748367Y-86649486D01*
X189617136Y-86573719D01*
X189617133Y-86573718D01*
X189595785Y-86567998D01*
X189551519Y-86537002D01*
X189537533Y-86484804D01*
X189560371Y-86435828D01*
X189600819Y-86414208D01*
X189663913Y-86401658D01*
X189800495Y-86345084D01*
X189923416Y-86262951D01*
X190027951Y-86158416D01*
X190110084Y-86035495D01*
X190166658Y-85898913D01*
X190195500Y-85753918D01*
X190195500Y-85606082D01*
X192024500Y-85606082D01*
X192024500Y-85753917D01*
X192053341Y-85898913D01*
X192053342Y-85898915D01*
X192109913Y-86035489D01*
X192109916Y-86035495D01*
X192192047Y-86158414D01*
X192192053Y-86158421D01*
X192296578Y-86262946D01*
X192296584Y-86262951D01*
X192419505Y-86345084D01*
X192419510Y-86345086D01*
X192556084Y-86401657D01*
X192556086Y-86401658D01*
X192701082Y-86430500D01*
X193448918Y-86430500D01*
X193593913Y-86401658D01*
X193593915Y-86401657D01*
X193730495Y-86345084D01*
X193853416Y-86262951D01*
X193957951Y-86158416D01*
X194040084Y-86035495D01*
X194096658Y-85898913D01*
X194125500Y-85753918D01*
X194125500Y-85606082D01*
X194096658Y-85461086D01*
X194096657Y-85461084D01*
X194040086Y-85324510D01*
X194040083Y-85324504D01*
X193957952Y-85201585D01*
X193957946Y-85201578D01*
X193853421Y-85097053D01*
X193853414Y-85097047D01*
X193730495Y-85014916D01*
X193730489Y-85014913D01*
X193593915Y-84958342D01*
X193593913Y-84958341D01*
X193448918Y-84929500D01*
X192701082Y-84929500D01*
X192556086Y-84958341D01*
X192556084Y-84958342D01*
X192419510Y-85014913D01*
X192419504Y-85014916D01*
X192296585Y-85097047D01*
X192296578Y-85097053D01*
X192192053Y-85201578D01*
X192192047Y-85201585D01*
X192109916Y-85324504D01*
X192109913Y-85324510D01*
X192053342Y-85461084D01*
X192053341Y-85461086D01*
X192024500Y-85606082D01*
X190195500Y-85606082D01*
X190166658Y-85461086D01*
X190166657Y-85461084D01*
X190110086Y-85324510D01*
X190110083Y-85324504D01*
X190027952Y-85201585D01*
X190027946Y-85201578D01*
X189923421Y-85097053D01*
X189923414Y-85097047D01*
X189800495Y-85014916D01*
X189800489Y-85014913D01*
X189663915Y-84958342D01*
X189663913Y-84958341D01*
X189518918Y-84929500D01*
X188271082Y-84929500D01*
X188126086Y-84958341D01*
X188126084Y-84958342D01*
X187989510Y-85014913D01*
X187989504Y-85014916D01*
X187866585Y-85097047D01*
X187866578Y-85097053D01*
X187762053Y-85201578D01*
X187762047Y-85201585D01*
X187679916Y-85324504D01*
X187679913Y-85324510D01*
X187623342Y-85461084D01*
X187623341Y-85461086D01*
X187594500Y-85606082D01*
X169377895Y-85606082D01*
X169365165Y-85517543D01*
X169305377Y-85386627D01*
X169211128Y-85277857D01*
X169090053Y-85200047D01*
X168951961Y-85159500D01*
X168808039Y-85159500D01*
X168669947Y-85200047D01*
X168669946Y-85200047D01*
X168548871Y-85277857D01*
X168454622Y-85386627D01*
X168394834Y-85517544D01*
X168374353Y-85660000D01*
X168394834Y-85802455D01*
X168394835Y-85802458D01*
X168447361Y-85917471D01*
X168454500Y-85950289D01*
X168454500Y-90262029D01*
X168436018Y-90312809D01*
X168389218Y-90339829D01*
X168336000Y-90330445D01*
X168319639Y-90317890D01*
X168253222Y-90251473D01*
X168133125Y-90190280D01*
X168133120Y-90190279D01*
X168102439Y-90185420D01*
X168058936Y-90163254D01*
X167298057Y-89402375D01*
X167275219Y-89353399D01*
X167275891Y-89334155D01*
X167290804Y-89240001D01*
X167290804Y-89239997D01*
X167269720Y-89106880D01*
X167269719Y-89106875D01*
X167269719Y-89106874D01*
X167208528Y-88986780D01*
X167208527Y-88986779D01*
X167208526Y-88986777D01*
X167113222Y-88891473D01*
X166993124Y-88830280D01*
X166993119Y-88830279D01*
X166860002Y-88809196D01*
X166859998Y-88809196D01*
X166726880Y-88830279D01*
X166726875Y-88830280D01*
X166606777Y-88891473D01*
X166511473Y-88986777D01*
X166450280Y-89106875D01*
X166450279Y-89106880D01*
X166429196Y-89239997D01*
X156979871Y-89239997D01*
X137689376Y-69949501D01*
X137575247Y-69883608D01*
X137575243Y-69883607D01*
X137447954Y-69849500D01*
X137447952Y-69849500D01*
X133811963Y-69849500D01*
X133761183Y-69831018D01*
X133734163Y-69784218D01*
X133743547Y-69731000D01*
X133769252Y-69704041D01*
X133881128Y-69632143D01*
X133975377Y-69523373D01*
X134035165Y-69392457D01*
X134055647Y-69250000D01*
X134035165Y-69107543D01*
X133975377Y-68976627D01*
X133881128Y-68867857D01*
X133760053Y-68790047D01*
X133621961Y-68749500D01*
X133478039Y-68749500D01*
X133339947Y-68790047D01*
X133339946Y-68790047D01*
X133218871Y-68867857D01*
X133124622Y-68976627D01*
X133064834Y-69107544D01*
X133044353Y-69250000D01*
X133064834Y-69392455D01*
X133124622Y-69523372D01*
X133124623Y-69523373D01*
X133218872Y-69632143D01*
X133330748Y-69704041D01*
X133363474Y-69747043D01*
X133360903Y-69801021D01*
X133324237Y-69840718D01*
X133288037Y-69849500D01*
X127370982Y-69849500D01*
X127322890Y-69833175D01*
X127320079Y-69831018D01*
X127312841Y-69825464D01*
X127312838Y-69825463D01*
X127312836Y-69825461D01*
X127166768Y-69764958D01*
X127166759Y-69764955D01*
X127010001Y-69744318D01*
X127009999Y-69744318D01*
X126853240Y-69764955D01*
X126853231Y-69764958D01*
X126707163Y-69825461D01*
X126702677Y-69828052D01*
X126702090Y-69827035D01*
X126655674Y-69841664D01*
X126605751Y-69820978D01*
X126583614Y-69783386D01*
X126583131Y-69783543D01*
X126582422Y-69781362D01*
X126582311Y-69781173D01*
X126582172Y-69780597D01*
X126582171Y-69780591D01*
X126526211Y-69608361D01*
X126526209Y-69608358D01*
X126526206Y-69608350D01*
X126443995Y-69447005D01*
X126443991Y-69446999D01*
X126337558Y-69300506D01*
X126337553Y-69300499D01*
X126337548Y-69300494D01*
X126337543Y-69300488D01*
X126209511Y-69172456D01*
X126209505Y-69172451D01*
X126209501Y-69172447D01*
X126209493Y-69172441D01*
X126063000Y-69066008D01*
X126062994Y-69066004D01*
X125901649Y-68983793D01*
X125901633Y-68983786D01*
X125729421Y-68927832D01*
X125729398Y-68927826D01*
X125550557Y-68899501D01*
X125550549Y-68899500D01*
X125550546Y-68899500D01*
X125369454Y-68899500D01*
X125369451Y-68899500D01*
X125369442Y-68899501D01*
X125190601Y-68927826D01*
X125190578Y-68927832D01*
X125018366Y-68983786D01*
X125018350Y-68983793D01*
X124857005Y-69066004D01*
X124856999Y-69066008D01*
X124710506Y-69172441D01*
X124710488Y-69172456D01*
X124582456Y-69300488D01*
X124582441Y-69300506D01*
X124476008Y-69446999D01*
X124476004Y-69447005D01*
X124393793Y-69608350D01*
X124393786Y-69608366D01*
X124337832Y-69780578D01*
X124337826Y-69780601D01*
X124309501Y-69959442D01*
X124309500Y-69959458D01*
X124309500Y-70740541D01*
X124309501Y-70740557D01*
X124337826Y-70919398D01*
X124337832Y-70919421D01*
X124393786Y-71091633D01*
X124393793Y-71091649D01*
X124476004Y-71252994D01*
X124582447Y-71399501D01*
X124582451Y-71399505D01*
X124582456Y-71399511D01*
X124710488Y-71527543D01*
X124710494Y-71527548D01*
X124710499Y-71527553D01*
X124857006Y-71633996D01*
X124929255Y-71670809D01*
X125018350Y-71716206D01*
X125018366Y-71716213D01*
X125190578Y-71772167D01*
X125190581Y-71772167D01*
X125190591Y-71772171D01*
X125190596Y-71772171D01*
X125190601Y-71772173D01*
X125334963Y-71795037D01*
X125369454Y-71800500D01*
X125369459Y-71800500D01*
X125550541Y-71800500D01*
X125550546Y-71800500D01*
X125639977Y-71786335D01*
X125729398Y-71772173D01*
X125729400Y-71772172D01*
X125729409Y-71772171D01*
X125901639Y-71716211D01*
X126062994Y-71633996D01*
X126209501Y-71527553D01*
X126337553Y-71399501D01*
X126443996Y-71252994D01*
X126526211Y-71091639D01*
X126526213Y-71091633D01*
X126582166Y-70919426D01*
X126582167Y-70919419D01*
X126582171Y-70919409D01*
X126582172Y-70919397D01*
X126582309Y-70918831D01*
X126582408Y-70918680D01*
X126583131Y-70916457D01*
X126583747Y-70916657D01*
X126612128Y-70873763D01*
X126663939Y-70858405D01*
X126702231Y-70872718D01*
X126702677Y-70871948D01*
X126707157Y-70874534D01*
X126707159Y-70874536D01*
X126707160Y-70874536D01*
X126707163Y-70874538D01*
X126808365Y-70916457D01*
X126853238Y-70935044D01*
X126957746Y-70948802D01*
X127009999Y-70955682D01*
X127010000Y-70955682D01*
X127010001Y-70955682D01*
X127049190Y-70950522D01*
X127166762Y-70935044D01*
X127312841Y-70874536D01*
X127322890Y-70866824D01*
X127370982Y-70850500D01*
X137142024Y-70850500D01*
X137192804Y-70868982D01*
X137197885Y-70873639D01*
X138263885Y-71939639D01*
X138286723Y-71988615D01*
X138272737Y-72040813D01*
X138228471Y-72071808D01*
X138208024Y-72074500D01*
X123486860Y-72074500D01*
X123444150Y-72061959D01*
X123410057Y-72040049D01*
X123410054Y-72040048D01*
X123410053Y-72040047D01*
X123271961Y-71999500D01*
X123128039Y-71999500D01*
X122989947Y-72040047D01*
X122989946Y-72040047D01*
X122868871Y-72117857D01*
X122774622Y-72226627D01*
X122714834Y-72357544D01*
X122694353Y-72500000D01*
X111800500Y-72500000D01*
X111800500Y-68635437D01*
X148449500Y-68635437D01*
X148449500Y-76214562D01*
X148469978Y-76290988D01*
X148469979Y-76290990D01*
X148509541Y-76359513D01*
X148565486Y-76415458D01*
X148565488Y-76415459D01*
X148565489Y-76415460D01*
X148634011Y-76455021D01*
X148710438Y-76475500D01*
X148710439Y-76475500D01*
X158789561Y-76475500D01*
X158789562Y-76475500D01*
X158865989Y-76455021D01*
X158934511Y-76415460D01*
X158990460Y-76359511D01*
X159030021Y-76290989D01*
X159050500Y-76214562D01*
X159050500Y-68635438D01*
X159030021Y-68559011D01*
X158990460Y-68490489D01*
X158990459Y-68490488D01*
X158990458Y-68490486D01*
X158934513Y-68434541D01*
X158865990Y-68394979D01*
X158865988Y-68394978D01*
X158789562Y-68374500D01*
X148789562Y-68374500D01*
X148710438Y-68374500D01*
X148710437Y-68374500D01*
X148634011Y-68394978D01*
X148634009Y-68394979D01*
X148565486Y-68434541D01*
X148509541Y-68490486D01*
X148469979Y-68559009D01*
X148469978Y-68559011D01*
X148449500Y-68635437D01*
X111800500Y-68635437D01*
X111800500Y-68002221D01*
X111800624Y-67997791D01*
X111817225Y-67702180D01*
X111818217Y-67693377D01*
X111852780Y-67489953D01*
X111867442Y-67403658D01*
X111869407Y-67395050D01*
X111950762Y-67112661D01*
X111953679Y-67104326D01*
X111984466Y-67030000D01*
X134594353Y-67030000D01*
X134614834Y-67172455D01*
X134674622Y-67303372D01*
X134674623Y-67303373D01*
X134768872Y-67412143D01*
X134889947Y-67489953D01*
X135028039Y-67530500D01*
X135171960Y-67530500D01*
X135171961Y-67530500D01*
X135310053Y-67489953D01*
X135431128Y-67412143D01*
X135525377Y-67303373D01*
X135585165Y-67172457D01*
X135605647Y-67030000D01*
X135585165Y-66887543D01*
X135525377Y-66756627D01*
X135431128Y-66647857D01*
X135310053Y-66570047D01*
X135171961Y-66529500D01*
X135028039Y-66529500D01*
X134889947Y-66570047D01*
X134889946Y-66570047D01*
X134768871Y-66647857D01*
X134674622Y-66756627D01*
X134614834Y-66887544D01*
X134594353Y-67030000D01*
X111984466Y-67030000D01*
X112066138Y-66832826D01*
X112069972Y-66824864D01*
X112212134Y-66567639D01*
X112216827Y-66560171D01*
X112386887Y-66320494D01*
X112392389Y-66313595D01*
X112588215Y-66094465D01*
X112594465Y-66088215D01*
X112813595Y-65892389D01*
X112820494Y-65886887D01*
X113060171Y-65716827D01*
X113067639Y-65712134D01*
X113324864Y-65569972D01*
X113332826Y-65566138D01*
X113604326Y-65453679D01*
X113612661Y-65450762D01*
X113895050Y-65369407D01*
X113903658Y-65367442D01*
X114193382Y-65318216D01*
X114202174Y-65317225D01*
X114497792Y-65300624D01*
X114502222Y-65300500D01*
X114547595Y-65300500D01*
X192952405Y-65300500D01*
X192997778Y-65300500D01*
X193002208Y-65300624D01*
G37*
%TD.AperFunction*%
%TD*%
M02*
