%TF.GenerationSoftware,KiCad,Pcbnew,8.0.9*%
%TF.CreationDate,2025-05-16T14:56:25+01:00*%
%TF.ProjectId,bizcamera,62697a63-616d-4657-9261-2e6b69636164,rev?*%
%TF.SameCoordinates,Original*%
%TF.FileFunction,Paste,Top*%
%TF.FilePolarity,Positive*%
%FSLAX46Y46*%
G04 Gerber Fmt 4.6, Leading zero omitted, Abs format (unit mm)*
G04 Created by KiCad (PCBNEW 8.0.9) date 2025-05-16 14:56:25*
%MOMM*%
%LPD*%
G01*
G04 APERTURE LIST*
G04 Aperture macros list*
%AMRoundRect*
0 Rectangle with rounded corners*
0 $1 Rounding radius*
0 $2 $3 $4 $5 $6 $7 $8 $9 X,Y pos of 4 corners*
0 Add a 4 corners polygon primitive as box body*
4,1,4,$2,$3,$4,$5,$6,$7,$8,$9,$2,$3,0*
0 Add four circle primitives for the rounded corners*
1,1,$1+$1,$2,$3*
1,1,$1+$1,$4,$5*
1,1,$1+$1,$6,$7*
1,1,$1+$1,$8,$9*
0 Add four rect primitives between the rounded corners*
20,1,$1+$1,$2,$3,$4,$5,0*
20,1,$1+$1,$4,$5,$6,$7,0*
20,1,$1+$1,$6,$7,$8,$9,0*
20,1,$1+$1,$8,$9,$2,$3,0*%
%AMFreePoly0*
4,1,18,-0.437500,0.050000,-0.433694,0.069134,-0.422855,0.085355,-0.406634,0.096194,-0.387500,0.100000,0.387500,0.100000,0.437500,0.050000,0.437500,-0.050000,0.433694,-0.069134,0.422855,-0.085355,0.406634,-0.096194,0.387500,-0.100000,-0.387500,-0.100000,-0.406634,-0.096194,-0.422855,-0.085355,-0.433694,-0.069134,-0.437500,-0.050000,-0.437500,0.050000,-0.437500,0.050000,$1*%
%AMFreePoly1*
4,1,18,-0.437500,0.050000,-0.433694,0.069134,-0.422855,0.085355,-0.406634,0.096194,-0.387500,0.100000,0.387500,0.100000,0.406634,0.096194,0.422855,0.085355,0.433694,0.069134,0.437500,0.050000,0.437500,-0.050000,0.387500,-0.100000,-0.387500,-0.100000,-0.406634,-0.096194,-0.422855,-0.085355,-0.433694,-0.069134,-0.437500,-0.050000,-0.437500,0.050000,-0.437500,0.050000,$1*%
%AMFreePoly2*
4,1,18,-0.100000,0.387500,-0.050000,0.437500,0.050000,0.437500,0.069134,0.433694,0.085355,0.422855,0.096194,0.406634,0.100000,0.387500,0.100000,-0.387500,0.096194,-0.406634,0.085355,-0.422855,0.069134,-0.433694,0.050000,-0.437500,-0.050000,-0.437500,-0.069134,-0.433694,-0.085355,-0.422855,-0.096194,-0.406634,-0.100000,-0.387500,-0.100000,0.387500,-0.100000,0.387500,$1*%
%AMFreePoly3*
4,1,18,-0.100000,0.387500,-0.096194,0.406634,-0.085355,0.422855,-0.069134,0.433694,-0.050000,0.437500,0.050000,0.437500,0.100000,0.387500,0.100000,-0.387500,0.096194,-0.406634,0.085355,-0.422855,0.069134,-0.433694,0.050000,-0.437500,-0.050000,-0.437500,-0.069134,-0.433694,-0.085355,-0.422855,-0.096194,-0.406634,-0.100000,-0.387500,-0.100000,0.387500,-0.100000,0.387500,$1*%
%AMFreePoly4*
4,1,18,-0.437500,0.050000,-0.433694,0.069134,-0.422855,0.085355,-0.406634,0.096194,-0.387500,0.100000,0.387500,0.100000,0.406634,0.096194,0.422855,0.085355,0.433694,0.069134,0.437500,0.050000,0.437500,-0.050000,0.433694,-0.069134,0.422855,-0.085355,0.406634,-0.096194,0.387500,-0.100000,-0.387500,-0.100000,-0.437500,-0.050000,-0.437500,0.050000,-0.437500,0.050000,$1*%
%AMFreePoly5*
4,1,18,-0.437500,0.050000,-0.387500,0.100000,0.387500,0.100000,0.406634,0.096194,0.422855,0.085355,0.433694,0.069134,0.437500,0.050000,0.437500,-0.050000,0.433694,-0.069134,0.422855,-0.085355,0.406634,-0.096194,0.387500,-0.100000,-0.387500,-0.100000,-0.406634,-0.096194,-0.422855,-0.085355,-0.433694,-0.069134,-0.437500,-0.050000,-0.437500,0.050000,-0.437500,0.050000,$1*%
%AMFreePoly6*
4,1,18,-0.100000,0.387500,-0.096194,0.406634,-0.085355,0.422855,-0.069134,0.433694,-0.050000,0.437500,0.050000,0.437500,0.069134,0.433694,0.085355,0.422855,0.096194,0.406634,0.100000,0.387500,0.100000,-0.387500,0.050000,-0.437500,-0.050000,-0.437500,-0.069134,-0.433694,-0.085355,-0.422855,-0.096194,-0.406634,-0.100000,-0.387500,-0.100000,0.387500,-0.100000,0.387500,$1*%
%AMFreePoly7*
4,1,18,-0.100000,0.387500,-0.096194,0.406634,-0.085355,0.422855,-0.069134,0.433694,-0.050000,0.437500,0.050000,0.437500,0.069134,0.433694,0.085355,0.422855,0.096194,0.406634,0.100000,0.387500,0.100000,-0.387500,0.096194,-0.406634,0.085355,-0.422855,0.069134,-0.433694,0.050000,-0.437500,-0.050000,-0.437500,-0.100000,-0.387500,-0.100000,0.387500,-0.100000,0.387500,$1*%
G04 Aperture macros list end*
%ADD10RoundRect,0.250000X-0.875000X-0.925000X0.875000X-0.925000X0.875000X0.925000X-0.875000X0.925000X0*%
%ADD11RoundRect,0.140000X0.170000X-0.140000X0.170000X0.140000X-0.170000X0.140000X-0.170000X-0.140000X0*%
%ADD12RoundRect,0.225000X-0.225000X-0.250000X0.225000X-0.250000X0.225000X0.250000X-0.225000X0.250000X0*%
%ADD13RoundRect,0.140000X0.140000X0.170000X-0.140000X0.170000X-0.140000X-0.170000X0.140000X-0.170000X0*%
%ADD14RoundRect,0.200000X0.275000X-0.200000X0.275000X0.200000X-0.275000X0.200000X-0.275000X-0.200000X0*%
%ADD15RoundRect,0.250000X-0.350000X-0.350000X0.350000X-0.350000X0.350000X0.350000X-0.350000X0.350000X0*%
%ADD16FreePoly0,0.000000*%
%ADD17RoundRect,0.050000X-0.387500X-0.050000X0.387500X-0.050000X0.387500X0.050000X-0.387500X0.050000X0*%
%ADD18FreePoly1,0.000000*%
%ADD19FreePoly2,0.000000*%
%ADD20RoundRect,0.050000X-0.050000X-0.387500X0.050000X-0.387500X0.050000X0.387500X-0.050000X0.387500X0*%
%ADD21FreePoly3,0.000000*%
%ADD22FreePoly4,0.000000*%
%ADD23FreePoly5,0.000000*%
%ADD24FreePoly6,0.000000*%
%ADD25FreePoly7,0.000000*%
%ADD26R,1.000000X0.900000*%
%ADD27RoundRect,0.140000X-0.170000X0.140000X-0.170000X-0.140000X0.170000X-0.140000X0.170000X0.140000X0*%
%ADD28RoundRect,0.225000X0.250000X-0.225000X0.250000X0.225000X-0.250000X0.225000X-0.250000X-0.225000X0*%
%ADD29R,1.550000X1.300000*%
%ADD30RoundRect,0.140000X-0.140000X-0.170000X0.140000X-0.170000X0.140000X0.170000X-0.140000X0.170000X0*%
%ADD31RoundRect,0.135000X0.135000X0.185000X-0.135000X0.185000X-0.135000X-0.185000X0.135000X-0.185000X0*%
%ADD32RoundRect,0.250000X-0.435000X-0.615000X0.435000X-0.615000X0.435000X0.615000X-0.435000X0.615000X0*%
%ADD33RoundRect,0.125000X-0.250000X-0.125000X0.250000X-0.125000X0.250000X0.125000X-0.250000X0.125000X0*%
%ADD34R,0.300000X1.300000*%
%ADD35R,1.800000X2.200000*%
%ADD36RoundRect,0.087500X-0.087500X0.250000X-0.087500X-0.250000X0.087500X-0.250000X0.087500X0.250000X0*%
%ADD37RoundRect,0.190000X-0.285000X-0.685000X0.285000X-0.685000X0.285000X0.685000X-0.285000X0.685000X0*%
%ADD38RoundRect,0.200000X0.200000X0.275000X-0.200000X0.275000X-0.200000X-0.275000X0.200000X-0.275000X0*%
%ADD39R,0.700000X1.700000*%
%ADD40RoundRect,0.160000X-0.160000X0.197500X-0.160000X-0.197500X0.160000X-0.197500X0.160000X0.197500X0*%
%ADD41RoundRect,0.105263X-0.194737X-0.694737X0.194737X-0.694737X0.194737X0.694737X-0.194737X0.694737X0*%
%ADD42RoundRect,0.135000X-0.135000X-0.185000X0.135000X-0.185000X0.135000X0.185000X-0.135000X0.185000X0*%
%ADD43RoundRect,0.105263X-0.694737X0.194737X-0.694737X-0.194737X0.694737X-0.194737X0.694737X0.194737X0*%
%ADD44RoundRect,0.200000X-0.200000X-0.275000X0.200000X-0.275000X0.200000X0.275000X-0.200000X0.275000X0*%
%ADD45RoundRect,0.150000X-0.825000X-0.150000X0.825000X-0.150000X0.825000X0.150000X-0.825000X0.150000X0*%
%ADD46RoundRect,0.135000X-0.185000X0.135000X-0.185000X-0.135000X0.185000X-0.135000X0.185000X0.135000X0*%
%ADD47R,1.100000X1.400000*%
%ADD48RoundRect,0.225000X-0.250000X0.225000X-0.250000X-0.225000X0.250000X-0.225000X0.250000X0.225000X0*%
%ADD49RoundRect,0.087500X0.087500X-0.150000X0.087500X0.150000X-0.087500X0.150000X-0.087500X-0.150000X0*%
%ADD50RoundRect,0.050000X0.050000X-0.262500X0.050000X0.262500X-0.050000X0.262500X-0.050000X-0.262500X0*%
%ADD51RoundRect,0.062500X0.062500X-0.162500X0.062500X0.162500X-0.062500X0.162500X-0.062500X-0.162500X0*%
%ADD52R,1.750000X0.700000*%
%ADD53R,1.000000X1.450000*%
%ADD54R,1.550000X1.000000*%
%ADD55R,1.500000X0.800000*%
%ADD56R,1.500000X1.300000*%
%ADD57R,1.500000X1.500000*%
%ADD58R,1.400000X0.800000*%
%ADD59RoundRect,0.093750X0.093750X-0.156250X0.093750X0.156250X-0.093750X0.156250X-0.093750X-0.156250X0*%
%ADD60RoundRect,0.075000X0.075000X-0.250000X0.075000X0.250000X-0.075000X0.250000X-0.075000X-0.250000X0*%
%ADD61RoundRect,0.150000X0.512500X0.150000X-0.512500X0.150000X-0.512500X-0.150000X0.512500X-0.150000X0*%
%ADD62RoundRect,0.150000X0.500000X-0.150000X0.500000X0.150000X-0.500000X0.150000X-0.500000X-0.150000X0*%
%ADD63RoundRect,0.075000X0.575000X-0.075000X0.575000X0.075000X-0.575000X0.075000X-0.575000X-0.075000X0*%
%ADD64R,0.900000X1.100000*%
G04 APERTURE END LIST*
D10*
%TO.C,C32*%
X126820000Y-117220000D03*
X131920000Y-117220000D03*
%TD*%
%TO.C,C31*%
X131925000Y-113470000D03*
X126825000Y-113470000D03*
%TD*%
D11*
%TO.C,C26*%
X156110000Y-113590000D03*
X156110000Y-112630000D03*
%TD*%
D12*
%TO.C,C30*%
X117265000Y-113535000D03*
X118815000Y-113535000D03*
%TD*%
D13*
%TO.C,C24*%
X195010000Y-83630000D03*
X194050000Y-83630000D03*
%TD*%
D14*
%TO.C,R14*%
X150900000Y-114600000D03*
X150900000Y-112950000D03*
%TD*%
D15*
%TO.C,U1*%
X178960000Y-104042500D03*
X178960000Y-105442500D03*
X180360000Y-104042500D03*
X180360000Y-105442500D03*
D16*
X176222500Y-101942500D03*
D17*
X176222500Y-102342500D03*
X176222500Y-102742500D03*
X176222500Y-103142500D03*
X176222500Y-103542500D03*
X176222500Y-103942500D03*
X176222500Y-104342500D03*
X176222500Y-104742500D03*
X176222500Y-105142500D03*
X176222500Y-105542500D03*
X176222500Y-105942500D03*
X176222500Y-106342500D03*
X176222500Y-106742500D03*
X176222500Y-107142500D03*
D18*
X176222500Y-107542500D03*
D19*
X176860000Y-108180000D03*
D20*
X177260000Y-108180000D03*
X177660000Y-108180000D03*
X178060000Y-108180000D03*
X178460000Y-108180000D03*
X178860000Y-108180000D03*
X179260000Y-108180000D03*
X179660000Y-108180000D03*
X180060000Y-108180000D03*
X180460000Y-108180000D03*
X180860000Y-108180000D03*
X181260000Y-108180000D03*
X181660000Y-108180000D03*
X182060000Y-108180000D03*
D21*
X182460000Y-108180000D03*
D22*
X183097500Y-107542500D03*
D17*
X183097500Y-107142500D03*
X183097500Y-106742500D03*
X183097500Y-106342500D03*
X183097500Y-105942500D03*
X183097500Y-105542500D03*
X183097500Y-105142500D03*
X183097500Y-104742500D03*
X183097500Y-104342500D03*
X183097500Y-103942500D03*
X183097500Y-103542500D03*
X183097500Y-103142500D03*
X183097500Y-102742500D03*
X183097500Y-102342500D03*
D23*
X183097500Y-101942500D03*
D24*
X182460000Y-101305000D03*
D20*
X182060000Y-101305000D03*
X181660000Y-101305000D03*
X181260000Y-101305000D03*
X180860000Y-101305000D03*
X180460000Y-101305000D03*
X180060000Y-101305000D03*
X179660000Y-101305000D03*
X179260000Y-101305000D03*
X178860000Y-101305000D03*
X178460000Y-101305000D03*
X178060000Y-101305000D03*
X177660000Y-101305000D03*
X177260000Y-101305000D03*
D25*
X176860000Y-101305000D03*
%TD*%
D14*
%TO.C,R15*%
X149400000Y-114600000D03*
X149400000Y-112950000D03*
%TD*%
D26*
%TO.C,SW1*%
X168940000Y-103160000D03*
X168940000Y-99060000D03*
X170540000Y-103160000D03*
X170540000Y-99060000D03*
%TD*%
D27*
%TO.C,C11*%
X179987498Y-109912500D03*
X179987498Y-110872500D03*
%TD*%
D28*
%TO.C,C19*%
X183020000Y-91555000D03*
X183020000Y-90005000D03*
%TD*%
D29*
%TO.C,SW3*%
X113965000Y-67980000D03*
X121915000Y-67980000D03*
X113965000Y-72480000D03*
X121915000Y-72480000D03*
%TD*%
D30*
%TO.C,C12*%
X184900000Y-103490000D03*
X185860000Y-103490000D03*
%TD*%
D31*
%TO.C,R9*%
X174063750Y-102086250D03*
X173043750Y-102086250D03*
%TD*%
D32*
%TO.C,U3*%
X170290000Y-85840000D03*
X170290000Y-87990000D03*
X171990000Y-85840000D03*
X171990000Y-87990000D03*
D33*
X168440000Y-85010000D03*
X168440000Y-86280000D03*
X168440000Y-87550000D03*
X168440000Y-88820000D03*
X173840000Y-88820000D03*
X173840000Y-87550000D03*
X173840000Y-86280000D03*
X173840000Y-85010000D03*
%TD*%
D13*
%TO.C,C2*%
X185857500Y-101552500D03*
X184897500Y-101552500D03*
%TD*%
D28*
%TO.C,C34*%
X140010000Y-113790000D03*
X140010000Y-112240000D03*
%TD*%
D34*
%TO.C,J1*%
X159350000Y-110200000D03*
X158850000Y-110200000D03*
X158350000Y-110200000D03*
X157850000Y-110200000D03*
X157350000Y-110200000D03*
X156850000Y-110200000D03*
X156350000Y-110200000D03*
X155850000Y-110200000D03*
X155350000Y-110200000D03*
X154850000Y-110200000D03*
X154350000Y-110200000D03*
X153850000Y-110200000D03*
X153350000Y-110200000D03*
X152850000Y-110200000D03*
X152350000Y-110200000D03*
X151850000Y-110200000D03*
X151350000Y-110200000D03*
X150850000Y-110200000D03*
X150350000Y-110200000D03*
X149850000Y-110200000D03*
X149350000Y-110200000D03*
X148850000Y-110200000D03*
X148350000Y-110200000D03*
X147850000Y-110200000D03*
D35*
X161250000Y-106950000D03*
X145950000Y-106950000D03*
%TD*%
D14*
%TO.C,R16*%
X147000000Y-114600000D03*
X147000000Y-112950000D03*
%TD*%
D36*
%TO.C,U8*%
X138760000Y-112570000D03*
X138260000Y-112570000D03*
X137760000Y-112570000D03*
X137760000Y-113995000D03*
X138260000Y-113995000D03*
X138760000Y-113995000D03*
%TD*%
D37*
%TO.C,D1*%
X123910000Y-70350000D03*
X127010000Y-70350000D03*
%TD*%
D38*
%TO.C,R18*%
X186790000Y-105690000D03*
X185140000Y-105690000D03*
%TD*%
D13*
%TO.C,C15*%
X176080000Y-85010000D03*
X175120000Y-85010000D03*
%TD*%
D39*
%TO.C,L1*%
X181047500Y-97242500D03*
X182447500Y-97242500D03*
%TD*%
D40*
%TO.C,R6*%
X123720000Y-112495000D03*
X123720000Y-113690000D03*
%TD*%
D30*
%TO.C,C9*%
X181187500Y-99792500D03*
X182147500Y-99792500D03*
%TD*%
D27*
%TO.C,C7*%
X183847500Y-98882500D03*
X183847500Y-99842500D03*
%TD*%
D11*
%TO.C,C6*%
X175020000Y-101340000D03*
X175020000Y-100380000D03*
%TD*%
D27*
%TO.C,C13*%
X177977500Y-96572500D03*
X177977500Y-97532500D03*
%TD*%
D13*
%TO.C,C10*%
X174577500Y-103942500D03*
X173617500Y-103942500D03*
%TD*%
%TO.C,C17*%
X178817501Y-114892500D03*
X177857501Y-114892500D03*
%TD*%
D11*
%TO.C,C25*%
X148190000Y-113700000D03*
X148190000Y-112740000D03*
%TD*%
D41*
%TO.C,L3*%
X138075000Y-115945000D03*
X139775000Y-115945000D03*
%TD*%
D28*
%TO.C,C35*%
X137680000Y-111305000D03*
X137680000Y-109755000D03*
%TD*%
D13*
%TO.C,C27*%
X143780000Y-111000000D03*
X142820000Y-111000000D03*
%TD*%
D12*
%TO.C,C23*%
X178635000Y-83850000D03*
X180185000Y-83850000D03*
%TD*%
D28*
%TO.C,C22*%
X182968999Y-88074330D03*
X182968999Y-86524330D03*
%TD*%
D42*
%TO.C,R4*%
X173020000Y-99280000D03*
X174040000Y-99280000D03*
%TD*%
D43*
%TO.C,L2*%
X118300000Y-114910000D03*
X118300000Y-116610000D03*
%TD*%
D44*
%TO.C,R10*%
X172220000Y-100550000D03*
X173870000Y-100550000D03*
%TD*%
D45*
%TO.C,U4*%
X168825000Y-90595000D03*
X168825000Y-91865000D03*
X168825000Y-93135000D03*
X168825000Y-94405000D03*
X173775000Y-94405000D03*
X173775000Y-93135000D03*
X173775000Y-91865000D03*
X173775000Y-90595000D03*
%TD*%
D46*
%TO.C,R17*%
X123920000Y-67370000D03*
X123920000Y-68390000D03*
%TD*%
D30*
%TO.C,C3*%
X173240000Y-106400000D03*
X174200000Y-106400000D03*
%TD*%
D27*
%TO.C,C16*%
X175610000Y-88900000D03*
X175610000Y-89860000D03*
%TD*%
D47*
%TO.C,X1*%
X176647500Y-111192500D03*
X176647500Y-113392500D03*
X178247502Y-113392500D03*
X178247502Y-111192500D03*
%TD*%
D13*
%TO.C,C4*%
X185860000Y-104460000D03*
X184900000Y-104460000D03*
%TD*%
D48*
%TO.C,C20*%
X181360000Y-92280000D03*
X181360000Y-93830000D03*
%TD*%
D46*
%TO.C,R2*%
X178927500Y-96512500D03*
X178927500Y-97532500D03*
%TD*%
D14*
%TO.C,R13*%
X153400000Y-114425000D03*
X153400000Y-112775000D03*
%TD*%
D49*
%TO.C,U7*%
X120280000Y-115210000D03*
X121380000Y-115210000D03*
D50*
X120830000Y-115134500D03*
D49*
X120280000Y-114535000D03*
X121380000Y-114535000D03*
D50*
X120830000Y-114309000D03*
D51*
X121580000Y-113272000D03*
X121080000Y-113272000D03*
X120580000Y-113272000D03*
X120080000Y-113272000D03*
%TD*%
D52*
%TO.C,J2*%
X193325000Y-72500000D03*
X193325000Y-73600000D03*
X193325000Y-74700000D03*
X193325000Y-75800000D03*
X193325000Y-76900000D03*
X193325000Y-78000000D03*
X193325000Y-79100000D03*
X193325000Y-80200000D03*
D53*
X184100000Y-81325000D03*
D54*
X182525000Y-70100000D03*
D55*
X185600000Y-81650000D03*
D56*
X193200000Y-81400000D03*
D57*
X193200000Y-70050000D03*
D58*
X184950000Y-69700000D03*
%TD*%
D30*
%TO.C,C8*%
X181187500Y-98842500D03*
X182147500Y-98842500D03*
%TD*%
D13*
%TO.C,C14*%
X185857500Y-102522500D03*
X184897500Y-102522500D03*
%TD*%
D48*
%TO.C,C21*%
X178690000Y-92270000D03*
X178690000Y-93820000D03*
%TD*%
D27*
%TO.C,C29*%
X177007500Y-96572500D03*
X177007500Y-97532500D03*
%TD*%
D46*
%TO.C,R8*%
X180957498Y-109902500D03*
X180957498Y-110922500D03*
%TD*%
D44*
%TO.C,R7*%
X172155000Y-97050000D03*
X173805000Y-97050000D03*
%TD*%
D59*
%TO.C,U6*%
X184865000Y-93280000D03*
D60*
X185402500Y-93355000D03*
D59*
X185940000Y-93280000D03*
X185940000Y-91580000D03*
D60*
X185402500Y-91505000D03*
D59*
X184865000Y-91580000D03*
%TD*%
D61*
%TO.C,U2*%
X181135000Y-87320000D03*
X181135000Y-86370000D03*
X181135000Y-85420000D03*
X178860000Y-85420000D03*
X178860000Y-87320000D03*
%TD*%
D11*
%TO.C,C5*%
X174400000Y-112780000D03*
X174400000Y-111820000D03*
%TD*%
D46*
%TO.C,R3*%
X179917500Y-96522500D03*
X179917500Y-97542500D03*
%TD*%
D38*
%TO.C,R11*%
X189425000Y-96400000D03*
X187775000Y-96400000D03*
%TD*%
D46*
%TO.C,R1*%
X183847500Y-96972500D03*
X183847500Y-97992500D03*
%TD*%
D30*
%TO.C,C28*%
X142810000Y-110020000D03*
X143770000Y-110020000D03*
%TD*%
D40*
%TO.C,R19*%
X122760000Y-112485000D03*
X122760000Y-113680000D03*
%TD*%
D62*
%TO.C,J3*%
X188255000Y-93200000D03*
X188255000Y-92400000D03*
D63*
X188255000Y-91250000D03*
X188255000Y-90250000D03*
X188255000Y-89750000D03*
X188255000Y-88750000D03*
D62*
X188255000Y-87600000D03*
X188255000Y-86800000D03*
X188255000Y-86800000D03*
X188255000Y-87600000D03*
D63*
X188255000Y-88250000D03*
X188255000Y-89250000D03*
X188255000Y-90750000D03*
X188255000Y-91750000D03*
D62*
X188255000Y-92400000D03*
X188255000Y-93200000D03*
%TD*%
D64*
%TO.C,Y1*%
X163640000Y-104560000D03*
X163640000Y-106260000D03*
X164940000Y-106260000D03*
X164940000Y-104560000D03*
%TD*%
D38*
%TO.C,R12*%
X189375000Y-83600000D03*
X187725000Y-83600000D03*
%TD*%
D31*
%TO.C,R5*%
X174040000Y-98290000D03*
X173020000Y-98290000D03*
%TD*%
D28*
%TO.C,C33*%
X141510000Y-113785000D03*
X141510000Y-112235000D03*
%TD*%
D61*
%TO.C,U5*%
X181147500Y-90777500D03*
X181147500Y-89827500D03*
X181147500Y-88877500D03*
X178872500Y-88877500D03*
X178872500Y-90777500D03*
%TD*%
D11*
%TO.C,C1*%
X182567498Y-110892500D03*
X182567498Y-109932500D03*
%TD*%
D27*
%TO.C,C18*%
X175377501Y-111840000D03*
X175377501Y-112800000D03*
%TD*%
M02*
