%TF.GenerationSoftware,KiCad,Pcbnew,8.0.9*%
%TF.CreationDate,2025-05-16T14:56:25+01:00*%
%TF.ProjectId,bizcamera,62697a63-616d-4657-9261-2e6b69636164,rev?*%
%TF.SameCoordinates,Original*%
%TF.FileFunction,Copper,L2,Inr*%
%TF.FilePolarity,Positive*%
%FSLAX46Y46*%
G04 Gerber Fmt 4.6, Leading zero omitted, Abs format (unit mm)*
G04 Created by KiCad (PCBNEW 8.0.9) date 2025-05-16 14:56:25*
%MOMM*%
%LPD*%
G01*
G04 APERTURE LIST*
%TA.AperFunction,ComponentPad*%
%ADD10C,0.600000*%
%TD*%
%TA.AperFunction,ComponentPad*%
%ADD11C,3.000000*%
%TD*%
%TA.AperFunction,HeatsinkPad*%
%ADD12O,2.100000X1.000000*%
%TD*%
%TA.AperFunction,HeatsinkPad*%
%ADD13O,1.600000X1.000000*%
%TD*%
%TA.AperFunction,ViaPad*%
%ADD14C,0.500000*%
%TD*%
%TA.AperFunction,ViaPad*%
%ADD15C,0.350000*%
%TD*%
%TA.AperFunction,ViaPad*%
%ADD16C,1.000000*%
%TD*%
%TA.AperFunction,ViaPad*%
%ADD17C,0.600000*%
%TD*%
%TA.AperFunction,ViaPad*%
%ADD18C,0.700000*%
%TD*%
G04 APERTURE END LIST*
D10*
%TO.N,-BATT*%
%TO.C,U1*%
X178285000Y-104742500D03*
X179660000Y-103367500D03*
X179660000Y-106117500D03*
X181035000Y-104742500D03*
%TD*%
D11*
%TO.N,+BATT*%
%TO.C,BT1*%
X124495000Y-84150000D03*
X124495000Y-109550000D03*
%TD*%
D12*
%TO.N,-BATT*%
%TO.C,J3*%
X188895000Y-94320000D03*
D13*
X193075000Y-94320000D03*
D12*
X188895000Y-85680000D03*
D13*
X193075000Y-85680000D03*
%TD*%
D14*
%TO.N,+3V3*%
X126800000Y-115670000D03*
X126790000Y-115020000D03*
X125030000Y-113470000D03*
X121450000Y-118740000D03*
D15*
X184580000Y-96970000D03*
D14*
X153750000Y-101000000D03*
X162280000Y-92510000D03*
X148210000Y-115000000D03*
X177805000Y-97995000D03*
X145250000Y-92500000D03*
D15*
X181187500Y-99792500D03*
D14*
X161080000Y-112900000D03*
X178690000Y-91450000D03*
%TO.N,-BATT*%
X117630000Y-115655000D03*
X186810000Y-91590000D03*
X156110000Y-114230000D03*
X133550000Y-69250000D03*
D15*
X171480000Y-94620000D03*
D16*
X124495000Y-96850000D03*
D17*
X173140600Y-104348934D03*
D14*
X168825000Y-94405000D03*
X135100000Y-67030000D03*
X163100000Y-116090000D03*
X148190000Y-113700000D03*
D17*
X172300000Y-107000000D03*
D14*
X157320000Y-116040000D03*
D15*
X190120000Y-90670000D03*
D14*
X119140000Y-115655000D03*
D17*
X153400000Y-113740000D03*
D14*
X130420000Y-78110000D03*
D17*
X163640000Y-106260000D03*
D15*
X170120000Y-91260000D03*
D14*
X153770000Y-100120000D03*
X138840000Y-115180000D03*
X169013750Y-99066250D03*
D17*
X142660000Y-112160000D03*
D15*
X182147500Y-98842500D03*
X182630000Y-99440000D03*
D14*
X170480000Y-89810000D03*
D18*
X180026250Y-93103750D03*
D14*
%TO.N,+1V8*%
X175060000Y-99820000D03*
X187670000Y-106220000D03*
D18*
X174089502Y-96480000D03*
D15*
X184455000Y-101855000D03*
D14*
X159600000Y-108400000D03*
D18*
X179955993Y-88459579D03*
X143400000Y-112420000D03*
D14*
X164940000Y-104560000D03*
D18*
X183190000Y-109932500D03*
D15*
X182325000Y-103375000D03*
D14*
X177500000Y-107300000D03*
D18*
X175280000Y-90620000D03*
D14*
%TO.N,Net-(U3-~{CS})*%
X168880000Y-85660000D03*
D18*
X171611164Y-96416082D03*
%TO.N,/QSPI_SD0*%
X172415122Y-93794878D03*
X174500000Y-88820000D03*
D15*
%TO.N,Net-(U4-~{CE})*%
X168000000Y-90600000D03*
X166860000Y-89240000D03*
%TO.N,+1V1*%
X174300000Y-104220000D03*
D14*
X180997500Y-98217500D03*
X184170000Y-102900000D03*
X179987498Y-109912500D03*
%TO.N,/XOUT*%
X164160000Y-109810000D03*
D15*
X178247502Y-113392500D03*
D14*
%TO.N,Net-(U1-GPIO25)*%
X185140000Y-105690000D03*
X123200000Y-72500000D03*
%TO.N,+5V*%
X188255000Y-92400000D03*
X188255000Y-87600000D03*
D18*
%TO.N,Net-(D1-A)*%
X127010000Y-70350000D03*
D14*
X182192850Y-105835890D03*
D15*
%TO.N,/XTAL_EN*%
X181660000Y-109020000D03*
D17*
X163640000Y-104560000D03*
%TD*%
%TA.AperFunction,Conductor*%
%TO.N,-BATT*%
G36*
X193001797Y-65300601D02*
G01*
X193100749Y-65306158D01*
X193298656Y-65317272D01*
X193305783Y-65318074D01*
X193597157Y-65367581D01*
X193604138Y-65369174D01*
X193888144Y-65450995D01*
X193894908Y-65453362D01*
X194052657Y-65518704D01*
X194167949Y-65566460D01*
X194174415Y-65569574D01*
X194254348Y-65613750D01*
X194433080Y-65712532D01*
X194439142Y-65716340D01*
X194680181Y-65887367D01*
X194685792Y-65891842D01*
X194906154Y-66088770D01*
X194911229Y-66093845D01*
X195108157Y-66314207D01*
X195112632Y-66319818D01*
X195283654Y-66560850D01*
X195287472Y-66566927D01*
X195430425Y-66825584D01*
X195433539Y-66832050D01*
X195546635Y-67105086D01*
X195549006Y-67111860D01*
X195630823Y-67395852D01*
X195632420Y-67402850D01*
X195681924Y-67694213D01*
X195682727Y-67701344D01*
X195699399Y-67998201D01*
X195699500Y-68001790D01*
X195699500Y-116998209D01*
X195699399Y-117001798D01*
X195682727Y-117298655D01*
X195681924Y-117305786D01*
X195632420Y-117597149D01*
X195630823Y-117604147D01*
X195549006Y-117888139D01*
X195546635Y-117894913D01*
X195433539Y-118167949D01*
X195430425Y-118174415D01*
X195287472Y-118433072D01*
X195283654Y-118439149D01*
X195112632Y-118680181D01*
X195108157Y-118685792D01*
X194911229Y-118906154D01*
X194906154Y-118911229D01*
X194685792Y-119108157D01*
X194680181Y-119112632D01*
X194439149Y-119283654D01*
X194433072Y-119287472D01*
X194174415Y-119430425D01*
X194167949Y-119433539D01*
X193894913Y-119546635D01*
X193888139Y-119549006D01*
X193604147Y-119630823D01*
X193597149Y-119632420D01*
X193305786Y-119681924D01*
X193298655Y-119682727D01*
X193001798Y-119699399D01*
X192998209Y-119699500D01*
X114501791Y-119699500D01*
X114498202Y-119699399D01*
X114201344Y-119682727D01*
X114194213Y-119681924D01*
X113902850Y-119632420D01*
X113895852Y-119630823D01*
X113611860Y-119549006D01*
X113605086Y-119546635D01*
X113332050Y-119433539D01*
X113325584Y-119430425D01*
X113066927Y-119287472D01*
X113060850Y-119283654D01*
X112819818Y-119112632D01*
X112814207Y-119108157D01*
X112593845Y-118911229D01*
X112588770Y-118906154D01*
X112440284Y-118739999D01*
X121044508Y-118739999D01*
X121044508Y-118740000D01*
X121064353Y-118865302D01*
X121064356Y-118865309D01*
X121085168Y-118906154D01*
X121121950Y-118978342D01*
X121211658Y-119068050D01*
X121211660Y-119068051D01*
X121211661Y-119068052D01*
X121324690Y-119125643D01*
X121324696Y-119125646D01*
X121450000Y-119145492D01*
X121575304Y-119125646D01*
X121688338Y-119068052D01*
X121688339Y-119068052D01*
X121688339Y-119068051D01*
X121688342Y-119068050D01*
X121778050Y-118978342D01*
X121835646Y-118865304D01*
X121855492Y-118740000D01*
X121835646Y-118614696D01*
X121778050Y-118501658D01*
X121688342Y-118411950D01*
X121688339Y-118411948D01*
X121688337Y-118411947D01*
X121575309Y-118354356D01*
X121575302Y-118354353D01*
X121450000Y-118334508D01*
X121324697Y-118354353D01*
X121324690Y-118354356D01*
X121211662Y-118411947D01*
X121211660Y-118411948D01*
X121211658Y-118411950D01*
X121121950Y-118501658D01*
X121121948Y-118501660D01*
X121121947Y-118501662D01*
X121064356Y-118614690D01*
X121064353Y-118614697D01*
X121044508Y-118739999D01*
X112440284Y-118739999D01*
X112391842Y-118685792D01*
X112387367Y-118680181D01*
X112216340Y-118439142D01*
X112212532Y-118433080D01*
X112069574Y-118174415D01*
X112066460Y-118167949D01*
X111953364Y-117894913D01*
X111950993Y-117888139D01*
X111869174Y-117604138D01*
X111867581Y-117597157D01*
X111818074Y-117305783D01*
X111817272Y-117298654D01*
X111800601Y-117001797D01*
X111800500Y-116998209D01*
X111800500Y-115019999D01*
X126384508Y-115019999D01*
X126384508Y-115020000D01*
X126404353Y-115145302D01*
X126404356Y-115145309D01*
X126451759Y-115238342D01*
X126461950Y-115258342D01*
X126508353Y-115304745D01*
X126527098Y-115349999D01*
X126508353Y-115395253D01*
X126471952Y-115431654D01*
X126471947Y-115431660D01*
X126414356Y-115544690D01*
X126414353Y-115544697D01*
X126394508Y-115669999D01*
X126394508Y-115670000D01*
X126414353Y-115795302D01*
X126414356Y-115795309D01*
X126471947Y-115908337D01*
X126471950Y-115908342D01*
X126561658Y-115998050D01*
X126561660Y-115998051D01*
X126561661Y-115998052D01*
X126674690Y-116055643D01*
X126674696Y-116055646D01*
X126800000Y-116075492D01*
X126925304Y-116055646D01*
X127038338Y-115998052D01*
X127038339Y-115998052D01*
X127038339Y-115998051D01*
X127038342Y-115998050D01*
X127128050Y-115908342D01*
X127185646Y-115795304D01*
X127205492Y-115670000D01*
X127185646Y-115544696D01*
X127128050Y-115431658D01*
X127128046Y-115431654D01*
X127081646Y-115385253D01*
X127062901Y-115339998D01*
X127081646Y-115294744D01*
X127118050Y-115258342D01*
X127175646Y-115145304D01*
X127195492Y-115020000D01*
X127192324Y-114999999D01*
X147804508Y-114999999D01*
X147804508Y-115000000D01*
X147824353Y-115125302D01*
X147824356Y-115125309D01*
X147834547Y-115145309D01*
X147881950Y-115238342D01*
X147971658Y-115328050D01*
X147971660Y-115328051D01*
X147971661Y-115328052D01*
X148014735Y-115349999D01*
X148084696Y-115385646D01*
X148210000Y-115405492D01*
X148335304Y-115385646D01*
X148448338Y-115328052D01*
X148448339Y-115328052D01*
X148448339Y-115328051D01*
X148448342Y-115328050D01*
X148538050Y-115238342D01*
X148595646Y-115125304D01*
X148615492Y-115000000D01*
X148595646Y-114874696D01*
X148538050Y-114761658D01*
X148448342Y-114671950D01*
X148448339Y-114671948D01*
X148448337Y-114671947D01*
X148335309Y-114614356D01*
X148335302Y-114614353D01*
X148210000Y-114594508D01*
X148084697Y-114614353D01*
X148084690Y-114614356D01*
X147971662Y-114671947D01*
X147971660Y-114671948D01*
X147971658Y-114671950D01*
X147881950Y-114761658D01*
X147881948Y-114761660D01*
X147881947Y-114761662D01*
X147824356Y-114874690D01*
X147824353Y-114874697D01*
X147804508Y-114999999D01*
X127192324Y-114999999D01*
X127175646Y-114894696D01*
X127118050Y-114781658D01*
X127028342Y-114691950D01*
X127028339Y-114691948D01*
X127028337Y-114691947D01*
X126915309Y-114634356D01*
X126915302Y-114634353D01*
X126790000Y-114614508D01*
X126664697Y-114634353D01*
X126664690Y-114634356D01*
X126551662Y-114691947D01*
X126551660Y-114691948D01*
X126551658Y-114691950D01*
X126461950Y-114781658D01*
X126461948Y-114781660D01*
X126461947Y-114781662D01*
X126404356Y-114894690D01*
X126404353Y-114894697D01*
X126384508Y-115019999D01*
X111800500Y-115019999D01*
X111800500Y-113469999D01*
X124624508Y-113469999D01*
X124624508Y-113470000D01*
X124644353Y-113595302D01*
X124644356Y-113595309D01*
X124701947Y-113708337D01*
X124701950Y-113708342D01*
X124791658Y-113798050D01*
X124791660Y-113798051D01*
X124791661Y-113798052D01*
X124904690Y-113855643D01*
X124904696Y-113855646D01*
X125030000Y-113875492D01*
X125155304Y-113855646D01*
X125268338Y-113798052D01*
X125268339Y-113798052D01*
X125268339Y-113798051D01*
X125268342Y-113798050D01*
X125358050Y-113708342D01*
X125415646Y-113595304D01*
X125435492Y-113470000D01*
X125423217Y-113392500D01*
X177916981Y-113392500D01*
X177936914Y-113505545D01*
X177994309Y-113604957D01*
X178082241Y-113678740D01*
X178190108Y-113718000D01*
X178304896Y-113718000D01*
X178412763Y-113678740D01*
X178500696Y-113604955D01*
X178558090Y-113505545D01*
X178578023Y-113392500D01*
X178558090Y-113279455D01*
X178500696Y-113180045D01*
X178500695Y-113180044D01*
X178500694Y-113180042D01*
X178412762Y-113106259D01*
X178304896Y-113067000D01*
X178190108Y-113067000D01*
X178082242Y-113106259D01*
X178082241Y-113106260D01*
X177994309Y-113180042D01*
X177936914Y-113279454D01*
X177916981Y-113392500D01*
X125423217Y-113392500D01*
X125415646Y-113344696D01*
X125358050Y-113231658D01*
X125268342Y-113141950D01*
X125268339Y-113141948D01*
X125268337Y-113141947D01*
X125155309Y-113084356D01*
X125155302Y-113084353D01*
X125030000Y-113064508D01*
X124904697Y-113084353D01*
X124904690Y-113084356D01*
X124791662Y-113141947D01*
X124791660Y-113141948D01*
X124791658Y-113141950D01*
X124701950Y-113231658D01*
X124701948Y-113231660D01*
X124701947Y-113231662D01*
X124644356Y-113344690D01*
X124644353Y-113344697D01*
X124624508Y-113469999D01*
X111800500Y-113469999D01*
X111800500Y-112420000D01*
X142904456Y-112420000D01*
X142924529Y-112559613D01*
X142983119Y-112687906D01*
X142983121Y-112687909D01*
X142983122Y-112687911D01*
X143075488Y-112794507D01*
X143194144Y-112870763D01*
X143329477Y-112910500D01*
X143329479Y-112910500D01*
X143470521Y-112910500D01*
X143470523Y-112910500D01*
X143506286Y-112899999D01*
X160674508Y-112899999D01*
X160674508Y-112900000D01*
X160694353Y-113025302D01*
X160694356Y-113025309D01*
X160735603Y-113106260D01*
X160751950Y-113138342D01*
X160841658Y-113228050D01*
X160841660Y-113228051D01*
X160841661Y-113228052D01*
X160954690Y-113285643D01*
X160954696Y-113285646D01*
X161080000Y-113305492D01*
X161205304Y-113285646D01*
X161318338Y-113228052D01*
X161318339Y-113228052D01*
X161318339Y-113228051D01*
X161318342Y-113228050D01*
X161408050Y-113138342D01*
X161465646Y-113025304D01*
X161485492Y-112900000D01*
X161465646Y-112774696D01*
X161408050Y-112661658D01*
X161318342Y-112571950D01*
X161318339Y-112571948D01*
X161318337Y-112571947D01*
X161205309Y-112514356D01*
X161205302Y-112514353D01*
X161080000Y-112494508D01*
X160954697Y-112514353D01*
X160954690Y-112514356D01*
X160841662Y-112571947D01*
X160841660Y-112571948D01*
X160841658Y-112571950D01*
X160751950Y-112661658D01*
X160751948Y-112661660D01*
X160751947Y-112661662D01*
X160694356Y-112774690D01*
X160694353Y-112774697D01*
X160674508Y-112899999D01*
X143506286Y-112899999D01*
X143605856Y-112870763D01*
X143724512Y-112794507D01*
X143816878Y-112687911D01*
X143875471Y-112559611D01*
X143895544Y-112420000D01*
X143875471Y-112280389D01*
X143816878Y-112152089D01*
X143724512Y-112045493D01*
X143688027Y-112022045D01*
X143605857Y-111969237D01*
X143560745Y-111955991D01*
X143470523Y-111929500D01*
X143329477Y-111929500D01*
X143261810Y-111949368D01*
X143194142Y-111969237D01*
X143075489Y-112045492D01*
X142983123Y-112152087D01*
X142983119Y-112152093D01*
X142924529Y-112280386D01*
X142904456Y-112420000D01*
X111800500Y-112420000D01*
X111800500Y-109550000D01*
X122849427Y-109550000D01*
X122869687Y-109807424D01*
X122869688Y-109807428D01*
X122929967Y-110058513D01*
X123028783Y-110297074D01*
X123028784Y-110297075D01*
X123163703Y-110517244D01*
X123331404Y-110713596D01*
X123527756Y-110881297D01*
X123747925Y-111016216D01*
X123747924Y-111016216D01*
X123986486Y-111115032D01*
X123986489Y-111115032D01*
X123986490Y-111115033D01*
X124237576Y-111175313D01*
X124495000Y-111195573D01*
X124752424Y-111175313D01*
X125003510Y-111115033D01*
X125003511Y-111115032D01*
X125003513Y-111115032D01*
X125091637Y-111078529D01*
X125242075Y-111016216D01*
X125462244Y-110881297D01*
X125658596Y-110713596D01*
X125826297Y-110517244D01*
X125961216Y-110297075D01*
X126027086Y-110138050D01*
X126060032Y-110058513D01*
X126062475Y-110048337D01*
X126119695Y-109809999D01*
X163754508Y-109809999D01*
X163754508Y-109810000D01*
X163774353Y-109935302D01*
X163774356Y-109935309D01*
X163826583Y-110037809D01*
X163831950Y-110048342D01*
X163921658Y-110138050D01*
X163921660Y-110138051D01*
X163921661Y-110138052D01*
X164034690Y-110195643D01*
X164034696Y-110195646D01*
X164160000Y-110215492D01*
X164285304Y-110195646D01*
X164398338Y-110138052D01*
X164398339Y-110138052D01*
X164398339Y-110138051D01*
X164398342Y-110138050D01*
X164488050Y-110048342D01*
X164545646Y-109935304D01*
X164549258Y-109912499D01*
X179582006Y-109912499D01*
X179582006Y-109912500D01*
X179601851Y-110037802D01*
X179601854Y-110037809D01*
X179619332Y-110072111D01*
X179659448Y-110150842D01*
X179749156Y-110240550D01*
X179749158Y-110240551D01*
X179749159Y-110240552D01*
X179860090Y-110297074D01*
X179862194Y-110298146D01*
X179987498Y-110317992D01*
X180112802Y-110298146D01*
X180225836Y-110240552D01*
X180225837Y-110240552D01*
X180225837Y-110240551D01*
X180225840Y-110240550D01*
X180315548Y-110150842D01*
X180373144Y-110037804D01*
X180389822Y-109932500D01*
X182694456Y-109932500D01*
X182714529Y-110072113D01*
X182773119Y-110200406D01*
X182773121Y-110200409D01*
X182773122Y-110200411D01*
X182865488Y-110307007D01*
X182984144Y-110383263D01*
X183119477Y-110423000D01*
X183119479Y-110423000D01*
X183260521Y-110423000D01*
X183260523Y-110423000D01*
X183395856Y-110383263D01*
X183514512Y-110307007D01*
X183606878Y-110200411D01*
X183665471Y-110072111D01*
X183685544Y-109932500D01*
X183665471Y-109792889D01*
X183662868Y-109787190D01*
X183606880Y-109664593D01*
X183606879Y-109664592D01*
X183606878Y-109664589D01*
X183514512Y-109557993D01*
X183466059Y-109526854D01*
X183395857Y-109481737D01*
X183350745Y-109468491D01*
X183260523Y-109442000D01*
X183119477Y-109442000D01*
X183051810Y-109461868D01*
X182984142Y-109481737D01*
X182865489Y-109557992D01*
X182773123Y-109664587D01*
X182773119Y-109664593D01*
X182714529Y-109792886D01*
X182694456Y-109932500D01*
X180389822Y-109932500D01*
X180392990Y-109912500D01*
X180373144Y-109787196D01*
X180315548Y-109674158D01*
X180225840Y-109584450D01*
X180225837Y-109584448D01*
X180225835Y-109584447D01*
X180112807Y-109526856D01*
X180112800Y-109526853D01*
X179987498Y-109507008D01*
X179862195Y-109526853D01*
X179862188Y-109526856D01*
X179749160Y-109584447D01*
X179749158Y-109584448D01*
X179749156Y-109584450D01*
X179659448Y-109674158D01*
X179659446Y-109674160D01*
X179659445Y-109674162D01*
X179601854Y-109787190D01*
X179601851Y-109787197D01*
X179582006Y-109912499D01*
X164549258Y-109912499D01*
X164565492Y-109810000D01*
X164562781Y-109792886D01*
X164545646Y-109684697D01*
X164545643Y-109684690D01*
X164488052Y-109571662D01*
X164488052Y-109571661D01*
X164488051Y-109571660D01*
X164488050Y-109571658D01*
X164398342Y-109481950D01*
X164398339Y-109481948D01*
X164398337Y-109481947D01*
X164285309Y-109424356D01*
X164285302Y-109424353D01*
X164160000Y-109404508D01*
X164034697Y-109424353D01*
X164034690Y-109424356D01*
X163921662Y-109481947D01*
X163921660Y-109481948D01*
X163921658Y-109481950D01*
X163831950Y-109571658D01*
X163831948Y-109571660D01*
X163831947Y-109571662D01*
X163774356Y-109684690D01*
X163774353Y-109684697D01*
X163754508Y-109809999D01*
X126119695Y-109809999D01*
X126120313Y-109807424D01*
X126140573Y-109550000D01*
X126120313Y-109292576D01*
X126060033Y-109041490D01*
X126060032Y-109041489D01*
X126060032Y-109041486D01*
X126051132Y-109020000D01*
X181329479Y-109020000D01*
X181349412Y-109133045D01*
X181406807Y-109232457D01*
X181478449Y-109292571D01*
X181494739Y-109306240D01*
X181602606Y-109345500D01*
X181717394Y-109345500D01*
X181825261Y-109306240D01*
X181913194Y-109232455D01*
X181970588Y-109133045D01*
X181990521Y-109020000D01*
X181970588Y-108906955D01*
X181913194Y-108807545D01*
X181913193Y-108807544D01*
X181913192Y-108807542D01*
X181825260Y-108733759D01*
X181717394Y-108694500D01*
X181602606Y-108694500D01*
X181494740Y-108733759D01*
X181494739Y-108733760D01*
X181406807Y-108807542D01*
X181349412Y-108906954D01*
X181329479Y-109020000D01*
X126051132Y-109020000D01*
X125961216Y-108802925D01*
X125915334Y-108728052D01*
X125826297Y-108582756D01*
X125670207Y-108399999D01*
X159194508Y-108399999D01*
X159194508Y-108400000D01*
X159214353Y-108525302D01*
X159214356Y-108525309D01*
X159243626Y-108582754D01*
X159271950Y-108638342D01*
X159361658Y-108728050D01*
X159361660Y-108728051D01*
X159361661Y-108728052D01*
X159372862Y-108733759D01*
X159474696Y-108785646D01*
X159600000Y-108805492D01*
X159725304Y-108785646D01*
X159838338Y-108728052D01*
X159838339Y-108728052D01*
X159838339Y-108728051D01*
X159838342Y-108728050D01*
X159928050Y-108638342D01*
X159985646Y-108525304D01*
X160005492Y-108400000D01*
X160003338Y-108386403D01*
X159985646Y-108274697D01*
X159985643Y-108274690D01*
X159928052Y-108161662D01*
X159928052Y-108161661D01*
X159928051Y-108161660D01*
X159928050Y-108161658D01*
X159838342Y-108071950D01*
X159838339Y-108071948D01*
X159838337Y-108071947D01*
X159725309Y-108014356D01*
X159725302Y-108014353D01*
X159600000Y-107994508D01*
X159474697Y-108014353D01*
X159474690Y-108014356D01*
X159361662Y-108071947D01*
X159361660Y-108071948D01*
X159361658Y-108071950D01*
X159271950Y-108161658D01*
X159271948Y-108161660D01*
X159271947Y-108161662D01*
X159214356Y-108274690D01*
X159214353Y-108274697D01*
X159194508Y-108399999D01*
X125670207Y-108399999D01*
X125658596Y-108386404D01*
X125462244Y-108218703D01*
X125242075Y-108083784D01*
X125242073Y-108083783D01*
X125242075Y-108083783D01*
X125003513Y-107984967D01*
X124752428Y-107924688D01*
X124752424Y-107924687D01*
X124495000Y-107904427D01*
X124237576Y-107924687D01*
X124237572Y-107924687D01*
X124237571Y-107924688D01*
X123986486Y-107984967D01*
X123747925Y-108083783D01*
X123527756Y-108218703D01*
X123527754Y-108218704D01*
X123331404Y-108386403D01*
X123331403Y-108386404D01*
X123163704Y-108582754D01*
X123163703Y-108582756D01*
X123028783Y-108802925D01*
X122929967Y-109041486D01*
X122884120Y-109232457D01*
X122869687Y-109292576D01*
X122849427Y-109550000D01*
X111800500Y-109550000D01*
X111800500Y-107299999D01*
X177094508Y-107299999D01*
X177094508Y-107300000D01*
X177114353Y-107425302D01*
X177114356Y-107425309D01*
X177171947Y-107538337D01*
X177171950Y-107538342D01*
X177261658Y-107628050D01*
X177261660Y-107628051D01*
X177261661Y-107628052D01*
X177374690Y-107685643D01*
X177374696Y-107685646D01*
X177500000Y-107705492D01*
X177625304Y-107685646D01*
X177738338Y-107628052D01*
X177738339Y-107628052D01*
X177738339Y-107628051D01*
X177738342Y-107628050D01*
X177828050Y-107538342D01*
X177885646Y-107425304D01*
X177905492Y-107300000D01*
X177885646Y-107174696D01*
X177828050Y-107061658D01*
X177738342Y-106971950D01*
X177738339Y-106971948D01*
X177738337Y-106971947D01*
X177625309Y-106914356D01*
X177625302Y-106914353D01*
X177500000Y-106894508D01*
X177374697Y-106914353D01*
X177374690Y-106914356D01*
X177261662Y-106971947D01*
X177261660Y-106971948D01*
X177261658Y-106971950D01*
X177171950Y-107061658D01*
X177171948Y-107061660D01*
X177171947Y-107061662D01*
X177114356Y-107174690D01*
X177114353Y-107174697D01*
X177094508Y-107299999D01*
X111800500Y-107299999D01*
X111800500Y-105835889D01*
X181787358Y-105835889D01*
X181787358Y-105835890D01*
X181807203Y-105961192D01*
X181807206Y-105961199D01*
X181864797Y-106074227D01*
X181864800Y-106074232D01*
X181954508Y-106163940D01*
X181954510Y-106163941D01*
X181954511Y-106163942D01*
X182064529Y-106219999D01*
X182067546Y-106221536D01*
X182192850Y-106241382D01*
X182318154Y-106221536D01*
X182321171Y-106219999D01*
X187264508Y-106219999D01*
X187264508Y-106220000D01*
X187284353Y-106345302D01*
X187284356Y-106345309D01*
X187341947Y-106458337D01*
X187341950Y-106458342D01*
X187431658Y-106548050D01*
X187431660Y-106548051D01*
X187431661Y-106548052D01*
X187544690Y-106605643D01*
X187544696Y-106605646D01*
X187670000Y-106625492D01*
X187795304Y-106605646D01*
X187908338Y-106548052D01*
X187908339Y-106548052D01*
X187908339Y-106548051D01*
X187908342Y-106548050D01*
X187998050Y-106458342D01*
X188055646Y-106345304D01*
X188075492Y-106220000D01*
X188055646Y-106094696D01*
X188045939Y-106075646D01*
X187998052Y-105981662D01*
X187998052Y-105981661D01*
X187998051Y-105981660D01*
X187998050Y-105981658D01*
X187908342Y-105891950D01*
X187908339Y-105891948D01*
X187908337Y-105891947D01*
X187795309Y-105834356D01*
X187795302Y-105834353D01*
X187670000Y-105814508D01*
X187544697Y-105834353D01*
X187544690Y-105834356D01*
X187431662Y-105891947D01*
X187431660Y-105891948D01*
X187431658Y-105891950D01*
X187341950Y-105981658D01*
X187341948Y-105981660D01*
X187341947Y-105981662D01*
X187284356Y-106094690D01*
X187284353Y-106094697D01*
X187264508Y-106219999D01*
X182321171Y-106219999D01*
X182431188Y-106163942D01*
X182431189Y-106163942D01*
X182431189Y-106163941D01*
X182431192Y-106163940D01*
X182520900Y-106074232D01*
X182578496Y-105961194D01*
X182598342Y-105835890D01*
X182594955Y-105814508D01*
X182578496Y-105710587D01*
X182578493Y-105710580D01*
X182568006Y-105689999D01*
X184734508Y-105689999D01*
X184734508Y-105690000D01*
X184754353Y-105815302D01*
X184754356Y-105815309D01*
X184793406Y-105891948D01*
X184811950Y-105928342D01*
X184901658Y-106018050D01*
X184901660Y-106018051D01*
X184901661Y-106018052D01*
X185011911Y-106074227D01*
X185014696Y-106075646D01*
X185140000Y-106095492D01*
X185265304Y-106075646D01*
X185378338Y-106018052D01*
X185378339Y-106018052D01*
X185378339Y-106018051D01*
X185378342Y-106018050D01*
X185468050Y-105928342D01*
X185525646Y-105815304D01*
X185545492Y-105690000D01*
X185525646Y-105564696D01*
X185468050Y-105451658D01*
X185378342Y-105361950D01*
X185378339Y-105361948D01*
X185378337Y-105361947D01*
X185265309Y-105304356D01*
X185265302Y-105304353D01*
X185140000Y-105284508D01*
X185014697Y-105304353D01*
X185014690Y-105304356D01*
X184901662Y-105361947D01*
X184901660Y-105361948D01*
X184901658Y-105361950D01*
X184811950Y-105451658D01*
X184811948Y-105451660D01*
X184811947Y-105451662D01*
X184754356Y-105564690D01*
X184754353Y-105564697D01*
X184734508Y-105689999D01*
X182568006Y-105689999D01*
X182520902Y-105597552D01*
X182520902Y-105597551D01*
X182520901Y-105597550D01*
X182520900Y-105597548D01*
X182431192Y-105507840D01*
X182431189Y-105507838D01*
X182431187Y-105507837D01*
X182318159Y-105450246D01*
X182318152Y-105450243D01*
X182192850Y-105430398D01*
X182067547Y-105450243D01*
X182067540Y-105450246D01*
X181954512Y-105507837D01*
X181954510Y-105507838D01*
X181954508Y-105507840D01*
X181864800Y-105597548D01*
X181864798Y-105597550D01*
X181864797Y-105597552D01*
X181807206Y-105710580D01*
X181807203Y-105710587D01*
X181787358Y-105835889D01*
X111800500Y-105835889D01*
X111800500Y-104560000D01*
X163194970Y-104560000D01*
X163212997Y-104685381D01*
X163265616Y-104800600D01*
X163265618Y-104800604D01*
X163341393Y-104888052D01*
X163348567Y-104896331D01*
X163455128Y-104964814D01*
X163576666Y-105000500D01*
X163576667Y-105000500D01*
X163703333Y-105000500D01*
X163703334Y-105000500D01*
X163824872Y-104964814D01*
X163931433Y-104896331D01*
X163977062Y-104843671D01*
X164014381Y-104800604D01*
X164014383Y-104800600D01*
X164015415Y-104798342D01*
X164067003Y-104685379D01*
X164085030Y-104560000D01*
X164085030Y-104559999D01*
X164534508Y-104559999D01*
X164534508Y-104560000D01*
X164554353Y-104685302D01*
X164554356Y-104685309D01*
X164554392Y-104685379D01*
X164611950Y-104798342D01*
X164701658Y-104888050D01*
X164701660Y-104888051D01*
X164701661Y-104888052D01*
X164814690Y-104945643D01*
X164814696Y-104945646D01*
X164940000Y-104965492D01*
X165065304Y-104945646D01*
X165178338Y-104888052D01*
X165178339Y-104888052D01*
X165178339Y-104888051D01*
X165178342Y-104888050D01*
X165268050Y-104798342D01*
X165325646Y-104685304D01*
X165345492Y-104560000D01*
X165343195Y-104545500D01*
X165325646Y-104434697D01*
X165325643Y-104434690D01*
X165268052Y-104321662D01*
X165268052Y-104321661D01*
X165268051Y-104321660D01*
X165268050Y-104321658D01*
X165178342Y-104231950D01*
X165178339Y-104231948D01*
X165178337Y-104231947D01*
X165154890Y-104220000D01*
X173969479Y-104220000D01*
X173989412Y-104333045D01*
X174046807Y-104432457D01*
X174134739Y-104506240D01*
X174242606Y-104545500D01*
X174357394Y-104545500D01*
X174465261Y-104506240D01*
X174550522Y-104434697D01*
X174553192Y-104432457D01*
X174553192Y-104432456D01*
X174553194Y-104432455D01*
X174610588Y-104333045D01*
X174630521Y-104220000D01*
X174610588Y-104106955D01*
X174553194Y-104007545D01*
X174553193Y-104007544D01*
X174553192Y-104007542D01*
X174465260Y-103933759D01*
X174357394Y-103894500D01*
X174242606Y-103894500D01*
X174134740Y-103933759D01*
X174134739Y-103933760D01*
X174046807Y-104007542D01*
X173989412Y-104106954D01*
X173969479Y-104220000D01*
X165154890Y-104220000D01*
X165065309Y-104174356D01*
X165065302Y-104174353D01*
X164940000Y-104154508D01*
X164814697Y-104174353D01*
X164814690Y-104174356D01*
X164701662Y-104231947D01*
X164701660Y-104231948D01*
X164701658Y-104231950D01*
X164611950Y-104321658D01*
X164611948Y-104321660D01*
X164611947Y-104321662D01*
X164554356Y-104434690D01*
X164554353Y-104434697D01*
X164534508Y-104559999D01*
X164085030Y-104559999D01*
X164067003Y-104434621D01*
X164014383Y-104319399D01*
X164014381Y-104319395D01*
X163931434Y-104223670D01*
X163931432Y-104223668D01*
X163824872Y-104155186D01*
X163822563Y-104154508D01*
X163703334Y-104119500D01*
X163576666Y-104119500D01*
X163455128Y-104155186D01*
X163455126Y-104155186D01*
X163348567Y-104223668D01*
X163348565Y-104223670D01*
X163265618Y-104319395D01*
X163265616Y-104319399D01*
X163212997Y-104434618D01*
X163194970Y-104560000D01*
X111800500Y-104560000D01*
X111800500Y-103375000D01*
X181994479Y-103375000D01*
X182014412Y-103488045D01*
X182071807Y-103587457D01*
X182159739Y-103661240D01*
X182267606Y-103700500D01*
X182382394Y-103700500D01*
X182490261Y-103661240D01*
X182578194Y-103587455D01*
X182635588Y-103488045D01*
X182655521Y-103375000D01*
X182635588Y-103261955D01*
X182578194Y-103162545D01*
X182578193Y-103162544D01*
X182578192Y-103162542D01*
X182490260Y-103088759D01*
X182382394Y-103049500D01*
X182267606Y-103049500D01*
X182159740Y-103088759D01*
X182159739Y-103088760D01*
X182071807Y-103162542D01*
X182014412Y-103261954D01*
X181994479Y-103375000D01*
X111800500Y-103375000D01*
X111800500Y-102899999D01*
X183764508Y-102899999D01*
X183764508Y-102900000D01*
X183784353Y-103025302D01*
X183784356Y-103025309D01*
X183841947Y-103138337D01*
X183841950Y-103138342D01*
X183931658Y-103228050D01*
X183931660Y-103228051D01*
X183931661Y-103228052D01*
X183998198Y-103261954D01*
X184044696Y-103285646D01*
X184170000Y-103305492D01*
X184295304Y-103285646D01*
X184408338Y-103228052D01*
X184408339Y-103228052D01*
X184408339Y-103228051D01*
X184408342Y-103228050D01*
X184498050Y-103138342D01*
X184555646Y-103025304D01*
X184575492Y-102900000D01*
X184555646Y-102774696D01*
X184498050Y-102661658D01*
X184408342Y-102571950D01*
X184408339Y-102571948D01*
X184408337Y-102571947D01*
X184295309Y-102514356D01*
X184295302Y-102514353D01*
X184170000Y-102494508D01*
X184044697Y-102514353D01*
X184044690Y-102514356D01*
X183931662Y-102571947D01*
X183931660Y-102571948D01*
X183931658Y-102571950D01*
X183841950Y-102661658D01*
X183841948Y-102661660D01*
X183841947Y-102661662D01*
X183784356Y-102774690D01*
X183784353Y-102774697D01*
X183764508Y-102899999D01*
X111800500Y-102899999D01*
X111800500Y-101855000D01*
X184124479Y-101855000D01*
X184144412Y-101968045D01*
X184201807Y-102067457D01*
X184289739Y-102141240D01*
X184397606Y-102180500D01*
X184512394Y-102180500D01*
X184620261Y-102141240D01*
X184708194Y-102067455D01*
X184765588Y-101968045D01*
X184785521Y-101855000D01*
X184765588Y-101741955D01*
X184708194Y-101642545D01*
X184708193Y-101642544D01*
X184708192Y-101642542D01*
X184620260Y-101568759D01*
X184512394Y-101529500D01*
X184397606Y-101529500D01*
X184289740Y-101568759D01*
X184289739Y-101568760D01*
X184201807Y-101642542D01*
X184144412Y-101741954D01*
X184124479Y-101855000D01*
X111800500Y-101855000D01*
X111800500Y-100999999D01*
X153344508Y-100999999D01*
X153344508Y-101000000D01*
X153364353Y-101125302D01*
X153364356Y-101125309D01*
X153421947Y-101238337D01*
X153421950Y-101238342D01*
X153511658Y-101328050D01*
X153511660Y-101328051D01*
X153511661Y-101328052D01*
X153624690Y-101385643D01*
X153624696Y-101385646D01*
X153750000Y-101405492D01*
X153875304Y-101385646D01*
X153988338Y-101328052D01*
X153988339Y-101328052D01*
X153988339Y-101328051D01*
X153988342Y-101328050D01*
X154078050Y-101238342D01*
X154135646Y-101125304D01*
X154155492Y-101000000D01*
X154135646Y-100874696D01*
X154078050Y-100761658D01*
X153988342Y-100671950D01*
X153988339Y-100671948D01*
X153988337Y-100671947D01*
X153875309Y-100614356D01*
X153875302Y-100614353D01*
X153750000Y-100594508D01*
X153624697Y-100614353D01*
X153624690Y-100614356D01*
X153511662Y-100671947D01*
X153511660Y-100671948D01*
X153511658Y-100671950D01*
X153421950Y-100761658D01*
X153421948Y-100761660D01*
X153421947Y-100761662D01*
X153364356Y-100874690D01*
X153364353Y-100874697D01*
X153344508Y-100999999D01*
X111800500Y-100999999D01*
X111800500Y-99819999D01*
X174654508Y-99819999D01*
X174654508Y-99820000D01*
X174674353Y-99945302D01*
X174674356Y-99945309D01*
X174731947Y-100058337D01*
X174731950Y-100058342D01*
X174821658Y-100148050D01*
X174821660Y-100148051D01*
X174821661Y-100148052D01*
X174934690Y-100205643D01*
X174934696Y-100205646D01*
X175060000Y-100225492D01*
X175185304Y-100205646D01*
X175298338Y-100148052D01*
X175298339Y-100148052D01*
X175298339Y-100148051D01*
X175298342Y-100148050D01*
X175388050Y-100058342D01*
X175445646Y-99945304D01*
X175465492Y-99820000D01*
X175461136Y-99792500D01*
X180856979Y-99792500D01*
X180876912Y-99905545D01*
X180934307Y-100004957D01*
X181022239Y-100078740D01*
X181130106Y-100118000D01*
X181244894Y-100118000D01*
X181352761Y-100078740D01*
X181440694Y-100004955D01*
X181498088Y-99905545D01*
X181518021Y-99792500D01*
X181498088Y-99679455D01*
X181440694Y-99580045D01*
X181440693Y-99580044D01*
X181440692Y-99580042D01*
X181352760Y-99506259D01*
X181244894Y-99467000D01*
X181130106Y-99467000D01*
X181022240Y-99506259D01*
X181022239Y-99506260D01*
X180934307Y-99580042D01*
X180876912Y-99679454D01*
X180856979Y-99792500D01*
X175461136Y-99792500D01*
X175445646Y-99694697D01*
X175445643Y-99694690D01*
X175388052Y-99581662D01*
X175388052Y-99581661D01*
X175388051Y-99581660D01*
X175388050Y-99581658D01*
X175298342Y-99491950D01*
X175298339Y-99491948D01*
X175298337Y-99491947D01*
X175185309Y-99434356D01*
X175185302Y-99434353D01*
X175060000Y-99414508D01*
X174934697Y-99434353D01*
X174934690Y-99434356D01*
X174821662Y-99491947D01*
X174821660Y-99491948D01*
X174821658Y-99491950D01*
X174731950Y-99581658D01*
X174731948Y-99581660D01*
X174731947Y-99581662D01*
X174674356Y-99694690D01*
X174674353Y-99694697D01*
X174654508Y-99819999D01*
X111800500Y-99819999D01*
X111800500Y-97994999D01*
X177399508Y-97994999D01*
X177399508Y-97995000D01*
X177419353Y-98120302D01*
X177419356Y-98120309D01*
X177468878Y-98217500D01*
X177476950Y-98233342D01*
X177566658Y-98323050D01*
X177566660Y-98323051D01*
X177566661Y-98323052D01*
X177679690Y-98380643D01*
X177679696Y-98380646D01*
X177805000Y-98400492D01*
X177930304Y-98380646D01*
X178043338Y-98323052D01*
X178043339Y-98323052D01*
X178043339Y-98323051D01*
X178043342Y-98323050D01*
X178133050Y-98233342D01*
X178141122Y-98217499D01*
X180592008Y-98217499D01*
X180592008Y-98217500D01*
X180611853Y-98342802D01*
X180611856Y-98342809D01*
X180669447Y-98455837D01*
X180669450Y-98455842D01*
X180759158Y-98545550D01*
X180759160Y-98545551D01*
X180759161Y-98545552D01*
X180872190Y-98603143D01*
X180872196Y-98603146D01*
X180997500Y-98622992D01*
X181122804Y-98603146D01*
X181235838Y-98545552D01*
X181235839Y-98545552D01*
X181235839Y-98545551D01*
X181235842Y-98545550D01*
X181325550Y-98455842D01*
X181383146Y-98342804D01*
X181402992Y-98217500D01*
X181383146Y-98092196D01*
X181325550Y-97979158D01*
X181235842Y-97889450D01*
X181235839Y-97889448D01*
X181235837Y-97889447D01*
X181122809Y-97831856D01*
X181122802Y-97831853D01*
X180997500Y-97812008D01*
X180872197Y-97831853D01*
X180872190Y-97831856D01*
X180759162Y-97889447D01*
X180759160Y-97889448D01*
X180759158Y-97889450D01*
X180669450Y-97979158D01*
X180669448Y-97979160D01*
X180669447Y-97979162D01*
X180611856Y-98092190D01*
X180611853Y-98092197D01*
X180592008Y-98217499D01*
X178141122Y-98217499D01*
X178190646Y-98120304D01*
X178210492Y-97995000D01*
X178190646Y-97869696D01*
X178133050Y-97756658D01*
X178043342Y-97666950D01*
X178043339Y-97666948D01*
X178043337Y-97666947D01*
X177930309Y-97609356D01*
X177930302Y-97609353D01*
X177805000Y-97589508D01*
X177679697Y-97609353D01*
X177679690Y-97609356D01*
X177566662Y-97666947D01*
X177566660Y-97666948D01*
X177566658Y-97666950D01*
X177476950Y-97756658D01*
X177476948Y-97756660D01*
X177476947Y-97756662D01*
X177419356Y-97869690D01*
X177419353Y-97869697D01*
X177399508Y-97994999D01*
X111800500Y-97994999D01*
X111800500Y-96416082D01*
X171115620Y-96416082D01*
X171135693Y-96555695D01*
X171194283Y-96683988D01*
X171194285Y-96683991D01*
X171194286Y-96683993D01*
X171286652Y-96790589D01*
X171405308Y-96866845D01*
X171540641Y-96906582D01*
X171540643Y-96906582D01*
X171681685Y-96906582D01*
X171681687Y-96906582D01*
X171817020Y-96866845D01*
X171935676Y-96790589D01*
X172028042Y-96683993D01*
X172086635Y-96555693D01*
X172097518Y-96480000D01*
X173593958Y-96480000D01*
X173614031Y-96619613D01*
X173672621Y-96747906D01*
X173672623Y-96747909D01*
X173672624Y-96747911D01*
X173764990Y-96854507D01*
X173883646Y-96930763D01*
X174018979Y-96970500D01*
X174018981Y-96970500D01*
X174160023Y-96970500D01*
X174160025Y-96970500D01*
X174161728Y-96970000D01*
X184249479Y-96970000D01*
X184269412Y-97083045D01*
X184326807Y-97182457D01*
X184414739Y-97256240D01*
X184522606Y-97295500D01*
X184637394Y-97295500D01*
X184745261Y-97256240D01*
X184833194Y-97182455D01*
X184890588Y-97083045D01*
X184910521Y-96970000D01*
X184890588Y-96856955D01*
X184833194Y-96757545D01*
X184833193Y-96757544D01*
X184833192Y-96757542D01*
X184745260Y-96683759D01*
X184637394Y-96644500D01*
X184522606Y-96644500D01*
X184414740Y-96683759D01*
X184414739Y-96683760D01*
X184326807Y-96757542D01*
X184269412Y-96856954D01*
X184249479Y-96970000D01*
X174161728Y-96970000D01*
X174295358Y-96930763D01*
X174414014Y-96854507D01*
X174506380Y-96747911D01*
X174564973Y-96619611D01*
X174585046Y-96480000D01*
X174564973Y-96340389D01*
X174535782Y-96276471D01*
X174506382Y-96212093D01*
X174506381Y-96212092D01*
X174506380Y-96212089D01*
X174414014Y-96105493D01*
X174377529Y-96082045D01*
X174295359Y-96029237D01*
X174250247Y-96015991D01*
X174160025Y-95989500D01*
X174018979Y-95989500D01*
X173951312Y-96009368D01*
X173883644Y-96029237D01*
X173764991Y-96105492D01*
X173672625Y-96212087D01*
X173672621Y-96212093D01*
X173614031Y-96340386D01*
X173593958Y-96480000D01*
X172097518Y-96480000D01*
X172106708Y-96416082D01*
X172086635Y-96276471D01*
X172057234Y-96212093D01*
X172028044Y-96148175D01*
X172028043Y-96148174D01*
X172028042Y-96148171D01*
X171935676Y-96041575D01*
X171899191Y-96018127D01*
X171817021Y-95965319D01*
X171771909Y-95952073D01*
X171681687Y-95925582D01*
X171540641Y-95925582D01*
X171472974Y-95945450D01*
X171405306Y-95965319D01*
X171286653Y-96041574D01*
X171194287Y-96148169D01*
X171194283Y-96148175D01*
X171135693Y-96276468D01*
X171115620Y-96416082D01*
X111800500Y-96416082D01*
X111800500Y-93794878D01*
X171919578Y-93794878D01*
X171939651Y-93934491D01*
X171998241Y-94062784D01*
X171998243Y-94062787D01*
X171998244Y-94062789D01*
X172090610Y-94169385D01*
X172209266Y-94245641D01*
X172344599Y-94285378D01*
X172344601Y-94285378D01*
X172485643Y-94285378D01*
X172485645Y-94285378D01*
X172620978Y-94245641D01*
X172738679Y-94169999D01*
X187355246Y-94169999D01*
X187355246Y-94170000D01*
X188085192Y-94170000D01*
X188065444Y-94204204D01*
X188045000Y-94280504D01*
X188045000Y-94359496D01*
X188065444Y-94435796D01*
X188085192Y-94470000D01*
X187355246Y-94470000D01*
X187383427Y-94611685D01*
X187383430Y-94611695D01*
X187458810Y-94793675D01*
X187458811Y-94793678D01*
X187568250Y-94957464D01*
X187707535Y-95096749D01*
X187871321Y-95206188D01*
X187871324Y-95206189D01*
X188053304Y-95281569D01*
X188053313Y-95281571D01*
X188246506Y-95320000D01*
X188745000Y-95320000D01*
X188745000Y-94620000D01*
X189045000Y-94620000D01*
X189045000Y-95320000D01*
X189543494Y-95320000D01*
X189736686Y-95281571D01*
X189736695Y-95281569D01*
X189918675Y-95206189D01*
X189918678Y-95206188D01*
X190082464Y-95096749D01*
X190221749Y-94957464D01*
X190331188Y-94793678D01*
X190331189Y-94793675D01*
X190406569Y-94611695D01*
X190406572Y-94611685D01*
X190434754Y-94470000D01*
X189704808Y-94470000D01*
X189724556Y-94435796D01*
X189745000Y-94359496D01*
X189745000Y-94280504D01*
X189724556Y-94204204D01*
X189704808Y-94170000D01*
X190434754Y-94170000D01*
X190434753Y-94169999D01*
X191785246Y-94169999D01*
X191785246Y-94170000D01*
X192515192Y-94170000D01*
X192495444Y-94204204D01*
X192475000Y-94280504D01*
X192475000Y-94359496D01*
X192495444Y-94435796D01*
X192515192Y-94470000D01*
X191785246Y-94470000D01*
X191813427Y-94611685D01*
X191813430Y-94611695D01*
X191888810Y-94793675D01*
X191888811Y-94793678D01*
X191998250Y-94957464D01*
X192137535Y-95096749D01*
X192301321Y-95206188D01*
X192301324Y-95206189D01*
X192483304Y-95281569D01*
X192483313Y-95281571D01*
X192676506Y-95320000D01*
X192925000Y-95320000D01*
X192925000Y-94620000D01*
X193225000Y-94620000D01*
X193225000Y-95320000D01*
X193473494Y-95320000D01*
X193666686Y-95281571D01*
X193666695Y-95281569D01*
X193848675Y-95206189D01*
X193848678Y-95206188D01*
X194012464Y-95096749D01*
X194151749Y-94957464D01*
X194261188Y-94793678D01*
X194261189Y-94793675D01*
X194336569Y-94611695D01*
X194336572Y-94611685D01*
X194364754Y-94470000D01*
X193634808Y-94470000D01*
X193654556Y-94435796D01*
X193675000Y-94359496D01*
X193675000Y-94280504D01*
X193654556Y-94204204D01*
X193634808Y-94170000D01*
X194364754Y-94170000D01*
X194364753Y-94169999D01*
X194336572Y-94028314D01*
X194336569Y-94028304D01*
X194261189Y-93846324D01*
X194261188Y-93846321D01*
X194151749Y-93682535D01*
X194012464Y-93543250D01*
X193848678Y-93433811D01*
X193848675Y-93433810D01*
X193666695Y-93358430D01*
X193666686Y-93358428D01*
X193473494Y-93320000D01*
X193225000Y-93320000D01*
X193225000Y-94020000D01*
X192925000Y-94020000D01*
X192925000Y-93320000D01*
X192676506Y-93320000D01*
X192483313Y-93358428D01*
X192483304Y-93358430D01*
X192301324Y-93433810D01*
X192301321Y-93433811D01*
X192137535Y-93543250D01*
X191998250Y-93682535D01*
X191888811Y-93846321D01*
X191888810Y-93846324D01*
X191813430Y-94028304D01*
X191813427Y-94028314D01*
X191785246Y-94169999D01*
X190434753Y-94169999D01*
X190406572Y-94028314D01*
X190406569Y-94028304D01*
X190331189Y-93846324D01*
X190331188Y-93846321D01*
X190221749Y-93682535D01*
X190082464Y-93543250D01*
X189918678Y-93433811D01*
X189918675Y-93433810D01*
X189827840Y-93396184D01*
X189793204Y-93361547D01*
X189793204Y-93312564D01*
X189807073Y-93291806D01*
X189855515Y-93243365D01*
X189931281Y-93112135D01*
X189970500Y-92965766D01*
X189970500Y-92814234D01*
X189970500Y-92814232D01*
X189931282Y-92667869D01*
X189931282Y-92667868D01*
X189931281Y-92667867D01*
X189931281Y-92667865D01*
X189855515Y-92536635D01*
X189748365Y-92429485D01*
X189617135Y-92353719D01*
X189617133Y-92353718D01*
X189617131Y-92353717D01*
X189470767Y-92314500D01*
X189470766Y-92314500D01*
X189319234Y-92314500D01*
X189319233Y-92314500D01*
X189172869Y-92353717D01*
X189172868Y-92353717D01*
X189041633Y-92429486D01*
X188934486Y-92536633D01*
X188858717Y-92667868D01*
X188858717Y-92667869D01*
X188819500Y-92814232D01*
X188819500Y-92965767D01*
X188858717Y-93112130D01*
X188858717Y-93112131D01*
X188934486Y-93243366D01*
X189026255Y-93335135D01*
X189045000Y-93380390D01*
X189045000Y-94020000D01*
X188745000Y-94020000D01*
X188745000Y-93320000D01*
X188246506Y-93320000D01*
X188053313Y-93358428D01*
X188053304Y-93358430D01*
X187871324Y-93433810D01*
X187871321Y-93433811D01*
X187707535Y-93543250D01*
X187568250Y-93682535D01*
X187458811Y-93846321D01*
X187458810Y-93846324D01*
X187383430Y-94028304D01*
X187383427Y-94028314D01*
X187355246Y-94169999D01*
X172738679Y-94169999D01*
X172739634Y-94169385D01*
X172832000Y-94062789D01*
X172890593Y-93934489D01*
X172910666Y-93794878D01*
X172890593Y-93655267D01*
X172832000Y-93526967D01*
X172739634Y-93420371D01*
X172648103Y-93361547D01*
X172620979Y-93344115D01*
X172575867Y-93330869D01*
X172485645Y-93304378D01*
X172344599Y-93304378D01*
X172291395Y-93320000D01*
X172209264Y-93344115D01*
X172090611Y-93420370D01*
X171998245Y-93526965D01*
X171998241Y-93526971D01*
X171939651Y-93655264D01*
X171919578Y-93794878D01*
X111800500Y-93794878D01*
X111800500Y-92499999D01*
X144844508Y-92499999D01*
X144844508Y-92500000D01*
X144864353Y-92625302D01*
X144864356Y-92625309D01*
X144921947Y-92738337D01*
X144921950Y-92738342D01*
X145011658Y-92828050D01*
X145011660Y-92828051D01*
X145011661Y-92828052D01*
X145124690Y-92885643D01*
X145124696Y-92885646D01*
X145250000Y-92905492D01*
X145375304Y-92885646D01*
X145488338Y-92828052D01*
X145488339Y-92828052D01*
X145488339Y-92828051D01*
X145488342Y-92828050D01*
X145578050Y-92738342D01*
X145635646Y-92625304D01*
X145653908Y-92509999D01*
X161874508Y-92509999D01*
X161874508Y-92510000D01*
X161894353Y-92635302D01*
X161894356Y-92635309D01*
X161951947Y-92748337D01*
X161951950Y-92748342D01*
X162041658Y-92838050D01*
X162041660Y-92838051D01*
X162041661Y-92838052D01*
X162135064Y-92885643D01*
X162154696Y-92895646D01*
X162280000Y-92915492D01*
X162405304Y-92895646D01*
X162518338Y-92838052D01*
X162518339Y-92838052D01*
X162518339Y-92838051D01*
X162518342Y-92838050D01*
X162608050Y-92748342D01*
X162665646Y-92635304D01*
X162685492Y-92510000D01*
X162668070Y-92399999D01*
X187849508Y-92399999D01*
X187849508Y-92400000D01*
X187869353Y-92525302D01*
X187869356Y-92525309D01*
X187926947Y-92638337D01*
X187926950Y-92638342D01*
X188016658Y-92728050D01*
X188016660Y-92728051D01*
X188016661Y-92728052D01*
X188129690Y-92785643D01*
X188129696Y-92785646D01*
X188255000Y-92805492D01*
X188380304Y-92785646D01*
X188493338Y-92728052D01*
X188493339Y-92728052D01*
X188493339Y-92728051D01*
X188493342Y-92728050D01*
X188583050Y-92638342D01*
X188640646Y-92525304D01*
X188660492Y-92400000D01*
X188656484Y-92374697D01*
X188640646Y-92274697D01*
X188640643Y-92274690D01*
X188583052Y-92161662D01*
X188583052Y-92161661D01*
X188583051Y-92161660D01*
X188583050Y-92161658D01*
X188493342Y-92071950D01*
X188493339Y-92071948D01*
X188493337Y-92071947D01*
X188380309Y-92014356D01*
X188380302Y-92014353D01*
X188255000Y-91994508D01*
X188129697Y-92014353D01*
X188129690Y-92014356D01*
X188016662Y-92071947D01*
X188016660Y-92071948D01*
X188016658Y-92071950D01*
X187926950Y-92161658D01*
X187926948Y-92161660D01*
X187926947Y-92161662D01*
X187869356Y-92274690D01*
X187869353Y-92274697D01*
X187849508Y-92399999D01*
X162668070Y-92399999D01*
X162665646Y-92384696D01*
X162608050Y-92271658D01*
X162518342Y-92181950D01*
X162518339Y-92181948D01*
X162518337Y-92181947D01*
X162405309Y-92124356D01*
X162405302Y-92124353D01*
X162280000Y-92104508D01*
X162154697Y-92124353D01*
X162154690Y-92124356D01*
X162041662Y-92181947D01*
X162041660Y-92181948D01*
X162041658Y-92181950D01*
X161951950Y-92271658D01*
X161951948Y-92271660D01*
X161951947Y-92271662D01*
X161894356Y-92384690D01*
X161894353Y-92384697D01*
X161874508Y-92509999D01*
X145653908Y-92509999D01*
X145655492Y-92500000D01*
X145635646Y-92374696D01*
X145578050Y-92261658D01*
X145488342Y-92171950D01*
X145488339Y-92171948D01*
X145488337Y-92171947D01*
X145375309Y-92114356D01*
X145375302Y-92114353D01*
X145250000Y-92094508D01*
X145124697Y-92114353D01*
X145124690Y-92114356D01*
X145011662Y-92171947D01*
X145011660Y-92171948D01*
X145011658Y-92171950D01*
X144921950Y-92261658D01*
X144921948Y-92261660D01*
X144921947Y-92261662D01*
X144864356Y-92374690D01*
X144864353Y-92374697D01*
X144844508Y-92499999D01*
X111800500Y-92499999D01*
X111800500Y-91449999D01*
X178284508Y-91449999D01*
X178284508Y-91450000D01*
X178304353Y-91575302D01*
X178304356Y-91575309D01*
X178361947Y-91688337D01*
X178361950Y-91688342D01*
X178451658Y-91778050D01*
X178451660Y-91778051D01*
X178451661Y-91778052D01*
X178564690Y-91835643D01*
X178564696Y-91835646D01*
X178690000Y-91855492D01*
X178815304Y-91835646D01*
X178928338Y-91778052D01*
X178928339Y-91778052D01*
X178928339Y-91778051D01*
X178928342Y-91778050D01*
X179018050Y-91688342D01*
X179075646Y-91575304D01*
X179095492Y-91450000D01*
X179075646Y-91324696D01*
X179018050Y-91211658D01*
X178928342Y-91121950D01*
X178928339Y-91121948D01*
X178928337Y-91121947D01*
X178815309Y-91064356D01*
X178815302Y-91064353D01*
X178690000Y-91044508D01*
X178564697Y-91064353D01*
X178564690Y-91064356D01*
X178451662Y-91121947D01*
X178451660Y-91121948D01*
X178451658Y-91121950D01*
X178361950Y-91211658D01*
X178361948Y-91211660D01*
X178361947Y-91211662D01*
X178304356Y-91324690D01*
X178304353Y-91324697D01*
X178284508Y-91449999D01*
X111800500Y-91449999D01*
X111800500Y-90600000D01*
X167669479Y-90600000D01*
X167689412Y-90713045D01*
X167746807Y-90812457D01*
X167834739Y-90886240D01*
X167942606Y-90925500D01*
X168057394Y-90925500D01*
X168165261Y-90886240D01*
X168253194Y-90812455D01*
X168310588Y-90713045D01*
X168326994Y-90620000D01*
X174784456Y-90620000D01*
X174804529Y-90759613D01*
X174863119Y-90887906D01*
X174863121Y-90887909D01*
X174863122Y-90887911D01*
X174955488Y-90994507D01*
X175033291Y-91044508D01*
X175064174Y-91064356D01*
X175074144Y-91070763D01*
X175209477Y-91110500D01*
X175209479Y-91110500D01*
X175350521Y-91110500D01*
X175350523Y-91110500D01*
X175485856Y-91070763D01*
X175604512Y-90994507D01*
X175696878Y-90887911D01*
X175755471Y-90759611D01*
X175775544Y-90620000D01*
X175755471Y-90480389D01*
X175713070Y-90387545D01*
X175696880Y-90352093D01*
X175696879Y-90352092D01*
X175696878Y-90352089D01*
X175604512Y-90245493D01*
X175568027Y-90222045D01*
X175485857Y-90169237D01*
X175440745Y-90155991D01*
X175350523Y-90129500D01*
X175209477Y-90129500D01*
X175141810Y-90149368D01*
X175074142Y-90169237D01*
X174955489Y-90245492D01*
X174863123Y-90352087D01*
X174863119Y-90352093D01*
X174804529Y-90480386D01*
X174784456Y-90620000D01*
X168326994Y-90620000D01*
X168330521Y-90600000D01*
X168310588Y-90486955D01*
X168253194Y-90387545D01*
X168253193Y-90387544D01*
X168253192Y-90387542D01*
X168165260Y-90313759D01*
X168057394Y-90274500D01*
X167942606Y-90274500D01*
X167834740Y-90313759D01*
X167834739Y-90313760D01*
X167746807Y-90387542D01*
X167689412Y-90486954D01*
X167669479Y-90600000D01*
X111800500Y-90600000D01*
X111800500Y-89240000D01*
X166529479Y-89240000D01*
X166549412Y-89353045D01*
X166606807Y-89452457D01*
X166694739Y-89526240D01*
X166802606Y-89565500D01*
X166917394Y-89565500D01*
X167025261Y-89526240D01*
X167113194Y-89452455D01*
X167170588Y-89353045D01*
X167190521Y-89240000D01*
X167170588Y-89126955D01*
X167113194Y-89027545D01*
X167113193Y-89027544D01*
X167113192Y-89027542D01*
X167025260Y-88953759D01*
X166917394Y-88914500D01*
X166802606Y-88914500D01*
X166694740Y-88953759D01*
X166694739Y-88953760D01*
X166606807Y-89027542D01*
X166549412Y-89126954D01*
X166529479Y-89240000D01*
X111800500Y-89240000D01*
X111800500Y-88820000D01*
X174004456Y-88820000D01*
X174024529Y-88959613D01*
X174083119Y-89087906D01*
X174083121Y-89087909D01*
X174083122Y-89087911D01*
X174175488Y-89194507D01*
X174294144Y-89270763D01*
X174429477Y-89310500D01*
X174429479Y-89310500D01*
X174570521Y-89310500D01*
X174570523Y-89310500D01*
X174705856Y-89270763D01*
X174824512Y-89194507D01*
X174916878Y-89087911D01*
X174975471Y-88959611D01*
X174995544Y-88820000D01*
X174975471Y-88680389D01*
X174938389Y-88599192D01*
X174916880Y-88552093D01*
X174916879Y-88552092D01*
X174916878Y-88552089D01*
X174836718Y-88459579D01*
X179460449Y-88459579D01*
X179480522Y-88599192D01*
X179539112Y-88727485D01*
X179539114Y-88727488D01*
X179539115Y-88727490D01*
X179631481Y-88834086D01*
X179750137Y-88910342D01*
X179885470Y-88950079D01*
X179885472Y-88950079D01*
X180026514Y-88950079D01*
X180026516Y-88950079D01*
X180161849Y-88910342D01*
X180280505Y-88834086D01*
X180372871Y-88727490D01*
X180431464Y-88599190D01*
X180451537Y-88459579D01*
X180431464Y-88319968D01*
X180372871Y-88191668D01*
X180280505Y-88085072D01*
X180244020Y-88061624D01*
X180161850Y-88008816D01*
X180116738Y-87995570D01*
X180026516Y-87969079D01*
X179885470Y-87969079D01*
X179817803Y-87988947D01*
X179750135Y-88008816D01*
X179631482Y-88085071D01*
X179539116Y-88191666D01*
X179539112Y-88191672D01*
X179480522Y-88319965D01*
X179460449Y-88459579D01*
X174836718Y-88459579D01*
X174824512Y-88445493D01*
X174788027Y-88422045D01*
X174705857Y-88369237D01*
X174660745Y-88355991D01*
X174570523Y-88329500D01*
X174429477Y-88329500D01*
X174361810Y-88349368D01*
X174294142Y-88369237D01*
X174175489Y-88445492D01*
X174083123Y-88552087D01*
X174083119Y-88552093D01*
X174024529Y-88680386D01*
X174004456Y-88820000D01*
X111800500Y-88820000D01*
X111800500Y-87599999D01*
X187849508Y-87599999D01*
X187849508Y-87600000D01*
X187869353Y-87725302D01*
X187869356Y-87725309D01*
X187926947Y-87838337D01*
X187926950Y-87838342D01*
X188016658Y-87928050D01*
X188016660Y-87928051D01*
X188016661Y-87928052D01*
X188129690Y-87985643D01*
X188129696Y-87985646D01*
X188255000Y-88005492D01*
X188380304Y-87985646D01*
X188493338Y-87928052D01*
X188493339Y-87928052D01*
X188493339Y-87928051D01*
X188493342Y-87928050D01*
X188583050Y-87838342D01*
X188640646Y-87725304D01*
X188660492Y-87600000D01*
X188640646Y-87474696D01*
X188583050Y-87361658D01*
X188493342Y-87271950D01*
X188493339Y-87271948D01*
X188493337Y-87271947D01*
X188380309Y-87214356D01*
X188380302Y-87214353D01*
X188255000Y-87194508D01*
X188129697Y-87214353D01*
X188129690Y-87214356D01*
X188016662Y-87271947D01*
X188016660Y-87271948D01*
X188016658Y-87271950D01*
X187926950Y-87361658D01*
X187926948Y-87361660D01*
X187926947Y-87361662D01*
X187869356Y-87474690D01*
X187869353Y-87474697D01*
X187849508Y-87599999D01*
X111800500Y-87599999D01*
X111800500Y-84150000D01*
X122849427Y-84150000D01*
X122869687Y-84407424D01*
X122869688Y-84407428D01*
X122929967Y-84658513D01*
X123028783Y-84897074D01*
X123028784Y-84897075D01*
X123163703Y-85117244D01*
X123331404Y-85313596D01*
X123527756Y-85481297D01*
X123747925Y-85616216D01*
X123747924Y-85616216D01*
X123986486Y-85715032D01*
X123986489Y-85715032D01*
X123986490Y-85715033D01*
X124237576Y-85775313D01*
X124495000Y-85795573D01*
X124752424Y-85775313D01*
X125003510Y-85715033D01*
X125003511Y-85715032D01*
X125003513Y-85715032D01*
X125136371Y-85660000D01*
X125136373Y-85659999D01*
X168474508Y-85659999D01*
X168474508Y-85660000D01*
X168494353Y-85785302D01*
X168494356Y-85785309D01*
X168534556Y-85864205D01*
X168551950Y-85898342D01*
X168641658Y-85988050D01*
X168641660Y-85988051D01*
X168641661Y-85988052D01*
X168754690Y-86045643D01*
X168754696Y-86045646D01*
X168880000Y-86065492D01*
X169005304Y-86045646D01*
X169118338Y-85988052D01*
X169118339Y-85988052D01*
X169118339Y-85988051D01*
X169118342Y-85988050D01*
X169208050Y-85898342D01*
X169265646Y-85785304D01*
X169285492Y-85660000D01*
X169265646Y-85534696D01*
X169263253Y-85529999D01*
X187355246Y-85529999D01*
X187355246Y-85530000D01*
X188085192Y-85530000D01*
X188065444Y-85564204D01*
X188045000Y-85640504D01*
X188045000Y-85719496D01*
X188065444Y-85795796D01*
X188085192Y-85830000D01*
X187355246Y-85830000D01*
X187383427Y-85971685D01*
X187383430Y-85971695D01*
X187458810Y-86153675D01*
X187458811Y-86153678D01*
X187568250Y-86317464D01*
X187707535Y-86456749D01*
X187871321Y-86566188D01*
X187871324Y-86566189D01*
X188053304Y-86641569D01*
X188053313Y-86641571D01*
X188246506Y-86680000D01*
X188745000Y-86680000D01*
X188745000Y-85980000D01*
X189045000Y-85980000D01*
X189045000Y-86619610D01*
X189026255Y-86664865D01*
X188934486Y-86756633D01*
X188858717Y-86887868D01*
X188858717Y-86887869D01*
X188819500Y-87034232D01*
X188819500Y-87185767D01*
X188858717Y-87332130D01*
X188858717Y-87332131D01*
X188858718Y-87332133D01*
X188858719Y-87332135D01*
X188934485Y-87463365D01*
X189041635Y-87570515D01*
X189172865Y-87646281D01*
X189172867Y-87646281D01*
X189172868Y-87646282D01*
X189319233Y-87685500D01*
X189319234Y-87685500D01*
X189470767Y-87685500D01*
X189535303Y-87668207D01*
X189617135Y-87646281D01*
X189748365Y-87570515D01*
X189855515Y-87463365D01*
X189931281Y-87332135D01*
X189953207Y-87250303D01*
X189970500Y-87185767D01*
X189970500Y-87034232D01*
X189931282Y-86887869D01*
X189931282Y-86887868D01*
X189931281Y-86887867D01*
X189931281Y-86887865D01*
X189855515Y-86756635D01*
X189807078Y-86708198D01*
X189788333Y-86662943D01*
X189807078Y-86617688D01*
X189827841Y-86603815D01*
X189918675Y-86566189D01*
X189918678Y-86566188D01*
X190082464Y-86456749D01*
X190221749Y-86317464D01*
X190331188Y-86153678D01*
X190331189Y-86153675D01*
X190406569Y-85971695D01*
X190406572Y-85971685D01*
X190434754Y-85830000D01*
X189704808Y-85830000D01*
X189724556Y-85795796D01*
X189745000Y-85719496D01*
X189745000Y-85640504D01*
X189724556Y-85564204D01*
X189704808Y-85530000D01*
X190434754Y-85530000D01*
X190434753Y-85529999D01*
X191785246Y-85529999D01*
X191785246Y-85530000D01*
X192515192Y-85530000D01*
X192495444Y-85564204D01*
X192475000Y-85640504D01*
X192475000Y-85719496D01*
X192495444Y-85795796D01*
X192515192Y-85830000D01*
X191785246Y-85830000D01*
X191813427Y-85971685D01*
X191813430Y-85971695D01*
X191888810Y-86153675D01*
X191888811Y-86153678D01*
X191998250Y-86317464D01*
X192137535Y-86456749D01*
X192301321Y-86566188D01*
X192301324Y-86566189D01*
X192483304Y-86641569D01*
X192483313Y-86641571D01*
X192676506Y-86680000D01*
X192925000Y-86680000D01*
X192925000Y-85980000D01*
X193225000Y-85980000D01*
X193225000Y-86680000D01*
X193473494Y-86680000D01*
X193666686Y-86641571D01*
X193666695Y-86641569D01*
X193848675Y-86566189D01*
X193848678Y-86566188D01*
X194012464Y-86456749D01*
X194151749Y-86317464D01*
X194261188Y-86153678D01*
X194261189Y-86153675D01*
X194336569Y-85971695D01*
X194336572Y-85971685D01*
X194364754Y-85830000D01*
X193634808Y-85830000D01*
X193654556Y-85795796D01*
X193675000Y-85719496D01*
X193675000Y-85640504D01*
X193654556Y-85564204D01*
X193634808Y-85530000D01*
X194364754Y-85530000D01*
X194364753Y-85529999D01*
X194336572Y-85388314D01*
X194336569Y-85388304D01*
X194261189Y-85206324D01*
X194261188Y-85206321D01*
X194151749Y-85042535D01*
X194012464Y-84903250D01*
X193848678Y-84793811D01*
X193848675Y-84793810D01*
X193666695Y-84718430D01*
X193666686Y-84718428D01*
X193473494Y-84680000D01*
X193225000Y-84680000D01*
X193225000Y-85380000D01*
X192925000Y-85380000D01*
X192925000Y-84680000D01*
X192676506Y-84680000D01*
X192483313Y-84718428D01*
X192483304Y-84718430D01*
X192301324Y-84793810D01*
X192301321Y-84793811D01*
X192137535Y-84903250D01*
X191998250Y-85042535D01*
X191888811Y-85206321D01*
X191888810Y-85206324D01*
X191813430Y-85388304D01*
X191813427Y-85388314D01*
X191785246Y-85529999D01*
X190434753Y-85529999D01*
X190406572Y-85388314D01*
X190406569Y-85388304D01*
X190331189Y-85206324D01*
X190331188Y-85206321D01*
X190221749Y-85042535D01*
X190082464Y-84903250D01*
X189918678Y-84793811D01*
X189918675Y-84793810D01*
X189736695Y-84718430D01*
X189736686Y-84718428D01*
X189543494Y-84680000D01*
X189045000Y-84680000D01*
X189045000Y-85380000D01*
X188745000Y-85380000D01*
X188745000Y-84680000D01*
X188246506Y-84680000D01*
X188053313Y-84718428D01*
X188053304Y-84718430D01*
X187871324Y-84793810D01*
X187871321Y-84793811D01*
X187707535Y-84903250D01*
X187568250Y-85042535D01*
X187458811Y-85206321D01*
X187458810Y-85206324D01*
X187383430Y-85388304D01*
X187383427Y-85388314D01*
X187355246Y-85529999D01*
X169263253Y-85529999D01*
X169208050Y-85421658D01*
X169118342Y-85331950D01*
X169118339Y-85331948D01*
X169118337Y-85331947D01*
X169005309Y-85274356D01*
X169005302Y-85274353D01*
X168880000Y-85254508D01*
X168754697Y-85274353D01*
X168754690Y-85274356D01*
X168641662Y-85331947D01*
X168641660Y-85331948D01*
X168641658Y-85331950D01*
X168551950Y-85421658D01*
X168551948Y-85421660D01*
X168551947Y-85421662D01*
X168494356Y-85534690D01*
X168494353Y-85534697D01*
X168474508Y-85659999D01*
X125136373Y-85659999D01*
X125242075Y-85616216D01*
X125462244Y-85481297D01*
X125658596Y-85313596D01*
X125826297Y-85117244D01*
X125961216Y-84897075D01*
X126060033Y-84658510D01*
X126120313Y-84407424D01*
X126140573Y-84150000D01*
X126120313Y-83892576D01*
X126060033Y-83641490D01*
X126060032Y-83641489D01*
X126060032Y-83641486D01*
X125961216Y-83402925D01*
X125826297Y-83182756D01*
X125658596Y-82986404D01*
X125462244Y-82818703D01*
X125242075Y-82683784D01*
X125242073Y-82683783D01*
X125242075Y-82683783D01*
X125003513Y-82584967D01*
X124752428Y-82524688D01*
X124752424Y-82524687D01*
X124495000Y-82504427D01*
X124237576Y-82524687D01*
X124237572Y-82524687D01*
X124237571Y-82524688D01*
X123986486Y-82584967D01*
X123747925Y-82683783D01*
X123527756Y-82818703D01*
X123527754Y-82818704D01*
X123331404Y-82986403D01*
X123331403Y-82986404D01*
X123163704Y-83182754D01*
X123163703Y-83182756D01*
X123028783Y-83402925D01*
X122929967Y-83641486D01*
X122869688Y-83892571D01*
X122869687Y-83892576D01*
X122849427Y-84150000D01*
X111800500Y-84150000D01*
X111800500Y-72499999D01*
X122794508Y-72499999D01*
X122794508Y-72500000D01*
X122814353Y-72625302D01*
X122814356Y-72625309D01*
X122871947Y-72738337D01*
X122871950Y-72738342D01*
X122961658Y-72828050D01*
X122961660Y-72828051D01*
X122961661Y-72828052D01*
X123074690Y-72885643D01*
X123074696Y-72885646D01*
X123200000Y-72905492D01*
X123325304Y-72885646D01*
X123438338Y-72828052D01*
X123438339Y-72828052D01*
X123438339Y-72828051D01*
X123438342Y-72828050D01*
X123528050Y-72738342D01*
X123585646Y-72625304D01*
X123605492Y-72500000D01*
X123585646Y-72374696D01*
X123528050Y-72261658D01*
X123438342Y-72171950D01*
X123438339Y-72171948D01*
X123438337Y-72171947D01*
X123325309Y-72114356D01*
X123325302Y-72114353D01*
X123200000Y-72094508D01*
X123074697Y-72114353D01*
X123074690Y-72114356D01*
X122961662Y-72171947D01*
X122961660Y-72171948D01*
X122961658Y-72171950D01*
X122871950Y-72261658D01*
X122871948Y-72261660D01*
X122871947Y-72261662D01*
X122814356Y-72374690D01*
X122814353Y-72374697D01*
X122794508Y-72499999D01*
X111800500Y-72499999D01*
X111800500Y-69959454D01*
X124309500Y-69959454D01*
X124309500Y-70740546D01*
X124319037Y-70800762D01*
X124337827Y-70919402D01*
X124337829Y-70919409D01*
X124393789Y-71091639D01*
X124393792Y-71091647D01*
X124475999Y-71252987D01*
X124476004Y-71252994D01*
X124582447Y-71399501D01*
X124710498Y-71527552D01*
X124857005Y-71633995D01*
X124857012Y-71634000D01*
X125018352Y-71716207D01*
X125018356Y-71716208D01*
X125018361Y-71716211D01*
X125190591Y-71772171D01*
X125369454Y-71800500D01*
X125369457Y-71800500D01*
X125550543Y-71800500D01*
X125550546Y-71800500D01*
X125729409Y-71772171D01*
X125901639Y-71716211D01*
X125901647Y-71716207D01*
X126062987Y-71634000D01*
X126062989Y-71633998D01*
X126062994Y-71633996D01*
X126209501Y-71527553D01*
X126337553Y-71399501D01*
X126443996Y-71252994D01*
X126526211Y-71091639D01*
X126582171Y-70919409D01*
X126604396Y-70779080D01*
X126629989Y-70737316D01*
X126677619Y-70725881D01*
X126702209Y-70735253D01*
X126804144Y-70800763D01*
X126939477Y-70840500D01*
X126939479Y-70840500D01*
X127080521Y-70840500D01*
X127080523Y-70840500D01*
X127215856Y-70800763D01*
X127334512Y-70724507D01*
X127426878Y-70617911D01*
X127485471Y-70489611D01*
X127505544Y-70350000D01*
X127485471Y-70210389D01*
X127426878Y-70082089D01*
X127334512Y-69975493D01*
X127249591Y-69920917D01*
X127215857Y-69899237D01*
X127170745Y-69885991D01*
X127080523Y-69859500D01*
X126939477Y-69859500D01*
X126871810Y-69879368D01*
X126804142Y-69899237D01*
X126702209Y-69964746D01*
X126654004Y-69973443D01*
X126613768Y-69945507D01*
X126604396Y-69920917D01*
X126600962Y-69899237D01*
X126582171Y-69780591D01*
X126526211Y-69608361D01*
X126526208Y-69608356D01*
X126526207Y-69608352D01*
X126444000Y-69447012D01*
X126443995Y-69447005D01*
X126337552Y-69300498D01*
X126209501Y-69172447D01*
X126062994Y-69066004D01*
X126062987Y-69065999D01*
X125901647Y-68983792D01*
X125901639Y-68983789D01*
X125729409Y-68927829D01*
X125729402Y-68927827D01*
X125612736Y-68909349D01*
X125550546Y-68899500D01*
X125369454Y-68899500D01*
X125313723Y-68908326D01*
X125190597Y-68927827D01*
X125190590Y-68927829D01*
X125018360Y-68983789D01*
X125018352Y-68983792D01*
X124857012Y-69065999D01*
X124857005Y-69066004D01*
X124710498Y-69172447D01*
X124582447Y-69300498D01*
X124476004Y-69447005D01*
X124475999Y-69447012D01*
X124393792Y-69608352D01*
X124393789Y-69608360D01*
X124337829Y-69780590D01*
X124337827Y-69780597D01*
X124325331Y-69859500D01*
X124309500Y-69959454D01*
X111800500Y-69959454D01*
X111800500Y-68635433D01*
X148449500Y-68635433D01*
X148449500Y-76214566D01*
X148465883Y-76275703D01*
X148469979Y-76290989D01*
X148509540Y-76359511D01*
X148565489Y-76415460D01*
X148634011Y-76455021D01*
X148691051Y-76470305D01*
X148710433Y-76475499D01*
X148710435Y-76475499D01*
X148710438Y-76475500D01*
X148710441Y-76475500D01*
X158789559Y-76475500D01*
X158789562Y-76475500D01*
X158865989Y-76455021D01*
X158934511Y-76415460D01*
X158990460Y-76359511D01*
X159030021Y-76290989D01*
X159050500Y-76214562D01*
X159050500Y-68635438D01*
X159030021Y-68559011D01*
X158990460Y-68490489D01*
X158934511Y-68434540D01*
X158865989Y-68394979D01*
X158850703Y-68390883D01*
X158789566Y-68374500D01*
X158789562Y-68374500D01*
X148789562Y-68374500D01*
X148710438Y-68374500D01*
X148710433Y-68374500D01*
X148634011Y-68394979D01*
X148634010Y-68394979D01*
X148565487Y-68434541D01*
X148509541Y-68490487D01*
X148469979Y-68559010D01*
X148469979Y-68559011D01*
X148449500Y-68635433D01*
X111800500Y-68635433D01*
X111800500Y-68001790D01*
X111800601Y-67998202D01*
X111817272Y-67701345D01*
X111818075Y-67694213D01*
X111853965Y-67482980D01*
X111867581Y-67402838D01*
X111869172Y-67395865D01*
X111950996Y-67111849D01*
X111953360Y-67105096D01*
X112066461Y-66832046D01*
X112069574Y-66825584D01*
X112075101Y-66815584D01*
X112212536Y-66566911D01*
X112216335Y-66560865D01*
X112387373Y-66319809D01*
X112391835Y-66314215D01*
X112588770Y-66093844D01*
X112593845Y-66088770D01*
X112814215Y-65891835D01*
X112819809Y-65887373D01*
X113060865Y-65716335D01*
X113066911Y-65712536D01*
X113325587Y-65569572D01*
X113332046Y-65566461D01*
X113605096Y-65453360D01*
X113611849Y-65450996D01*
X113895865Y-65369172D01*
X113902838Y-65367581D01*
X114194218Y-65318074D01*
X114201341Y-65317272D01*
X114417650Y-65305124D01*
X114498203Y-65300601D01*
X114501791Y-65300500D01*
X114547595Y-65300500D01*
X192952405Y-65300500D01*
X192998209Y-65300500D01*
X193001797Y-65300601D01*
G37*
%TD.AperFunction*%
%TD*%
M02*
