%TF.GenerationSoftware,KiCad,Pcbnew,8.0.9*%
%TF.CreationDate,2025-05-16T14:56:25+01:00*%
%TF.ProjectId,bizcamera,62697a63-616d-4657-9261-2e6b69636164,rev?*%
%TF.SameCoordinates,Original*%
%TF.FileFunction,Copper,L4,Bot*%
%TF.FilePolarity,Positive*%
%FSLAX46Y46*%
G04 Gerber Fmt 4.6, Leading zero omitted, Abs format (unit mm)*
G04 Created by KiCad (PCBNEW 8.0.9) date 2025-05-16 14:56:25*
%MOMM*%
%LPD*%
G01*
G04 APERTURE LIST*
%TA.AperFunction,EtchedComponent*%
%ADD10C,0.000000*%
%TD*%
%TA.AperFunction,ComponentPad*%
%ADD11C,0.600000*%
%TD*%
%TA.AperFunction,ComponentPad*%
%ADD12C,3.000000*%
%TD*%
%TA.AperFunction,HeatsinkPad*%
%ADD13O,2.100000X1.000000*%
%TD*%
%TA.AperFunction,HeatsinkPad*%
%ADD14O,1.600000X1.000000*%
%TD*%
%TA.AperFunction,ViaPad*%
%ADD15C,0.500000*%
%TD*%
%TA.AperFunction,ViaPad*%
%ADD16C,0.350000*%
%TD*%
%TA.AperFunction,ViaPad*%
%ADD17C,1.000000*%
%TD*%
%TA.AperFunction,ViaPad*%
%ADD18C,0.600000*%
%TD*%
%TA.AperFunction,ViaPad*%
%ADD19C,0.700000*%
%TD*%
G04 APERTURE END LIST*
D10*
%TA.AperFunction,EtchedComponent*%
%TO.C,kibuzzard-68265CF0*%
G36*
X120494506Y-70407639D02*
G01*
X120540644Y-70517082D01*
X120492361Y-70623305D01*
X120379700Y-70669442D01*
X120275622Y-70623305D01*
X120231631Y-70514936D01*
X120275622Y-70405494D01*
X120383991Y-70360429D01*
X120494506Y-70407639D01*
G37*
%TD.AperFunction*%
%TA.AperFunction,EtchedComponent*%
G36*
X124103352Y-70310000D02*
G01*
X123468398Y-71262432D01*
X123021330Y-71262432D01*
X122463391Y-71262432D01*
X121233777Y-71262432D01*
X120025622Y-71262432D01*
X119117897Y-71262432D01*
X117886137Y-71262432D01*
X117156524Y-71262432D01*
X116658670Y-71262432D01*
X116211602Y-71262432D01*
X115576648Y-71262432D01*
X115944792Y-70710215D01*
X116677983Y-70710215D01*
X116697124Y-70843863D01*
X116754549Y-70947811D01*
X116850258Y-71022060D01*
X116984249Y-71066609D01*
X117156524Y-71081459D01*
X117298423Y-71066974D01*
X117445150Y-71023519D01*
X117557006Y-70958605D01*
X117594292Y-70879742D01*
X117574442Y-70803562D01*
X117514893Y-70703777D01*
X117431202Y-70660858D01*
X117282060Y-70713433D01*
X117122189Y-70766009D01*
X117040644Y-70731674D01*
X117071760Y-70694120D01*
X117177983Y-70664077D01*
X117293863Y-70635107D01*
X117409340Y-70582935D01*
X117491824Y-70507961D01*
X117541314Y-70410188D01*
X117557811Y-70289614D01*
X117533285Y-70165150D01*
X117690858Y-70165150D01*
X117690858Y-70871159D01*
X117691931Y-70928026D01*
X117703734Y-70977382D01*
X117733777Y-71021373D01*
X117791717Y-71048197D01*
X117886137Y-71060000D01*
X118014356Y-71034785D01*
X118072833Y-70959142D01*
X118177446Y-71033176D01*
X118293863Y-71057854D01*
X118425002Y-71040448D01*
X118540882Y-70988231D01*
X118641502Y-70901202D01*
X118718994Y-70788660D01*
X118765489Y-70659905D01*
X118780987Y-70514936D01*
X118780987Y-70171588D01*
X118866824Y-70171588D01*
X118882918Y-70277811D01*
X118930129Y-70336824D01*
X118989142Y-70359356D01*
X119062103Y-70364721D01*
X119173691Y-70362575D01*
X119173691Y-70611502D01*
X119161888Y-70675880D01*
X119115751Y-70693047D01*
X119036352Y-70697339D01*
X118978412Y-70717725D01*
X118935494Y-70770300D01*
X118922618Y-70869013D01*
X118938712Y-70979528D01*
X118989142Y-71038541D01*
X119048155Y-71058927D01*
X119117897Y-71062146D01*
X119256309Y-71050463D01*
X119368255Y-71015412D01*
X119453734Y-70956996D01*
X119513939Y-70874020D01*
X119550062Y-70765293D01*
X119562103Y-70630815D01*
X119562103Y-70358283D01*
X119615751Y-70358283D01*
X119715536Y-70311073D01*
X119744506Y-70169442D01*
X119743974Y-70167296D01*
X119830343Y-70167296D01*
X119830343Y-70864721D01*
X119833562Y-70937682D01*
X119853948Y-70994549D01*
X119914034Y-71042833D01*
X120025622Y-71057854D01*
X120147403Y-71038541D01*
X120208026Y-70980601D01*
X120310494Y-71038541D01*
X120433348Y-71057854D01*
X120557454Y-71039495D01*
X120672260Y-70984416D01*
X120777768Y-70892618D01*
X120861817Y-70776977D01*
X120912246Y-70650367D01*
X120929056Y-70512790D01*
X120912127Y-70378789D01*
X120861340Y-70254325D01*
X120800403Y-70171588D01*
X120982704Y-70171588D01*
X120998798Y-70277811D01*
X121046009Y-70336824D01*
X121105021Y-70359356D01*
X121177983Y-70364721D01*
X121289571Y-70362575D01*
X121289571Y-70611502D01*
X121277768Y-70675880D01*
X121231631Y-70693047D01*
X121152232Y-70697339D01*
X121094292Y-70717725D01*
X121051373Y-70770300D01*
X121038498Y-70869013D01*
X121054592Y-70979528D01*
X121105021Y-71038541D01*
X121164034Y-71058927D01*
X121233777Y-71062146D01*
X121372189Y-71050463D01*
X121484134Y-71015412D01*
X121569614Y-70956996D01*
X121629819Y-70874020D01*
X121665942Y-70765293D01*
X121677983Y-70630815D01*
X121677983Y-70577167D01*
X121911888Y-70577167D01*
X121921009Y-70679635D01*
X121948369Y-70772446D01*
X122041717Y-70917296D01*
X122173691Y-71012790D01*
X122320687Y-71067511D01*
X122463391Y-71083605D01*
X122583562Y-71073948D01*
X122684421Y-71050343D01*
X122767039Y-71014936D01*
X122833562Y-70974163D01*
X122885064Y-70932318D01*
X122922618Y-70894764D01*
X122946223Y-70864721D01*
X122959099Y-70849700D01*
X123012747Y-70710215D01*
X122922618Y-70572876D01*
X122833443Y-70523281D01*
X122740453Y-70537587D01*
X122643648Y-70615794D01*
X122556738Y-70694120D01*
X122471974Y-70714506D01*
X122345365Y-70683391D01*
X122306738Y-70583605D01*
X122362532Y-70517082D01*
X122530987Y-70466652D01*
X122633187Y-70439024D01*
X122714464Y-70409785D01*
X122834635Y-70341116D01*
X122920472Y-70248841D01*
X122971974Y-70132961D01*
X122989142Y-69993476D01*
X122973166Y-69869371D01*
X122925241Y-69760286D01*
X122845365Y-69666223D01*
X122741168Y-69594096D01*
X122620281Y-69550820D01*
X122482704Y-69536395D01*
X122320806Y-69550701D01*
X122184182Y-69593619D01*
X122072833Y-69665150D01*
X121995579Y-69775665D01*
X122047082Y-69907639D01*
X122173691Y-70011717D01*
X122317468Y-69972017D01*
X122342146Y-69951631D01*
X122372189Y-69926953D01*
X122414034Y-69910858D01*
X122484850Y-69903348D01*
X122564249Y-69930172D01*
X122598584Y-69995622D01*
X122561030Y-70065365D01*
X122476266Y-70102918D01*
X122345365Y-70129742D01*
X122208026Y-70163004D01*
X122086513Y-70218798D01*
X121992361Y-70300343D01*
X121932006Y-70416760D01*
X121911888Y-70577167D01*
X121677983Y-70577167D01*
X121677983Y-70358283D01*
X121731631Y-70358283D01*
X121831416Y-70311073D01*
X121860386Y-70169442D01*
X121826052Y-70031030D01*
X121723047Y-69984893D01*
X121677983Y-69984893D01*
X121677983Y-69798197D01*
X121674764Y-69726309D01*
X121654378Y-69670515D01*
X121595365Y-69625451D01*
X121482704Y-69611502D01*
X121374335Y-69626524D01*
X121315322Y-69674807D01*
X121293863Y-69734893D01*
X121289571Y-69806781D01*
X121289571Y-69978455D01*
X121175837Y-69974163D01*
X121118970Y-69975236D01*
X121068541Y-69987039D01*
X121022403Y-70017082D01*
X120994506Y-70076094D01*
X120982704Y-70171588D01*
X120800403Y-70171588D01*
X120776695Y-70139399D01*
X120670830Y-70047601D01*
X120556381Y-69992523D01*
X120433348Y-69974163D01*
X120307275Y-69995622D01*
X120208026Y-70060000D01*
X120153305Y-69994013D01*
X120023476Y-69972017D01*
X119912961Y-69987039D01*
X119853948Y-70036395D01*
X119833562Y-70095408D01*
X119830343Y-70167296D01*
X119743974Y-70167296D01*
X119710172Y-70031030D01*
X119607167Y-69984893D01*
X119562103Y-69984893D01*
X119562103Y-69798197D01*
X119558884Y-69726309D01*
X119538498Y-69670515D01*
X119479485Y-69625451D01*
X119366824Y-69611502D01*
X119258455Y-69626524D01*
X119199442Y-69674807D01*
X119177983Y-69734893D01*
X119173691Y-69806781D01*
X119173691Y-69978455D01*
X119059957Y-69974163D01*
X119003090Y-69975236D01*
X118952661Y-69987039D01*
X118906524Y-70017082D01*
X118878627Y-70076094D01*
X118866824Y-70171588D01*
X118780987Y-70171588D01*
X118780987Y-70165150D01*
X118777768Y-70091116D01*
X118757382Y-70033176D01*
X118697296Y-69984893D01*
X118585708Y-69969871D01*
X118474120Y-69984893D01*
X118414034Y-70034249D01*
X118393648Y-70093262D01*
X118390429Y-70167296D01*
X118390429Y-70514936D01*
X118349657Y-70628670D01*
X118235923Y-70669442D01*
X118123262Y-70627597D01*
X118081416Y-70514936D01*
X118081416Y-70163004D01*
X118078197Y-70091116D01*
X118057811Y-70033176D01*
X117998798Y-69984893D01*
X117886137Y-69969871D01*
X117774549Y-69984893D01*
X117714464Y-70034249D01*
X117694077Y-70093262D01*
X117690858Y-70165150D01*
X117533285Y-70165150D01*
X117529109Y-70143959D01*
X117443004Y-70037468D01*
X117354425Y-69989185D01*
X117241764Y-69960215D01*
X117105021Y-69950558D01*
X116956416Y-69968262D01*
X116806738Y-70021373D01*
X116723584Y-70110429D01*
X116770258Y-70244549D01*
X116877554Y-70326094D01*
X116995579Y-70287468D01*
X117128627Y-70248841D01*
X117208026Y-70291760D01*
X117204807Y-70311073D01*
X117195150Y-70326094D01*
X117181202Y-70337897D01*
X117160815Y-70347554D01*
X117137210Y-70355064D01*
X117109313Y-70362575D01*
X117079270Y-70369013D01*
X117044936Y-70374378D01*
X117010601Y-70379742D01*
X116893648Y-70407639D01*
X116790644Y-70456996D01*
X116706953Y-70555708D01*
X116677983Y-70710215D01*
X115944792Y-70710215D01*
X116211602Y-70310000D01*
X115576648Y-69357568D01*
X116211602Y-69357568D01*
X116658670Y-69357568D01*
X123021330Y-69357568D01*
X123468398Y-69357568D01*
X124103352Y-70310000D01*
G37*
%TD.AperFunction*%
%TA.AperFunction,EtchedComponent*%
%TO.C,kibuzzard-68265B48*%
G36*
X169563970Y-72020479D02*
G01*
X169631209Y-72147804D01*
X169310751Y-72147804D01*
X169233498Y-72079134D01*
X169279277Y-71994728D01*
X169402310Y-71964685D01*
X169563970Y-72020479D01*
G37*
%TD.AperFunction*%
%TA.AperFunction,EtchedComponent*%
G36*
X175749950Y-72116330D02*
G01*
X175811466Y-72262253D01*
X175747089Y-72403884D01*
X175596874Y-72465400D01*
X175458104Y-72403884D01*
X175399449Y-72259392D01*
X175458104Y-72113469D01*
X175602596Y-72053383D01*
X175749950Y-72116330D01*
G37*
%TD.AperFunction*%
%TA.AperFunction,EtchedComponent*%
G36*
X182006348Y-71987575D02*
G01*
X180522959Y-74212658D01*
X179330780Y-74212658D01*
X178586860Y-74212658D01*
X176990293Y-74212658D01*
X175124771Y-74212658D01*
X173499592Y-74212658D01*
X172149091Y-74212658D01*
X169399449Y-74212658D01*
X168337933Y-74212658D01*
X168063254Y-74212658D01*
X166871075Y-74212658D01*
X165387686Y-74212658D01*
X166382758Y-72720050D01*
X168063254Y-72720050D01*
X168068977Y-72820193D01*
X168097589Y-72901738D01*
X168180565Y-72970408D01*
X168337933Y-72991867D01*
X168474199Y-72976488D01*
X168556817Y-72930350D01*
X168612611Y-72714328D01*
X168609749Y-72637074D01*
X168592582Y-72565544D01*
X168551094Y-72499735D01*
X168469549Y-72459678D01*
X168337933Y-72442876D01*
X168335071Y-72442511D01*
X168199163Y-72457532D01*
X168117618Y-72502596D01*
X168063254Y-72720050D01*
X166382758Y-72720050D01*
X166871075Y-71987575D01*
X166356054Y-71215043D01*
X168074699Y-71215043D01*
X168074699Y-72059106D01*
X168078991Y-72144943D01*
X168106173Y-72213612D01*
X168186287Y-72270837D01*
X168337933Y-72288004D01*
X168486717Y-72270837D01*
X168566831Y-72213612D01*
X168594013Y-72143512D01*
X168597039Y-72081996D01*
X168735644Y-72081996D01*
X168755315Y-72223984D01*
X168814327Y-72329492D01*
X168905529Y-72394943D01*
X169021767Y-72416760D01*
X169631209Y-72416760D01*
X169545372Y-72525486D01*
X169376559Y-72565544D01*
X169144800Y-72528348D01*
X169013183Y-72491152D01*
X168918762Y-72525486D01*
X168841509Y-72628491D01*
X168804313Y-72760107D01*
X168841509Y-72874020D01*
X168953097Y-72955386D01*
X169139077Y-73004206D01*
X169399449Y-73020479D01*
X169591151Y-73002954D01*
X169759964Y-72950379D01*
X169899807Y-72869192D01*
X170004599Y-72765830D01*
X170081137Y-72648519D01*
X170136216Y-72525486D01*
X170169478Y-72398162D01*
X170180565Y-72267976D01*
X170179906Y-72262253D01*
X170300737Y-72262253D01*
X170300737Y-72728634D01*
X170305028Y-72827346D01*
X170332210Y-72904599D01*
X170412325Y-72968977D01*
X170563970Y-72989006D01*
X170711323Y-72968977D01*
X170790007Y-72903169D01*
X170817189Y-72823054D01*
X170821481Y-72725772D01*
X170821481Y-72259392D01*
X170855815Y-72107031D01*
X170958820Y-72056245D01*
X171063254Y-72102024D01*
X171093297Y-72262253D01*
X171093297Y-72728634D01*
X171097589Y-72827346D01*
X171124771Y-72904599D01*
X171204885Y-72968977D01*
X171356531Y-72989006D01*
X171503884Y-72968977D01*
X171582568Y-72903169D01*
X171609749Y-72823054D01*
X171614041Y-72725772D01*
X171614041Y-72259392D01*
X171648376Y-72107031D01*
X171751380Y-72056245D01*
X171852239Y-72107031D01*
X171885858Y-72259392D01*
X171885858Y-72731495D01*
X171890150Y-72828777D01*
X171917332Y-72904599D01*
X171997446Y-72968977D01*
X172149091Y-72989006D01*
X172296445Y-72968977D01*
X172375129Y-72904599D01*
X172402310Y-72827346D01*
X172406602Y-72728634D01*
X172406602Y-72259392D01*
X173239220Y-72259392D01*
X173239220Y-72728634D01*
X173243512Y-72824485D01*
X173270694Y-72901738D01*
X173349378Y-72966116D01*
X173499592Y-72986144D01*
X173651237Y-72966116D01*
X173731352Y-72900307D01*
X173758533Y-72821624D01*
X173762825Y-72725772D01*
X173762825Y-72259392D01*
X173815758Y-72107747D01*
X173965973Y-72053383D01*
X174117618Y-72109177D01*
X174174842Y-72259392D01*
X174174842Y-72728634D01*
X174179134Y-72824485D01*
X174206316Y-72901738D01*
X174286430Y-72966116D01*
X174435214Y-72986144D01*
X174582568Y-72966116D01*
X174661252Y-72901738D01*
X174688433Y-72824485D01*
X174692725Y-72725772D01*
X174692725Y-71795873D01*
X174864399Y-71795873D01*
X174864399Y-72725772D01*
X174868691Y-72823054D01*
X174895873Y-72898877D01*
X174975987Y-72963255D01*
X175124771Y-72983283D01*
X175287146Y-72957532D01*
X175367976Y-72880279D01*
X175504599Y-72957532D01*
X175668405Y-72983283D01*
X175833879Y-72958804D01*
X175986955Y-72885365D01*
X176127632Y-72762968D01*
X176239697Y-72608780D01*
X176306936Y-72439967D01*
X176329349Y-72256531D01*
X176306777Y-72077863D01*
X176239061Y-71911911D01*
X176178885Y-71830207D01*
X176443798Y-71830207D01*
X176503884Y-71993297D01*
X176606888Y-72111323D01*
X176709893Y-72150665D01*
X176851523Y-72099163D01*
X176996016Y-72047661D01*
X177144800Y-72109177D01*
X177207747Y-72259392D01*
X177146230Y-72411037D01*
X177001738Y-72473984D01*
X176875844Y-72436788D01*
X176727060Y-72373841D01*
X176627632Y-72411752D01*
X176512468Y-72525486D01*
X176447295Y-72657739D01*
X176476861Y-72779818D01*
X176601166Y-72891724D01*
X176795729Y-72975415D01*
X176990293Y-73003312D01*
X177114399Y-72991152D01*
X177240651Y-72954671D01*
X177364757Y-72896016D01*
X177482425Y-72817332D01*
X177586144Y-72713970D01*
X177668405Y-72581280D01*
X177722053Y-72426416D01*
X177730900Y-72342368D01*
X177851523Y-72342368D01*
X177863684Y-72478991D01*
X177900164Y-72602740D01*
X178024628Y-72795873D01*
X178200594Y-72923197D01*
X178396588Y-72996159D01*
X178586860Y-73017618D01*
X178747089Y-73004742D01*
X178881566Y-72973269D01*
X178991724Y-72926059D01*
X179080422Y-72871695D01*
X179149091Y-72815901D01*
X179199163Y-72765830D01*
X179230636Y-72725772D01*
X179247804Y-72705744D01*
X179319335Y-72519764D01*
X179199163Y-72336645D01*
X179080263Y-72270519D01*
X178956276Y-72289594D01*
X178827203Y-72393870D01*
X178711323Y-72498305D01*
X178598305Y-72525486D01*
X178429492Y-72483998D01*
X178377990Y-72350951D01*
X178452382Y-72262253D01*
X178676988Y-72195014D01*
X178813254Y-72158176D01*
X178921624Y-72119192D01*
X179081852Y-72027632D01*
X179196302Y-71904599D01*
X179264971Y-71750093D01*
X179287861Y-71564113D01*
X179266561Y-71398638D01*
X179202660Y-71253193D01*
X179096159Y-71127775D01*
X178957230Y-71031606D01*
X178796047Y-70973905D01*
X178612611Y-70954671D01*
X178396747Y-70973746D01*
X178214582Y-71030970D01*
X178066116Y-71126345D01*
X177963111Y-71273698D01*
X178031781Y-71449664D01*
X178200594Y-71588433D01*
X178392296Y-71535501D01*
X178425200Y-71508319D01*
X178465257Y-71475415D01*
X178521051Y-71453956D01*
X178615472Y-71443941D01*
X178721337Y-71479707D01*
X178767117Y-71566974D01*
X178717046Y-71659964D01*
X178604027Y-71710036D01*
X178429492Y-71745801D01*
X178246373Y-71790150D01*
X178084356Y-71864542D01*
X177958820Y-71973269D01*
X177878347Y-72128491D01*
X177851523Y-72342368D01*
X177730900Y-72342368D01*
X177739935Y-72256531D01*
X177722053Y-72089149D01*
X177668405Y-71936073D01*
X177586502Y-71804814D01*
X177483855Y-71702883D01*
X177367260Y-71625272D01*
X177243512Y-71566974D01*
X177117976Y-71530493D01*
X176996016Y-71518333D01*
X176791438Y-71546946D01*
X176601166Y-71632782D01*
X176525343Y-71682854D01*
X176470980Y-71744370D01*
X176443798Y-71830207D01*
X176178885Y-71830207D01*
X176126202Y-71758677D01*
X175985048Y-71636279D01*
X175832449Y-71562841D01*
X175668405Y-71538362D01*
X175500307Y-71566974D01*
X175367976Y-71652811D01*
X175295014Y-71564828D01*
X175121910Y-71535501D01*
X174974556Y-71555529D01*
X174895873Y-71621338D01*
X174868691Y-71700021D01*
X174864399Y-71795873D01*
X174692725Y-71795873D01*
X174692725Y-71784428D01*
X174687003Y-71690007D01*
X174659821Y-71615615D01*
X174581137Y-71554099D01*
X174432353Y-71535501D01*
X174297875Y-71552668D01*
X174220622Y-71599878D01*
X174189149Y-71654242D01*
X174180565Y-71712897D01*
X174027489Y-71589864D01*
X173820050Y-71535501D01*
X173649012Y-71558073D01*
X173505950Y-71625788D01*
X173390865Y-71738648D01*
X173306618Y-71886796D01*
X173256070Y-72060377D01*
X173239220Y-72259392D01*
X172406602Y-72259392D01*
X172406602Y-71793011D01*
X172402310Y-71695730D01*
X172375129Y-71619907D01*
X172295014Y-71555529D01*
X172143369Y-71535501D01*
X171980279Y-71570551D01*
X171903026Y-71675701D01*
X171772840Y-71568405D01*
X171622625Y-71532639D01*
X171459217Y-71555847D01*
X171323785Y-71625470D01*
X171216330Y-71741509D01*
X171095841Y-71625470D01*
X170967085Y-71555847D01*
X170830064Y-71532639D01*
X170674763Y-71553781D01*
X170544577Y-71617205D01*
X170439506Y-71722911D01*
X170362412Y-71867403D01*
X170316155Y-72047184D01*
X170300737Y-72262253D01*
X170179906Y-72262253D01*
X170156244Y-72056721D01*
X170083283Y-71873126D01*
X169961681Y-71717189D01*
X169801611Y-71598766D01*
X169613247Y-71527712D01*
X169396588Y-71504027D01*
X169199640Y-71524692D01*
X169036073Y-71586685D01*
X168905887Y-71690007D01*
X168778204Y-71880994D01*
X168735644Y-72081996D01*
X168597039Y-72081996D01*
X168598305Y-72056245D01*
X168598305Y-71212182D01*
X168594013Y-71124914D01*
X168566831Y-71053383D01*
X168486717Y-70993297D01*
X168335071Y-70974699D01*
X168186287Y-70993297D01*
X168106173Y-71054814D01*
X168078991Y-71127775D01*
X168074699Y-71215043D01*
X166356054Y-71215043D01*
X165387686Y-69762492D01*
X166871075Y-69762492D01*
X168063254Y-69762492D01*
X179330780Y-69762492D01*
X180522959Y-69762492D01*
X182006348Y-71987575D01*
G37*
%TD.AperFunction*%
%TA.AperFunction,EtchedComponent*%
%TO.C,kibuzzard-68265CCE*%
G36*
X131170043Y-72631202D02*
G01*
X131254092Y-72790358D01*
X130853519Y-72790358D01*
X130756953Y-72704521D01*
X130814177Y-72599013D01*
X130967969Y-72561459D01*
X131170043Y-72631202D01*
G37*
%TD.AperFunction*%
%TA.AperFunction,EtchedComponent*%
G36*
X134628555Y-72631202D02*
G01*
X134712604Y-72790358D01*
X134312031Y-72790358D01*
X134215465Y-72704521D01*
X134272690Y-72599013D01*
X134426481Y-72561459D01*
X134628555Y-72631202D01*
G37*
%TD.AperFunction*%
%TA.AperFunction,EtchedComponent*%
G36*
X141345293Y-72720615D02*
G01*
X141429342Y-72929843D01*
X141336352Y-73148011D01*
X141139642Y-73219542D01*
X140939356Y-73148011D01*
X140842790Y-72926266D01*
X140925050Y-72715250D01*
X141143219Y-72636567D01*
X141345293Y-72720615D01*
G37*
%TD.AperFunction*%
%TA.AperFunction,EtchedComponent*%
G36*
X143341001Y-72720615D02*
G01*
X143425050Y-72929843D01*
X143332060Y-73148011D01*
X143135351Y-73219542D01*
X142935064Y-73148011D01*
X142838498Y-72926266D01*
X142920758Y-72715250D01*
X143138927Y-72636567D01*
X143341001Y-72720615D01*
G37*
%TD.AperFunction*%
%TA.AperFunction,EtchedComponent*%
G36*
X147823794Y-72540000D02*
G01*
X146730963Y-74179247D01*
X145985851Y-74179247D01*
X145660386Y-74179247D01*
X143128197Y-74179247D01*
X141132489Y-74179247D01*
X138696867Y-74179247D01*
X135878555Y-74179247D01*
X134422904Y-74179247D01*
X133110315Y-74179247D01*
X130964392Y-74179247D01*
X129637496Y-74179247D01*
X129294149Y-74179247D01*
X128549037Y-74179247D01*
X127456206Y-74179247D01*
X127905261Y-73505665D01*
X129294149Y-73505665D01*
X129301302Y-73630844D01*
X129337067Y-73732775D01*
X129440787Y-73818612D01*
X129637496Y-73845436D01*
X129807829Y-73826212D01*
X129911102Y-73768541D01*
X129980844Y-73498512D01*
X129977268Y-73401946D01*
X129955808Y-73312532D01*
X129903948Y-73230272D01*
X129802017Y-73180200D01*
X129637496Y-73159198D01*
X129633920Y-73158741D01*
X129464034Y-73177518D01*
X129362103Y-73233848D01*
X129294149Y-73505665D01*
X127905261Y-73505665D01*
X128549037Y-72540000D01*
X127938641Y-71624406D01*
X129308455Y-71624406D01*
X129308455Y-72679485D01*
X129313820Y-72786781D01*
X129347797Y-72872618D01*
X129447940Y-72944149D01*
X129637496Y-72965608D01*
X129823476Y-72944149D01*
X129923619Y-72872618D01*
X129957597Y-72784993D01*
X129961378Y-72708097D01*
X130134635Y-72708097D01*
X130159224Y-72885583D01*
X130232990Y-73017468D01*
X130346992Y-73099281D01*
X130492289Y-73126552D01*
X131254092Y-73126552D01*
X131146795Y-73262461D01*
X130935780Y-73312532D01*
X130646080Y-73266037D01*
X130481559Y-73219542D01*
X130363534Y-73262461D01*
X130266967Y-73391216D01*
X130220472Y-73555737D01*
X130266967Y-73698128D01*
X130406452Y-73799835D01*
X130638927Y-73860860D01*
X130964392Y-73881202D01*
X131204020Y-73859295D01*
X131415036Y-73793577D01*
X131589839Y-73692092D01*
X131720830Y-73562890D01*
X131816502Y-73416252D01*
X131885351Y-73262461D01*
X131926928Y-73103305D01*
X131940787Y-72940572D01*
X131910386Y-72676505D01*
X131819185Y-72447010D01*
X131676944Y-72264607D01*
X132030200Y-72264607D01*
X132049871Y-72432257D01*
X132108884Y-72570401D01*
X132309170Y-72693791D01*
X132446867Y-72666967D01*
X132534492Y-72640143D01*
X132711531Y-72692003D01*
X132781273Y-72822546D01*
X132781273Y-73519971D01*
X132786638Y-73641574D01*
X132820615Y-73736352D01*
X132920758Y-73816824D01*
X133110315Y-73841860D01*
X133294506Y-73816824D01*
X133392861Y-73734564D01*
X133426838Y-73636209D01*
X133432203Y-73512818D01*
X133432203Y-72708097D01*
X133593147Y-72708097D01*
X133617736Y-72885583D01*
X133691502Y-73017468D01*
X133805504Y-73099281D01*
X133950801Y-73126552D01*
X134712604Y-73126552D01*
X134605308Y-73262461D01*
X134394292Y-73312532D01*
X134104592Y-73266037D01*
X133940072Y-73219542D01*
X133822046Y-73262461D01*
X133725479Y-73391216D01*
X133678984Y-73555737D01*
X133725479Y-73698128D01*
X133864964Y-73799835D01*
X134097439Y-73860860D01*
X134422904Y-73881202D01*
X134662532Y-73859295D01*
X134873548Y-73793577D01*
X135048351Y-73692092D01*
X135179342Y-73562890D01*
X135275014Y-73416252D01*
X135343863Y-73262461D01*
X135385440Y-73103305D01*
X135399299Y-72940572D01*
X135398476Y-72933419D01*
X135553090Y-72933419D01*
X135553090Y-73519971D01*
X135558455Y-73639785D01*
X135592432Y-73736352D01*
X135692575Y-73816824D01*
X135878555Y-73841860D01*
X136062747Y-73816824D01*
X136161102Y-73738140D01*
X136196867Y-73639785D01*
X136204020Y-73512818D01*
X136204020Y-72929843D01*
X136268398Y-72745651D01*
X136443648Y-72675908D01*
X136622475Y-72736710D01*
X136719041Y-72876195D01*
X136719041Y-73519971D01*
X136724406Y-73641574D01*
X136758383Y-73736352D01*
X136858526Y-73816824D01*
X137044506Y-73841860D01*
X137228698Y-73816824D01*
X137327053Y-73736352D01*
X137361030Y-73639785D01*
X137366395Y-73516395D01*
X137366395Y-73477053D01*
X138342790Y-73477053D01*
X138460815Y-73716681D01*
X138589571Y-73826660D01*
X138696867Y-73863319D01*
X138925765Y-73734564D01*
X139365680Y-73323262D01*
X139365680Y-73519971D01*
X139371044Y-73641574D01*
X139405021Y-73736352D01*
X139503376Y-73816824D01*
X139691144Y-73841860D01*
X139875336Y-73816824D01*
X139973691Y-73734564D01*
X140007668Y-73636209D01*
X140013033Y-73516395D01*
X140013033Y-72929843D01*
X140188283Y-72929843D01*
X140221068Y-73193314D01*
X140319423Y-73421021D01*
X140483348Y-73612961D01*
X140686614Y-73758010D01*
X140902995Y-73845039D01*
X141132489Y-73874049D01*
X141364169Y-73844443D01*
X141582338Y-73755625D01*
X141786996Y-73607597D01*
X141951914Y-73414265D01*
X142050865Y-73189539D01*
X142083848Y-72933419D01*
X142083401Y-72929843D01*
X142183991Y-72929843D01*
X142216776Y-73193314D01*
X142315131Y-73421021D01*
X142479056Y-73612961D01*
X142682322Y-73758010D01*
X142898703Y-73845039D01*
X143128197Y-73874049D01*
X143359878Y-73844443D01*
X143578046Y-73755625D01*
X143782704Y-73607597D01*
X143820840Y-73562890D01*
X144183276Y-73562890D01*
X144204735Y-73720258D01*
X144274478Y-73806094D01*
X144360315Y-73836495D01*
X144462246Y-73841860D01*
X145660386Y-73841860D01*
X145846366Y-73816824D01*
X145946509Y-73734564D01*
X145980486Y-73636209D01*
X145985851Y-73512818D01*
X145985851Y-71663748D01*
X145980486Y-71543934D01*
X145946509Y-71445579D01*
X145846366Y-71363319D01*
X145656810Y-71338283D01*
X145470830Y-71363319D01*
X145370687Y-71445579D01*
X145336710Y-71543934D01*
X145331345Y-71667325D01*
X145331345Y-73283920D01*
X144458670Y-73283920D01*
X144356738Y-73289285D01*
X144274478Y-73317897D01*
X144204735Y-73401946D01*
X144183276Y-73562890D01*
X143820840Y-73562890D01*
X143947622Y-73414265D01*
X144046573Y-73189539D01*
X144079557Y-72933419D01*
X144048560Y-72685645D01*
X143955570Y-72462111D01*
X143800587Y-72262818D01*
X143602685Y-72106842D01*
X143380939Y-72013255D01*
X143135351Y-71982060D01*
X142883999Y-72012659D01*
X142659274Y-72104457D01*
X142461173Y-72257454D01*
X142307183Y-72454560D01*
X142214789Y-72678690D01*
X142183991Y-72929843D01*
X142083401Y-72929843D01*
X142052852Y-72685645D01*
X141959862Y-72462111D01*
X141804878Y-72262818D01*
X141606977Y-72106842D01*
X141385231Y-72013255D01*
X141139642Y-71982060D01*
X140888291Y-72012659D01*
X140663565Y-72104457D01*
X140465465Y-72257454D01*
X140311475Y-72454560D01*
X140219081Y-72678690D01*
X140188283Y-72929843D01*
X140013033Y-72929843D01*
X140013033Y-71524263D01*
X140007668Y-71400873D01*
X139973691Y-71304306D01*
X139873548Y-71223834D01*
X139687568Y-71198798D01*
X139503376Y-71223834D01*
X139405021Y-71306094D01*
X139371044Y-71404449D01*
X139365680Y-71527840D01*
X139365680Y-72514964D01*
X139061674Y-72218112D01*
X138827411Y-72091144D01*
X138596724Y-72218112D01*
X138462604Y-72461316D01*
X138596724Y-72683062D01*
X138886423Y-72936996D01*
X138482275Y-73251731D01*
X138342790Y-73477053D01*
X137366395Y-73477053D01*
X137366395Y-71527840D01*
X137361030Y-71408026D01*
X137327053Y-71311459D01*
X137228698Y-71230987D01*
X137040930Y-71205951D01*
X136856738Y-71230987D01*
X136758383Y-71311459D01*
X136724406Y-71408026D01*
X136719041Y-71531416D01*
X136719041Y-72182346D01*
X136549156Y-72067003D01*
X136361388Y-72028555D01*
X136144808Y-72057565D01*
X135952868Y-72144594D01*
X135785565Y-72289642D01*
X135656412Y-72477212D01*
X135578921Y-72691804D01*
X135553090Y-72933419D01*
X135398476Y-72933419D01*
X135368898Y-72676505D01*
X135277697Y-72447010D01*
X135125694Y-72252089D01*
X134925606Y-72104060D01*
X134690151Y-72015242D01*
X134419328Y-71985637D01*
X134173143Y-72011467D01*
X133968684Y-72088959D01*
X133805951Y-72218112D01*
X133646348Y-72456845D01*
X133593147Y-72708097D01*
X133432203Y-72708097D01*
X133432203Y-72346867D01*
X133426838Y-72225265D01*
X133392861Y-72130486D01*
X133294506Y-72050014D01*
X133106738Y-72024979D01*
X132899299Y-72061638D01*
X132799156Y-72171617D01*
X132618541Y-72048226D01*
X132427196Y-72007096D01*
X132319900Y-72016037D01*
X132191144Y-72048226D01*
X132074907Y-72128698D01*
X132030200Y-72264607D01*
X131676944Y-72264607D01*
X131667182Y-72252089D01*
X131467094Y-72104060D01*
X131231639Y-72015242D01*
X130960815Y-71985637D01*
X130714630Y-72011467D01*
X130510172Y-72088959D01*
X130347439Y-72218112D01*
X130187836Y-72456845D01*
X130134635Y-72708097D01*
X129961378Y-72708097D01*
X129962961Y-72675908D01*
X129962961Y-71620830D01*
X129957597Y-71511745D01*
X129923619Y-71422332D01*
X129823476Y-71347225D01*
X129633920Y-71323977D01*
X129447940Y-71347225D01*
X129347797Y-71424120D01*
X129313820Y-71515322D01*
X129308455Y-71624406D01*
X127938641Y-71624406D01*
X127456206Y-70900753D01*
X128549037Y-70900753D01*
X129294149Y-70900753D01*
X145985851Y-70900753D01*
X146730963Y-70900753D01*
X147823794Y-72540000D01*
G37*
%TD.AperFunction*%
%TD*%
D11*
%TO.P,U1,61,GND*%
%TO.N,-BATT*%
X178285000Y-104742500D03*
X179660000Y-103367500D03*
X179660000Y-106117500D03*
X181035000Y-104742500D03*
%TD*%
D12*
%TO.P,BT1,1,+*%
%TO.N,+BATT*%
X124495000Y-84150000D03*
X124495000Y-109550000D03*
%TD*%
D13*
%TO.P,J3,S1,SHIELD*%
%TO.N,-BATT*%
X188895000Y-94320000D03*
D14*
X193075000Y-94320000D03*
D13*
X188895000Y-85680000D03*
D14*
X193075000Y-85680000D03*
%TD*%
D15*
%TO.N,+3V3*%
X126800000Y-115670000D03*
X126790000Y-115020000D03*
X125030000Y-113470000D03*
X121450000Y-118740000D03*
D16*
X184580000Y-96970000D03*
D15*
X153750000Y-101000000D03*
X162280000Y-92510000D03*
X148210000Y-115000000D03*
X177805000Y-97995000D03*
X145250000Y-92500000D03*
D16*
X181187500Y-99792500D03*
D15*
X161080000Y-112900000D03*
X178690000Y-91450000D03*
%TO.N,-BATT*%
X117630000Y-115655000D03*
X186810000Y-91590000D03*
X156110000Y-114230000D03*
X133550000Y-69250000D03*
D16*
X171480000Y-94620000D03*
D17*
X124495000Y-96850000D03*
D18*
X173140600Y-104348934D03*
D15*
X168825000Y-94405000D03*
X135100000Y-67030000D03*
X163100000Y-116090000D03*
X148190000Y-113700000D03*
D18*
X172300000Y-107000000D03*
D15*
X157320000Y-116040000D03*
D16*
X190120000Y-90670000D03*
D15*
X119140000Y-115655000D03*
D18*
X153400000Y-113740000D03*
D15*
X130420000Y-78110000D03*
D18*
X163640000Y-106260000D03*
D16*
X170120000Y-91260000D03*
D15*
X153770000Y-100120000D03*
X138840000Y-115180000D03*
X169013750Y-99066250D03*
D18*
X142660000Y-112160000D03*
D16*
X182147500Y-98842500D03*
X182630000Y-99440000D03*
D15*
X170480000Y-89810000D03*
D19*
X180026250Y-93103750D03*
D15*
%TO.N,+1V8*%
X175060000Y-99820000D03*
X187670000Y-106220000D03*
D19*
X174089502Y-96480000D03*
D16*
X184455000Y-101855000D03*
D15*
X159600000Y-108400000D03*
D19*
X179955993Y-88459579D03*
X143400000Y-112420000D03*
D15*
X164940000Y-104560000D03*
D19*
X183190000Y-109932500D03*
D16*
X182325000Y-103375000D03*
D15*
X177500000Y-107300000D03*
D19*
X175280000Y-90620000D03*
D15*
%TO.N,Net-(U3-~{CS})*%
X168880000Y-85660000D03*
D19*
X171611164Y-96416082D03*
%TO.N,/QSPI_SD0*%
X172415122Y-93794878D03*
X174500000Y-88820000D03*
D16*
%TO.N,Net-(U4-~{CE})*%
X168000000Y-90600000D03*
X166860000Y-89240000D03*
%TO.N,+1V1*%
X174300000Y-104220000D03*
D15*
X180997500Y-98217500D03*
X184170000Y-102900000D03*
X179987498Y-109912500D03*
%TO.N,/XOUT*%
X164160000Y-109810000D03*
D16*
X178247502Y-113392500D03*
D15*
%TO.N,Net-(U1-GPIO25)*%
X185140000Y-105690000D03*
X123200000Y-72500000D03*
%TO.N,+5V*%
X188255000Y-92400000D03*
X188255000Y-87600000D03*
D19*
%TO.N,Net-(D1-A)*%
X127010000Y-70350000D03*
D15*
X182192850Y-105835890D03*
D16*
%TO.N,/XTAL_EN*%
X181660000Y-109020000D03*
D18*
X163640000Y-104560000D03*
%TD*%
%TA.AperFunction,Conductor*%
%TO.N,-BATT*%
G36*
X193001797Y-65300601D02*
G01*
X193100749Y-65306158D01*
X193298656Y-65317272D01*
X193305783Y-65318074D01*
X193597157Y-65367581D01*
X193604138Y-65369174D01*
X193888144Y-65450995D01*
X193894908Y-65453362D01*
X194052657Y-65518704D01*
X194167949Y-65566460D01*
X194174415Y-65569574D01*
X194254348Y-65613750D01*
X194433080Y-65712532D01*
X194439142Y-65716340D01*
X194680181Y-65887367D01*
X194685792Y-65891842D01*
X194906154Y-66088770D01*
X194911229Y-66093845D01*
X195108157Y-66314207D01*
X195112632Y-66319818D01*
X195283654Y-66560850D01*
X195287472Y-66566927D01*
X195430425Y-66825584D01*
X195433539Y-66832050D01*
X195546635Y-67105086D01*
X195549006Y-67111860D01*
X195630823Y-67395852D01*
X195632420Y-67402850D01*
X195681924Y-67694213D01*
X195682727Y-67701344D01*
X195699399Y-67998201D01*
X195699500Y-68001790D01*
X195699500Y-116998209D01*
X195699399Y-117001798D01*
X195682727Y-117298655D01*
X195681924Y-117305786D01*
X195632420Y-117597149D01*
X195630823Y-117604147D01*
X195549006Y-117888139D01*
X195546635Y-117894913D01*
X195433539Y-118167949D01*
X195430425Y-118174415D01*
X195287472Y-118433072D01*
X195283654Y-118439149D01*
X195112632Y-118680181D01*
X195108157Y-118685792D01*
X194911229Y-118906154D01*
X194906154Y-118911229D01*
X194685792Y-119108157D01*
X194680181Y-119112632D01*
X194439149Y-119283654D01*
X194433072Y-119287472D01*
X194174415Y-119430425D01*
X194167949Y-119433539D01*
X193894913Y-119546635D01*
X193888139Y-119549006D01*
X193604147Y-119630823D01*
X193597149Y-119632420D01*
X193305786Y-119681924D01*
X193298655Y-119682727D01*
X193001798Y-119699399D01*
X192998209Y-119699500D01*
X114501791Y-119699500D01*
X114498202Y-119699399D01*
X114201344Y-119682727D01*
X114194213Y-119681924D01*
X113902850Y-119632420D01*
X113895852Y-119630823D01*
X113611860Y-119549006D01*
X113605086Y-119546635D01*
X113332050Y-119433539D01*
X113325584Y-119430425D01*
X113066927Y-119287472D01*
X113060850Y-119283654D01*
X112819818Y-119112632D01*
X112814207Y-119108157D01*
X112593845Y-118911229D01*
X112588770Y-118906154D01*
X112440284Y-118739999D01*
X121044508Y-118739999D01*
X121044508Y-118740000D01*
X121064353Y-118865302D01*
X121064356Y-118865309D01*
X121085168Y-118906154D01*
X121121950Y-118978342D01*
X121211658Y-119068050D01*
X121211660Y-119068051D01*
X121211661Y-119068052D01*
X121324690Y-119125643D01*
X121324696Y-119125646D01*
X121450000Y-119145492D01*
X121575304Y-119125646D01*
X121688338Y-119068052D01*
X121688339Y-119068052D01*
X121688339Y-119068051D01*
X121688342Y-119068050D01*
X121778050Y-118978342D01*
X121835646Y-118865304D01*
X121855492Y-118740000D01*
X121835646Y-118614696D01*
X121778050Y-118501658D01*
X121688342Y-118411950D01*
X121688339Y-118411948D01*
X121688337Y-118411947D01*
X121575309Y-118354356D01*
X121575302Y-118354353D01*
X121450000Y-118334508D01*
X121324697Y-118354353D01*
X121324690Y-118354356D01*
X121211662Y-118411947D01*
X121211660Y-118411948D01*
X121211658Y-118411950D01*
X121121950Y-118501658D01*
X121121948Y-118501660D01*
X121121947Y-118501662D01*
X121064356Y-118614690D01*
X121064353Y-118614697D01*
X121044508Y-118739999D01*
X112440284Y-118739999D01*
X112391842Y-118685792D01*
X112387367Y-118680181D01*
X112216340Y-118439142D01*
X112212532Y-118433080D01*
X112069574Y-118174415D01*
X112066460Y-118167949D01*
X111953364Y-117894913D01*
X111950993Y-117888139D01*
X111869174Y-117604138D01*
X111867581Y-117597157D01*
X111818074Y-117305783D01*
X111817272Y-117298654D01*
X111800601Y-117001797D01*
X111800500Y-116998209D01*
X111800500Y-115019999D01*
X126384508Y-115019999D01*
X126384508Y-115020000D01*
X126404353Y-115145302D01*
X126404356Y-115145309D01*
X126451759Y-115238342D01*
X126461950Y-115258342D01*
X126508353Y-115304745D01*
X126527098Y-115349999D01*
X126508353Y-115395253D01*
X126471952Y-115431654D01*
X126471947Y-115431660D01*
X126414356Y-115544690D01*
X126414353Y-115544697D01*
X126394508Y-115669999D01*
X126394508Y-115670000D01*
X126414353Y-115795302D01*
X126414356Y-115795309D01*
X126471947Y-115908337D01*
X126471950Y-115908342D01*
X126561658Y-115998050D01*
X126561660Y-115998051D01*
X126561661Y-115998052D01*
X126674690Y-116055643D01*
X126674696Y-116055646D01*
X126800000Y-116075492D01*
X126925304Y-116055646D01*
X127038338Y-115998052D01*
X127038339Y-115998052D01*
X127038339Y-115998051D01*
X127038342Y-115998050D01*
X127128050Y-115908342D01*
X127185646Y-115795304D01*
X127205492Y-115670000D01*
X127185646Y-115544696D01*
X127128050Y-115431658D01*
X127128046Y-115431654D01*
X127081646Y-115385253D01*
X127062901Y-115339998D01*
X127081646Y-115294744D01*
X127118050Y-115258342D01*
X127175646Y-115145304D01*
X127195492Y-115020000D01*
X127192324Y-114999999D01*
X147804508Y-114999999D01*
X147804508Y-115000000D01*
X147824353Y-115125302D01*
X147824356Y-115125309D01*
X147834547Y-115145309D01*
X147881950Y-115238342D01*
X147971658Y-115328050D01*
X147971660Y-115328051D01*
X147971661Y-115328052D01*
X148014735Y-115349999D01*
X148084696Y-115385646D01*
X148210000Y-115405492D01*
X148335304Y-115385646D01*
X148448338Y-115328052D01*
X148448339Y-115328052D01*
X148448339Y-115328051D01*
X148448342Y-115328050D01*
X148538050Y-115238342D01*
X148595646Y-115125304D01*
X148615492Y-115000000D01*
X148595646Y-114874696D01*
X148538050Y-114761658D01*
X148448342Y-114671950D01*
X148448339Y-114671948D01*
X148448337Y-114671947D01*
X148335309Y-114614356D01*
X148335302Y-114614353D01*
X148210000Y-114594508D01*
X148084697Y-114614353D01*
X148084690Y-114614356D01*
X147971662Y-114671947D01*
X147971660Y-114671948D01*
X147971658Y-114671950D01*
X147881950Y-114761658D01*
X147881948Y-114761660D01*
X147881947Y-114761662D01*
X147824356Y-114874690D01*
X147824353Y-114874697D01*
X147804508Y-114999999D01*
X127192324Y-114999999D01*
X127175646Y-114894696D01*
X127118050Y-114781658D01*
X127028342Y-114691950D01*
X127028339Y-114691948D01*
X127028337Y-114691947D01*
X126915309Y-114634356D01*
X126915302Y-114634353D01*
X126790000Y-114614508D01*
X126664697Y-114634353D01*
X126664690Y-114634356D01*
X126551662Y-114691947D01*
X126551660Y-114691948D01*
X126551658Y-114691950D01*
X126461950Y-114781658D01*
X126461948Y-114781660D01*
X126461947Y-114781662D01*
X126404356Y-114894690D01*
X126404353Y-114894697D01*
X126384508Y-115019999D01*
X111800500Y-115019999D01*
X111800500Y-113469999D01*
X124624508Y-113469999D01*
X124624508Y-113470000D01*
X124644353Y-113595302D01*
X124644356Y-113595309D01*
X124701947Y-113708337D01*
X124701950Y-113708342D01*
X124791658Y-113798050D01*
X124791660Y-113798051D01*
X124791661Y-113798052D01*
X124904690Y-113855643D01*
X124904696Y-113855646D01*
X125030000Y-113875492D01*
X125155304Y-113855646D01*
X125268338Y-113798052D01*
X125268339Y-113798052D01*
X125268339Y-113798051D01*
X125268342Y-113798050D01*
X125358050Y-113708342D01*
X125415646Y-113595304D01*
X125435492Y-113470000D01*
X125423217Y-113392500D01*
X177916981Y-113392500D01*
X177936914Y-113505545D01*
X177994309Y-113604957D01*
X178082241Y-113678740D01*
X178190108Y-113718000D01*
X178304896Y-113718000D01*
X178412763Y-113678740D01*
X178500696Y-113604955D01*
X178558090Y-113505545D01*
X178578023Y-113392500D01*
X178558090Y-113279455D01*
X178500696Y-113180045D01*
X178500695Y-113180044D01*
X178500694Y-113180042D01*
X178412762Y-113106259D01*
X178304896Y-113067000D01*
X178190108Y-113067000D01*
X178082242Y-113106259D01*
X178082241Y-113106260D01*
X177994309Y-113180042D01*
X177936914Y-113279454D01*
X177916981Y-113392500D01*
X125423217Y-113392500D01*
X125415646Y-113344696D01*
X125358050Y-113231658D01*
X125268342Y-113141950D01*
X125268339Y-113141948D01*
X125268337Y-113141947D01*
X125155309Y-113084356D01*
X125155302Y-113084353D01*
X125030000Y-113064508D01*
X124904697Y-113084353D01*
X124904690Y-113084356D01*
X124791662Y-113141947D01*
X124791660Y-113141948D01*
X124791658Y-113141950D01*
X124701950Y-113231658D01*
X124701948Y-113231660D01*
X124701947Y-113231662D01*
X124644356Y-113344690D01*
X124644353Y-113344697D01*
X124624508Y-113469999D01*
X111800500Y-113469999D01*
X111800500Y-112899999D01*
X160674508Y-112899999D01*
X160674508Y-112900000D01*
X160694353Y-113025302D01*
X160694356Y-113025309D01*
X160735603Y-113106260D01*
X160751950Y-113138342D01*
X160841658Y-113228050D01*
X160841660Y-113228051D01*
X160841661Y-113228052D01*
X160954690Y-113285643D01*
X160954696Y-113285646D01*
X161080000Y-113305492D01*
X161205304Y-113285646D01*
X161318338Y-113228052D01*
X161318339Y-113228052D01*
X161318339Y-113228051D01*
X161318342Y-113228050D01*
X161408050Y-113138342D01*
X161465646Y-113025304D01*
X161485492Y-112900000D01*
X161485254Y-112898500D01*
X161467333Y-112785346D01*
X161465646Y-112774696D01*
X161408050Y-112661658D01*
X161318342Y-112571950D01*
X161318339Y-112571948D01*
X161318337Y-112571947D01*
X161205309Y-112514356D01*
X161205302Y-112514353D01*
X161080000Y-112494508D01*
X160954697Y-112514353D01*
X160954690Y-112514356D01*
X160841662Y-112571947D01*
X160841660Y-112571948D01*
X160841658Y-112571950D01*
X160751950Y-112661658D01*
X160751948Y-112661660D01*
X160751947Y-112661662D01*
X160694356Y-112774690D01*
X160694353Y-112774697D01*
X160674508Y-112899999D01*
X111800500Y-112899999D01*
X111800500Y-112420000D01*
X142916579Y-112420000D01*
X142936161Y-112556196D01*
X142943355Y-112571948D01*
X142993320Y-112681357D01*
X143074200Y-112774696D01*
X143083428Y-112785346D01*
X143199178Y-112859734D01*
X143199180Y-112859735D01*
X143331202Y-112898500D01*
X143331204Y-112898500D01*
X143468796Y-112898500D01*
X143468798Y-112898500D01*
X143600820Y-112859735D01*
X143716573Y-112785345D01*
X143806680Y-112681357D01*
X143863839Y-112556195D01*
X143883421Y-112420000D01*
X143863839Y-112283805D01*
X143806680Y-112158643D01*
X143716573Y-112054655D01*
X143716572Y-112054654D01*
X143716571Y-112054653D01*
X143600821Y-111980265D01*
X143556812Y-111967343D01*
X143468798Y-111941500D01*
X143331202Y-111941500D01*
X143265191Y-111960882D01*
X143199178Y-111980265D01*
X143083428Y-112054653D01*
X142993321Y-112158641D01*
X142993319Y-112158644D01*
X142936161Y-112283803D01*
X142916579Y-112420000D01*
X111800500Y-112420000D01*
X111800500Y-109550000D01*
X122861464Y-109550000D01*
X122881576Y-109805541D01*
X122881577Y-109805545D01*
X122941415Y-110054793D01*
X123039508Y-110291609D01*
X123112672Y-110411000D01*
X123173442Y-110510168D01*
X123339916Y-110705084D01*
X123534832Y-110871558D01*
X123753390Y-111005491D01*
X123753389Y-111005491D01*
X123990206Y-111103584D01*
X123990209Y-111103584D01*
X123990210Y-111103585D01*
X124239459Y-111163424D01*
X124495000Y-111183536D01*
X124750541Y-111163424D01*
X124999790Y-111103585D01*
X124999791Y-111103584D01*
X124999793Y-111103584D01*
X125087272Y-111067348D01*
X125236610Y-111005491D01*
X125455168Y-110871558D01*
X125650084Y-110705084D01*
X125816558Y-110510168D01*
X125950491Y-110291610D01*
X126042825Y-110068696D01*
X126048584Y-110054793D01*
X126050133Y-110048342D01*
X126107354Y-109809999D01*
X163754508Y-109809999D01*
X163754508Y-109810000D01*
X163774353Y-109935302D01*
X163774356Y-109935309D01*
X163826583Y-110037809D01*
X163831950Y-110048342D01*
X163921658Y-110138050D01*
X163921660Y-110138051D01*
X163921661Y-110138052D01*
X164031181Y-110193855D01*
X164034696Y-110195646D01*
X164160000Y-110215492D01*
X164285304Y-110195646D01*
X164398338Y-110138052D01*
X164398339Y-110138052D01*
X164398339Y-110138051D01*
X164398342Y-110138050D01*
X164488050Y-110048342D01*
X164545646Y-109935304D01*
X164549258Y-109912499D01*
X179582006Y-109912499D01*
X179582006Y-109912500D01*
X179601851Y-110037802D01*
X179601854Y-110037809D01*
X179617592Y-110068696D01*
X179659448Y-110150842D01*
X179749156Y-110240550D01*
X179749158Y-110240551D01*
X179749159Y-110240552D01*
X179849364Y-110291609D01*
X179862194Y-110298146D01*
X179987498Y-110317992D01*
X180112802Y-110298146D01*
X180225836Y-110240552D01*
X180225837Y-110240552D01*
X180225837Y-110240551D01*
X180225840Y-110240550D01*
X180315548Y-110150842D01*
X180373144Y-110037804D01*
X180389822Y-109932500D01*
X182706579Y-109932500D01*
X182726161Y-110068696D01*
X182763676Y-110150842D01*
X182783320Y-110193857D01*
X182868024Y-110291609D01*
X182873428Y-110297846D01*
X182873895Y-110298146D01*
X182989180Y-110372235D01*
X183121202Y-110411000D01*
X183121204Y-110411000D01*
X183258796Y-110411000D01*
X183258798Y-110411000D01*
X183390820Y-110372235D01*
X183506573Y-110297845D01*
X183596680Y-110193857D01*
X183653839Y-110068695D01*
X183673421Y-109932500D01*
X183653839Y-109796305D01*
X183596680Y-109671143D01*
X183506573Y-109567155D01*
X183506572Y-109567154D01*
X183506571Y-109567153D01*
X183390821Y-109492765D01*
X183346812Y-109479843D01*
X183258798Y-109454000D01*
X183121202Y-109454000D01*
X183055191Y-109473382D01*
X182989178Y-109492765D01*
X182873428Y-109567153D01*
X182783321Y-109671141D01*
X182783319Y-109671144D01*
X182726161Y-109796303D01*
X182706579Y-109932500D01*
X180389822Y-109932500D01*
X180392990Y-109912500D01*
X180373144Y-109787196D01*
X180315548Y-109674158D01*
X180225840Y-109584450D01*
X180225837Y-109584448D01*
X180225835Y-109584447D01*
X180112807Y-109526856D01*
X180112800Y-109526853D01*
X179987498Y-109507008D01*
X179862195Y-109526853D01*
X179862188Y-109526856D01*
X179749160Y-109584447D01*
X179749158Y-109584448D01*
X179749156Y-109584450D01*
X179659448Y-109674158D01*
X179659446Y-109674160D01*
X179659445Y-109674162D01*
X179601854Y-109787190D01*
X179601851Y-109787197D01*
X179582006Y-109912499D01*
X164549258Y-109912499D01*
X164565492Y-109810000D01*
X164564786Y-109805545D01*
X164545646Y-109684697D01*
X164545643Y-109684690D01*
X164488052Y-109571662D01*
X164488052Y-109571661D01*
X164488051Y-109571660D01*
X164488050Y-109571658D01*
X164398342Y-109481950D01*
X164398339Y-109481948D01*
X164398337Y-109481947D01*
X164285309Y-109424356D01*
X164285302Y-109424353D01*
X164160000Y-109404508D01*
X164034697Y-109424353D01*
X164034690Y-109424356D01*
X163921662Y-109481947D01*
X163921660Y-109481948D01*
X163921658Y-109481950D01*
X163831950Y-109571658D01*
X163831948Y-109571660D01*
X163831947Y-109571662D01*
X163774356Y-109684690D01*
X163774353Y-109684697D01*
X163754508Y-109809999D01*
X126107354Y-109809999D01*
X126108424Y-109805541D01*
X126128536Y-109550000D01*
X126108424Y-109294459D01*
X126048585Y-109045210D01*
X126048584Y-109045209D01*
X126048584Y-109045206D01*
X126038143Y-109020000D01*
X181329479Y-109020000D01*
X181349412Y-109133045D01*
X181406807Y-109232457D01*
X181480693Y-109294454D01*
X181494739Y-109306240D01*
X181602606Y-109345500D01*
X181717394Y-109345500D01*
X181825261Y-109306240D01*
X181913194Y-109232455D01*
X181970588Y-109133045D01*
X181990521Y-109020000D01*
X181970588Y-108906955D01*
X181913194Y-108807545D01*
X181913193Y-108807544D01*
X181913192Y-108807542D01*
X181825260Y-108733759D01*
X181717394Y-108694500D01*
X181602606Y-108694500D01*
X181494740Y-108733759D01*
X181494739Y-108733760D01*
X181406807Y-108807542D01*
X181349412Y-108906954D01*
X181329479Y-109020000D01*
X126038143Y-109020000D01*
X125950491Y-108808390D01*
X125816558Y-108589832D01*
X125816556Y-108589830D01*
X125654425Y-108399999D01*
X159194508Y-108399999D01*
X159194508Y-108400000D01*
X159214353Y-108525302D01*
X159214356Y-108525309D01*
X159271947Y-108638337D01*
X159271950Y-108638342D01*
X159361658Y-108728050D01*
X159361660Y-108728051D01*
X159361661Y-108728052D01*
X159372862Y-108733759D01*
X159474696Y-108785646D01*
X159600000Y-108805492D01*
X159725304Y-108785646D01*
X159838338Y-108728052D01*
X159838339Y-108728052D01*
X159838339Y-108728051D01*
X159838342Y-108728050D01*
X159928050Y-108638342D01*
X159985646Y-108525304D01*
X160005492Y-108400000D01*
X159985646Y-108274696D01*
X159928050Y-108161658D01*
X159838342Y-108071950D01*
X159838339Y-108071948D01*
X159838337Y-108071947D01*
X159725309Y-108014356D01*
X159725302Y-108014353D01*
X159600000Y-107994508D01*
X159474697Y-108014353D01*
X159474690Y-108014356D01*
X159361662Y-108071947D01*
X159361660Y-108071948D01*
X159361658Y-108071950D01*
X159271950Y-108161658D01*
X159271948Y-108161660D01*
X159271947Y-108161662D01*
X159214356Y-108274690D01*
X159214353Y-108274697D01*
X159194508Y-108399999D01*
X125654425Y-108399999D01*
X125650084Y-108394916D01*
X125650083Y-108394915D01*
X125455169Y-108228443D01*
X125455167Y-108228441D01*
X125236608Y-108094508D01*
X125236610Y-108094508D01*
X124999793Y-107996415D01*
X124750545Y-107936577D01*
X124750541Y-107936576D01*
X124495000Y-107916464D01*
X124239459Y-107936576D01*
X124239455Y-107936576D01*
X124239454Y-107936577D01*
X123990206Y-107996415D01*
X123753390Y-108094508D01*
X123534832Y-108228441D01*
X123534830Y-108228443D01*
X123339916Y-108394915D01*
X123339915Y-108394916D01*
X123173443Y-108589830D01*
X123173441Y-108589832D01*
X123039508Y-108808390D01*
X122941415Y-109045206D01*
X122896461Y-109232457D01*
X122881576Y-109294459D01*
X122861464Y-109550000D01*
X111800500Y-109550000D01*
X111800500Y-107299999D01*
X177094508Y-107299999D01*
X177094508Y-107300000D01*
X177114353Y-107425302D01*
X177114356Y-107425309D01*
X177171947Y-107538337D01*
X177171950Y-107538342D01*
X177261658Y-107628050D01*
X177261660Y-107628051D01*
X177261661Y-107628052D01*
X177374690Y-107685643D01*
X177374696Y-107685646D01*
X177500000Y-107705492D01*
X177625304Y-107685646D01*
X177738338Y-107628052D01*
X177738339Y-107628052D01*
X177738339Y-107628051D01*
X177738342Y-107628050D01*
X177828050Y-107538342D01*
X177885646Y-107425304D01*
X177905492Y-107300000D01*
X177885646Y-107174696D01*
X177828050Y-107061658D01*
X177738342Y-106971950D01*
X177738339Y-106971948D01*
X177738337Y-106971947D01*
X177625309Y-106914356D01*
X177625302Y-106914353D01*
X177500000Y-106894508D01*
X177374697Y-106914353D01*
X177374690Y-106914356D01*
X177261662Y-106971947D01*
X177261660Y-106971948D01*
X177261658Y-106971950D01*
X177171950Y-107061658D01*
X177171948Y-107061660D01*
X177171947Y-107061662D01*
X177114356Y-107174690D01*
X177114353Y-107174697D01*
X177094508Y-107299999D01*
X111800500Y-107299999D01*
X111800500Y-105835889D01*
X181787358Y-105835889D01*
X181787358Y-105835890D01*
X181807203Y-105961192D01*
X181807206Y-105961199D01*
X181864797Y-106074227D01*
X181864800Y-106074232D01*
X181954508Y-106163940D01*
X181954510Y-106163941D01*
X181954511Y-106163942D01*
X182064529Y-106219999D01*
X182067546Y-106221536D01*
X182192850Y-106241382D01*
X182318154Y-106221536D01*
X182321171Y-106219999D01*
X187264508Y-106219999D01*
X187264508Y-106220000D01*
X187284353Y-106345302D01*
X187284356Y-106345309D01*
X187341947Y-106458337D01*
X187341950Y-106458342D01*
X187431658Y-106548050D01*
X187431660Y-106548051D01*
X187431661Y-106548052D01*
X187544690Y-106605643D01*
X187544696Y-106605646D01*
X187670000Y-106625492D01*
X187795304Y-106605646D01*
X187908338Y-106548052D01*
X187908339Y-106548052D01*
X187908339Y-106548051D01*
X187908342Y-106548050D01*
X187998050Y-106458342D01*
X188055646Y-106345304D01*
X188075492Y-106220000D01*
X188055646Y-106094696D01*
X188045939Y-106075646D01*
X187998052Y-105981662D01*
X187998052Y-105981661D01*
X187998051Y-105981660D01*
X187998050Y-105981658D01*
X187908342Y-105891950D01*
X187908339Y-105891948D01*
X187908337Y-105891947D01*
X187795309Y-105834356D01*
X187795302Y-105834353D01*
X187670000Y-105814508D01*
X187544697Y-105834353D01*
X187544690Y-105834356D01*
X187431662Y-105891947D01*
X187431660Y-105891948D01*
X187431658Y-105891950D01*
X187341950Y-105981658D01*
X187341948Y-105981660D01*
X187341947Y-105981662D01*
X187284356Y-106094690D01*
X187284353Y-106094697D01*
X187264508Y-106219999D01*
X182321171Y-106219999D01*
X182431188Y-106163942D01*
X182431189Y-106163942D01*
X182431189Y-106163941D01*
X182431192Y-106163940D01*
X182520900Y-106074232D01*
X182578496Y-105961194D01*
X182598342Y-105835890D01*
X182594955Y-105814508D01*
X182578496Y-105710587D01*
X182578493Y-105710580D01*
X182568006Y-105689999D01*
X184734508Y-105689999D01*
X184734508Y-105690000D01*
X184754353Y-105815302D01*
X184754356Y-105815309D01*
X184793406Y-105891948D01*
X184811950Y-105928342D01*
X184901658Y-106018050D01*
X184901660Y-106018051D01*
X184901661Y-106018052D01*
X185011911Y-106074227D01*
X185014696Y-106075646D01*
X185140000Y-106095492D01*
X185265304Y-106075646D01*
X185378338Y-106018052D01*
X185378339Y-106018052D01*
X185378339Y-106018051D01*
X185378342Y-106018050D01*
X185468050Y-105928342D01*
X185525646Y-105815304D01*
X185545492Y-105690000D01*
X185525646Y-105564696D01*
X185468050Y-105451658D01*
X185378342Y-105361950D01*
X185378339Y-105361948D01*
X185378337Y-105361947D01*
X185265309Y-105304356D01*
X185265302Y-105304353D01*
X185140000Y-105284508D01*
X185014697Y-105304353D01*
X185014690Y-105304356D01*
X184901662Y-105361947D01*
X184901660Y-105361948D01*
X184901658Y-105361950D01*
X184811950Y-105451658D01*
X184811948Y-105451660D01*
X184811947Y-105451662D01*
X184754356Y-105564690D01*
X184754353Y-105564697D01*
X184734508Y-105689999D01*
X182568006Y-105689999D01*
X182520902Y-105597552D01*
X182520902Y-105597551D01*
X182520901Y-105597550D01*
X182520900Y-105597548D01*
X182431192Y-105507840D01*
X182431189Y-105507838D01*
X182431187Y-105507837D01*
X182318159Y-105450246D01*
X182318152Y-105450243D01*
X182192850Y-105430398D01*
X182067547Y-105450243D01*
X182067540Y-105450246D01*
X181954512Y-105507837D01*
X181954510Y-105507838D01*
X181954508Y-105507840D01*
X181864800Y-105597548D01*
X181864798Y-105597550D01*
X181864797Y-105597552D01*
X181807206Y-105710580D01*
X181807203Y-105710587D01*
X181787358Y-105835889D01*
X111800500Y-105835889D01*
X111800500Y-104560000D01*
X163207094Y-104560000D01*
X163224630Y-104681965D01*
X163275817Y-104794049D01*
X163356508Y-104887170D01*
X163391059Y-104909374D01*
X163460164Y-104953785D01*
X163578391Y-104988500D01*
X163578393Y-104988500D01*
X163701607Y-104988500D01*
X163701609Y-104988500D01*
X163819836Y-104953785D01*
X163923493Y-104887169D01*
X164004184Y-104794047D01*
X164055370Y-104681964D01*
X164072906Y-104560000D01*
X164072906Y-104559999D01*
X164534508Y-104559999D01*
X164534508Y-104560000D01*
X164554353Y-104685302D01*
X164554356Y-104685309D01*
X164611947Y-104798337D01*
X164611950Y-104798342D01*
X164701658Y-104888050D01*
X164701660Y-104888051D01*
X164701661Y-104888052D01*
X164814690Y-104945643D01*
X164814696Y-104945646D01*
X164940000Y-104965492D01*
X165065304Y-104945646D01*
X165178338Y-104888052D01*
X165178339Y-104888052D01*
X165178339Y-104888051D01*
X165178342Y-104888050D01*
X165268050Y-104798342D01*
X165325646Y-104685304D01*
X165345492Y-104560000D01*
X165343195Y-104545500D01*
X165325646Y-104434697D01*
X165325643Y-104434690D01*
X165268052Y-104321662D01*
X165268052Y-104321661D01*
X165268051Y-104321660D01*
X165268050Y-104321658D01*
X165178342Y-104231950D01*
X165178339Y-104231948D01*
X165178337Y-104231947D01*
X165154890Y-104220000D01*
X173969479Y-104220000D01*
X173989412Y-104333045D01*
X174046807Y-104432457D01*
X174134739Y-104506240D01*
X174242606Y-104545500D01*
X174357394Y-104545500D01*
X174465261Y-104506240D01*
X174546543Y-104438036D01*
X174553192Y-104432457D01*
X174553192Y-104432456D01*
X174553194Y-104432455D01*
X174610588Y-104333045D01*
X174630521Y-104220000D01*
X174610588Y-104106955D01*
X174553194Y-104007545D01*
X174553193Y-104007544D01*
X174553192Y-104007542D01*
X174465260Y-103933759D01*
X174357394Y-103894500D01*
X174242606Y-103894500D01*
X174134740Y-103933759D01*
X174134739Y-103933760D01*
X174046807Y-104007542D01*
X173989412Y-104106954D01*
X173969479Y-104220000D01*
X165154890Y-104220000D01*
X165065309Y-104174356D01*
X165065302Y-104174353D01*
X164940000Y-104154508D01*
X164814697Y-104174353D01*
X164814690Y-104174356D01*
X164701662Y-104231947D01*
X164701660Y-104231948D01*
X164701658Y-104231950D01*
X164611950Y-104321658D01*
X164611948Y-104321660D01*
X164611947Y-104321662D01*
X164554356Y-104434690D01*
X164554353Y-104434697D01*
X164534508Y-104559999D01*
X164072906Y-104559999D01*
X164055370Y-104438036D01*
X164004184Y-104325953D01*
X164004182Y-104325951D01*
X164004182Y-104325950D01*
X163923491Y-104232829D01*
X163854388Y-104188420D01*
X163819837Y-104166215D01*
X163779966Y-104154508D01*
X163701609Y-104131500D01*
X163578391Y-104131500D01*
X163519277Y-104148857D01*
X163460162Y-104166215D01*
X163460162Y-104166216D01*
X163356508Y-104232829D01*
X163275817Y-104325950D01*
X163224630Y-104438034D01*
X163207094Y-104560000D01*
X111800500Y-104560000D01*
X111800500Y-103375000D01*
X181994479Y-103375000D01*
X182014412Y-103488045D01*
X182071807Y-103587457D01*
X182159739Y-103661240D01*
X182267606Y-103700500D01*
X182382394Y-103700500D01*
X182490261Y-103661240D01*
X182578194Y-103587455D01*
X182635588Y-103488045D01*
X182655521Y-103375000D01*
X182635588Y-103261955D01*
X182578194Y-103162545D01*
X182578193Y-103162544D01*
X182578192Y-103162542D01*
X182490260Y-103088759D01*
X182382394Y-103049500D01*
X182267606Y-103049500D01*
X182159740Y-103088759D01*
X182159739Y-103088760D01*
X182071807Y-103162542D01*
X182014412Y-103261954D01*
X181994479Y-103375000D01*
X111800500Y-103375000D01*
X111800500Y-102899999D01*
X183764508Y-102899999D01*
X183764508Y-102900000D01*
X183784353Y-103025302D01*
X183784356Y-103025309D01*
X183841947Y-103138337D01*
X183841950Y-103138342D01*
X183931658Y-103228050D01*
X183931660Y-103228051D01*
X183931661Y-103228052D01*
X183998198Y-103261954D01*
X184044696Y-103285646D01*
X184170000Y-103305492D01*
X184295304Y-103285646D01*
X184408338Y-103228052D01*
X184408339Y-103228052D01*
X184408339Y-103228051D01*
X184408342Y-103228050D01*
X184498050Y-103138342D01*
X184555646Y-103025304D01*
X184575492Y-102900000D01*
X184555646Y-102774696D01*
X184498050Y-102661658D01*
X184408342Y-102571950D01*
X184408339Y-102571948D01*
X184408337Y-102571947D01*
X184295309Y-102514356D01*
X184295302Y-102514353D01*
X184170000Y-102494508D01*
X184044697Y-102514353D01*
X184044690Y-102514356D01*
X183931662Y-102571947D01*
X183931660Y-102571948D01*
X183931658Y-102571950D01*
X183841950Y-102661658D01*
X183841948Y-102661660D01*
X183841947Y-102661662D01*
X183784356Y-102774690D01*
X183784353Y-102774697D01*
X183764508Y-102899999D01*
X111800500Y-102899999D01*
X111800500Y-101855000D01*
X184124479Y-101855000D01*
X184144412Y-101968045D01*
X184201807Y-102067457D01*
X184289739Y-102141240D01*
X184397606Y-102180500D01*
X184512394Y-102180500D01*
X184620261Y-102141240D01*
X184708194Y-102067455D01*
X184765588Y-101968045D01*
X184785521Y-101855000D01*
X184765588Y-101741955D01*
X184708194Y-101642545D01*
X184708193Y-101642544D01*
X184708192Y-101642542D01*
X184620260Y-101568759D01*
X184512394Y-101529500D01*
X184397606Y-101529500D01*
X184289740Y-101568759D01*
X184289739Y-101568760D01*
X184201807Y-101642542D01*
X184144412Y-101741954D01*
X184124479Y-101855000D01*
X111800500Y-101855000D01*
X111800500Y-100999999D01*
X153344508Y-100999999D01*
X153344508Y-101000000D01*
X153364353Y-101125302D01*
X153364356Y-101125309D01*
X153421947Y-101238337D01*
X153421950Y-101238342D01*
X153511658Y-101328050D01*
X153511660Y-101328051D01*
X153511661Y-101328052D01*
X153624690Y-101385643D01*
X153624696Y-101385646D01*
X153750000Y-101405492D01*
X153875304Y-101385646D01*
X153988338Y-101328052D01*
X153988339Y-101328052D01*
X153988339Y-101328051D01*
X153988342Y-101328050D01*
X154078050Y-101238342D01*
X154135646Y-101125304D01*
X154155492Y-101000000D01*
X154135646Y-100874696D01*
X154078050Y-100761658D01*
X153988342Y-100671950D01*
X153988339Y-100671948D01*
X153988337Y-100671947D01*
X153875309Y-100614356D01*
X153875302Y-100614353D01*
X153750000Y-100594508D01*
X153624697Y-100614353D01*
X153624690Y-100614356D01*
X153511662Y-100671947D01*
X153511660Y-100671948D01*
X153511658Y-100671950D01*
X153421950Y-100761658D01*
X153421948Y-100761660D01*
X153421947Y-100761662D01*
X153364356Y-100874690D01*
X153364353Y-100874697D01*
X153344508Y-100999999D01*
X111800500Y-100999999D01*
X111800500Y-99819999D01*
X174654508Y-99819999D01*
X174654508Y-99820000D01*
X174674353Y-99945302D01*
X174674356Y-99945309D01*
X174731947Y-100058337D01*
X174731950Y-100058342D01*
X174821658Y-100148050D01*
X174821660Y-100148051D01*
X174821661Y-100148052D01*
X174934690Y-100205643D01*
X174934696Y-100205646D01*
X175060000Y-100225492D01*
X175185304Y-100205646D01*
X175298338Y-100148052D01*
X175298339Y-100148052D01*
X175298339Y-100148051D01*
X175298342Y-100148050D01*
X175388050Y-100058342D01*
X175445646Y-99945304D01*
X175465492Y-99820000D01*
X175461136Y-99792500D01*
X180856979Y-99792500D01*
X180876912Y-99905545D01*
X180934307Y-100004957D01*
X181022239Y-100078740D01*
X181130106Y-100118000D01*
X181244894Y-100118000D01*
X181352761Y-100078740D01*
X181440694Y-100004955D01*
X181498088Y-99905545D01*
X181518021Y-99792500D01*
X181498088Y-99679455D01*
X181440694Y-99580045D01*
X181440693Y-99580044D01*
X181440692Y-99580042D01*
X181352760Y-99506259D01*
X181244894Y-99467000D01*
X181130106Y-99467000D01*
X181022240Y-99506259D01*
X181022239Y-99506260D01*
X180934307Y-99580042D01*
X180876912Y-99679454D01*
X180856979Y-99792500D01*
X175461136Y-99792500D01*
X175445646Y-99694697D01*
X175445643Y-99694690D01*
X175388052Y-99581662D01*
X175388052Y-99581661D01*
X175388051Y-99581660D01*
X175388050Y-99581658D01*
X175298342Y-99491950D01*
X175298339Y-99491948D01*
X175298337Y-99491947D01*
X175185309Y-99434356D01*
X175185302Y-99434353D01*
X175060000Y-99414508D01*
X174934697Y-99434353D01*
X174934690Y-99434356D01*
X174821662Y-99491947D01*
X174821660Y-99491948D01*
X174821658Y-99491950D01*
X174731950Y-99581658D01*
X174731948Y-99581660D01*
X174731947Y-99581662D01*
X174674356Y-99694690D01*
X174674353Y-99694697D01*
X174654508Y-99819999D01*
X111800500Y-99819999D01*
X111800500Y-97994999D01*
X177399508Y-97994999D01*
X177399508Y-97995000D01*
X177419353Y-98120302D01*
X177419356Y-98120309D01*
X177468878Y-98217500D01*
X177476950Y-98233342D01*
X177566658Y-98323050D01*
X177566660Y-98323051D01*
X177566661Y-98323052D01*
X177679690Y-98380643D01*
X177679696Y-98380646D01*
X177805000Y-98400492D01*
X177930304Y-98380646D01*
X178043338Y-98323052D01*
X178043339Y-98323052D01*
X178043339Y-98323051D01*
X178043342Y-98323050D01*
X178133050Y-98233342D01*
X178141122Y-98217499D01*
X180592008Y-98217499D01*
X180592008Y-98217500D01*
X180611853Y-98342802D01*
X180611856Y-98342809D01*
X180669447Y-98455837D01*
X180669450Y-98455842D01*
X180759158Y-98545550D01*
X180759160Y-98545551D01*
X180759161Y-98545552D01*
X180872190Y-98603143D01*
X180872196Y-98603146D01*
X180997500Y-98622992D01*
X181122804Y-98603146D01*
X181235838Y-98545552D01*
X181235839Y-98545552D01*
X181235839Y-98545551D01*
X181235842Y-98545550D01*
X181325550Y-98455842D01*
X181383146Y-98342804D01*
X181402992Y-98217500D01*
X181383146Y-98092196D01*
X181325550Y-97979158D01*
X181235842Y-97889450D01*
X181235839Y-97889448D01*
X181235837Y-97889447D01*
X181122809Y-97831856D01*
X181122802Y-97831853D01*
X180997500Y-97812008D01*
X180872197Y-97831853D01*
X180872190Y-97831856D01*
X180759162Y-97889447D01*
X180759160Y-97889448D01*
X180759158Y-97889450D01*
X180669450Y-97979158D01*
X180669448Y-97979160D01*
X180669447Y-97979162D01*
X180611856Y-98092190D01*
X180611853Y-98092197D01*
X180592008Y-98217499D01*
X178141122Y-98217499D01*
X178190646Y-98120304D01*
X178210492Y-97995000D01*
X178190646Y-97869696D01*
X178133050Y-97756658D01*
X178043342Y-97666950D01*
X178043339Y-97666948D01*
X178043337Y-97666947D01*
X177930309Y-97609356D01*
X177930302Y-97609353D01*
X177805000Y-97589508D01*
X177679697Y-97609353D01*
X177679690Y-97609356D01*
X177566662Y-97666947D01*
X177566660Y-97666948D01*
X177566658Y-97666950D01*
X177476950Y-97756658D01*
X177476948Y-97756660D01*
X177476947Y-97756662D01*
X177419356Y-97869690D01*
X177419353Y-97869697D01*
X177399508Y-97994999D01*
X111800500Y-97994999D01*
X111800500Y-96970000D01*
X184249479Y-96970000D01*
X184269412Y-97083045D01*
X184326807Y-97182457D01*
X184414739Y-97256240D01*
X184522606Y-97295500D01*
X184637394Y-97295500D01*
X184745261Y-97256240D01*
X184833194Y-97182455D01*
X184890588Y-97083045D01*
X184910521Y-96970000D01*
X184890588Y-96856955D01*
X184833194Y-96757545D01*
X184833193Y-96757544D01*
X184833192Y-96757542D01*
X184745260Y-96683759D01*
X184637394Y-96644500D01*
X184522606Y-96644500D01*
X184414740Y-96683759D01*
X184414739Y-96683760D01*
X184326807Y-96757542D01*
X184269412Y-96856954D01*
X184249479Y-96970000D01*
X111800500Y-96970000D01*
X111800500Y-96416082D01*
X171127743Y-96416082D01*
X171147325Y-96552278D01*
X171204483Y-96677437D01*
X171204485Y-96677440D01*
X171294592Y-96781428D01*
X171410342Y-96855816D01*
X171410344Y-96855817D01*
X171542366Y-96894582D01*
X171542368Y-96894582D01*
X171679960Y-96894582D01*
X171679962Y-96894582D01*
X171811984Y-96855817D01*
X171927737Y-96781427D01*
X172017844Y-96677439D01*
X172075003Y-96552277D01*
X172085395Y-96480000D01*
X173606081Y-96480000D01*
X173625663Y-96616196D01*
X173682821Y-96741355D01*
X173682823Y-96741358D01*
X173772930Y-96845346D01*
X173790994Y-96856955D01*
X173888682Y-96919735D01*
X174020704Y-96958500D01*
X174020706Y-96958500D01*
X174158298Y-96958500D01*
X174158300Y-96958500D01*
X174290322Y-96919735D01*
X174406075Y-96845345D01*
X174496182Y-96741357D01*
X174553341Y-96616195D01*
X174572923Y-96480000D01*
X174553341Y-96343805D01*
X174496182Y-96218643D01*
X174406075Y-96114655D01*
X174406074Y-96114654D01*
X174406073Y-96114653D01*
X174290323Y-96040265D01*
X174246314Y-96027343D01*
X174158300Y-96001500D01*
X174020704Y-96001500D01*
X173954693Y-96020882D01*
X173888680Y-96040265D01*
X173772930Y-96114653D01*
X173682823Y-96218641D01*
X173682821Y-96218644D01*
X173625663Y-96343803D01*
X173606081Y-96480000D01*
X172085395Y-96480000D01*
X172094585Y-96416082D01*
X172075003Y-96279887D01*
X172017844Y-96154725D01*
X171927737Y-96050737D01*
X171927736Y-96050736D01*
X171927735Y-96050735D01*
X171811985Y-95976347D01*
X171767976Y-95963425D01*
X171679962Y-95937582D01*
X171542366Y-95937582D01*
X171476355Y-95956964D01*
X171410342Y-95976347D01*
X171294592Y-96050735D01*
X171204485Y-96154723D01*
X171204483Y-96154726D01*
X171147325Y-96279885D01*
X171127743Y-96416082D01*
X111800500Y-96416082D01*
X111800500Y-93794878D01*
X171931701Y-93794878D01*
X171951283Y-93931074D01*
X172008441Y-94056233D01*
X172008443Y-94056236D01*
X172098550Y-94160224D01*
X172214300Y-94234612D01*
X172214302Y-94234613D01*
X172346324Y-94273378D01*
X172346326Y-94273378D01*
X172483918Y-94273378D01*
X172483920Y-94273378D01*
X172615942Y-94234613D01*
X172716483Y-94169999D01*
X187355246Y-94169999D01*
X187355246Y-94170000D01*
X188085192Y-94170000D01*
X188065444Y-94204204D01*
X188045000Y-94280504D01*
X188045000Y-94359496D01*
X188065444Y-94435796D01*
X188085192Y-94470000D01*
X187355246Y-94470000D01*
X187383427Y-94611685D01*
X187383430Y-94611695D01*
X187458810Y-94793675D01*
X187458811Y-94793678D01*
X187568250Y-94957464D01*
X187707535Y-95096749D01*
X187871321Y-95206188D01*
X187871324Y-95206189D01*
X188053304Y-95281569D01*
X188053313Y-95281571D01*
X188246506Y-95320000D01*
X188745000Y-95320000D01*
X188745000Y-94620000D01*
X189045000Y-94620000D01*
X189045000Y-95320000D01*
X189543494Y-95320000D01*
X189736686Y-95281571D01*
X189736695Y-95281569D01*
X189918675Y-95206189D01*
X189918678Y-95206188D01*
X190082464Y-95096749D01*
X190221749Y-94957464D01*
X190331188Y-94793678D01*
X190331189Y-94793675D01*
X190406569Y-94611695D01*
X190406572Y-94611685D01*
X190434754Y-94470000D01*
X189704808Y-94470000D01*
X189724556Y-94435796D01*
X189745000Y-94359496D01*
X189745000Y-94280504D01*
X189724556Y-94204204D01*
X189704808Y-94170000D01*
X190434754Y-94170000D01*
X190434753Y-94169999D01*
X191785246Y-94169999D01*
X191785246Y-94170000D01*
X192515192Y-94170000D01*
X192495444Y-94204204D01*
X192475000Y-94280504D01*
X192475000Y-94359496D01*
X192495444Y-94435796D01*
X192515192Y-94470000D01*
X191785246Y-94470000D01*
X191813427Y-94611685D01*
X191813430Y-94611695D01*
X191888810Y-94793675D01*
X191888811Y-94793678D01*
X191998250Y-94957464D01*
X192137535Y-95096749D01*
X192301321Y-95206188D01*
X192301324Y-95206189D01*
X192483304Y-95281569D01*
X192483313Y-95281571D01*
X192676506Y-95320000D01*
X192925000Y-95320000D01*
X192925000Y-94620000D01*
X193225000Y-94620000D01*
X193225000Y-95320000D01*
X193473494Y-95320000D01*
X193666686Y-95281571D01*
X193666695Y-95281569D01*
X193848675Y-95206189D01*
X193848678Y-95206188D01*
X194012464Y-95096749D01*
X194151749Y-94957464D01*
X194261188Y-94793678D01*
X194261189Y-94793675D01*
X194336569Y-94611695D01*
X194336572Y-94611685D01*
X194364754Y-94470000D01*
X193634808Y-94470000D01*
X193654556Y-94435796D01*
X193675000Y-94359496D01*
X193675000Y-94280504D01*
X193654556Y-94204204D01*
X193634808Y-94170000D01*
X194364754Y-94170000D01*
X194364753Y-94169999D01*
X194336572Y-94028314D01*
X194336569Y-94028304D01*
X194261189Y-93846324D01*
X194261188Y-93846321D01*
X194151749Y-93682535D01*
X194012464Y-93543250D01*
X193848678Y-93433811D01*
X193848675Y-93433810D01*
X193666695Y-93358430D01*
X193666686Y-93358428D01*
X193473494Y-93320000D01*
X193225000Y-93320000D01*
X193225000Y-94020000D01*
X192925000Y-94020000D01*
X192925000Y-93320000D01*
X192676506Y-93320000D01*
X192483313Y-93358428D01*
X192483304Y-93358430D01*
X192301324Y-93433810D01*
X192301321Y-93433811D01*
X192137535Y-93543250D01*
X191998250Y-93682535D01*
X191888811Y-93846321D01*
X191888810Y-93846324D01*
X191813430Y-94028304D01*
X191813427Y-94028314D01*
X191785246Y-94169999D01*
X190434753Y-94169999D01*
X190406572Y-94028314D01*
X190406569Y-94028304D01*
X190331189Y-93846324D01*
X190331188Y-93846321D01*
X190221749Y-93682535D01*
X190082464Y-93543250D01*
X189918678Y-93433811D01*
X189918675Y-93433810D01*
X189827840Y-93396184D01*
X189793204Y-93361547D01*
X189793204Y-93312564D01*
X189807073Y-93291806D01*
X189855515Y-93243365D01*
X189931281Y-93112135D01*
X189970500Y-92965766D01*
X189970500Y-92814234D01*
X189970500Y-92814232D01*
X189931282Y-92667869D01*
X189931282Y-92667868D01*
X189931281Y-92667867D01*
X189931281Y-92667865D01*
X189855515Y-92536635D01*
X189748365Y-92429485D01*
X189617135Y-92353719D01*
X189617133Y-92353718D01*
X189617131Y-92353717D01*
X189470767Y-92314500D01*
X189470766Y-92314500D01*
X189319234Y-92314500D01*
X189319233Y-92314500D01*
X189172869Y-92353717D01*
X189172868Y-92353717D01*
X189041633Y-92429486D01*
X188934486Y-92536633D01*
X188858717Y-92667868D01*
X188858717Y-92667869D01*
X188819500Y-92814232D01*
X188819500Y-92965767D01*
X188858717Y-93112130D01*
X188858717Y-93112131D01*
X188934486Y-93243366D01*
X189026255Y-93335135D01*
X189045000Y-93380390D01*
X189045000Y-94020000D01*
X188745000Y-94020000D01*
X188745000Y-93320000D01*
X188246506Y-93320000D01*
X188053313Y-93358428D01*
X188053304Y-93358430D01*
X187871324Y-93433810D01*
X187871321Y-93433811D01*
X187707535Y-93543250D01*
X187568250Y-93682535D01*
X187458811Y-93846321D01*
X187458810Y-93846324D01*
X187383430Y-94028304D01*
X187383427Y-94028314D01*
X187355246Y-94169999D01*
X172716483Y-94169999D01*
X172731695Y-94160223D01*
X172821802Y-94056235D01*
X172878961Y-93931073D01*
X172898543Y-93794878D01*
X172878961Y-93658683D01*
X172821802Y-93533521D01*
X172731695Y-93429533D01*
X172731694Y-93429532D01*
X172731693Y-93429531D01*
X172615943Y-93355143D01*
X172571934Y-93342221D01*
X172483920Y-93316378D01*
X172346324Y-93316378D01*
X172282443Y-93335135D01*
X172214300Y-93355143D01*
X172098550Y-93429531D01*
X172008443Y-93533519D01*
X172008441Y-93533522D01*
X171951283Y-93658681D01*
X171931701Y-93794878D01*
X111800500Y-93794878D01*
X111800500Y-92499999D01*
X144844508Y-92499999D01*
X144844508Y-92500000D01*
X144864353Y-92625302D01*
X144864356Y-92625309D01*
X144921947Y-92738337D01*
X144921950Y-92738342D01*
X145011658Y-92828050D01*
X145011660Y-92828051D01*
X145011661Y-92828052D01*
X145124690Y-92885643D01*
X145124696Y-92885646D01*
X145250000Y-92905492D01*
X145375304Y-92885646D01*
X145488338Y-92828052D01*
X145488339Y-92828052D01*
X145488339Y-92828051D01*
X145488342Y-92828050D01*
X145578050Y-92738342D01*
X145635646Y-92625304D01*
X145653908Y-92509999D01*
X161874508Y-92509999D01*
X161874508Y-92510000D01*
X161894353Y-92635302D01*
X161894356Y-92635309D01*
X161951947Y-92748337D01*
X161951950Y-92748342D01*
X162041658Y-92838050D01*
X162041660Y-92838051D01*
X162041661Y-92838052D01*
X162135064Y-92885643D01*
X162154696Y-92895646D01*
X162280000Y-92915492D01*
X162405304Y-92895646D01*
X162518338Y-92838052D01*
X162518339Y-92838052D01*
X162518339Y-92838051D01*
X162518342Y-92838050D01*
X162608050Y-92748342D01*
X162665646Y-92635304D01*
X162685492Y-92510000D01*
X162668070Y-92399999D01*
X187849508Y-92399999D01*
X187849508Y-92400000D01*
X187869353Y-92525302D01*
X187869356Y-92525309D01*
X187926947Y-92638337D01*
X187926950Y-92638342D01*
X188016658Y-92728050D01*
X188016660Y-92728051D01*
X188016661Y-92728052D01*
X188129690Y-92785643D01*
X188129696Y-92785646D01*
X188255000Y-92805492D01*
X188380304Y-92785646D01*
X188493338Y-92728052D01*
X188493339Y-92728052D01*
X188493339Y-92728051D01*
X188493342Y-92728050D01*
X188583050Y-92638342D01*
X188640646Y-92525304D01*
X188660492Y-92400000D01*
X188656484Y-92374697D01*
X188640646Y-92274697D01*
X188640643Y-92274690D01*
X188583052Y-92161662D01*
X188583052Y-92161661D01*
X188583051Y-92161660D01*
X188583050Y-92161658D01*
X188493342Y-92071950D01*
X188493339Y-92071948D01*
X188493337Y-92071947D01*
X188380309Y-92014356D01*
X188380302Y-92014353D01*
X188255000Y-91994508D01*
X188129697Y-92014353D01*
X188129690Y-92014356D01*
X188016662Y-92071947D01*
X188016660Y-92071948D01*
X188016658Y-92071950D01*
X187926950Y-92161658D01*
X187926948Y-92161660D01*
X187926947Y-92161662D01*
X187869356Y-92274690D01*
X187869353Y-92274697D01*
X187849508Y-92399999D01*
X162668070Y-92399999D01*
X162665646Y-92384696D01*
X162608050Y-92271658D01*
X162518342Y-92181950D01*
X162518339Y-92181948D01*
X162518337Y-92181947D01*
X162405309Y-92124356D01*
X162405302Y-92124353D01*
X162280000Y-92104508D01*
X162154697Y-92124353D01*
X162154690Y-92124356D01*
X162041662Y-92181947D01*
X162041660Y-92181948D01*
X162041658Y-92181950D01*
X161951950Y-92271658D01*
X161951948Y-92271660D01*
X161951947Y-92271662D01*
X161894356Y-92384690D01*
X161894353Y-92384697D01*
X161874508Y-92509999D01*
X145653908Y-92509999D01*
X145655492Y-92500000D01*
X145635646Y-92374696D01*
X145578050Y-92261658D01*
X145488342Y-92171950D01*
X145488339Y-92171948D01*
X145488337Y-92171947D01*
X145375309Y-92114356D01*
X145375302Y-92114353D01*
X145250000Y-92094508D01*
X145124697Y-92114353D01*
X145124690Y-92114356D01*
X145011662Y-92171947D01*
X145011660Y-92171948D01*
X145011658Y-92171950D01*
X144921950Y-92261658D01*
X144921948Y-92261660D01*
X144921947Y-92261662D01*
X144864356Y-92374690D01*
X144864353Y-92374697D01*
X144844508Y-92499999D01*
X111800500Y-92499999D01*
X111800500Y-91449999D01*
X178284508Y-91449999D01*
X178284508Y-91450000D01*
X178304353Y-91575302D01*
X178304356Y-91575309D01*
X178361947Y-91688337D01*
X178361950Y-91688342D01*
X178451658Y-91778050D01*
X178451660Y-91778051D01*
X178451661Y-91778052D01*
X178564690Y-91835643D01*
X178564696Y-91835646D01*
X178690000Y-91855492D01*
X178815304Y-91835646D01*
X178928338Y-91778052D01*
X178928339Y-91778052D01*
X178928339Y-91778051D01*
X178928342Y-91778050D01*
X179018050Y-91688342D01*
X179075646Y-91575304D01*
X179095492Y-91450000D01*
X179075646Y-91324696D01*
X179018050Y-91211658D01*
X178928342Y-91121950D01*
X178928339Y-91121948D01*
X178928337Y-91121947D01*
X178815309Y-91064356D01*
X178815302Y-91064353D01*
X178690000Y-91044508D01*
X178564697Y-91064353D01*
X178564690Y-91064356D01*
X178451662Y-91121947D01*
X178451660Y-91121948D01*
X178451658Y-91121950D01*
X178361950Y-91211658D01*
X178361948Y-91211660D01*
X178361947Y-91211662D01*
X178304356Y-91324690D01*
X178304353Y-91324697D01*
X178284508Y-91449999D01*
X111800500Y-91449999D01*
X111800500Y-90600000D01*
X167669479Y-90600000D01*
X167689412Y-90713045D01*
X167746807Y-90812457D01*
X167828917Y-90881355D01*
X167834739Y-90886240D01*
X167942606Y-90925500D01*
X168057394Y-90925500D01*
X168165261Y-90886240D01*
X168253194Y-90812455D01*
X168310588Y-90713045D01*
X168326994Y-90620000D01*
X174796579Y-90620000D01*
X174816161Y-90756196D01*
X174873319Y-90881355D01*
X174873321Y-90881358D01*
X174963428Y-90985346D01*
X175055486Y-91044508D01*
X175079180Y-91059735D01*
X175211202Y-91098500D01*
X175211204Y-91098500D01*
X175348796Y-91098500D01*
X175348798Y-91098500D01*
X175480820Y-91059735D01*
X175596573Y-90985345D01*
X175686680Y-90881357D01*
X175743839Y-90756195D01*
X175763421Y-90620000D01*
X175743839Y-90483805D01*
X175686680Y-90358643D01*
X175596573Y-90254655D01*
X175596572Y-90254654D01*
X175596571Y-90254653D01*
X175480821Y-90180265D01*
X175436812Y-90167343D01*
X175348798Y-90141500D01*
X175211202Y-90141500D01*
X175145191Y-90160882D01*
X175079178Y-90180265D01*
X174963428Y-90254653D01*
X174873321Y-90358641D01*
X174873319Y-90358644D01*
X174816161Y-90483803D01*
X174796579Y-90620000D01*
X168326994Y-90620000D01*
X168330521Y-90600000D01*
X168310588Y-90486955D01*
X168253194Y-90387545D01*
X168253193Y-90387544D01*
X168253192Y-90387542D01*
X168165260Y-90313759D01*
X168057394Y-90274500D01*
X167942606Y-90274500D01*
X167834740Y-90313759D01*
X167834739Y-90313760D01*
X167746807Y-90387542D01*
X167689412Y-90486954D01*
X167669479Y-90600000D01*
X111800500Y-90600000D01*
X111800500Y-89240000D01*
X166529479Y-89240000D01*
X166549412Y-89353045D01*
X166606807Y-89452457D01*
X166694739Y-89526240D01*
X166802606Y-89565500D01*
X166917394Y-89565500D01*
X167025261Y-89526240D01*
X167113194Y-89452455D01*
X167170588Y-89353045D01*
X167190521Y-89240000D01*
X167170588Y-89126955D01*
X167113194Y-89027545D01*
X167113193Y-89027544D01*
X167113192Y-89027542D01*
X167025260Y-88953759D01*
X166917394Y-88914500D01*
X166802606Y-88914500D01*
X166694740Y-88953759D01*
X166694739Y-88953760D01*
X166606807Y-89027542D01*
X166549412Y-89126954D01*
X166529479Y-89240000D01*
X111800500Y-89240000D01*
X111800500Y-88820000D01*
X174016579Y-88820000D01*
X174027982Y-88899313D01*
X174036161Y-88956195D01*
X174093320Y-89081357D01*
X174132831Y-89126954D01*
X174183428Y-89185346D01*
X174299178Y-89259734D01*
X174299180Y-89259735D01*
X174431202Y-89298500D01*
X174431204Y-89298500D01*
X174568796Y-89298500D01*
X174568798Y-89298500D01*
X174700820Y-89259735D01*
X174816573Y-89185345D01*
X174906680Y-89081357D01*
X174963839Y-88956195D01*
X174983421Y-88820000D01*
X174963839Y-88683805D01*
X174906680Y-88558643D01*
X174820840Y-88459579D01*
X179472572Y-88459579D01*
X179492154Y-88595775D01*
X179549312Y-88720934D01*
X179549314Y-88720937D01*
X179639421Y-88824925D01*
X179755171Y-88899313D01*
X179755173Y-88899314D01*
X179887195Y-88938079D01*
X179887197Y-88938079D01*
X180024789Y-88938079D01*
X180024791Y-88938079D01*
X180156813Y-88899314D01*
X180272566Y-88824924D01*
X180362673Y-88720936D01*
X180419832Y-88595774D01*
X180439414Y-88459579D01*
X180419832Y-88323384D01*
X180362673Y-88198222D01*
X180272566Y-88094234D01*
X180272565Y-88094233D01*
X180272564Y-88094232D01*
X180156814Y-88019844D01*
X180107934Y-88005492D01*
X180024791Y-87981079D01*
X179887195Y-87981079D01*
X179821184Y-88000461D01*
X179755171Y-88019844D01*
X179639421Y-88094232D01*
X179549314Y-88198220D01*
X179549312Y-88198223D01*
X179492154Y-88323382D01*
X179472572Y-88459579D01*
X174820840Y-88459579D01*
X174816573Y-88454655D01*
X174816572Y-88454654D01*
X174816571Y-88454653D01*
X174700821Y-88380265D01*
X174656812Y-88367343D01*
X174568798Y-88341500D01*
X174431202Y-88341500D01*
X174365191Y-88360882D01*
X174299178Y-88380265D01*
X174183428Y-88454653D01*
X174093321Y-88558641D01*
X174093319Y-88558644D01*
X174036161Y-88683803D01*
X174016579Y-88820000D01*
X111800500Y-88820000D01*
X111800500Y-87599999D01*
X187849508Y-87599999D01*
X187849508Y-87600000D01*
X187869353Y-87725302D01*
X187869356Y-87725309D01*
X187926947Y-87838337D01*
X187926950Y-87838342D01*
X188016658Y-87928050D01*
X188016660Y-87928051D01*
X188016661Y-87928052D01*
X188120733Y-87981079D01*
X188129696Y-87985646D01*
X188255000Y-88005492D01*
X188380304Y-87985646D01*
X188493338Y-87928052D01*
X188493339Y-87928052D01*
X188493339Y-87928051D01*
X188493342Y-87928050D01*
X188583050Y-87838342D01*
X188640646Y-87725304D01*
X188660492Y-87600000D01*
X188640646Y-87474696D01*
X188583050Y-87361658D01*
X188493342Y-87271950D01*
X188493339Y-87271948D01*
X188493337Y-87271947D01*
X188380309Y-87214356D01*
X188380302Y-87214353D01*
X188255000Y-87194508D01*
X188129697Y-87214353D01*
X188129690Y-87214356D01*
X188016662Y-87271947D01*
X188016660Y-87271948D01*
X188016658Y-87271950D01*
X187926950Y-87361658D01*
X187926948Y-87361660D01*
X187926947Y-87361662D01*
X187869356Y-87474690D01*
X187869353Y-87474697D01*
X187849508Y-87599999D01*
X111800500Y-87599999D01*
X111800500Y-84150000D01*
X122861464Y-84150000D01*
X122881576Y-84405541D01*
X122881577Y-84405545D01*
X122941415Y-84654793D01*
X123039508Y-84891609D01*
X123039509Y-84891610D01*
X123173442Y-85110168D01*
X123339916Y-85305084D01*
X123534832Y-85471558D01*
X123753390Y-85605491D01*
X123753389Y-85605491D01*
X123990206Y-85703584D01*
X123990209Y-85703584D01*
X123990210Y-85703585D01*
X124239459Y-85763424D01*
X124495000Y-85783536D01*
X124750541Y-85763424D01*
X124999790Y-85703585D01*
X124999791Y-85703584D01*
X124999793Y-85703584D01*
X125087272Y-85667348D01*
X125105014Y-85659999D01*
X168474508Y-85659999D01*
X168474508Y-85660000D01*
X168494353Y-85785302D01*
X168494356Y-85785309D01*
X168534556Y-85864205D01*
X168551950Y-85898342D01*
X168641658Y-85988050D01*
X168641660Y-85988051D01*
X168641661Y-85988052D01*
X168754690Y-86045643D01*
X168754696Y-86045646D01*
X168880000Y-86065492D01*
X169005304Y-86045646D01*
X169118338Y-85988052D01*
X169118339Y-85988052D01*
X169118339Y-85988051D01*
X169118342Y-85988050D01*
X169208050Y-85898342D01*
X169265646Y-85785304D01*
X169285492Y-85660000D01*
X169265646Y-85534696D01*
X169263253Y-85529999D01*
X187355246Y-85529999D01*
X187355246Y-85530000D01*
X188085192Y-85530000D01*
X188065444Y-85564204D01*
X188045000Y-85640504D01*
X188045000Y-85719496D01*
X188065444Y-85795796D01*
X188085192Y-85830000D01*
X187355246Y-85830000D01*
X187383427Y-85971685D01*
X187383430Y-85971695D01*
X187458810Y-86153675D01*
X187458811Y-86153678D01*
X187568250Y-86317464D01*
X187707535Y-86456749D01*
X187871321Y-86566188D01*
X187871324Y-86566189D01*
X188053304Y-86641569D01*
X188053313Y-86641571D01*
X188246506Y-86680000D01*
X188745000Y-86680000D01*
X188745000Y-85980000D01*
X189045000Y-85980000D01*
X189045000Y-86619610D01*
X189026255Y-86664865D01*
X188934486Y-86756633D01*
X188858717Y-86887868D01*
X188858717Y-86887869D01*
X188819500Y-87034232D01*
X188819500Y-87185767D01*
X188858717Y-87332130D01*
X188858717Y-87332131D01*
X188858718Y-87332133D01*
X188858719Y-87332135D01*
X188934485Y-87463365D01*
X189041635Y-87570515D01*
X189172865Y-87646281D01*
X189172867Y-87646281D01*
X189172868Y-87646282D01*
X189319233Y-87685500D01*
X189319234Y-87685500D01*
X189470767Y-87685500D01*
X189535303Y-87668207D01*
X189617135Y-87646281D01*
X189748365Y-87570515D01*
X189855515Y-87463365D01*
X189931281Y-87332135D01*
X189953207Y-87250303D01*
X189970500Y-87185767D01*
X189970500Y-87034232D01*
X189931282Y-86887869D01*
X189931282Y-86887868D01*
X189931281Y-86887867D01*
X189931281Y-86887865D01*
X189855515Y-86756635D01*
X189807078Y-86708198D01*
X189788333Y-86662943D01*
X189807078Y-86617688D01*
X189827841Y-86603815D01*
X189918675Y-86566189D01*
X189918678Y-86566188D01*
X190082464Y-86456749D01*
X190221749Y-86317464D01*
X190331188Y-86153678D01*
X190331189Y-86153675D01*
X190406569Y-85971695D01*
X190406572Y-85971685D01*
X190434754Y-85830000D01*
X189704808Y-85830000D01*
X189724556Y-85795796D01*
X189745000Y-85719496D01*
X189745000Y-85640504D01*
X189724556Y-85564204D01*
X189704808Y-85530000D01*
X190434754Y-85530000D01*
X190434753Y-85529999D01*
X191785246Y-85529999D01*
X191785246Y-85530000D01*
X192515192Y-85530000D01*
X192495444Y-85564204D01*
X192475000Y-85640504D01*
X192475000Y-85719496D01*
X192495444Y-85795796D01*
X192515192Y-85830000D01*
X191785246Y-85830000D01*
X191813427Y-85971685D01*
X191813430Y-85971695D01*
X191888810Y-86153675D01*
X191888811Y-86153678D01*
X191998250Y-86317464D01*
X192137535Y-86456749D01*
X192301321Y-86566188D01*
X192301324Y-86566189D01*
X192483304Y-86641569D01*
X192483313Y-86641571D01*
X192676506Y-86680000D01*
X192925000Y-86680000D01*
X192925000Y-85980000D01*
X193225000Y-85980000D01*
X193225000Y-86680000D01*
X193473494Y-86680000D01*
X193666686Y-86641571D01*
X193666695Y-86641569D01*
X193848675Y-86566189D01*
X193848678Y-86566188D01*
X194012464Y-86456749D01*
X194151749Y-86317464D01*
X194261188Y-86153678D01*
X194261189Y-86153675D01*
X194336569Y-85971695D01*
X194336572Y-85971685D01*
X194364754Y-85830000D01*
X193634808Y-85830000D01*
X193654556Y-85795796D01*
X193675000Y-85719496D01*
X193675000Y-85640504D01*
X193654556Y-85564204D01*
X193634808Y-85530000D01*
X194364754Y-85530000D01*
X194364753Y-85529999D01*
X194336572Y-85388314D01*
X194336569Y-85388304D01*
X194261189Y-85206324D01*
X194261188Y-85206321D01*
X194151749Y-85042535D01*
X194012464Y-84903250D01*
X193848678Y-84793811D01*
X193848675Y-84793810D01*
X193666695Y-84718430D01*
X193666686Y-84718428D01*
X193473494Y-84680000D01*
X193225000Y-84680000D01*
X193225000Y-85380000D01*
X192925000Y-85380000D01*
X192925000Y-84680000D01*
X192676506Y-84680000D01*
X192483313Y-84718428D01*
X192483304Y-84718430D01*
X192301324Y-84793810D01*
X192301321Y-84793811D01*
X192137535Y-84903250D01*
X191998250Y-85042535D01*
X191888811Y-85206321D01*
X191888810Y-85206324D01*
X191813430Y-85388304D01*
X191813427Y-85388314D01*
X191785246Y-85529999D01*
X190434753Y-85529999D01*
X190406572Y-85388314D01*
X190406569Y-85388304D01*
X190331189Y-85206324D01*
X190331188Y-85206321D01*
X190221749Y-85042535D01*
X190082464Y-84903250D01*
X189918678Y-84793811D01*
X189918675Y-84793810D01*
X189736695Y-84718430D01*
X189736686Y-84718428D01*
X189543494Y-84680000D01*
X189045000Y-84680000D01*
X189045000Y-85380000D01*
X188745000Y-85380000D01*
X188745000Y-84680000D01*
X188246506Y-84680000D01*
X188053313Y-84718428D01*
X188053304Y-84718430D01*
X187871324Y-84793810D01*
X187871321Y-84793811D01*
X187707535Y-84903250D01*
X187568250Y-85042535D01*
X187458811Y-85206321D01*
X187458810Y-85206324D01*
X187383430Y-85388304D01*
X187383427Y-85388314D01*
X187355246Y-85529999D01*
X169263253Y-85529999D01*
X169208050Y-85421658D01*
X169118342Y-85331950D01*
X169118339Y-85331948D01*
X169118337Y-85331947D01*
X169005309Y-85274356D01*
X169005302Y-85274353D01*
X168880000Y-85254508D01*
X168754697Y-85274353D01*
X168754690Y-85274356D01*
X168641662Y-85331947D01*
X168641660Y-85331948D01*
X168641658Y-85331950D01*
X168551950Y-85421658D01*
X168551948Y-85421660D01*
X168551947Y-85421662D01*
X168494356Y-85534690D01*
X168494353Y-85534697D01*
X168474508Y-85659999D01*
X125105014Y-85659999D01*
X125236610Y-85605491D01*
X125455168Y-85471558D01*
X125650084Y-85305084D01*
X125816558Y-85110168D01*
X125950491Y-84891610D01*
X126012348Y-84742272D01*
X126048584Y-84654793D01*
X126048585Y-84654790D01*
X126108424Y-84405541D01*
X126128536Y-84150000D01*
X126108424Y-83894459D01*
X126048585Y-83645210D01*
X126048584Y-83645209D01*
X126048584Y-83645206D01*
X125950491Y-83408390D01*
X125816558Y-83189832D01*
X125816556Y-83189830D01*
X125650084Y-82994916D01*
X125650083Y-82994915D01*
X125455169Y-82828443D01*
X125455167Y-82828441D01*
X125236608Y-82694508D01*
X125236610Y-82694508D01*
X124999793Y-82596415D01*
X124750545Y-82536577D01*
X124750541Y-82536576D01*
X124495000Y-82516464D01*
X124239459Y-82536576D01*
X124239455Y-82536576D01*
X124239454Y-82536577D01*
X123990206Y-82596415D01*
X123753390Y-82694508D01*
X123534832Y-82828441D01*
X123534830Y-82828443D01*
X123339916Y-82994915D01*
X123339915Y-82994916D01*
X123173443Y-83189830D01*
X123173441Y-83189832D01*
X123039508Y-83408390D01*
X122941415Y-83645206D01*
X122881577Y-83894454D01*
X122881576Y-83894459D01*
X122861464Y-84150000D01*
X111800500Y-84150000D01*
X111800500Y-72499999D01*
X122794508Y-72499999D01*
X122794508Y-72500000D01*
X122814353Y-72625302D01*
X122814356Y-72625309D01*
X122869083Y-72732716D01*
X122871950Y-72738342D01*
X122961658Y-72828050D01*
X122961660Y-72828051D01*
X122961661Y-72828052D01*
X123069538Y-72883018D01*
X123074696Y-72885646D01*
X123200000Y-72905492D01*
X123325304Y-72885646D01*
X123438338Y-72828052D01*
X123438339Y-72828052D01*
X123438339Y-72828051D01*
X123438342Y-72828050D01*
X123528050Y-72738342D01*
X123585646Y-72625304D01*
X123605492Y-72500000D01*
X123605410Y-72499485D01*
X123595239Y-72435264D01*
X123585646Y-72374696D01*
X123570404Y-72344783D01*
X123528052Y-72261662D01*
X123528052Y-72261661D01*
X123528051Y-72261660D01*
X123528050Y-72261658D01*
X123438342Y-72171950D01*
X123438339Y-72171948D01*
X123438337Y-72171947D01*
X123325309Y-72114356D01*
X123325302Y-72114353D01*
X123200000Y-72094508D01*
X123074697Y-72114353D01*
X123074690Y-72114356D01*
X122961662Y-72171947D01*
X122961660Y-72171948D01*
X122961658Y-72171950D01*
X122871950Y-72261658D01*
X122871948Y-72261660D01*
X122871947Y-72261662D01*
X122814356Y-72374690D01*
X122814353Y-72374697D01*
X122794508Y-72499999D01*
X111800500Y-72499999D01*
X111800500Y-69359811D01*
X115443167Y-69359811D01*
X115465569Y-69431620D01*
X115929699Y-70127816D01*
X116027487Y-70274498D01*
X116036993Y-70322550D01*
X116027487Y-70345500D01*
X115465569Y-71188378D01*
X115444507Y-71243432D01*
X115455212Y-71317890D01*
X115455212Y-71317891D01*
X115474938Y-71340655D01*
X115504472Y-71374739D01*
X115576648Y-71395932D01*
X115576650Y-71395932D01*
X123468396Y-71395932D01*
X123468398Y-71395932D01*
X123521808Y-71384783D01*
X123579477Y-71336484D01*
X124192249Y-70417324D01*
X124232949Y-70390069D01*
X124281001Y-70399575D01*
X124308257Y-70440275D01*
X124309500Y-70452826D01*
X124309500Y-70740546D01*
X124317087Y-70788446D01*
X124337827Y-70919402D01*
X124337829Y-70919409D01*
X124393789Y-71091639D01*
X124393792Y-71091647D01*
X124475999Y-71252987D01*
X124476004Y-71252994D01*
X124582447Y-71399501D01*
X124710499Y-71527553D01*
X124848327Y-71627690D01*
X124857005Y-71633995D01*
X124857012Y-71634000D01*
X125018352Y-71716207D01*
X125018356Y-71716208D01*
X125018361Y-71716211D01*
X125190591Y-71772171D01*
X125369454Y-71800500D01*
X125369457Y-71800500D01*
X125550543Y-71800500D01*
X125550546Y-71800500D01*
X125729409Y-71772171D01*
X125901639Y-71716211D01*
X125924458Y-71704584D01*
X126062987Y-71634000D01*
X126062989Y-71633998D01*
X126062994Y-71633996D01*
X126209501Y-71527553D01*
X126337553Y-71399501D01*
X126443996Y-71252994D01*
X126448869Y-71243432D01*
X126526207Y-71091647D01*
X126526207Y-71091646D01*
X126526211Y-71091639D01*
X126582171Y-70919409D01*
X126606447Y-70766133D01*
X126632039Y-70724370D01*
X126679669Y-70712935D01*
X126704259Y-70722307D01*
X126807174Y-70788446D01*
X126809180Y-70789735D01*
X126941202Y-70828500D01*
X126941204Y-70828500D01*
X127078796Y-70828500D01*
X127078798Y-70828500D01*
X127210820Y-70789735D01*
X127243979Y-70768424D01*
X127292182Y-70759727D01*
X127332419Y-70787663D01*
X127341117Y-70835868D01*
X127340281Y-70839261D01*
X127322725Y-70902994D01*
X127322725Y-70902995D01*
X127322725Y-70902996D01*
X127345127Y-70974805D01*
X128108850Y-72120390D01*
X128364922Y-72504498D01*
X128374428Y-72552550D01*
X128364922Y-72575500D01*
X127345127Y-74105193D01*
X127324065Y-74160247D01*
X127324065Y-74160248D01*
X127328869Y-74193659D01*
X127334770Y-74234705D01*
X127334770Y-74234706D01*
X127361455Y-74265501D01*
X127384030Y-74291554D01*
X127456206Y-74312747D01*
X127456208Y-74312747D01*
X146730961Y-74312747D01*
X146730963Y-74312747D01*
X146784373Y-74301598D01*
X146842042Y-74253299D01*
X147934873Y-72614052D01*
X147937298Y-72610278D01*
X147957275Y-72537757D01*
X147934873Y-72465948D01*
X146842042Y-70826701D01*
X146842041Y-70826700D01*
X146842040Y-70826698D01*
X146803139Y-70788445D01*
X146730964Y-70767253D01*
X146730963Y-70767253D01*
X127456206Y-70767253D01*
X127429199Y-70773366D01*
X127380922Y-70765074D01*
X127352649Y-70725074D01*
X127360941Y-70676797D01*
X127366702Y-70669034D01*
X127372030Y-70662885D01*
X127416680Y-70611357D01*
X127473839Y-70486195D01*
X127493421Y-70350000D01*
X127473839Y-70213805D01*
X127416680Y-70088643D01*
X127326573Y-69984655D01*
X127326572Y-69984654D01*
X127326571Y-69984653D01*
X127210821Y-69910265D01*
X127166812Y-69897343D01*
X127078798Y-69871500D01*
X126941202Y-69871500D01*
X126853187Y-69897343D01*
X126809179Y-69910265D01*
X126704258Y-69977693D01*
X126656053Y-69986389D01*
X126615817Y-69958452D01*
X126606447Y-69933866D01*
X126582171Y-69780591D01*
X126526211Y-69608361D01*
X126526208Y-69608356D01*
X126526207Y-69608352D01*
X126444000Y-69447012D01*
X126443995Y-69447005D01*
X126380645Y-69359810D01*
X126337553Y-69300499D01*
X126209501Y-69172447D01*
X126062994Y-69066004D01*
X126062987Y-69065999D01*
X125901647Y-68983792D01*
X125901639Y-68983789D01*
X125729409Y-68927829D01*
X125729402Y-68927827D01*
X125612736Y-68909349D01*
X125550546Y-68899500D01*
X125369454Y-68899500D01*
X125313723Y-68908326D01*
X125190597Y-68927827D01*
X125190590Y-68927829D01*
X125018360Y-68983789D01*
X125018352Y-68983792D01*
X124857012Y-69065999D01*
X124857005Y-69066004D01*
X124710498Y-69172447D01*
X124582447Y-69300498D01*
X124476004Y-69447005D01*
X124475999Y-69447012D01*
X124393792Y-69608352D01*
X124393789Y-69608360D01*
X124337829Y-69780590D01*
X124337827Y-69780597D01*
X124323960Y-69868154D01*
X124312441Y-69940889D01*
X124309500Y-69959456D01*
X124309500Y-70167174D01*
X124290755Y-70212429D01*
X124245500Y-70231174D01*
X124200245Y-70212429D01*
X124192249Y-70202675D01*
X124048058Y-69986389D01*
X123579477Y-69283516D01*
X123579476Y-69283515D01*
X123579475Y-69283513D01*
X123540574Y-69245260D01*
X123468399Y-69224068D01*
X123468398Y-69224068D01*
X115576648Y-69224068D01*
X115519157Y-69237081D01*
X115463144Y-69287289D01*
X115459506Y-69300498D01*
X115443167Y-69359811D01*
X111800500Y-69359811D01*
X111800500Y-68635433D01*
X148449500Y-68635433D01*
X148449500Y-76214566D01*
X148465883Y-76275703D01*
X148469979Y-76290989D01*
X148509540Y-76359511D01*
X148565489Y-76415460D01*
X148634011Y-76455021D01*
X148691051Y-76470305D01*
X148710433Y-76475499D01*
X148710435Y-76475499D01*
X148710438Y-76475500D01*
X148710441Y-76475500D01*
X158789559Y-76475500D01*
X158789562Y-76475500D01*
X158865989Y-76455021D01*
X158934511Y-76415460D01*
X158990460Y-76359511D01*
X159030021Y-76290989D01*
X159050500Y-76214562D01*
X159050500Y-69764735D01*
X165254205Y-69764735D01*
X165259154Y-69780598D01*
X165275137Y-69831834D01*
X165276607Y-69836544D01*
X166467274Y-71622545D01*
X166686959Y-71952073D01*
X166696465Y-72000125D01*
X166686959Y-72023075D01*
X165276607Y-74138604D01*
X165255545Y-74193658D01*
X165266250Y-74268116D01*
X165266250Y-74268117D01*
X165286557Y-74291552D01*
X165315510Y-74324965D01*
X165387686Y-74346158D01*
X165387688Y-74346158D01*
X180522957Y-74346158D01*
X180522959Y-74346158D01*
X180576369Y-74335009D01*
X180634038Y-74286710D01*
X182117427Y-72061627D01*
X182119852Y-72057853D01*
X182139829Y-71985332D01*
X182117427Y-71913523D01*
X180634038Y-69688440D01*
X180634037Y-69688439D01*
X180634036Y-69688437D01*
X180595135Y-69650184D01*
X180522960Y-69628992D01*
X180522959Y-69628992D01*
X165387686Y-69628992D01*
X165330195Y-69642005D01*
X165274182Y-69692213D01*
X165254998Y-69761858D01*
X165254205Y-69764735D01*
X159050500Y-69764735D01*
X159050500Y-68635438D01*
X159030021Y-68559011D01*
X158990460Y-68490489D01*
X158934511Y-68434540D01*
X158865989Y-68394979D01*
X158850703Y-68390883D01*
X158789566Y-68374500D01*
X158789562Y-68374500D01*
X148789562Y-68374500D01*
X148710438Y-68374500D01*
X148710433Y-68374500D01*
X148634011Y-68394979D01*
X148634010Y-68394979D01*
X148565487Y-68434541D01*
X148509541Y-68490487D01*
X148469979Y-68559010D01*
X148469979Y-68559011D01*
X148449500Y-68635433D01*
X111800500Y-68635433D01*
X111800500Y-68001790D01*
X111800601Y-67998202D01*
X111817272Y-67701345D01*
X111818075Y-67694213D01*
X111853965Y-67482980D01*
X111867581Y-67402838D01*
X111869172Y-67395865D01*
X111950996Y-67111849D01*
X111953360Y-67105096D01*
X112066461Y-66832046D01*
X112069574Y-66825584D01*
X112075101Y-66815584D01*
X112212536Y-66566911D01*
X112216335Y-66560865D01*
X112387373Y-66319809D01*
X112391835Y-66314215D01*
X112588770Y-66093844D01*
X112593845Y-66088770D01*
X112814215Y-65891835D01*
X112819809Y-65887373D01*
X113060865Y-65716335D01*
X113066911Y-65712536D01*
X113325587Y-65569572D01*
X113332046Y-65566461D01*
X113605096Y-65453360D01*
X113611849Y-65450996D01*
X113895865Y-65369172D01*
X113902838Y-65367581D01*
X114194218Y-65318074D01*
X114201341Y-65317272D01*
X114417650Y-65305124D01*
X114498203Y-65300601D01*
X114501791Y-65300500D01*
X114547595Y-65300500D01*
X192952405Y-65300500D01*
X192998209Y-65300500D01*
X193001797Y-65300601D01*
G37*
%TD.AperFunction*%
%TD*%
M02*
