%TF.GenerationSoftware,KiCad,Pcbnew,8.0.9*%
%TF.CreationDate,2025-05-16T14:56:25+01:00*%
%TF.ProjectId,bizcamera,62697a63-616d-4657-9261-2e6b69636164,rev?*%
%TF.SameCoordinates,Original*%
%TF.FileFunction,Legend,Bot*%
%TF.FilePolarity,Positive*%
%FSLAX46Y46*%
G04 Gerber Fmt 4.6, Leading zero omitted, Abs format (unit mm)*
G04 Created by KiCad (PCBNEW 8.0.9) date 2025-05-16 14:56:25*
%MOMM*%
%LPD*%
G01*
G04 APERTURE LIST*
%ADD10C,0.000000*%
%ADD11C,0.700000*%
%ADD12O,1.800000X2.400000*%
%ADD13C,3.000000*%
%ADD14C,0.650000*%
%ADD15O,2.100000X1.000000*%
%ADD16O,1.600000X1.000000*%
G04 APERTURE END LIST*
D10*
G36*
X192626666Y-74146666D02*
G01*
X192203333Y-74146666D01*
X192203333Y-73723332D01*
X192626666Y-73723332D01*
X192626666Y-74146666D01*
G37*
G36*
X185430000Y-73299999D02*
G01*
X185006667Y-73299999D01*
X185006667Y-72876666D01*
X185430000Y-72876666D01*
X185430000Y-73299999D01*
G37*
G36*
X191779999Y-73299999D02*
G01*
X191356666Y-73299999D01*
X191356666Y-72876666D01*
X191779999Y-72876666D01*
X191779999Y-73299999D01*
G37*
G36*
X191356666Y-77109999D02*
G01*
X190933333Y-77109999D01*
X190933333Y-76686666D01*
X191356666Y-76686666D01*
X191356666Y-77109999D01*
G37*
G36*
X188816666Y-69066666D02*
G01*
X188393333Y-69066666D01*
X188393333Y-68643333D01*
X188816666Y-68643333D01*
X188816666Y-69066666D01*
G37*
G36*
X189663333Y-74993332D02*
G01*
X189239999Y-74993332D01*
X189239999Y-74569999D01*
X189663333Y-74569999D01*
X189663333Y-74993332D01*
G37*
G36*
X188816666Y-70760000D02*
G01*
X188393333Y-70760000D01*
X188393333Y-70336666D01*
X188816666Y-70336666D01*
X188816666Y-70760000D01*
G37*
G36*
X187969999Y-75839999D02*
G01*
X187546666Y-75839999D01*
X187546666Y-75416666D01*
X187969999Y-75416666D01*
X187969999Y-75839999D01*
G37*
G36*
X185853333Y-71183333D02*
G01*
X185430000Y-71183333D01*
X185430000Y-70760000D01*
X185853333Y-70760000D01*
X185853333Y-71183333D01*
G37*
G36*
X188816666Y-76686666D02*
G01*
X188393333Y-76686666D01*
X188393333Y-76263332D01*
X188816666Y-76263332D01*
X188816666Y-76686666D01*
G37*
G36*
X185430000Y-74146666D02*
G01*
X185006667Y-74146666D01*
X185006667Y-73723332D01*
X185430000Y-73723332D01*
X185430000Y-74146666D01*
G37*
G36*
X187546666Y-77109999D02*
G01*
X187123333Y-77109999D01*
X187123333Y-76686666D01*
X187546666Y-76686666D01*
X187546666Y-77109999D01*
G37*
G36*
X184583333Y-72029999D02*
G01*
X184160000Y-72029999D01*
X184160000Y-71606666D01*
X184583333Y-71606666D01*
X184583333Y-72029999D01*
G37*
G36*
X190086666Y-71606666D02*
G01*
X189663333Y-71606666D01*
X189663333Y-71183333D01*
X190086666Y-71183333D01*
X190086666Y-71606666D01*
G37*
G36*
X187123333Y-69913333D02*
G01*
X186700000Y-69913333D01*
X186700000Y-69490000D01*
X187123333Y-69490000D01*
X187123333Y-69913333D01*
G37*
G36*
X188816666Y-72029999D02*
G01*
X188393333Y-72029999D01*
X188393333Y-71606666D01*
X188816666Y-71606666D01*
X188816666Y-72029999D01*
G37*
G36*
X191356666Y-74146666D02*
G01*
X190933333Y-74146666D01*
X190933333Y-73723332D01*
X191356666Y-73723332D01*
X191356666Y-74146666D01*
G37*
G36*
X186276667Y-74993332D02*
G01*
X185853333Y-74993332D01*
X185853333Y-74569999D01*
X186276667Y-74569999D01*
X186276667Y-74993332D01*
G37*
G36*
X191356666Y-71183333D02*
G01*
X190933333Y-71183333D01*
X190933333Y-70760000D01*
X191356666Y-70760000D01*
X191356666Y-71183333D01*
G37*
G36*
X191356666Y-73299999D02*
G01*
X190933333Y-73299999D01*
X190933333Y-72876666D01*
X191356666Y-72876666D01*
X191356666Y-73299999D01*
G37*
G36*
X186276667Y-73723332D02*
G01*
X185853333Y-73723332D01*
X185853333Y-73299999D01*
X186276667Y-73299999D01*
X186276667Y-73723332D01*
G37*
G36*
X188816666Y-73299999D02*
G01*
X188393333Y-73299999D01*
X188393333Y-72876666D01*
X188816666Y-72876666D01*
X188816666Y-73299999D01*
G37*
G36*
X186700000Y-70760000D02*
G01*
X186276667Y-70760000D01*
X186276667Y-70336666D01*
X186700000Y-70336666D01*
X186700000Y-70760000D01*
G37*
G36*
X192626666Y-72876666D02*
G01*
X192203333Y-72876666D01*
X192203333Y-72453332D01*
X192626666Y-72453332D01*
X192626666Y-72876666D01*
G37*
G36*
X193050000Y-77533333D02*
G01*
X192626666Y-77533333D01*
X192626666Y-77109999D01*
X193050000Y-77109999D01*
X193050000Y-77533333D01*
G37*
G36*
X191356666Y-76686666D02*
G01*
X190933333Y-76686666D01*
X190933333Y-76263332D01*
X191356666Y-76263332D01*
X191356666Y-76686666D01*
G37*
G36*
X190933333Y-71183333D02*
G01*
X190509999Y-71183333D01*
X190509999Y-70760000D01*
X190933333Y-70760000D01*
X190933333Y-71183333D01*
G37*
G36*
X186700000Y-72029999D02*
G01*
X186276667Y-72029999D01*
X186276667Y-71606666D01*
X186700000Y-71606666D01*
X186700000Y-72029999D01*
G37*
G36*
X191779999Y-71183333D02*
G01*
X191356666Y-71183333D01*
X191356666Y-70760000D01*
X191779999Y-70760000D01*
X191779999Y-71183333D01*
G37*
G36*
X186276667Y-69066666D02*
G01*
X185853333Y-69066666D01*
X185853333Y-68643333D01*
X186276667Y-68643333D01*
X186276667Y-69066666D01*
G37*
G36*
X192203333Y-77109999D02*
G01*
X191779999Y-77109999D01*
X191779999Y-76686666D01*
X192203333Y-76686666D01*
X192203333Y-77109999D01*
G37*
G36*
X190086666Y-74146666D02*
G01*
X189663333Y-74146666D01*
X189663333Y-73723332D01*
X190086666Y-73723332D01*
X190086666Y-74146666D01*
G37*
G36*
X193050000Y-76263332D02*
G01*
X192626666Y-76263332D01*
X192626666Y-75839999D01*
X193050000Y-75839999D01*
X193050000Y-76263332D01*
G37*
G36*
X187123333Y-72876666D02*
G01*
X186700000Y-72876666D01*
X186700000Y-72453332D01*
X187123333Y-72453332D01*
X187123333Y-72876666D01*
G37*
G36*
X190086666Y-70760000D02*
G01*
X189663333Y-70760000D01*
X189663333Y-70336666D01*
X190086666Y-70336666D01*
X190086666Y-70760000D01*
G37*
G36*
X186700000Y-76686666D02*
G01*
X186276667Y-76686666D01*
X186276667Y-76263332D01*
X186700000Y-76263332D01*
X186700000Y-76686666D01*
G37*
G36*
X191779999Y-71606666D02*
G01*
X191356666Y-71606666D01*
X191356666Y-71183333D01*
X191779999Y-71183333D01*
X191779999Y-71606666D01*
G37*
G36*
X183313333Y-71606666D02*
G01*
X182890000Y-71606666D01*
X182890000Y-71183333D01*
X183313333Y-71183333D01*
X183313333Y-71606666D01*
G37*
G36*
X186700000Y-67796666D02*
G01*
X186276667Y-67796666D01*
X186276667Y-67373333D01*
X186700000Y-67373333D01*
X186700000Y-67796666D01*
G37*
G36*
X191356666Y-70760000D02*
G01*
X190933333Y-70760000D01*
X190933333Y-70336666D01*
X191356666Y-70336666D01*
X191356666Y-70760000D01*
G37*
G36*
X190509999Y-72029999D02*
G01*
X190086666Y-72029999D01*
X190086666Y-71606666D01*
X190509999Y-71606666D01*
X190509999Y-72029999D01*
G37*
G36*
X187123333Y-67373333D02*
G01*
X186700000Y-67373333D01*
X186700000Y-66950000D01*
X187123333Y-66950000D01*
X187123333Y-67373333D01*
G37*
G36*
X188393333Y-68643333D02*
G01*
X187969999Y-68643333D01*
X187969999Y-68220000D01*
X188393333Y-68220000D01*
X188393333Y-68643333D01*
G37*
G36*
X190509999Y-75839999D02*
G01*
X190086666Y-75839999D01*
X190086666Y-75416666D01*
X190509999Y-75416666D01*
X190509999Y-75839999D01*
G37*
G36*
X191356666Y-72029999D02*
G01*
X190933333Y-72029999D01*
X190933333Y-71606666D01*
X191356666Y-71606666D01*
X191356666Y-72029999D01*
G37*
G36*
X193050000Y-74993332D02*
G01*
X192626666Y-74993332D01*
X192626666Y-74569999D01*
X193050000Y-74569999D01*
X193050000Y-74993332D01*
G37*
G36*
X189663333Y-77533333D02*
G01*
X189239999Y-77533333D01*
X189239999Y-77109999D01*
X189663333Y-77109999D01*
X189663333Y-77533333D01*
G37*
G36*
X193050000Y-70760000D02*
G01*
X192626666Y-70760000D01*
X192626666Y-70336666D01*
X193050000Y-70336666D01*
X193050000Y-70760000D01*
G37*
G36*
X192626666Y-76686666D02*
G01*
X192203333Y-76686666D01*
X192203333Y-76263332D01*
X192626666Y-76263332D01*
X192626666Y-76686666D01*
G37*
G36*
X188393333Y-74146666D02*
G01*
X187969999Y-74146666D01*
X187969999Y-73723332D01*
X188393333Y-73723332D01*
X188393333Y-74146666D01*
G37*
G36*
X186276667Y-71183333D02*
G01*
X185853333Y-71183333D01*
X185853333Y-70760000D01*
X186276667Y-70760000D01*
X186276667Y-71183333D01*
G37*
G36*
X187546666Y-77533333D02*
G01*
X187123333Y-77533333D01*
X187123333Y-77109999D01*
X187546666Y-77109999D01*
X187546666Y-77533333D01*
G37*
G36*
X191779999Y-72029999D02*
G01*
X191356666Y-72029999D01*
X191356666Y-71606666D01*
X191779999Y-71606666D01*
X191779999Y-72029999D01*
G37*
G36*
X182890000Y-72029999D02*
G01*
X182466667Y-72029999D01*
X182466667Y-71606666D01*
X182890000Y-71606666D01*
X182890000Y-72029999D01*
G37*
G36*
X184583333Y-71183333D02*
G01*
X184160000Y-71183333D01*
X184160000Y-70760000D01*
X184583333Y-70760000D01*
X184583333Y-71183333D01*
G37*
G36*
X185006667Y-73299999D02*
G01*
X184583333Y-73299999D01*
X184583333Y-72876666D01*
X185006667Y-72876666D01*
X185006667Y-73299999D01*
G37*
G36*
X182890000Y-71606666D02*
G01*
X182466667Y-71606666D01*
X182466667Y-71183333D01*
X182890000Y-71183333D01*
X182890000Y-71606666D01*
G37*
G36*
X185853333Y-73723332D02*
G01*
X185430000Y-73723332D01*
X185430000Y-73299999D01*
X185853333Y-73299999D01*
X185853333Y-73723332D01*
G37*
G36*
X187546666Y-75839999D02*
G01*
X187123333Y-75839999D01*
X187123333Y-75416666D01*
X187546666Y-75416666D01*
X187546666Y-75839999D01*
G37*
G36*
X185853333Y-72029999D02*
G01*
X185430000Y-72029999D01*
X185430000Y-71606666D01*
X185853333Y-71606666D01*
X185853333Y-72029999D01*
G37*
G36*
X182890000Y-74146666D02*
G01*
X182466667Y-74146666D01*
X182466667Y-73723332D01*
X182890000Y-73723332D01*
X182890000Y-74146666D01*
G37*
G36*
X186276667Y-72876666D02*
G01*
X185853333Y-72876666D01*
X185853333Y-72453332D01*
X186276667Y-72453332D01*
X186276667Y-72876666D01*
G37*
G36*
X187546666Y-72453332D02*
G01*
X187123333Y-72453332D01*
X187123333Y-72029999D01*
X187546666Y-72029999D01*
X187546666Y-72453332D01*
G37*
G36*
X186700000Y-72453332D02*
G01*
X186276667Y-72453332D01*
X186276667Y-72029999D01*
X186700000Y-72029999D01*
X186700000Y-72453332D01*
G37*
G36*
X189663333Y-74569999D02*
G01*
X189239999Y-74569999D01*
X189239999Y-74146666D01*
X189663333Y-74146666D01*
X189663333Y-74569999D01*
G37*
G36*
X188393333Y-74993332D02*
G01*
X187969999Y-74993332D01*
X187969999Y-74569999D01*
X188393333Y-74569999D01*
X188393333Y-74993332D01*
G37*
G36*
X190933333Y-77109999D02*
G01*
X190509999Y-77109999D01*
X190509999Y-76686666D01*
X190933333Y-76686666D01*
X190933333Y-77109999D01*
G37*
G36*
X186276667Y-75839999D02*
G01*
X185853333Y-75839999D01*
X185853333Y-75416666D01*
X186276667Y-75416666D01*
X186276667Y-75839999D01*
G37*
G36*
X188393333Y-68220000D02*
G01*
X187969999Y-68220000D01*
X187969999Y-67796666D01*
X188393333Y-67796666D01*
X188393333Y-68220000D01*
G37*
G36*
X192626666Y-73299999D02*
G01*
X192203333Y-73299999D01*
X192203333Y-72876666D01*
X192626666Y-72876666D01*
X192626666Y-73299999D01*
G37*
G36*
X193050000Y-69913333D02*
G01*
X190086666Y-69913333D01*
X190086666Y-69468833D01*
X190086666Y-67394500D01*
X190531166Y-67394500D01*
X190531166Y-69468833D01*
X192605499Y-69468833D01*
X192605499Y-67394500D01*
X190531166Y-67394500D01*
X190086666Y-67394500D01*
X190086666Y-66950000D01*
X193050000Y-66950000D01*
X193050000Y-69913333D01*
G37*
G36*
X192203333Y-74569999D02*
G01*
X191779999Y-74569999D01*
X191779999Y-74146666D01*
X192203333Y-74146666D01*
X192203333Y-74569999D01*
G37*
G36*
X185006667Y-72453332D02*
G01*
X184583333Y-72453332D01*
X184583333Y-72029999D01*
X185006667Y-72029999D01*
X185006667Y-72453332D01*
G37*
G36*
X193050000Y-71606666D02*
G01*
X192626666Y-71606666D01*
X192626666Y-71183333D01*
X193050000Y-71183333D01*
X193050000Y-71606666D01*
G37*
G36*
X186276667Y-75416666D02*
G01*
X185853333Y-75416666D01*
X185853333Y-74993332D01*
X186276667Y-74993332D01*
X186276667Y-75416666D01*
G37*
G36*
X190509999Y-76263332D02*
G01*
X190086666Y-76263332D01*
X190086666Y-75839999D01*
X190509999Y-75839999D01*
X190509999Y-76263332D01*
G37*
G36*
X189663333Y-68643333D02*
G01*
X189239999Y-68643333D01*
X189239999Y-68220000D01*
X189663333Y-68220000D01*
X189663333Y-68643333D01*
G37*
G36*
X188393333Y-75416666D02*
G01*
X187969999Y-75416666D01*
X187969999Y-74993332D01*
X188393333Y-74993332D01*
X188393333Y-75416666D01*
G37*
G36*
X186276667Y-69913333D02*
G01*
X185853333Y-69913333D01*
X185853333Y-69490000D01*
X186276667Y-69490000D01*
X186276667Y-69913333D01*
G37*
G36*
X185006667Y-74146666D02*
G01*
X184583333Y-74146666D01*
X184583333Y-73723332D01*
X185006667Y-73723332D01*
X185006667Y-74146666D01*
G37*
G36*
X186700000Y-69066666D02*
G01*
X186276667Y-69066666D01*
X186276667Y-68643333D01*
X186700000Y-68643333D01*
X186700000Y-69066666D01*
G37*
G36*
X189239999Y-70336666D02*
G01*
X188816666Y-70336666D01*
X188816666Y-69913333D01*
X189239999Y-69913333D01*
X189239999Y-70336666D01*
G37*
G36*
X192203333Y-74146666D02*
G01*
X191779999Y-74146666D01*
X191779999Y-73723332D01*
X192203333Y-73723332D01*
X192203333Y-74146666D01*
G37*
G36*
X185430000Y-71606666D02*
G01*
X185006667Y-71606666D01*
X185006667Y-71183333D01*
X185430000Y-71183333D01*
X185430000Y-71606666D01*
G37*
G36*
X189663333Y-76686666D02*
G01*
X189239999Y-76686666D01*
X189239999Y-76263332D01*
X189663333Y-76263332D01*
X189663333Y-76686666D01*
G37*
G36*
X189663333Y-72453332D02*
G01*
X189239999Y-72453332D01*
X189239999Y-72029999D01*
X189663333Y-72029999D01*
X189663333Y-72453332D01*
G37*
G36*
X189663333Y-74146666D02*
G01*
X189239999Y-74146666D01*
X189239999Y-73723332D01*
X189663333Y-73723332D01*
X189663333Y-74146666D01*
G37*
G36*
X191356666Y-74569999D02*
G01*
X190933333Y-74569999D01*
X190933333Y-74146666D01*
X191356666Y-74146666D01*
X191356666Y-74569999D01*
G37*
G36*
X187969999Y-74146666D02*
G01*
X187546666Y-74146666D01*
X187546666Y-73723332D01*
X187969999Y-73723332D01*
X187969999Y-74146666D01*
G37*
G36*
X189239999Y-73723332D02*
G01*
X188816666Y-73723332D01*
X188816666Y-73299999D01*
X189239999Y-73299999D01*
X189239999Y-73723332D01*
G37*
G36*
X188393333Y-76686666D02*
G01*
X187969999Y-76686666D01*
X187969999Y-76263332D01*
X188393333Y-76263332D01*
X188393333Y-76686666D01*
G37*
G36*
X190933333Y-74146666D02*
G01*
X190509999Y-74146666D01*
X190509999Y-73723332D01*
X190933333Y-73723332D01*
X190933333Y-74146666D01*
G37*
G36*
X192203333Y-76686666D02*
G01*
X191779999Y-76686666D01*
X191779999Y-76263332D01*
X192203333Y-76263332D01*
X192203333Y-76686666D01*
G37*
G36*
X186276667Y-67373333D02*
G01*
X185853333Y-67373333D01*
X185853333Y-66950000D01*
X186276667Y-66950000D01*
X186276667Y-67373333D01*
G37*
G36*
X185006667Y-70760000D02*
G01*
X184583333Y-70760000D01*
X184583333Y-70336666D01*
X185006667Y-70336666D01*
X185006667Y-70760000D01*
G37*
G36*
X188816666Y-67373333D02*
G01*
X188393333Y-67373333D01*
X188393333Y-66950000D01*
X188816666Y-66950000D01*
X188816666Y-67373333D01*
G37*
G36*
X187969999Y-69490000D02*
G01*
X187546666Y-69490000D01*
X187546666Y-69066666D01*
X187969999Y-69066666D01*
X187969999Y-69490000D01*
G37*
G36*
X188816666Y-69913333D02*
G01*
X188393333Y-69913333D01*
X188393333Y-69490000D01*
X188816666Y-69490000D01*
X188816666Y-69913333D01*
G37*
G36*
X190086666Y-76263332D02*
G01*
X189663333Y-76263332D01*
X189663333Y-75839999D01*
X190086666Y-75839999D01*
X190086666Y-76263332D01*
G37*
G36*
X182890000Y-73723332D02*
G01*
X182466667Y-73723332D01*
X182466667Y-73299999D01*
X182890000Y-73299999D01*
X182890000Y-73723332D01*
G37*
G36*
X188393333Y-73299999D02*
G01*
X187969999Y-73299999D01*
X187969999Y-72876666D01*
X188393333Y-72876666D01*
X188393333Y-73299999D01*
G37*
G36*
X183736667Y-73299999D02*
G01*
X183313333Y-73299999D01*
X183313333Y-72876666D01*
X183736667Y-72876666D01*
X183736667Y-73299999D01*
G37*
G36*
X193050000Y-73723332D02*
G01*
X192626666Y-73723332D01*
X192626666Y-73299999D01*
X193050000Y-73299999D01*
X193050000Y-73723332D01*
G37*
G36*
X187546666Y-74569999D02*
G01*
X187123333Y-74569999D01*
X187123333Y-74146666D01*
X187546666Y-74146666D01*
X187546666Y-74569999D01*
G37*
G36*
X192626666Y-72029999D02*
G01*
X192203333Y-72029999D01*
X192203333Y-71606666D01*
X192626666Y-71606666D01*
X192626666Y-72029999D01*
G37*
G36*
X184583333Y-69066666D02*
G01*
X183313333Y-69066666D01*
X183313333Y-67796666D01*
X184583333Y-67796666D01*
X184583333Y-69066666D01*
G37*
G36*
X185853333Y-70760000D02*
G01*
X185430000Y-70760000D01*
X185430000Y-70336666D01*
X185853333Y-70336666D01*
X185853333Y-70760000D01*
G37*
G36*
X187969999Y-73723332D02*
G01*
X187546666Y-73723332D01*
X187546666Y-73299999D01*
X187969999Y-73299999D01*
X187969999Y-73723332D01*
G37*
G36*
X186700000Y-72876666D02*
G01*
X186276667Y-72876666D01*
X186276667Y-72453332D01*
X186700000Y-72453332D01*
X186700000Y-72876666D01*
G37*
G36*
X186700000Y-74993332D02*
G01*
X186276667Y-74993332D01*
X186276667Y-74569999D01*
X186700000Y-74569999D01*
X186700000Y-74993332D01*
G37*
G36*
X187546666Y-67796666D02*
G01*
X187123333Y-67796666D01*
X187123333Y-67373333D01*
X187546666Y-67373333D01*
X187546666Y-67796666D01*
G37*
G36*
X190086666Y-73723332D02*
G01*
X189663333Y-73723332D01*
X189663333Y-73299999D01*
X190086666Y-73299999D01*
X190086666Y-73723332D01*
G37*
G36*
X186276667Y-68220000D02*
G01*
X185853333Y-68220000D01*
X185853333Y-67796666D01*
X186276667Y-67796666D01*
X186276667Y-68220000D01*
G37*
G36*
X186276667Y-67796666D02*
G01*
X185853333Y-67796666D01*
X185853333Y-67373333D01*
X186276667Y-67373333D01*
X186276667Y-67796666D01*
G37*
G36*
X189239999Y-68220000D02*
G01*
X188816666Y-68220000D01*
X188816666Y-67796666D01*
X189239999Y-67796666D01*
X189239999Y-68220000D01*
G37*
G36*
X184583333Y-71606666D02*
G01*
X184160000Y-71606666D01*
X184160000Y-71183333D01*
X184583333Y-71183333D01*
X184583333Y-71606666D01*
G37*
G36*
X189239999Y-71606666D02*
G01*
X188816666Y-71606666D01*
X188816666Y-71183333D01*
X189239999Y-71183333D01*
X189239999Y-71606666D01*
G37*
G36*
X192626666Y-74569999D02*
G01*
X192203333Y-74569999D01*
X192203333Y-74146666D01*
X192626666Y-74146666D01*
X192626666Y-74569999D01*
G37*
G36*
X190509999Y-74993332D02*
G01*
X190086666Y-74993332D01*
X190086666Y-74569999D01*
X190509999Y-74569999D01*
X190509999Y-74993332D01*
G37*
G36*
X191356666Y-74993332D02*
G01*
X190933333Y-74993332D01*
X190933333Y-74569999D01*
X191356666Y-74569999D01*
X191356666Y-74993332D01*
G37*
G36*
X184583333Y-73299999D02*
G01*
X184160000Y-73299999D01*
X184160000Y-72876666D01*
X184583333Y-72876666D01*
X184583333Y-73299999D01*
G37*
G36*
X187546666Y-71606666D02*
G01*
X187123333Y-71606666D01*
X187123333Y-71183333D01*
X187546666Y-71183333D01*
X187546666Y-71606666D01*
G37*
G36*
X187969999Y-72876666D02*
G01*
X187546666Y-72876666D01*
X187546666Y-72453332D01*
X187969999Y-72453332D01*
X187969999Y-72876666D01*
G37*
G36*
X189663333Y-69913333D02*
G01*
X189239999Y-69913333D01*
X189239999Y-69490000D01*
X189663333Y-69490000D01*
X189663333Y-69913333D01*
G37*
G36*
X184160000Y-72453332D02*
G01*
X183736667Y-72453332D01*
X183736667Y-72029999D01*
X184160000Y-72029999D01*
X184160000Y-72453332D01*
G37*
G36*
X186700000Y-69490000D02*
G01*
X186276667Y-69490000D01*
X186276667Y-69066666D01*
X186700000Y-69066666D01*
X186700000Y-69490000D01*
G37*
G36*
X192203333Y-73723332D02*
G01*
X191779999Y-73723332D01*
X191779999Y-73299999D01*
X192203333Y-73299999D01*
X192203333Y-73723332D01*
G37*
G36*
X190509999Y-72453332D02*
G01*
X190086666Y-72453332D01*
X190086666Y-72029999D01*
X190509999Y-72029999D01*
X190509999Y-72453332D01*
G37*
G36*
X186700000Y-74146666D02*
G01*
X186276667Y-74146666D01*
X186276667Y-73723332D01*
X186700000Y-73723332D01*
X186700000Y-74146666D01*
G37*
G36*
X189663333Y-67373333D02*
G01*
X189239999Y-67373333D01*
X189239999Y-66950000D01*
X189663333Y-66950000D01*
X189663333Y-67373333D01*
G37*
G36*
X193050000Y-73299999D02*
G01*
X192626666Y-73299999D01*
X192626666Y-72876666D01*
X193050000Y-72876666D01*
X193050000Y-73299999D01*
G37*
G36*
X190933333Y-72453332D02*
G01*
X190509999Y-72453332D01*
X190509999Y-72029999D01*
X190933333Y-72029999D01*
X190933333Y-72453332D01*
G37*
G36*
X182890000Y-72876666D02*
G01*
X182466667Y-72876666D01*
X182466667Y-72453332D01*
X182890000Y-72453332D01*
X182890000Y-72876666D01*
G37*
G36*
X189663333Y-75416666D02*
G01*
X189239999Y-75416666D01*
X189239999Y-74993332D01*
X189663333Y-74993332D01*
X189663333Y-75416666D01*
G37*
G36*
X187123333Y-74569999D02*
G01*
X186700000Y-74569999D01*
X186700000Y-74146666D01*
X187123333Y-74146666D01*
X187123333Y-74569999D01*
G37*
G36*
X191356666Y-72876666D02*
G01*
X190933333Y-72876666D01*
X190933333Y-72453332D01*
X191356666Y-72453332D01*
X191356666Y-72876666D01*
G37*
G36*
X190509999Y-74146666D02*
G01*
X190086666Y-74146666D01*
X190086666Y-73723332D01*
X190509999Y-73723332D01*
X190509999Y-74146666D01*
G37*
G36*
X183313333Y-73299999D02*
G01*
X182890000Y-73299999D01*
X182890000Y-72876666D01*
X183313333Y-72876666D01*
X183313333Y-73299999D01*
G37*
G36*
X187123333Y-72453332D02*
G01*
X186700000Y-72453332D01*
X186700000Y-72029999D01*
X187123333Y-72029999D01*
X187123333Y-72453332D01*
G37*
G36*
X187969999Y-76263332D02*
G01*
X187546666Y-76263332D01*
X187546666Y-75839999D01*
X187969999Y-75839999D01*
X187969999Y-76263332D01*
G37*
G36*
X182890000Y-73299999D02*
G01*
X182466667Y-73299999D01*
X182466667Y-72876666D01*
X182890000Y-72876666D01*
X182890000Y-73299999D01*
G37*
G36*
X186700000Y-70336666D02*
G01*
X186276667Y-70336666D01*
X186276667Y-69913333D01*
X186700000Y-69913333D01*
X186700000Y-70336666D01*
G37*
G36*
X191356666Y-75839999D02*
G01*
X190933333Y-75839999D01*
X190933333Y-75416666D01*
X191356666Y-75416666D01*
X191356666Y-75839999D01*
G37*
G36*
X184160000Y-70760000D02*
G01*
X183736667Y-70760000D01*
X183736667Y-70336666D01*
X184160000Y-70336666D01*
X184160000Y-70760000D01*
G37*
G36*
X190086666Y-75839999D02*
G01*
X189663333Y-75839999D01*
X189663333Y-75416666D01*
X190086666Y-75416666D01*
X190086666Y-75839999D01*
G37*
G36*
X186276667Y-70760000D02*
G01*
X185853333Y-70760000D01*
X185853333Y-70336666D01*
X186276667Y-70336666D01*
X186276667Y-70760000D01*
G37*
G36*
X187969999Y-74993332D02*
G01*
X187546666Y-74993332D01*
X187546666Y-74569999D01*
X187969999Y-74569999D01*
X187969999Y-74993332D01*
G37*
G36*
X183313333Y-71183333D02*
G01*
X182890000Y-71183333D01*
X182890000Y-70760000D01*
X183313333Y-70760000D01*
X183313333Y-71183333D01*
G37*
G36*
X186700000Y-76263332D02*
G01*
X186276667Y-76263332D01*
X186276667Y-75839999D01*
X186700000Y-75839999D01*
X186700000Y-76263332D01*
G37*
G36*
X188816666Y-71606666D02*
G01*
X188393333Y-71606666D01*
X188393333Y-71183333D01*
X188816666Y-71183333D01*
X188816666Y-71606666D01*
G37*
G36*
X189663333Y-70336666D02*
G01*
X189239999Y-70336666D01*
X189239999Y-69913333D01*
X189663333Y-69913333D01*
X189663333Y-70336666D01*
G37*
G36*
X188816666Y-71183333D02*
G01*
X188393333Y-71183333D01*
X188393333Y-70760000D01*
X188816666Y-70760000D01*
X188816666Y-71183333D01*
G37*
G36*
X184583333Y-74146666D02*
G01*
X184160000Y-74146666D01*
X184160000Y-73723332D01*
X184583333Y-73723332D01*
X184583333Y-74146666D01*
G37*
G36*
X187123333Y-68643333D02*
G01*
X186700000Y-68643333D01*
X186700000Y-68220000D01*
X187123333Y-68220000D01*
X187123333Y-68643333D01*
G37*
G36*
X186276667Y-73299999D02*
G01*
X185853333Y-73299999D01*
X185853333Y-72876666D01*
X186276667Y-72876666D01*
X186276667Y-73299999D01*
G37*
G36*
X193050000Y-75416666D02*
G01*
X192626666Y-75416666D01*
X192626666Y-74993332D01*
X193050000Y-74993332D01*
X193050000Y-75416666D01*
G37*
G36*
X192203333Y-70760000D02*
G01*
X191779999Y-70760000D01*
X191779999Y-70336666D01*
X192203333Y-70336666D01*
X192203333Y-70760000D01*
G37*
G36*
X192203333Y-69066666D02*
G01*
X190933333Y-69066666D01*
X190933333Y-67796666D01*
X192203333Y-67796666D01*
X192203333Y-69066666D01*
G37*
G36*
X189239999Y-72876666D02*
G01*
X188816666Y-72876666D01*
X188816666Y-72453332D01*
X189239999Y-72453332D01*
X189239999Y-72876666D01*
G37*
G36*
X188393333Y-69490000D02*
G01*
X187969999Y-69490000D01*
X187969999Y-69066666D01*
X188393333Y-69066666D01*
X188393333Y-69490000D01*
G37*
G36*
X190933333Y-73723332D02*
G01*
X190509999Y-73723332D01*
X190509999Y-73299999D01*
X190933333Y-73299999D01*
X190933333Y-73723332D01*
G37*
G36*
X192626666Y-77109999D02*
G01*
X192203333Y-77109999D01*
X192203333Y-76686666D01*
X192626666Y-76686666D01*
X192626666Y-77109999D01*
G37*
G36*
X187123333Y-73299999D02*
G01*
X186700000Y-73299999D01*
X186700000Y-72876666D01*
X187123333Y-72876666D01*
X187123333Y-73299999D01*
G37*
G36*
X189663333Y-67796666D02*
G01*
X189239999Y-67796666D01*
X189239999Y-67373333D01*
X189663333Y-67373333D01*
X189663333Y-67796666D01*
G37*
G36*
X189663333Y-73299999D02*
G01*
X189239999Y-73299999D01*
X189239999Y-72876666D01*
X189663333Y-72876666D01*
X189663333Y-73299999D01*
G37*
G36*
X183313333Y-72876666D02*
G01*
X182890000Y-72876666D01*
X182890000Y-72453332D01*
X183313333Y-72453332D01*
X183313333Y-72876666D01*
G37*
G36*
X191779999Y-73723332D02*
G01*
X191356666Y-73723332D01*
X191356666Y-73299999D01*
X191779999Y-73299999D01*
X191779999Y-73723332D01*
G37*
G36*
X184160000Y-72876666D02*
G01*
X183736667Y-72876666D01*
X183736667Y-72453332D01*
X184160000Y-72453332D01*
X184160000Y-72876666D01*
G37*
G36*
X192626666Y-71183333D02*
G01*
X192203333Y-71183333D01*
X192203333Y-70760000D01*
X192626666Y-70760000D01*
X192626666Y-71183333D01*
G37*
G36*
X191779999Y-76686666D02*
G01*
X191356666Y-76686666D01*
X191356666Y-76263332D01*
X191779999Y-76263332D01*
X191779999Y-76686666D01*
G37*
G36*
X189239999Y-73299999D02*
G01*
X188816666Y-73299999D01*
X188816666Y-72876666D01*
X189239999Y-72876666D01*
X189239999Y-73299999D01*
G37*
G36*
X186276667Y-74569999D02*
G01*
X185853333Y-74569999D01*
X185853333Y-74146666D01*
X186276667Y-74146666D01*
X186276667Y-74569999D01*
G37*
G36*
X188816666Y-75839999D02*
G01*
X188393333Y-75839999D01*
X188393333Y-75416666D01*
X188816666Y-75416666D01*
X188816666Y-75839999D01*
G37*
G36*
X187123333Y-69490000D02*
G01*
X186700000Y-69490000D01*
X186700000Y-69066666D01*
X187123333Y-69066666D01*
X187123333Y-69490000D01*
G37*
G36*
X186700000Y-75839999D02*
G01*
X186276667Y-75839999D01*
X186276667Y-75416666D01*
X186700000Y-75416666D01*
X186700000Y-75839999D01*
G37*
G36*
X188393333Y-70336666D02*
G01*
X187969999Y-70336666D01*
X187969999Y-69913333D01*
X188393333Y-69913333D01*
X188393333Y-70336666D01*
G37*
G36*
X186276667Y-72453332D02*
G01*
X185853333Y-72453332D01*
X185853333Y-72029999D01*
X186276667Y-72029999D01*
X186276667Y-72453332D01*
G37*
G36*
X189663333Y-69066666D02*
G01*
X189239999Y-69066666D01*
X189239999Y-68643333D01*
X189663333Y-68643333D01*
X189663333Y-69066666D01*
G37*
G36*
X187969999Y-70760000D02*
G01*
X187546666Y-70760000D01*
X187546666Y-70336666D01*
X187969999Y-70336666D01*
X187969999Y-70760000D01*
G37*
G36*
X192203333Y-71183333D02*
G01*
X191779999Y-71183333D01*
X191779999Y-70760000D01*
X192203333Y-70760000D01*
X192203333Y-71183333D01*
G37*
G36*
X184160000Y-74146666D02*
G01*
X183736667Y-74146666D01*
X183736667Y-73723332D01*
X184160000Y-73723332D01*
X184160000Y-74146666D01*
G37*
G36*
X191779999Y-77533333D02*
G01*
X191356666Y-77533333D01*
X191356666Y-77109999D01*
X191779999Y-77109999D01*
X191779999Y-77533333D01*
G37*
G36*
X183313333Y-72453332D02*
G01*
X182890000Y-72453332D01*
X182890000Y-72029999D01*
X183313333Y-72029999D01*
X183313333Y-72453332D01*
G37*
G36*
X186276667Y-76263332D02*
G01*
X185853333Y-76263332D01*
X185853333Y-75839999D01*
X186276667Y-75839999D01*
X186276667Y-76263332D01*
G37*
G36*
X189663333Y-70760000D02*
G01*
X189239999Y-70760000D01*
X189239999Y-70336666D01*
X189663333Y-70336666D01*
X189663333Y-70760000D01*
G37*
G36*
X193050000Y-72029999D02*
G01*
X192626666Y-72029999D01*
X192626666Y-71606666D01*
X193050000Y-71606666D01*
X193050000Y-72029999D01*
G37*
G36*
X185430000Y-70760000D02*
G01*
X185006667Y-70760000D01*
X185006667Y-70336666D01*
X185430000Y-70336666D01*
X185430000Y-70760000D01*
G37*
G36*
X187969999Y-68220000D02*
G01*
X187546666Y-68220000D01*
X187546666Y-67796666D01*
X187969999Y-67796666D01*
X187969999Y-68220000D01*
G37*
G36*
X186700000Y-67373333D02*
G01*
X186276667Y-67373333D01*
X186276667Y-66950000D01*
X186700000Y-66950000D01*
X186700000Y-67373333D01*
G37*
G36*
X187546666Y-72029999D02*
G01*
X187123333Y-72029999D01*
X187123333Y-71606666D01*
X187546666Y-71606666D01*
X187546666Y-72029999D01*
G37*
G36*
X187123333Y-76686666D02*
G01*
X186700000Y-76686666D01*
X186700000Y-76263332D01*
X187123333Y-76263332D01*
X187123333Y-76686666D01*
G37*
G36*
X186276667Y-74146666D02*
G01*
X185853333Y-74146666D01*
X185853333Y-73723332D01*
X186276667Y-73723332D01*
X186276667Y-74146666D01*
G37*
G36*
X189239999Y-71183333D02*
G01*
X188816666Y-71183333D01*
X188816666Y-70760000D01*
X189239999Y-70760000D01*
X189239999Y-71183333D01*
G37*
G36*
X193050000Y-76686666D02*
G01*
X192626666Y-76686666D01*
X192626666Y-76263332D01*
X193050000Y-76263332D01*
X193050000Y-76686666D01*
G37*
G36*
X187546666Y-74146666D02*
G01*
X187123333Y-74146666D01*
X187123333Y-73723332D01*
X187546666Y-73723332D01*
X187546666Y-74146666D01*
G37*
G36*
X182890000Y-70760000D02*
G01*
X182466667Y-70760000D01*
X182466667Y-70336666D01*
X182890000Y-70336666D01*
X182890000Y-70760000D01*
G37*
G36*
X187969999Y-71183333D02*
G01*
X187546666Y-71183333D01*
X187546666Y-70760000D01*
X187969999Y-70760000D01*
X187969999Y-71183333D01*
G37*
G36*
X192626666Y-70760000D02*
G01*
X192203333Y-70760000D01*
X192203333Y-70336666D01*
X192626666Y-70336666D01*
X192626666Y-70760000D01*
G37*
G36*
X192203333Y-72029999D02*
G01*
X191779999Y-72029999D01*
X191779999Y-71606666D01*
X192203333Y-71606666D01*
X192203333Y-72029999D01*
G37*
G36*
X184583333Y-76686666D02*
G01*
X183313333Y-76686666D01*
X183313333Y-75416666D01*
X184583333Y-75416666D01*
X184583333Y-76686666D01*
G37*
G36*
X192626666Y-76263332D02*
G01*
X192203333Y-76263332D01*
X192203333Y-75839999D01*
X192626666Y-75839999D01*
X192626666Y-76263332D01*
G37*
G36*
X186276667Y-77533333D02*
G01*
X185853333Y-77533333D01*
X185853333Y-77109999D01*
X186276667Y-77109999D01*
X186276667Y-77533333D01*
G37*
G36*
X188816666Y-72876666D02*
G01*
X188393333Y-72876666D01*
X188393333Y-72453332D01*
X188816666Y-72453332D01*
X188816666Y-72876666D01*
G37*
G36*
X185430000Y-77533333D02*
G01*
X182466667Y-77533333D01*
X182466667Y-77088832D01*
X182466667Y-75014499D01*
X182911167Y-75014499D01*
X182911167Y-77088832D01*
X184985500Y-77088832D01*
X184985500Y-75014499D01*
X182911167Y-75014499D01*
X182466667Y-75014499D01*
X182466667Y-74569999D01*
X185430000Y-74569999D01*
X185430000Y-77533333D01*
G37*
G36*
X187969999Y-68643333D02*
G01*
X187546666Y-68643333D01*
X187546666Y-68220000D01*
X187969999Y-68220000D01*
X187969999Y-68643333D01*
G37*
G36*
X184583333Y-70760000D02*
G01*
X184160000Y-70760000D01*
X184160000Y-70336666D01*
X184583333Y-70336666D01*
X184583333Y-70760000D01*
G37*
G36*
X185430000Y-69913333D02*
G01*
X182466667Y-69913333D01*
X182466667Y-69468833D01*
X182466667Y-67394500D01*
X182911167Y-67394500D01*
X182911167Y-69468833D01*
X184985500Y-69468833D01*
X184985500Y-67394500D01*
X182911167Y-67394500D01*
X182466667Y-67394500D01*
X182466667Y-66950000D01*
X185430000Y-66950000D01*
X185430000Y-69913333D01*
G37*
G36*
X187969999Y-77109999D02*
G01*
X187546666Y-77109999D01*
X187546666Y-76686666D01*
X187969999Y-76686666D01*
X187969999Y-77109999D01*
G37*
G36*
X185430000Y-72453332D02*
G01*
X185006667Y-72453332D01*
X185006667Y-72029999D01*
X185430000Y-72029999D01*
X185430000Y-72453332D01*
G37*
G36*
X190509999Y-73723332D02*
G01*
X190086666Y-73723332D01*
X190086666Y-73299999D01*
X190509999Y-73299999D01*
X190509999Y-73723332D01*
G37*
G36*
X186700000Y-73299999D02*
G01*
X186276667Y-73299999D01*
X186276667Y-72876666D01*
X186700000Y-72876666D01*
X186700000Y-73299999D01*
G37*
G36*
X189663333Y-75839999D02*
G01*
X189239999Y-75839999D01*
X189239999Y-75416666D01*
X189663333Y-75416666D01*
X189663333Y-75839999D01*
G37*
G36*
X190086666Y-76686666D02*
G01*
X189663333Y-76686666D01*
X189663333Y-76263332D01*
X190086666Y-76263332D01*
X190086666Y-76686666D01*
G37*
G36*
X190086666Y-72876666D02*
G01*
X189663333Y-72876666D01*
X189663333Y-72453332D01*
X190086666Y-72453332D01*
X190086666Y-72876666D01*
G37*
G36*
X190933333Y-75839999D02*
G01*
X190509999Y-75839999D01*
X190509999Y-75416666D01*
X190933333Y-75416666D01*
X190933333Y-75839999D01*
G37*
G36*
X190933333Y-71606666D02*
G01*
X190509999Y-71606666D01*
X190509999Y-71183333D01*
X190933333Y-71183333D01*
X190933333Y-71606666D01*
G37*
G36*
X189663333Y-72876666D02*
G01*
X189239999Y-72876666D01*
X189239999Y-72453332D01*
X189663333Y-72453332D01*
X189663333Y-72876666D01*
G37*
G36*
X187546666Y-76686666D02*
G01*
X187123333Y-76686666D01*
X187123333Y-76263332D01*
X187546666Y-76263332D01*
X187546666Y-76686666D01*
G37*
G36*
X189663333Y-71606666D02*
G01*
X189239999Y-71606666D01*
X189239999Y-71183333D01*
X189663333Y-71183333D01*
X189663333Y-71606666D01*
G37*
G36*
X188816666Y-68220000D02*
G01*
X188393333Y-68220000D01*
X188393333Y-67796666D01*
X188816666Y-67796666D01*
X188816666Y-68220000D01*
G37*
G36*
X187969999Y-77533333D02*
G01*
X187546666Y-77533333D01*
X187546666Y-77109999D01*
X187969999Y-77109999D01*
X187969999Y-77533333D01*
G37*
G36*
X191356666Y-75416666D02*
G01*
X190933333Y-75416666D01*
X190933333Y-74993332D01*
X191356666Y-74993332D01*
X191356666Y-75416666D01*
G37*
G36*
X185006667Y-73723332D02*
G01*
X184583333Y-73723332D01*
X184583333Y-73299999D01*
X185006667Y-73299999D01*
X185006667Y-73723332D01*
G37*
G36*
X187969999Y-69913333D02*
G01*
X187546666Y-69913333D01*
X187546666Y-69490000D01*
X187969999Y-69490000D01*
X187969999Y-69913333D01*
G37*
G36*
X187546666Y-75416666D02*
G01*
X187123333Y-75416666D01*
X187123333Y-74993332D01*
X187546666Y-74993332D01*
X187546666Y-75416666D01*
G37*
G36*
X185006667Y-72876666D02*
G01*
X184583333Y-72876666D01*
X184583333Y-72453332D01*
X185006667Y-72453332D01*
X185006667Y-72876666D01*
G37*
G36*
X193050000Y-77109999D02*
G01*
X192626666Y-77109999D01*
X192626666Y-76686666D01*
X193050000Y-76686666D01*
X193050000Y-77109999D01*
G37*
G36*
X192203333Y-73299999D02*
G01*
X191779999Y-73299999D01*
X191779999Y-72876666D01*
X192203333Y-72876666D01*
X192203333Y-73299999D01*
G37*
G36*
X189239999Y-75839999D02*
G01*
X188816666Y-75839999D01*
X188816666Y-75416666D01*
X189239999Y-75416666D01*
X189239999Y-75839999D01*
G37*
G36*
X189239999Y-76263332D02*
G01*
X188816666Y-76263332D01*
X188816666Y-75839999D01*
X189239999Y-75839999D01*
X189239999Y-76263332D01*
G37*
G36*
X193050000Y-72453332D02*
G01*
X192626666Y-72453332D01*
X192626666Y-72029999D01*
X193050000Y-72029999D01*
X193050000Y-72453332D01*
G37*
D11*
G36*
X181057550Y-76838157D02*
G01*
X180245687Y-76838157D01*
X180245687Y-80176468D01*
X178308353Y-80176468D01*
X178308353Y-80960000D01*
X181057550Y-80960000D01*
X181057550Y-76838157D01*
G37*
G36*
X177599071Y-78512686D02*
G01*
X176815540Y-78512686D01*
X176815540Y-80960000D01*
X177599071Y-80960000D01*
X177599071Y-78512686D01*
G37*
G36*
X177616657Y-77657836D02*
G01*
X177563229Y-77464884D01*
X177479881Y-77372561D01*
X177300057Y-77276008D01*
X177184836Y-77260209D01*
X176990190Y-77308595D01*
X176896629Y-77372561D01*
X176783285Y-77536203D01*
X176764738Y-77657836D01*
X176816258Y-77850025D01*
X176896629Y-77941158D01*
X177071034Y-78034352D01*
X177184836Y-78049602D01*
X177382867Y-78002899D01*
X177479881Y-77941158D01*
X177597423Y-77779194D01*
X177616657Y-77657836D01*
G37*
G36*
X175195802Y-78405712D02*
G01*
X175396662Y-78460694D01*
X175589441Y-78554696D01*
X175623223Y-78575873D01*
X175779767Y-78697899D01*
X175915704Y-78846829D01*
X176031032Y-79022665D01*
X176088139Y-79139822D01*
X176151646Y-79330368D01*
X176188569Y-79538689D01*
X176199071Y-79738785D01*
X176195112Y-79873271D01*
X176172306Y-80072574D01*
X176122417Y-80273433D01*
X176036894Y-80467606D01*
X175924275Y-80631497D01*
X175774388Y-80778497D01*
X175597257Y-80890635D01*
X175579854Y-80899049D01*
X175380232Y-80973982D01*
X175185735Y-81014053D01*
X174978834Y-81027411D01*
X174798755Y-81015069D01*
X174600746Y-80962930D01*
X174505663Y-80920436D01*
X174332079Y-80811500D01*
X174312035Y-80795394D01*
X174166971Y-80660069D01*
X174161109Y-80654461D01*
X174161109Y-80960000D01*
X173376601Y-80960000D01*
X173376601Y-79420293D01*
X174161109Y-79420293D01*
X174161109Y-80019176D01*
X174184980Y-80063861D01*
X174306678Y-80223363D01*
X174333626Y-80247749D01*
X174503049Y-80346461D01*
X174553131Y-80362831D01*
X174754131Y-80388471D01*
X174891233Y-80373799D01*
X175076531Y-80299567D01*
X175195249Y-80208205D01*
X175314912Y-80053370D01*
X175378725Y-79897322D01*
X175403817Y-79699706D01*
X175387735Y-79537151D01*
X175319797Y-79352882D01*
X175248539Y-79248376D01*
X175093140Y-79114501D01*
X174982589Y-79061515D01*
X174782463Y-79027550D01*
X174699524Y-79031337D01*
X174507934Y-79075422D01*
X174462974Y-79094747D01*
X174295931Y-79210244D01*
X174258758Y-79250014D01*
X174161109Y-79420293D01*
X173376601Y-79420293D01*
X173376601Y-78512686D01*
X174104445Y-78512686D01*
X174155776Y-78763868D01*
X174293491Y-78628208D01*
X174455177Y-78509755D01*
X174604917Y-78441340D01*
X174796217Y-78401323D01*
X175006189Y-78389588D01*
X175195802Y-78405712D01*
G37*
G36*
X171862295Y-78512686D02*
G01*
X171800746Y-78943531D01*
X171812470Y-78910314D01*
X171693127Y-78741053D01*
X171553450Y-78602568D01*
X171449036Y-78527341D01*
X171272266Y-78443398D01*
X171070216Y-78398197D01*
X170921472Y-78389588D01*
X170721148Y-78405580D01*
X170566831Y-78446252D01*
X170392579Y-78536851D01*
X170305980Y-78611360D01*
X170195243Y-78781883D01*
X170160411Y-78893705D01*
X170187766Y-78899567D01*
X170061462Y-78740015D01*
X169917023Y-78605743D01*
X169810655Y-78530272D01*
X169627402Y-78439184D01*
X169423199Y-78393022D01*
X169348548Y-78389588D01*
X169135389Y-78409528D01*
X168934634Y-78477524D01*
X168769204Y-78593775D01*
X168645586Y-78748468D01*
X168571608Y-78931792D01*
X168547431Y-79123293D01*
X168547431Y-80960000D01*
X169326078Y-80960000D01*
X169326078Y-79447648D01*
X169351727Y-79252360D01*
X169375903Y-79181912D01*
X169544309Y-79071743D01*
X169583021Y-79067606D01*
X169778797Y-79109337D01*
X169905422Y-79199497D01*
X170026531Y-79359273D01*
X170101793Y-79534598D01*
X170148075Y-79729244D01*
X170166021Y-79930329D01*
X170166273Y-79957627D01*
X170166273Y-80960000D01*
X170949804Y-80960000D01*
X170949804Y-79447648D01*
X170980491Y-79252360D01*
X171009399Y-79181912D01*
X171176324Y-79073230D01*
X171224333Y-79067606D01*
X171422937Y-79114103D01*
X171535010Y-79199497D01*
X171651545Y-79358721D01*
X171725519Y-79532644D01*
X171771801Y-79723898D01*
X171789748Y-79920303D01*
X171790000Y-79946880D01*
X171790000Y-80960000D01*
X172573531Y-80960000D01*
X172573531Y-78512686D01*
X171862295Y-78512686D01*
G37*
G36*
X165797257Y-80960000D02*
G01*
X164425589Y-80960000D01*
X164289424Y-80955969D01*
X164089297Y-80934812D01*
X163894117Y-80895519D01*
X163799286Y-80868592D01*
X163606779Y-80791396D01*
X163432009Y-80688401D01*
X163358061Y-80631752D01*
X163218342Y-80487332D01*
X163106678Y-80313244D01*
X163038262Y-80141151D01*
X162998245Y-79944583D01*
X162986510Y-79744647D01*
X163826706Y-79744647D01*
X163831957Y-79819935D01*
X163910725Y-80005498D01*
X163962855Y-80059345D01*
X164140314Y-80156929D01*
X164264070Y-80187291D01*
X164464668Y-80203824D01*
X164985394Y-80203824D01*
X164985394Y-79307941D01*
X164521332Y-79307941D01*
X164382456Y-79314068D01*
X164188185Y-79345066D01*
X164102774Y-79369881D01*
X163927334Y-79474026D01*
X163870043Y-79547437D01*
X163826706Y-79744647D01*
X162986510Y-79744647D01*
X162987407Y-79699619D01*
X163018796Y-79486498D01*
X163095027Y-79293412D01*
X163216099Y-79120362D01*
X163307999Y-79026802D01*
X163467616Y-78902433D01*
X163653354Y-78797229D01*
X163676050Y-78787833D01*
X163657598Y-78778117D01*
X163500863Y-78656530D01*
X163370460Y-78509755D01*
X163336938Y-78460846D01*
X163249010Y-78281938D01*
X163197719Y-78078606D01*
X163195466Y-78047648D01*
X164022100Y-78047648D01*
X164044166Y-78202402D01*
X164137383Y-78378841D01*
X164294677Y-78492425D01*
X164493000Y-78524410D01*
X164985394Y-78524410D01*
X164985394Y-77622665D01*
X164548688Y-77622665D01*
X164344840Y-77646064D01*
X164165715Y-77729155D01*
X164062632Y-77852173D01*
X164022100Y-78047648D01*
X163195466Y-78047648D01*
X163182882Y-77874724D01*
X163183254Y-77842734D01*
X163206695Y-77632801D01*
X163278136Y-77422875D01*
X163397205Y-77244944D01*
X163563900Y-77099009D01*
X163742791Y-76997368D01*
X163946927Y-76920692D01*
X164141993Y-76874839D01*
X164355606Y-76847328D01*
X164587766Y-76838157D01*
X165797257Y-76838157D01*
X165797257Y-80960000D01*
G37*
G36*
X161598234Y-78512686D02*
G01*
X161525938Y-79184842D01*
X161542547Y-79084214D01*
X161434408Y-78905257D01*
X161296350Y-78751357D01*
X161251409Y-78711988D01*
X161090403Y-78590386D01*
X160919142Y-78489979D01*
X160885045Y-78473607D01*
X160698750Y-78403454D01*
X160606608Y-78389588D01*
X160646664Y-79173119D01*
X160856187Y-79171928D01*
X161053337Y-79228348D01*
X161116587Y-79263000D01*
X161271208Y-79385858D01*
X161398691Y-79551108D01*
X161419448Y-79588332D01*
X161495884Y-79779585D01*
X161525522Y-79975991D01*
X161525938Y-80002568D01*
X161525938Y-80960000D01*
X162303607Y-80960000D01*
X162303607Y-78512686D01*
X161598234Y-78512686D01*
G37*
G36*
X159035071Y-78399624D02*
G01*
X159252640Y-78428174D01*
X159455062Y-78483773D01*
X159642337Y-78566420D01*
X159700810Y-78599410D01*
X159861286Y-78711775D01*
X160013308Y-78860190D01*
X160137662Y-79033412D01*
X160178878Y-79108883D01*
X160257875Y-79308246D01*
X160299606Y-79500725D01*
X160313517Y-79705568D01*
X160309152Y-79832155D01*
X160279296Y-80045585D01*
X160221156Y-80240468D01*
X160134731Y-80416803D01*
X160111730Y-80453383D01*
X159980812Y-80619907D01*
X159823371Y-80759144D01*
X159639406Y-80871095D01*
X159517647Y-80924218D01*
X159323546Y-80983294D01*
X159115689Y-81017641D01*
X158919378Y-81027411D01*
X158762139Y-81021297D01*
X158565951Y-80994125D01*
X158363632Y-80937573D01*
X158180788Y-80853510D01*
X158142759Y-80831284D01*
X157969442Y-80705498D01*
X157824174Y-80555289D01*
X157706957Y-80380655D01*
X157668260Y-80304497D01*
X157594090Y-80103818D01*
X157554909Y-79910643D01*
X157542222Y-79711430D01*
X158331242Y-79711430D01*
X158343335Y-79860253D01*
X158404515Y-80056301D01*
X158467529Y-80162409D01*
X158611632Y-80299567D01*
X158728766Y-80357129D01*
X158930125Y-80388471D01*
X159051483Y-80375969D01*
X159232986Y-80299567D01*
X159332706Y-80216058D01*
X159445966Y-80056301D01*
X159499394Y-79914316D01*
X159524124Y-79711430D01*
X159511225Y-79559457D01*
X159445966Y-79364605D01*
X159378921Y-79259688D01*
X159232986Y-79123293D01*
X159127199Y-79068522D01*
X158930125Y-79033412D01*
X158798784Y-79046051D01*
X158611632Y-79123293D01*
X158519309Y-79199360D01*
X158404515Y-79364605D01*
X158351921Y-79515745D01*
X158331242Y-79711430D01*
X157542222Y-79711430D01*
X157541849Y-79705568D01*
X157543300Y-79635913D01*
X157565067Y-79435191D01*
X157619888Y-79226669D01*
X157706957Y-79033412D01*
X157728156Y-78996783D01*
X157850984Y-78828523D01*
X158001861Y-78685068D01*
X158180788Y-78566420D01*
X158300108Y-78508317D01*
X158493772Y-78443702D01*
X158705055Y-78406135D01*
X158907655Y-78395450D01*
X159035071Y-78399624D01*
G37*
G36*
X155838421Y-78399624D02*
G01*
X156055990Y-78428174D01*
X156258412Y-78483773D01*
X156445687Y-78566420D01*
X156504159Y-78599410D01*
X156664635Y-78711775D01*
X156816657Y-78860190D01*
X156941011Y-79033412D01*
X156982227Y-79108883D01*
X157061225Y-79308246D01*
X157102956Y-79500725D01*
X157116866Y-79705568D01*
X157112501Y-79832155D01*
X157082646Y-80045585D01*
X157024505Y-80240468D01*
X156938080Y-80416803D01*
X156915080Y-80453383D01*
X156784162Y-80619907D01*
X156626720Y-80759144D01*
X156442756Y-80871095D01*
X156320997Y-80924218D01*
X156126896Y-80983294D01*
X155919038Y-81017641D01*
X155722728Y-81027411D01*
X155565489Y-81021297D01*
X155369301Y-80994125D01*
X155166982Y-80937573D01*
X154984138Y-80853510D01*
X154946108Y-80831284D01*
X154772791Y-80705498D01*
X154627524Y-80555289D01*
X154510307Y-80380655D01*
X154471609Y-80304497D01*
X154397440Y-80103818D01*
X154358259Y-79910643D01*
X154345571Y-79711430D01*
X155134591Y-79711430D01*
X155146684Y-79860253D01*
X155207864Y-80056301D01*
X155270879Y-80162409D01*
X155414982Y-80299567D01*
X155532116Y-80357129D01*
X155733475Y-80388471D01*
X155854833Y-80375969D01*
X156036336Y-80299567D01*
X156136056Y-80216058D01*
X156249316Y-80056301D01*
X156302744Y-79914316D01*
X156327473Y-79711430D01*
X156314574Y-79559457D01*
X156249316Y-79364605D01*
X156182271Y-79259688D01*
X156036336Y-79123293D01*
X155930548Y-79068522D01*
X155733475Y-79033412D01*
X155602133Y-79046051D01*
X155414982Y-79123293D01*
X155322658Y-79199360D01*
X155207864Y-79364605D01*
X155155271Y-79515745D01*
X155134591Y-79711430D01*
X154345571Y-79711430D01*
X154345198Y-79705568D01*
X154346650Y-79635913D01*
X154368417Y-79435191D01*
X154423238Y-79226669D01*
X154510307Y-79033412D01*
X154531506Y-78996783D01*
X154654334Y-78828523D01*
X154805211Y-78685068D01*
X154984138Y-78566420D01*
X155103458Y-78508317D01*
X155297122Y-78443702D01*
X155508405Y-78406135D01*
X155711004Y-78395450D01*
X155838421Y-78399624D01*
G37*
G36*
X153729706Y-80960000D02*
G01*
X153729706Y-76541158D01*
X152946175Y-76541158D01*
X152946175Y-80960000D01*
X153729706Y-80960000D01*
G37*
G36*
X152324822Y-79297194D02*
G01*
X151215959Y-80960000D01*
X152128450Y-80960000D01*
X152839685Y-79744647D01*
X152324822Y-79297194D01*
G37*
G36*
X153181625Y-80281981D02*
G01*
X153259783Y-79537529D01*
X151781625Y-78451137D01*
X151304863Y-78871235D01*
X153181625Y-80281981D01*
G37*
G36*
X149878485Y-81010802D02*
G01*
X150081738Y-80998219D01*
X150275063Y-80960469D01*
X150442198Y-80904312D01*
X150625700Y-80812629D01*
X150786397Y-80697316D01*
X150880858Y-80607313D01*
X150556503Y-80176468D01*
X150404260Y-80300796D01*
X150232968Y-80404502D01*
X150223356Y-80408988D01*
X150034221Y-80470156D01*
X149945896Y-80478353D01*
X149775903Y-80458813D01*
X149654759Y-80397264D01*
X149609818Y-80287843D01*
X149686022Y-80137390D01*
X149864853Y-80049176D01*
X149879462Y-80044577D01*
X150072781Y-79985711D01*
X150130544Y-79968374D01*
X150322274Y-79892792D01*
X150490863Y-79787392D01*
X150615122Y-79658674D01*
X150711269Y-79486173D01*
X150759996Y-79287421D01*
X150763621Y-79213175D01*
X150736049Y-79015397D01*
X150665924Y-78839972D01*
X150547872Y-78677641D01*
X150391595Y-78550535D01*
X150352316Y-78526364D01*
X150156089Y-78444765D01*
X149957559Y-78408211D01*
X149794466Y-78400334D01*
X149594088Y-78407723D01*
X149386153Y-78435505D01*
X149273740Y-78462861D01*
X149079223Y-78537736D01*
X148906971Y-78638609D01*
X148871228Y-78664117D01*
X149167250Y-79123293D01*
X149333452Y-79015638D01*
X149405631Y-78980655D01*
X149599189Y-78921264D01*
X149648897Y-78916175D01*
X149820844Y-78938646D01*
X149929288Y-79010942D01*
X149968367Y-79106685D01*
X149887278Y-79274724D01*
X149707164Y-79358418D01*
X149666482Y-79369490D01*
X149475704Y-79423296D01*
X149402700Y-79447648D01*
X149217331Y-79523760D01*
X149094954Y-79600055D01*
X148951359Y-79740424D01*
X148896629Y-79826713D01*
X148834599Y-80021679D01*
X148826287Y-80142274D01*
X148851618Y-80346651D01*
X148927610Y-80540295D01*
X148941570Y-80565303D01*
X149064214Y-80724626D01*
X149218618Y-80847117D01*
X149288394Y-80887704D01*
X149479911Y-80962717D01*
X149686848Y-81001065D01*
X149878485Y-81010802D01*
G37*
G36*
X181057550Y-87680000D02*
G01*
X180245687Y-87680000D01*
X180245687Y-86374766D01*
X179663412Y-86374766D01*
X179588874Y-86373658D01*
X179378655Y-86357043D01*
X179168645Y-86315197D01*
X178983440Y-86248736D01*
X178851732Y-86180654D01*
X178680502Y-86059525D01*
X178540872Y-85915589D01*
X178472938Y-85822731D01*
X178369596Y-85638374D01*
X178300537Y-85454459D01*
X178274639Y-85358941D01*
X178236910Y-85152692D01*
X178225710Y-84969881D01*
X179036196Y-84969881D01*
X179067459Y-85154528D01*
X179075657Y-85181014D01*
X179168087Y-85358715D01*
X179201387Y-85399868D01*
X179361528Y-85520893D01*
X179471703Y-85562641D01*
X179669274Y-85585373D01*
X180245687Y-85585373D01*
X180245687Y-84342665D01*
X179663412Y-84342665D01*
X179515905Y-84352969D01*
X179324403Y-84415938D01*
X179272351Y-84449204D01*
X179136824Y-84594724D01*
X179125653Y-84614665D01*
X179055736Y-84804773D01*
X179036196Y-84969881D01*
X178225710Y-84969881D01*
X178224333Y-84947411D01*
X178230825Y-84791729D01*
X178259676Y-84596762D01*
X178319722Y-84394649D01*
X178408981Y-84210774D01*
X178470809Y-84117098D01*
X178602898Y-83965673D01*
X178761726Y-83836349D01*
X178947292Y-83729127D01*
X178991988Y-83708424D01*
X179182986Y-83638967D01*
X179393524Y-83590882D01*
X179593772Y-83566338D01*
X179808981Y-83558157D01*
X181057550Y-83558157D01*
X181057550Y-87680000D01*
G37*
G36*
X177626427Y-87680000D02*
G01*
X177626427Y-83261158D01*
X176859504Y-83261158D01*
X176859504Y-85726057D01*
X176865366Y-85630314D01*
X176743011Y-85458123D01*
X176598869Y-85324652D01*
X176500956Y-85258087D01*
X176309530Y-85171168D01*
X176107988Y-85126732D01*
X175924542Y-85115450D01*
X175718520Y-85135390D01*
X175518121Y-85203386D01*
X175345198Y-85319637D01*
X175212124Y-85474330D01*
X175132616Y-85657653D01*
X175106817Y-85849155D01*
X175106817Y-87680000D01*
X175890348Y-87680000D01*
X175890348Y-86140293D01*
X175933965Y-85946894D01*
X175977299Y-85879441D01*
X176160481Y-85787850D01*
X176248897Y-85781744D01*
X176446522Y-85823419D01*
X176563482Y-85899958D01*
X176694892Y-86058433D01*
X176770600Y-86218450D01*
X176822492Y-86420867D01*
X176841766Y-86618520D01*
X176842896Y-86683489D01*
X176842896Y-87680000D01*
X177626427Y-87680000D01*
G37*
G36*
X173212880Y-85119624D02*
G01*
X173430449Y-85148174D01*
X173632871Y-85203773D01*
X173820146Y-85286420D01*
X173878618Y-85319410D01*
X174039094Y-85431775D01*
X174191117Y-85580190D01*
X174315471Y-85753412D01*
X174356687Y-85828883D01*
X174435684Y-86028246D01*
X174477415Y-86220725D01*
X174491325Y-86425568D01*
X174486961Y-86552155D01*
X174457105Y-86765585D01*
X174398964Y-86960468D01*
X174312540Y-87136803D01*
X174289539Y-87173383D01*
X174158621Y-87339907D01*
X174001180Y-87479144D01*
X173817215Y-87591095D01*
X173695456Y-87644218D01*
X173501355Y-87703294D01*
X173293497Y-87737641D01*
X173097187Y-87747411D01*
X172939948Y-87741297D01*
X172743760Y-87714125D01*
X172541441Y-87657573D01*
X172358597Y-87573510D01*
X172320567Y-87551284D01*
X172147250Y-87425498D01*
X172001983Y-87275289D01*
X171884766Y-87100655D01*
X171846068Y-87024497D01*
X171771899Y-86823818D01*
X171732718Y-86630643D01*
X171720031Y-86431430D01*
X172509050Y-86431430D01*
X172521143Y-86580253D01*
X172582323Y-86776301D01*
X172645338Y-86882409D01*
X172789441Y-87019567D01*
X172906575Y-87077129D01*
X173107934Y-87108471D01*
X173229292Y-87095969D01*
X173410795Y-87019567D01*
X173510515Y-86936058D01*
X173623775Y-86776301D01*
X173677203Y-86634316D01*
X173701933Y-86431430D01*
X173689033Y-86279457D01*
X173623775Y-86084605D01*
X173556730Y-85979688D01*
X173410795Y-85843293D01*
X173305007Y-85788522D01*
X173107934Y-85753412D01*
X172976592Y-85766051D01*
X172789441Y-85843293D01*
X172697117Y-85919360D01*
X172582323Y-86084605D01*
X172529730Y-86235745D01*
X172509050Y-86431430D01*
X171720031Y-86431430D01*
X171719658Y-86425568D01*
X171721109Y-86355913D01*
X171742876Y-86155191D01*
X171797697Y-85946669D01*
X171884766Y-85753412D01*
X171905965Y-85716783D01*
X172028793Y-85548523D01*
X172179670Y-85405068D01*
X172358597Y-85286420D01*
X172477917Y-85228317D01*
X172671581Y-85163702D01*
X172882864Y-85126135D01*
X173085464Y-85115450D01*
X173212880Y-85119624D01*
G37*
G36*
X170874577Y-84158018D02*
G01*
X170091046Y-84158018D01*
X170091046Y-85221939D01*
X169497048Y-85221939D01*
X169497048Y-85831570D01*
X170091046Y-85831570D01*
X170091046Y-87680000D01*
X170874577Y-87680000D01*
X170874577Y-85831570D01*
X171255596Y-85831570D01*
X171255596Y-85221939D01*
X170874577Y-85221939D01*
X170874577Y-84158018D01*
G37*
G36*
X167812182Y-85119624D02*
G01*
X168029751Y-85148174D01*
X168232173Y-85203773D01*
X168419448Y-85286420D01*
X168477921Y-85319410D01*
X168638397Y-85431775D01*
X168790419Y-85580190D01*
X168914773Y-85753412D01*
X168955989Y-85828883D01*
X169034986Y-86028246D01*
X169076717Y-86220725D01*
X169090628Y-86425568D01*
X169086263Y-86552155D01*
X169056407Y-86765585D01*
X168998267Y-86960468D01*
X168911842Y-87136803D01*
X168888841Y-87173383D01*
X168757923Y-87339907D01*
X168600482Y-87479144D01*
X168416517Y-87591095D01*
X168294758Y-87644218D01*
X168100657Y-87703294D01*
X167892800Y-87737641D01*
X167696489Y-87747411D01*
X167539250Y-87741297D01*
X167343062Y-87714125D01*
X167140743Y-87657573D01*
X166957899Y-87573510D01*
X166919870Y-87551284D01*
X166746553Y-87425498D01*
X166601285Y-87275289D01*
X166484068Y-87100655D01*
X166445371Y-87024497D01*
X166371201Y-86823818D01*
X166332020Y-86630643D01*
X166319333Y-86431430D01*
X167108353Y-86431430D01*
X167120445Y-86580253D01*
X167181625Y-86776301D01*
X167244640Y-86882409D01*
X167388743Y-87019567D01*
X167505877Y-87077129D01*
X167707236Y-87108471D01*
X167828594Y-87095969D01*
X168010097Y-87019567D01*
X168109817Y-86936058D01*
X168223077Y-86776301D01*
X168276505Y-86634316D01*
X168301235Y-86431430D01*
X168288336Y-86279457D01*
X168223077Y-86084605D01*
X168156032Y-85979688D01*
X168010097Y-85843293D01*
X167904310Y-85788522D01*
X167707236Y-85753412D01*
X167575894Y-85766051D01*
X167388743Y-85843293D01*
X167296420Y-85919360D01*
X167181625Y-86084605D01*
X167129032Y-86235745D01*
X167108353Y-86431430D01*
X166319333Y-86431430D01*
X166318960Y-86425568D01*
X166320411Y-86355913D01*
X166342178Y-86155191D01*
X166396999Y-85946669D01*
X166484068Y-85753412D01*
X166505267Y-85716783D01*
X166628095Y-85548523D01*
X166778972Y-85405068D01*
X166957899Y-85286420D01*
X167077219Y-85228317D01*
X167270883Y-85163702D01*
X167482166Y-85126135D01*
X167684766Y-85115450D01*
X167812182Y-85119624D01*
G37*
G36*
X164685208Y-85110267D02*
G01*
X164880201Y-85134043D01*
X165068516Y-85191783D01*
X165250153Y-85283489D01*
X165285400Y-85305600D01*
X165449272Y-85431042D01*
X165592536Y-85581289D01*
X165715191Y-85756343D01*
X165766697Y-85852170D01*
X165837408Y-86035238D01*
X165879835Y-86231907D01*
X165893977Y-86442177D01*
X165892500Y-86511806D01*
X165870347Y-86712141D01*
X165814552Y-86919691D01*
X165725938Y-87111402D01*
X165704487Y-87147680D01*
X165583835Y-87314643D01*
X165440857Y-87457563D01*
X165275554Y-87576441D01*
X165239956Y-87597144D01*
X165056468Y-87680625D01*
X164863822Y-87730714D01*
X164662016Y-87747411D01*
X164614961Y-87746853D01*
X164417382Y-87730556D01*
X164225041Y-87685982D01*
X164046524Y-87604773D01*
X163989936Y-87568152D01*
X163837442Y-87439223D01*
X163749525Y-87312471D01*
X163749525Y-87669253D01*
X163763264Y-87799083D01*
X163847222Y-87976999D01*
X163929288Y-88061079D01*
X164105143Y-88164577D01*
X164249345Y-88208656D01*
X164449036Y-88229057D01*
X164517424Y-88227348D01*
X164716070Y-88198176D01*
X164900397Y-88119637D01*
X165041768Y-88022397D01*
X165199351Y-87892979D01*
X165658527Y-88430314D01*
X165544458Y-88520607D01*
X165379113Y-88643293D01*
X165359181Y-88657204D01*
X165180212Y-88758870D01*
X164995163Y-88833803D01*
X164843389Y-88875019D01*
X164634562Y-88904328D01*
X164438290Y-88911960D01*
X164313917Y-88908049D01*
X164098701Y-88881293D01*
X163894613Y-88829189D01*
X163701653Y-88751737D01*
X163640347Y-88720839D01*
X163470340Y-88615679D01*
X163305915Y-88476899D01*
X163167250Y-88315031D01*
X163131109Y-88262469D01*
X163036312Y-88076845D01*
X162981014Y-87875192D01*
X162965017Y-87680000D01*
X162965017Y-86140293D01*
X163749525Y-86140293D01*
X163749525Y-86739176D01*
X163780467Y-86791021D01*
X163914633Y-86943363D01*
X163958731Y-86976969D01*
X164138360Y-87066461D01*
X164229276Y-87090379D01*
X164426566Y-87108471D01*
X164586343Y-87091454D01*
X164771437Y-87019567D01*
X164894161Y-86928205D01*
X165015680Y-86773370D01*
X165079493Y-86617322D01*
X165104584Y-86419706D01*
X165087567Y-86257151D01*
X165015680Y-86072882D01*
X164932010Y-85960486D01*
X164771437Y-85834501D01*
X164629452Y-85775062D01*
X164426566Y-85747550D01*
X164328258Y-85752225D01*
X164133475Y-85795422D01*
X164069483Y-85821800D01*
X163900956Y-85930244D01*
X163858981Y-85970014D01*
X163749525Y-86140293D01*
X162965017Y-86140293D01*
X162965017Y-85232686D01*
X163687976Y-85232686D01*
X163747916Y-85424358D01*
X163758768Y-85412373D01*
X163912030Y-85290984D01*
X164093419Y-85202400D01*
X164231089Y-85157535D01*
X164436047Y-85120555D01*
X164645408Y-85109588D01*
X164685208Y-85110267D01*
G37*
G36*
X161453642Y-85232686D02*
G01*
X161381346Y-85904842D01*
X161397955Y-85804214D01*
X161289816Y-85625257D01*
X161151758Y-85471357D01*
X161106817Y-85431988D01*
X160945812Y-85310386D01*
X160774551Y-85209979D01*
X160740453Y-85193607D01*
X160554158Y-85123454D01*
X160462016Y-85109588D01*
X160502072Y-85893119D01*
X160711595Y-85891928D01*
X160908745Y-85948348D01*
X160971995Y-85983000D01*
X161126616Y-86105858D01*
X161254100Y-86271108D01*
X161274856Y-86308332D01*
X161351292Y-86499585D01*
X161380930Y-86695991D01*
X161381346Y-86722568D01*
X161381346Y-87680000D01*
X162159016Y-87680000D01*
X162159016Y-85232686D01*
X161453642Y-85232686D01*
G37*
G36*
X159134392Y-85125712D02*
G01*
X159335252Y-85180694D01*
X159528032Y-85274696D01*
X159561813Y-85295873D01*
X159718358Y-85417899D01*
X159854294Y-85566829D01*
X159969623Y-85742665D01*
X160026730Y-85859822D01*
X160090237Y-86050368D01*
X160127159Y-86258689D01*
X160137662Y-86458785D01*
X160133702Y-86593271D01*
X160110896Y-86792574D01*
X160061008Y-86993433D01*
X159975484Y-87187606D01*
X159862866Y-87351497D01*
X159712979Y-87498497D01*
X159535847Y-87610635D01*
X159518444Y-87619049D01*
X159318822Y-87693982D01*
X159124325Y-87734053D01*
X158917424Y-87747411D01*
X158737345Y-87735069D01*
X158539337Y-87682930D01*
X158444254Y-87640436D01*
X158270669Y-87531500D01*
X158250625Y-87515394D01*
X158105561Y-87380069D01*
X158099699Y-87374461D01*
X158099699Y-87680000D01*
X157315191Y-87680000D01*
X157315191Y-86140293D01*
X158099699Y-86140293D01*
X158099699Y-86739176D01*
X158123570Y-86783861D01*
X158245268Y-86943363D01*
X158272216Y-86967749D01*
X158441639Y-87066461D01*
X158491722Y-87082831D01*
X158692721Y-87108471D01*
X158829823Y-87093799D01*
X159015122Y-87019567D01*
X159133839Y-86928205D01*
X159253503Y-86773370D01*
X159317316Y-86617322D01*
X159342407Y-86419706D01*
X159326325Y-86257151D01*
X159258387Y-86072882D01*
X159187130Y-85968376D01*
X159031730Y-85834501D01*
X158921180Y-85781515D01*
X158721053Y-85747550D01*
X158638115Y-85751337D01*
X158446524Y-85795422D01*
X158401565Y-85814747D01*
X158234521Y-85930244D01*
X158197349Y-85970014D01*
X158099699Y-86140293D01*
X157315191Y-86140293D01*
X157315191Y-85232686D01*
X158043035Y-85232686D01*
X158094366Y-85483868D01*
X158232081Y-85348208D01*
X158393768Y-85229755D01*
X158543508Y-85161340D01*
X158734807Y-85121323D01*
X158944780Y-85109588D01*
X159134392Y-85125712D01*
G37*
G36*
X154970338Y-85116243D02*
G01*
X155177425Y-85151185D01*
X155364180Y-85216078D01*
X155450893Y-85257969D01*
X155627933Y-85362166D01*
X155771264Y-85470481D01*
X155839965Y-85176999D01*
X156512121Y-85176999D01*
X156512121Y-88856273D01*
X155734452Y-88856273D01*
X155734452Y-87453675D01*
X155587654Y-87574845D01*
X155406189Y-87666322D01*
X155379903Y-87676141D01*
X155180807Y-87729593D01*
X154978276Y-87747411D01*
X154881510Y-87745044D01*
X154674168Y-87722419D01*
X154481200Y-87675836D01*
X154283649Y-87595980D01*
X154246299Y-87576505D01*
X154074776Y-87462761D01*
X153928631Y-87321730D01*
X153807864Y-87153412D01*
X153748765Y-87039908D01*
X153683043Y-86853423D01*
X153644832Y-86647463D01*
X153634549Y-86458785D01*
X154429218Y-86458785D01*
X154448105Y-86622569D01*
X154527892Y-86809518D01*
X154625158Y-86930453D01*
X154784836Y-87046922D01*
X154930160Y-87104357D01*
X155134591Y-87130942D01*
X155203651Y-87128011D01*
X155395443Y-87084047D01*
X155439235Y-87064618D01*
X155599630Y-86946294D01*
X155629763Y-86911627D01*
X155728590Y-86739176D01*
X155728590Y-86140293D01*
X155697929Y-86088447D01*
X155569344Y-85936106D01*
X155533577Y-85906739D01*
X155356364Y-85812030D01*
X155277214Y-85789877D01*
X155078904Y-85770020D01*
X154938168Y-85784371D01*
X154751618Y-85856971D01*
X154641121Y-85938744D01*
X154516168Y-86098283D01*
X154453758Y-86253887D01*
X154429218Y-86458785D01*
X153634549Y-86458785D01*
X153633963Y-86448039D01*
X153636375Y-86344907D01*
X153659439Y-86126703D01*
X153706923Y-85927664D01*
X153788325Y-85728988D01*
X153895543Y-85555270D01*
X154039711Y-85395917D01*
X154211353Y-85269811D01*
X154228216Y-85259954D01*
X154423020Y-85172175D01*
X154614942Y-85125235D01*
X154820983Y-85109588D01*
X154970338Y-85116243D01*
G37*
G36*
X153018471Y-87680000D02*
G01*
X153018471Y-83261158D01*
X152251549Y-83261158D01*
X152251549Y-85726057D01*
X152257411Y-85630314D01*
X152135055Y-85458123D01*
X151990914Y-85324652D01*
X151893000Y-85258087D01*
X151701575Y-85171168D01*
X151500033Y-85126732D01*
X151316587Y-85115450D01*
X151110564Y-85135390D01*
X150910166Y-85203386D01*
X150737243Y-85319637D01*
X150604169Y-85474330D01*
X150524660Y-85657653D01*
X150498862Y-85849155D01*
X150498862Y-87680000D01*
X151282393Y-87680000D01*
X151282393Y-86140293D01*
X151326010Y-85946894D01*
X151369344Y-85879441D01*
X151552526Y-85787850D01*
X151640942Y-85781744D01*
X151838566Y-85823419D01*
X151955526Y-85899958D01*
X152086937Y-86058433D01*
X152162644Y-86218450D01*
X152214536Y-86420867D01*
X152233811Y-86618520D01*
X152234940Y-86683489D01*
X152234940Y-87680000D01*
X153018471Y-87680000D01*
G37*
G36*
X148489232Y-87747411D02*
G01*
X148704471Y-87736908D01*
X148902735Y-87705401D01*
X149105492Y-87644848D01*
X149248339Y-87579371D01*
X149428010Y-87461753D01*
X149578677Y-87318948D01*
X149700341Y-87150954D01*
X149721193Y-87114333D01*
X149806716Y-86920026D01*
X149856604Y-86730304D01*
X149880836Y-86526517D01*
X149883370Y-86431430D01*
X149868300Y-86229025D01*
X149823092Y-86038367D01*
X149737511Y-85840301D01*
X149692861Y-85765136D01*
X149575575Y-85607656D01*
X149421512Y-85455157D01*
X149261482Y-85338138D01*
X149183859Y-85292281D01*
X148998438Y-85206801D01*
X148801580Y-85149296D01*
X148593285Y-85119767D01*
X148472623Y-85115450D01*
X148251217Y-85130082D01*
X148047763Y-85173980D01*
X147862260Y-85247143D01*
X147694710Y-85349572D01*
X147607027Y-85421242D01*
X147470117Y-85567595D01*
X147356021Y-85739940D01*
X147264739Y-85938279D01*
X147204656Y-86128972D01*
X147167390Y-86302470D01*
X149071507Y-86907215D01*
X149245408Y-86481256D01*
X147867878Y-86017194D01*
X148030055Y-86089490D01*
X148119334Y-85914419D01*
X148190279Y-85835478D01*
X148366658Y-85744115D01*
X148534173Y-85726057D01*
X148734299Y-85757732D01*
X148838988Y-85807145D01*
X148985588Y-85942606D01*
X149041221Y-86036734D01*
X149099138Y-86231676D01*
X149110586Y-86386489D01*
X149092124Y-86585199D01*
X149026566Y-86770439D01*
X148905094Y-86926407D01*
X148796978Y-87002958D01*
X148612405Y-87068217D01*
X148472623Y-87081116D01*
X148276490Y-87053686D01*
X148223496Y-87036175D01*
X148043977Y-86952827D01*
X147985115Y-86917962D01*
X147638290Y-87501214D01*
X147815431Y-87590252D01*
X148004914Y-87662460D01*
X148061318Y-87680000D01*
X148254782Y-87726081D01*
X148451273Y-87746818D01*
X148489232Y-87747411D01*
G37*
G36*
X145892442Y-85232686D02*
G01*
X145820146Y-85904842D01*
X145836755Y-85804214D01*
X145728616Y-85625257D01*
X145590558Y-85471357D01*
X145545617Y-85431988D01*
X145384611Y-85310386D01*
X145213350Y-85209979D01*
X145179253Y-85193607D01*
X144992958Y-85123454D01*
X144900816Y-85109588D01*
X144940872Y-85893119D01*
X145150395Y-85891928D01*
X145347545Y-85948348D01*
X145410795Y-85983000D01*
X145565416Y-86105858D01*
X145692899Y-86271108D01*
X145713656Y-86308332D01*
X145790092Y-86499585D01*
X145819730Y-86695991D01*
X145820146Y-86722568D01*
X145820146Y-87680000D01*
X146597815Y-87680000D01*
X146597815Y-85232686D01*
X145892442Y-85232686D01*
G37*
G36*
X177591256Y-90278157D02*
G01*
X177591256Y-94400000D01*
X178403119Y-94400000D01*
X178403119Y-92725471D01*
X180245687Y-92725471D01*
X180245687Y-94400000D01*
X181057550Y-94400000D01*
X181057550Y-90278157D01*
X180245687Y-90278157D01*
X180245687Y-91941939D01*
X178403119Y-91941939D01*
X178403119Y-90278157D01*
X177591256Y-90278157D01*
G37*
G36*
X175569335Y-91839624D02*
G01*
X175786904Y-91868174D01*
X175989326Y-91923773D01*
X176176601Y-92006420D01*
X176235073Y-92039410D01*
X176395549Y-92151775D01*
X176547572Y-92300190D01*
X176671926Y-92473412D01*
X176713142Y-92548883D01*
X176792139Y-92748246D01*
X176833870Y-92940725D01*
X176847780Y-93145568D01*
X176843415Y-93272155D01*
X176813560Y-93485585D01*
X176755419Y-93680468D01*
X176668995Y-93856803D01*
X176645994Y-93893383D01*
X176515076Y-94059907D01*
X176357635Y-94199144D01*
X176173670Y-94311095D01*
X176051911Y-94364218D01*
X175857810Y-94423294D01*
X175649952Y-94457641D01*
X175453642Y-94467411D01*
X175296403Y-94461297D01*
X175100215Y-94434125D01*
X174897896Y-94377573D01*
X174715052Y-94293510D01*
X174677022Y-94271284D01*
X174503705Y-94145498D01*
X174358438Y-93995289D01*
X174241221Y-93820655D01*
X174202523Y-93744497D01*
X174128354Y-93543818D01*
X174089173Y-93350643D01*
X174076486Y-93151430D01*
X174865505Y-93151430D01*
X174877598Y-93300253D01*
X174938778Y-93496301D01*
X175001793Y-93602409D01*
X175145896Y-93739567D01*
X175263030Y-93797129D01*
X175464389Y-93828471D01*
X175585747Y-93815969D01*
X175767250Y-93739567D01*
X175866970Y-93656058D01*
X175980230Y-93496301D01*
X176033658Y-93354316D01*
X176058387Y-93151430D01*
X176045488Y-92999457D01*
X175980230Y-92804605D01*
X175913185Y-92699688D01*
X175767250Y-92563293D01*
X175661462Y-92508522D01*
X175464389Y-92473412D01*
X175333047Y-92486051D01*
X175145896Y-92563293D01*
X175053572Y-92639360D01*
X174938778Y-92804605D01*
X174886185Y-92955745D01*
X174865505Y-93151430D01*
X174076486Y-93151430D01*
X174076113Y-93145568D01*
X174077564Y-93075913D01*
X174099331Y-92875191D01*
X174154152Y-92666669D01*
X174241221Y-92473412D01*
X174262420Y-92436783D01*
X174385248Y-92268523D01*
X174536125Y-92125068D01*
X174715052Y-92006420D01*
X174834372Y-91948317D01*
X175028036Y-91883702D01*
X175239319Y-91846135D01*
X175441919Y-91835450D01*
X175569335Y-91839624D01*
G37*
G36*
X173460621Y-94400000D02*
G01*
X172677090Y-94400000D01*
X172677090Y-94151051D01*
X172544992Y-94260896D01*
X172371297Y-94363852D01*
X172245417Y-94413912D01*
X172053534Y-94455174D01*
X171853503Y-94467411D01*
X171811668Y-94466777D01*
X171607764Y-94444604D01*
X171412637Y-94390756D01*
X171226287Y-94305233D01*
X171190345Y-94284297D01*
X171024146Y-94163359D01*
X170880462Y-94015325D01*
X170759295Y-93840195D01*
X170699199Y-93722706D01*
X170632370Y-93531791D01*
X170593515Y-93323255D01*
X170582463Y-93123098D01*
X170582607Y-93117236D01*
X171377718Y-93117236D01*
X171394921Y-93281581D01*
X171467599Y-93470900D01*
X171549669Y-93586942D01*
X171705003Y-93717096D01*
X171829851Y-93774659D01*
X172027404Y-93806001D01*
X172110342Y-93802678D01*
X172301933Y-93763991D01*
X172347030Y-93746864D01*
X172517843Y-93640893D01*
X172562234Y-93597723D01*
X172677090Y-93436706D01*
X172677090Y-92837822D01*
X172652900Y-92785696D01*
X172534452Y-92627773D01*
X172485664Y-92586802D01*
X172310725Y-92493928D01*
X172226385Y-92468684D01*
X172027404Y-92446057D01*
X171890301Y-92460407D01*
X171705003Y-92533007D01*
X171594183Y-92613664D01*
X171467599Y-92770411D01*
X171403084Y-92922037D01*
X171377718Y-93117236D01*
X170582607Y-93117236D01*
X170584966Y-93021508D01*
X170608906Y-92807331D01*
X170658193Y-92613092D01*
X170742686Y-92420655D01*
X170852424Y-92253883D01*
X170996717Y-92101289D01*
X171165715Y-91981018D01*
X171335406Y-91901162D01*
X171534629Y-91847481D01*
X171747013Y-91829588D01*
X171897161Y-91834839D01*
X172106584Y-91862408D01*
X172297048Y-91913607D01*
X172326719Y-91924262D01*
X172513691Y-92007397D01*
X172682951Y-92120725D01*
X172682951Y-89981158D01*
X173460621Y-89981158D01*
X173460621Y-94400000D01*
G37*
G36*
X169966971Y-94400000D02*
G01*
X169183440Y-94400000D01*
X169183440Y-94151052D01*
X169051343Y-94260896D01*
X168877648Y-94363852D01*
X168751767Y-94413912D01*
X168559884Y-94455174D01*
X168359853Y-94467411D01*
X168318019Y-94466777D01*
X168114114Y-94444604D01*
X167918987Y-94390756D01*
X167732637Y-94305233D01*
X167696695Y-94284297D01*
X167530496Y-94163359D01*
X167386812Y-94015325D01*
X167265645Y-93840195D01*
X167205550Y-93722706D01*
X167138720Y-93531791D01*
X167099865Y-93323255D01*
X167088813Y-93123098D01*
X167088957Y-93117236D01*
X167884068Y-93117236D01*
X167901272Y-93281581D01*
X167973949Y-93470900D01*
X168056020Y-93586942D01*
X168211353Y-93717096D01*
X168336201Y-93774659D01*
X168533754Y-93806001D01*
X168616692Y-93802678D01*
X168808283Y-93763991D01*
X168853380Y-93746864D01*
X169024193Y-93640893D01*
X169068585Y-93597723D01*
X169183440Y-93436706D01*
X169183440Y-92837822D01*
X169159250Y-92785696D01*
X169040802Y-92627773D01*
X168992015Y-92586802D01*
X168817076Y-92493928D01*
X168732735Y-92468684D01*
X168533754Y-92446057D01*
X168396652Y-92460407D01*
X168211353Y-92533007D01*
X168100533Y-92613664D01*
X167973949Y-92770411D01*
X167909435Y-92922037D01*
X167884068Y-93117236D01*
X167088957Y-93117236D01*
X167091317Y-93021508D01*
X167115256Y-92807331D01*
X167164544Y-92613092D01*
X167249036Y-92420655D01*
X167358774Y-92253883D01*
X167503067Y-92101289D01*
X167672065Y-91981018D01*
X167841757Y-91901162D01*
X168040980Y-91847481D01*
X168253363Y-91829588D01*
X168403511Y-91834839D01*
X168612934Y-91862408D01*
X168803398Y-91913607D01*
X168833070Y-91924262D01*
X169020041Y-92007397D01*
X169189302Y-92120725D01*
X169189302Y-89981158D01*
X169966971Y-89981158D01*
X169966971Y-94400000D01*
G37*
G36*
X166277927Y-95576273D02*
G01*
X164648339Y-91952686D01*
X163941988Y-91952686D01*
X165521751Y-95576273D01*
X166277927Y-95576273D01*
G37*
G36*
X165622379Y-94410746D02*
G01*
X166821123Y-91952686D01*
X165941849Y-91952686D01*
X165017634Y-94018981D01*
X165622379Y-94410746D01*
G37*
G36*
X161537662Y-94400000D02*
G01*
X160725799Y-94400000D01*
X160725799Y-93094766D01*
X160143524Y-93094766D01*
X160068986Y-93093658D01*
X159858767Y-93077043D01*
X159648756Y-93035197D01*
X159463551Y-92968736D01*
X159331844Y-92900654D01*
X159160614Y-92779525D01*
X159020983Y-92635589D01*
X158953050Y-92542731D01*
X158849708Y-92358374D01*
X158780648Y-92174459D01*
X158754751Y-92078941D01*
X158717021Y-91872692D01*
X158705822Y-91689881D01*
X159516308Y-91689881D01*
X159547571Y-91874528D01*
X159555768Y-91901014D01*
X159648199Y-92078715D01*
X159681498Y-92119868D01*
X159841639Y-92240893D01*
X159951815Y-92282641D01*
X160149385Y-92305373D01*
X160725799Y-92305373D01*
X160725799Y-91062665D01*
X160143524Y-91062665D01*
X159996016Y-91072969D01*
X159804515Y-91135938D01*
X159752462Y-91169204D01*
X159616936Y-91314724D01*
X159605765Y-91334665D01*
X159535847Y-91524773D01*
X159516308Y-91689881D01*
X158705822Y-91689881D01*
X158704445Y-91667411D01*
X158710936Y-91511729D01*
X158739787Y-91316762D01*
X158799834Y-91114649D01*
X158889092Y-90930774D01*
X158950921Y-90837098D01*
X159083010Y-90685673D01*
X159241837Y-90556349D01*
X159427404Y-90449127D01*
X159472100Y-90428424D01*
X159663098Y-90358967D01*
X159873635Y-90310882D01*
X160073884Y-90286338D01*
X160289092Y-90278157D01*
X161537662Y-90278157D01*
X161537662Y-94400000D01*
G37*
G36*
X154886441Y-94058060D02*
G01*
X155052404Y-94165038D01*
X155136545Y-94210467D01*
X155324937Y-94294588D01*
X155517381Y-94359852D01*
X155582044Y-94378506D01*
X155786979Y-94421737D01*
X155988595Y-94442055D01*
X156163342Y-94444940D01*
X156371672Y-94432471D01*
X156570090Y-94405323D01*
X156784719Y-94356322D01*
X156986402Y-94288148D01*
X157034801Y-94268108D01*
X157219021Y-94178044D01*
X157388709Y-94072958D01*
X157543864Y-93952852D01*
X157684487Y-93817725D01*
X157823994Y-93650611D01*
X157943563Y-93470205D01*
X158043194Y-93276507D01*
X158089930Y-93163154D01*
X158151051Y-92974904D01*
X158194710Y-92780425D01*
X158220905Y-92579719D01*
X158229637Y-92372784D01*
X158222811Y-92170932D01*
X158202335Y-91976561D01*
X158162218Y-91763581D01*
X158104271Y-91560371D01*
X158086999Y-91511095D01*
X158007986Y-91321441D01*
X157913586Y-91145219D01*
X157803799Y-90982431D01*
X157678625Y-90833077D01*
X157520956Y-90682338D01*
X157346905Y-90552156D01*
X157156470Y-90442530D01*
X157043593Y-90390509D01*
X156853572Y-90321693D01*
X156653782Y-90272540D01*
X156444221Y-90243047D01*
X156224891Y-90233217D01*
X156023757Y-90240239D01*
X155811787Y-90264925D01*
X155614964Y-90307386D01*
X155492163Y-90345568D01*
X155303943Y-90417410D01*
X155123348Y-90500183D01*
X154970460Y-90586880D01*
X155289930Y-91353803D01*
X155452840Y-91245359D01*
X155633453Y-91147265D01*
X155662156Y-91133007D01*
X155846437Y-91062757D01*
X156050502Y-91024930D01*
X156197536Y-91017725D01*
X156399147Y-91036424D01*
X156593652Y-91092524D01*
X156647920Y-91115422D01*
X156827118Y-91216615D01*
X156986868Y-91349223D01*
X157028939Y-91392882D01*
X157151641Y-91547981D01*
X157251448Y-91722751D01*
X157289790Y-91810048D01*
X157351148Y-92010505D01*
X157380022Y-92207563D01*
X157384556Y-92327843D01*
X157374282Y-92526027D01*
X157339638Y-92728535D01*
X157297606Y-92871039D01*
X157214543Y-93059626D01*
X157106650Y-93225317D01*
X157048478Y-93294068D01*
X156894231Y-93432607D01*
X156715300Y-93540478D01*
X156659644Y-93565666D01*
X156465178Y-93627023D01*
X156268783Y-93655897D01*
X156146734Y-93660432D01*
X155949603Y-93650128D01*
X155754137Y-93614992D01*
X155581067Y-93554919D01*
X155396553Y-93459497D01*
X155230322Y-93337593D01*
X155222519Y-93330216D01*
X154886441Y-94058060D01*
G37*
G36*
X154077508Y-94400000D02*
G01*
X152705840Y-94400000D01*
X152569675Y-94395969D01*
X152369549Y-94374812D01*
X152174368Y-94335519D01*
X152079537Y-94308592D01*
X151887031Y-94231396D01*
X151712260Y-94128401D01*
X151638312Y-94071752D01*
X151498593Y-93927332D01*
X151386929Y-93753244D01*
X151318513Y-93581151D01*
X151278497Y-93384583D01*
X151266762Y-93184647D01*
X152106957Y-93184647D01*
X152112208Y-93259935D01*
X152190976Y-93445498D01*
X152243106Y-93499345D01*
X152420565Y-93596929D01*
X152544321Y-93627291D01*
X152744919Y-93643824D01*
X153265645Y-93643824D01*
X153265645Y-92747941D01*
X152801584Y-92747941D01*
X152662708Y-92754068D01*
X152468436Y-92785066D01*
X152383025Y-92809881D01*
X152207585Y-92914026D01*
X152150294Y-92987437D01*
X152106957Y-93184647D01*
X151266762Y-93184647D01*
X151267658Y-93139619D01*
X151299047Y-92926498D01*
X151375278Y-92733412D01*
X151496350Y-92560362D01*
X151588250Y-92466802D01*
X151747867Y-92342433D01*
X151933606Y-92237229D01*
X151956301Y-92227833D01*
X151937849Y-92218117D01*
X151781114Y-92096530D01*
X151650711Y-91949755D01*
X151617189Y-91900846D01*
X151529262Y-91721938D01*
X151477971Y-91518606D01*
X151475718Y-91487648D01*
X152302351Y-91487648D01*
X152324417Y-91642402D01*
X152417634Y-91818841D01*
X152574928Y-91932425D01*
X152773251Y-91964410D01*
X153265645Y-91964410D01*
X153265645Y-91062665D01*
X152828939Y-91062665D01*
X152625091Y-91086064D01*
X152445966Y-91169155D01*
X152342883Y-91292173D01*
X152302351Y-91487648D01*
X151475718Y-91487648D01*
X151463133Y-91314724D01*
X151463505Y-91282734D01*
X151486946Y-91072801D01*
X151558387Y-90862875D01*
X151677456Y-90684944D01*
X151844152Y-90539009D01*
X152023042Y-90437368D01*
X152227178Y-90360692D01*
X152422244Y-90314839D01*
X152635857Y-90287328D01*
X152868018Y-90278157D01*
X154077508Y-90278157D01*
X154077508Y-94400000D01*
G37*
G36*
X148637732Y-94400000D02*
G01*
X147204515Y-94400000D01*
X146997274Y-94391451D01*
X146795652Y-94365806D01*
X146599647Y-94323063D01*
X146409260Y-94263224D01*
X146294218Y-94217194D01*
X146098201Y-94119315D01*
X145916404Y-94002115D01*
X145748827Y-93865596D01*
X145645741Y-93764067D01*
X145507084Y-93597864D01*
X145387592Y-93414968D01*
X145297466Y-93238381D01*
X145287308Y-93215332D01*
X145217653Y-93024487D01*
X145168637Y-92822162D01*
X145140259Y-92608358D01*
X145132358Y-92411863D01*
X145134025Y-92356175D01*
X145972554Y-92356175D01*
X145978721Y-92505713D01*
X146011098Y-92713762D01*
X146071228Y-92902302D01*
X146103809Y-92974535D01*
X146207721Y-93144034D01*
X146350642Y-93296999D01*
X146421258Y-93353007D01*
X146591228Y-93456447D01*
X146784417Y-93535380D01*
X146930605Y-93574578D01*
X147139226Y-93606887D01*
X147344221Y-93616468D01*
X147825868Y-93616468D01*
X147825868Y-91056803D01*
X147165436Y-91056803D01*
X147020936Y-91068610D01*
X146824473Y-91110537D01*
X146786631Y-91121193D01*
X146599742Y-91197400D01*
X146428799Y-91303000D01*
X146347161Y-91369638D01*
X146211423Y-91522666D01*
X146104445Y-91697697D01*
X146088474Y-91730150D01*
X146019050Y-91929384D01*
X145982986Y-92140959D01*
X145972554Y-92356175D01*
X145134025Y-92356175D01*
X145136686Y-92267321D01*
X145159406Y-92051151D01*
X145201601Y-91835755D01*
X145255457Y-91644940D01*
X145325982Y-91459010D01*
X145414459Y-91282240D01*
X145520887Y-91114628D01*
X145645268Y-90956175D01*
X145662044Y-90937061D01*
X145808269Y-90792806D01*
X145975865Y-90663937D01*
X146164833Y-90550456D01*
X146347711Y-90463782D01*
X146547605Y-90391453D01*
X146765171Y-90336890D01*
X146965721Y-90304261D01*
X147179254Y-90284683D01*
X147405771Y-90278157D01*
X148637732Y-90278157D01*
X148637732Y-94400000D01*
G37*
G36*
X143248757Y-94467411D02*
G01*
X143463996Y-94456908D01*
X143662260Y-94425401D01*
X143865017Y-94364848D01*
X144007864Y-94299371D01*
X144187535Y-94181753D01*
X144338203Y-94038948D01*
X144459866Y-93870954D01*
X144480718Y-93834333D01*
X144566241Y-93640026D01*
X144616130Y-93450304D01*
X144640362Y-93246517D01*
X144642896Y-93151430D01*
X144627826Y-92949025D01*
X144582617Y-92758367D01*
X144497037Y-92560301D01*
X144452386Y-92485136D01*
X144335101Y-92327656D01*
X144181037Y-92175157D01*
X144021007Y-92058138D01*
X143943384Y-92012281D01*
X143757964Y-91926801D01*
X143561106Y-91869296D01*
X143352811Y-91839767D01*
X143232149Y-91835450D01*
X143010743Y-91850082D01*
X142807288Y-91893980D01*
X142621786Y-91967143D01*
X142454235Y-92069572D01*
X142366552Y-92141242D01*
X142229643Y-92287595D01*
X142115547Y-92459940D01*
X142024265Y-92658279D01*
X141964181Y-92848972D01*
X141926915Y-93022470D01*
X143831032Y-93627215D01*
X144004933Y-93201256D01*
X142627404Y-92737194D01*
X142789581Y-92809490D01*
X142878859Y-92634419D01*
X142949804Y-92555478D01*
X143126184Y-92464115D01*
X143293698Y-92446057D01*
X143493825Y-92477732D01*
X143598513Y-92527145D01*
X143745113Y-92662606D01*
X143800746Y-92756734D01*
X143858663Y-92951676D01*
X143870111Y-93106489D01*
X143851650Y-93305199D01*
X143786092Y-93490439D01*
X143664620Y-93646407D01*
X143556503Y-93722958D01*
X143371930Y-93788217D01*
X143232149Y-93801116D01*
X143036015Y-93773686D01*
X142983021Y-93756175D01*
X142803503Y-93672827D01*
X142744640Y-93637962D01*
X142397815Y-94221214D01*
X142574956Y-94310252D01*
X142764439Y-94382460D01*
X142820844Y-94400000D01*
X143014307Y-94446081D01*
X143210799Y-94466818D01*
X143248757Y-94467411D01*
G37*
G36*
X140562086Y-94450802D02*
G01*
X140765339Y-94438219D01*
X140958664Y-94400469D01*
X141125799Y-94344312D01*
X141309301Y-94252629D01*
X141469998Y-94137316D01*
X141564459Y-94047313D01*
X141240104Y-93616468D01*
X141087861Y-93740796D01*
X140916569Y-93844502D01*
X140906957Y-93848988D01*
X140717821Y-93910156D01*
X140629497Y-93918353D01*
X140459504Y-93898813D01*
X140338360Y-93837264D01*
X140293419Y-93727843D01*
X140369623Y-93577390D01*
X140548454Y-93489176D01*
X140563063Y-93484577D01*
X140756382Y-93425711D01*
X140814145Y-93408374D01*
X141005875Y-93332792D01*
X141174464Y-93227392D01*
X141298722Y-93098674D01*
X141394870Y-92926173D01*
X141443597Y-92727421D01*
X141447222Y-92653175D01*
X141419649Y-92455397D01*
X141349525Y-92279972D01*
X141231473Y-92117641D01*
X141075195Y-91990535D01*
X141035917Y-91966364D01*
X140839690Y-91884765D01*
X140641160Y-91848211D01*
X140478066Y-91840334D01*
X140277689Y-91847723D01*
X140069754Y-91875505D01*
X139957341Y-91902861D01*
X139762824Y-91977736D01*
X139590572Y-92078609D01*
X139554829Y-92104117D01*
X139850851Y-92563293D01*
X140017052Y-92455638D01*
X140089232Y-92420655D01*
X140282790Y-92361264D01*
X140332498Y-92356175D01*
X140504445Y-92378646D01*
X140612889Y-92450942D01*
X140651967Y-92546685D01*
X140570879Y-92714724D01*
X140390765Y-92798418D01*
X140350083Y-92809490D01*
X140159305Y-92863296D01*
X140086301Y-92887648D01*
X139900932Y-92963760D01*
X139778555Y-93040055D01*
X139634960Y-93180424D01*
X139580230Y-93266713D01*
X139518200Y-93461679D01*
X139509888Y-93582274D01*
X139535219Y-93786651D01*
X139611210Y-93980295D01*
X139625170Y-94005303D01*
X139747815Y-94164626D01*
X139902219Y-94287117D01*
X139971995Y-94327704D01*
X140163512Y-94402717D01*
X140370449Y-94441065D01*
X140562086Y-94450802D01*
G37*
G36*
X138856294Y-91952686D02*
G01*
X138072763Y-91952686D01*
X138072763Y-94400000D01*
X138856294Y-94400000D01*
X138856294Y-91952686D01*
G37*
G36*
X138873879Y-91097836D02*
G01*
X138820451Y-90904884D01*
X138737103Y-90812561D01*
X138557280Y-90716008D01*
X138442058Y-90700209D01*
X138247413Y-90748595D01*
X138153852Y-90812561D01*
X138040508Y-90976203D01*
X138021960Y-91097836D01*
X138073480Y-91290025D01*
X138153852Y-91381158D01*
X138328256Y-91474352D01*
X138442058Y-91489602D01*
X138640089Y-91442899D01*
X138737103Y-91381158D01*
X138854645Y-91219194D01*
X138873879Y-91097836D01*
G37*
G36*
X136247525Y-91830267D02*
G01*
X136442518Y-91854043D01*
X136630833Y-91911783D01*
X136812470Y-92003489D01*
X136847717Y-92025600D01*
X137011589Y-92151042D01*
X137154853Y-92301289D01*
X137277508Y-92476343D01*
X137329014Y-92572170D01*
X137399725Y-92755238D01*
X137442152Y-92951907D01*
X137456294Y-93162177D01*
X137454817Y-93231806D01*
X137432663Y-93432141D01*
X137376869Y-93639691D01*
X137288255Y-93831402D01*
X137266804Y-93867680D01*
X137146151Y-94034643D01*
X137003174Y-94177563D01*
X136837871Y-94296441D01*
X136802273Y-94317144D01*
X136618785Y-94400625D01*
X136426139Y-94450714D01*
X136224333Y-94467411D01*
X136177278Y-94466853D01*
X135979699Y-94450556D01*
X135787358Y-94405982D01*
X135608841Y-94324773D01*
X135552253Y-94288152D01*
X135399759Y-94159223D01*
X135311842Y-94032471D01*
X135311842Y-94389253D01*
X135325580Y-94519083D01*
X135409539Y-94696999D01*
X135491605Y-94781079D01*
X135667459Y-94884577D01*
X135811662Y-94928656D01*
X136011353Y-94949057D01*
X136079741Y-94947348D01*
X136278387Y-94918176D01*
X136462714Y-94839637D01*
X136604085Y-94742397D01*
X136761667Y-94612979D01*
X137220844Y-95150314D01*
X137106775Y-95240607D01*
X136941430Y-95363293D01*
X136921498Y-95377204D01*
X136742529Y-95478870D01*
X136557480Y-95553803D01*
X136405706Y-95595019D01*
X136196879Y-95624328D01*
X136000607Y-95631960D01*
X135876234Y-95628049D01*
X135661017Y-95601293D01*
X135456930Y-95549189D01*
X135263970Y-95471737D01*
X135202664Y-95440839D01*
X135032657Y-95335679D01*
X134868232Y-95196899D01*
X134729567Y-95035031D01*
X134693426Y-94982469D01*
X134598629Y-94796845D01*
X134543331Y-94595192D01*
X134527334Y-94400000D01*
X134527334Y-92860293D01*
X135311842Y-92860293D01*
X135311842Y-93459176D01*
X135342783Y-93511021D01*
X135476950Y-93663363D01*
X135521048Y-93696969D01*
X135700676Y-93786461D01*
X135791593Y-93810379D01*
X135988883Y-93828471D01*
X136148660Y-93811454D01*
X136333754Y-93739567D01*
X136456478Y-93648205D01*
X136577997Y-93493370D01*
X136641810Y-93337322D01*
X136666901Y-93139706D01*
X136649884Y-92977151D01*
X136577997Y-92792882D01*
X136494326Y-92680486D01*
X136333754Y-92554501D01*
X136191769Y-92495062D01*
X135988883Y-92467550D01*
X135890575Y-92472225D01*
X135695792Y-92515422D01*
X135631800Y-92541800D01*
X135463272Y-92650244D01*
X135421298Y-92690014D01*
X135311842Y-92860293D01*
X134527334Y-92860293D01*
X134527334Y-91952686D01*
X135250293Y-91952686D01*
X135310233Y-92144358D01*
X135321085Y-92132373D01*
X135474347Y-92010984D01*
X135655736Y-91922400D01*
X135793406Y-91877535D01*
X135998364Y-91840555D01*
X136207725Y-91829588D01*
X136247525Y-91830267D01*
G37*
G36*
X133010097Y-91952686D02*
G01*
X132948548Y-92389392D01*
X132960272Y-92350314D01*
X132837916Y-92178123D01*
X132693775Y-92044652D01*
X132595861Y-91978087D01*
X132404436Y-91891168D01*
X132202894Y-91846732D01*
X132019448Y-91835450D01*
X131813426Y-91855390D01*
X131613027Y-91923386D01*
X131440104Y-92039637D01*
X131307030Y-92194330D01*
X131227521Y-92377653D01*
X131201723Y-92569155D01*
X131201723Y-94400000D01*
X131985254Y-94400000D01*
X131985254Y-92860293D01*
X132028871Y-92666894D01*
X132072205Y-92599441D01*
X132255387Y-92507850D01*
X132343803Y-92501744D01*
X132541428Y-92543419D01*
X132658387Y-92619958D01*
X132789798Y-92778433D01*
X132865505Y-92938450D01*
X132917397Y-93140867D01*
X132936672Y-93338520D01*
X132937801Y-93403489D01*
X132937801Y-94400000D01*
X133721332Y-94400000D01*
X133721332Y-91952686D01*
X133010097Y-91952686D01*
G37*
G36*
X129192093Y-94467411D02*
G01*
X129407332Y-94456908D01*
X129605596Y-94425401D01*
X129808353Y-94364848D01*
X129951200Y-94299371D01*
X130130871Y-94181753D01*
X130281538Y-94038948D01*
X130403202Y-93870954D01*
X130424054Y-93834333D01*
X130509577Y-93640026D01*
X130559466Y-93450304D01*
X130583697Y-93246517D01*
X130586231Y-93151430D01*
X130571162Y-92949025D01*
X130525953Y-92758367D01*
X130440372Y-92560301D01*
X130395722Y-92485136D01*
X130278437Y-92327656D01*
X130124373Y-92175157D01*
X129964343Y-92058138D01*
X129886720Y-92012281D01*
X129701299Y-91926801D01*
X129504441Y-91869296D01*
X129296146Y-91839767D01*
X129175484Y-91835450D01*
X128954078Y-91850082D01*
X128750624Y-91893980D01*
X128565122Y-91967143D01*
X128397571Y-92069572D01*
X128309888Y-92141242D01*
X128172978Y-92287595D01*
X128058883Y-92459940D01*
X127967601Y-92658279D01*
X127907517Y-92848972D01*
X127870251Y-93022470D01*
X129774368Y-93627215D01*
X129948269Y-93201256D01*
X128570739Y-92737194D01*
X128732916Y-92809490D01*
X128822195Y-92634419D01*
X128893140Y-92555478D01*
X129069519Y-92464115D01*
X129237034Y-92446057D01*
X129437160Y-92477732D01*
X129541849Y-92527145D01*
X129688449Y-92662606D01*
X129744082Y-92756734D01*
X129801999Y-92951676D01*
X129813447Y-93106489D01*
X129794985Y-93305199D01*
X129729427Y-93490439D01*
X129607956Y-93646407D01*
X129499839Y-93722958D01*
X129315266Y-93788217D01*
X129175484Y-93801116D01*
X128979351Y-93773686D01*
X128926357Y-93756175D01*
X128746838Y-93672827D01*
X128687976Y-93637962D01*
X128341151Y-94221214D01*
X128518292Y-94310252D01*
X128707775Y-94382460D01*
X128764180Y-94400000D01*
X128957643Y-94446081D01*
X129154134Y-94466818D01*
X129192093Y-94467411D01*
G37*
G36*
X126595303Y-91952686D02*
G01*
X126523007Y-92624842D01*
X126539616Y-92524214D01*
X126431477Y-92345257D01*
X126293419Y-92191357D01*
X126248478Y-92151988D01*
X126087473Y-92030386D01*
X125916212Y-91929979D01*
X125882114Y-91913607D01*
X125695819Y-91843454D01*
X125603677Y-91829588D01*
X125643733Y-92613119D01*
X125853256Y-92611928D01*
X126050406Y-92668348D01*
X126113656Y-92703000D01*
X126268277Y-92825858D01*
X126395760Y-92991108D01*
X126416517Y-93028332D01*
X126492953Y-93219585D01*
X126522591Y-93415991D01*
X126523007Y-93442568D01*
X126523007Y-94400000D01*
X127300676Y-94400000D01*
X127300676Y-91952686D01*
X126595303Y-91952686D01*
G37*
G36*
X181186510Y-101120000D02*
G01*
X181186510Y-96701158D01*
X180419588Y-96701158D01*
X180419588Y-99166057D01*
X180425450Y-99070314D01*
X180303094Y-98898123D01*
X180158953Y-98764652D01*
X180061039Y-98698087D01*
X179869614Y-98611168D01*
X179668072Y-98566732D01*
X179484626Y-98555450D01*
X179278603Y-98575390D01*
X179078205Y-98643386D01*
X178905282Y-98759637D01*
X178772208Y-98914330D01*
X178692699Y-99097653D01*
X178666901Y-99289155D01*
X178666901Y-101120000D01*
X179450432Y-101120000D01*
X179450432Y-99580293D01*
X179494049Y-99386894D01*
X179537383Y-99319441D01*
X179720565Y-99227850D01*
X179808981Y-99221744D01*
X180006606Y-99263419D01*
X180123565Y-99339958D01*
X180254976Y-99498433D01*
X180330683Y-99658450D01*
X180382575Y-99860867D01*
X180401850Y-100058520D01*
X180402979Y-100123489D01*
X180402979Y-101120000D01*
X181186510Y-101120000D01*
G37*
G36*
X177631311Y-97598018D02*
G01*
X176847780Y-97598018D01*
X176847780Y-98661939D01*
X176253782Y-98661939D01*
X176253782Y-99271570D01*
X176847780Y-99271570D01*
X176847780Y-101120000D01*
X177631311Y-101120000D01*
X177631311Y-99271570D01*
X178012330Y-99271570D01*
X178012330Y-98661939D01*
X177631311Y-98661939D01*
X177631311Y-97598018D01*
G37*
G36*
X175427264Y-97598018D02*
G01*
X174643733Y-97598018D01*
X174643733Y-98661939D01*
X174049734Y-98661939D01*
X174049734Y-99271570D01*
X174643733Y-99271570D01*
X174643733Y-101120000D01*
X175427264Y-101120000D01*
X175427264Y-99271570D01*
X175808283Y-99271570D01*
X175808283Y-98661939D01*
X175427264Y-98661939D01*
X175427264Y-97598018D01*
G37*
G36*
X171911022Y-98556243D02*
G01*
X172118109Y-98591185D01*
X172304863Y-98656078D01*
X172391577Y-98697969D01*
X172568617Y-98802166D01*
X172711948Y-98910481D01*
X172780648Y-98616999D01*
X173452805Y-98616999D01*
X173452805Y-102296273D01*
X172675136Y-102296273D01*
X172675136Y-100893675D01*
X172528338Y-101014845D01*
X172346873Y-101106322D01*
X172320587Y-101116141D01*
X172121490Y-101169593D01*
X171918960Y-101187411D01*
X171822194Y-101185044D01*
X171614852Y-101162419D01*
X171421884Y-101115836D01*
X171224333Y-101035980D01*
X171186983Y-101016505D01*
X171015460Y-100902761D01*
X170869315Y-100761730D01*
X170748548Y-100593412D01*
X170689449Y-100479908D01*
X170623727Y-100293423D01*
X170585516Y-100087463D01*
X170575233Y-99898785D01*
X171369902Y-99898785D01*
X171388789Y-100062569D01*
X171468576Y-100249518D01*
X171565842Y-100370453D01*
X171725519Y-100486922D01*
X171870844Y-100544357D01*
X172075275Y-100570942D01*
X172144335Y-100568011D01*
X172336127Y-100524047D01*
X172379918Y-100504618D01*
X172540314Y-100386294D01*
X172570447Y-100351627D01*
X172669274Y-100179176D01*
X172669274Y-99580293D01*
X172638613Y-99528447D01*
X172510027Y-99376106D01*
X172474261Y-99346739D01*
X172297048Y-99252030D01*
X172217898Y-99229877D01*
X172019588Y-99210020D01*
X171878851Y-99224371D01*
X171692302Y-99296971D01*
X171581804Y-99378744D01*
X171456852Y-99538283D01*
X171394442Y-99693887D01*
X171369902Y-99898785D01*
X170575233Y-99898785D01*
X170574647Y-99888039D01*
X170577059Y-99784907D01*
X170600123Y-99566703D01*
X170647607Y-99367664D01*
X170729009Y-99168988D01*
X170836227Y-98995270D01*
X170980395Y-98835917D01*
X171152037Y-98709811D01*
X171168899Y-98699954D01*
X171363704Y-98612175D01*
X171555626Y-98565235D01*
X171761667Y-98549588D01*
X171911022Y-98556243D01*
G37*
G36*
X169163900Y-101170802D02*
G01*
X169367153Y-101158219D01*
X169560478Y-101120469D01*
X169727613Y-101064312D01*
X169911116Y-100972629D01*
X170071812Y-100857316D01*
X170166273Y-100767313D01*
X169841919Y-100336468D01*
X169689675Y-100460796D01*
X169518384Y-100564502D01*
X169508771Y-100568988D01*
X169319636Y-100630156D01*
X169231311Y-100638353D01*
X169061318Y-100618813D01*
X168940174Y-100557264D01*
X168895233Y-100447843D01*
X168971437Y-100297390D01*
X169150269Y-100209176D01*
X169164877Y-100204577D01*
X169358197Y-100145711D01*
X169415959Y-100128374D01*
X169607690Y-100052792D01*
X169776278Y-99947392D01*
X169900537Y-99818674D01*
X169996685Y-99646173D01*
X170045411Y-99447421D01*
X170049036Y-99373175D01*
X170021464Y-99175397D01*
X169951339Y-98999972D01*
X169833287Y-98837641D01*
X169677010Y-98710535D01*
X169637732Y-98686364D01*
X169441504Y-98604765D01*
X169242974Y-98568211D01*
X169079881Y-98560334D01*
X168879503Y-98567723D01*
X168671568Y-98595505D01*
X168559155Y-98622861D01*
X168364639Y-98697736D01*
X168192386Y-98798609D01*
X168156643Y-98824117D01*
X168452665Y-99283293D01*
X168618867Y-99175638D01*
X168691046Y-99140655D01*
X168884604Y-99081264D01*
X168934312Y-99076175D01*
X169106259Y-99098646D01*
X169214703Y-99170942D01*
X169253782Y-99266685D01*
X169172693Y-99434724D01*
X168992579Y-99518418D01*
X168951898Y-99529490D01*
X168761119Y-99583296D01*
X168688115Y-99607648D01*
X168502746Y-99683760D01*
X168380369Y-99760055D01*
X168236775Y-99900424D01*
X168182044Y-99986713D01*
X168120014Y-100181679D01*
X168111702Y-100302274D01*
X168137033Y-100506651D01*
X168213025Y-100700295D01*
X168226985Y-100725303D01*
X168349629Y-100884626D01*
X168504034Y-101007117D01*
X168573810Y-101047704D01*
X168765327Y-101122717D01*
X168972263Y-101161065D01*
X169163900Y-101170802D01*
G37*
G36*
X167777578Y-99121116D02*
G01*
X167728348Y-98925874D01*
X167651549Y-98829979D01*
X167484090Y-98728389D01*
X167374089Y-98711765D01*
X167180326Y-98772834D01*
X167108353Y-98829979D01*
X167000046Y-98998659D01*
X166982323Y-99121116D01*
X167026754Y-99313865D01*
X167108353Y-99415184D01*
X167279657Y-99510814D01*
X167374089Y-99523628D01*
X167570300Y-99472372D01*
X167651549Y-99415184D01*
X167759855Y-99249023D01*
X167777578Y-99121116D01*
G37*
G36*
X167777578Y-100716510D02*
G01*
X167728348Y-100522108D01*
X167651549Y-100426350D01*
X167484090Y-100324760D01*
X167374089Y-100308136D01*
X167180326Y-100369206D01*
X167108353Y-100426350D01*
X167000046Y-100594648D01*
X166982323Y-100716510D01*
X167026754Y-100909259D01*
X167108353Y-101010579D01*
X167279657Y-101107070D01*
X167374089Y-101120000D01*
X167570300Y-101068281D01*
X167651549Y-101010579D01*
X167759855Y-100844417D01*
X167777578Y-100716510D01*
G37*
G36*
X164469553Y-96914138D02*
G01*
X164544108Y-97116869D01*
X164618663Y-97319497D01*
X164693218Y-97522022D01*
X164767773Y-97724444D01*
X164842329Y-97926763D01*
X164916884Y-98128979D01*
X164991439Y-98331092D01*
X165065994Y-98533101D01*
X165140549Y-98735008D01*
X165215104Y-98936812D01*
X165264808Y-99071290D01*
X165339363Y-99272842D01*
X165413918Y-99474497D01*
X165488473Y-99676255D01*
X165563028Y-99878116D01*
X165637583Y-100080080D01*
X165712138Y-100282147D01*
X165786693Y-100484317D01*
X165861249Y-100686591D01*
X165935804Y-100888967D01*
X166010359Y-101091446D01*
X166060062Y-101226489D01*
X166766413Y-101226489D01*
X166691857Y-101023941D01*
X166617302Y-100821497D01*
X166542747Y-100619155D01*
X166468192Y-100416916D01*
X166393637Y-100214780D01*
X166319082Y-100012747D01*
X166244527Y-99810818D01*
X166169972Y-99608991D01*
X166095416Y-99407268D01*
X166020861Y-99205647D01*
X165971158Y-99071290D01*
X165896603Y-98869555D01*
X165822048Y-98667717D01*
X165747493Y-98465776D01*
X165672937Y-98263732D01*
X165598382Y-98061585D01*
X165523827Y-97859335D01*
X165449272Y-97656981D01*
X165374717Y-97454525D01*
X165300162Y-97251966D01*
X165225607Y-97049303D01*
X165175903Y-96914138D01*
X164469553Y-96914138D01*
G37*
G36*
X162113098Y-96914138D02*
G01*
X162187653Y-97116869D01*
X162262208Y-97319497D01*
X162336763Y-97522022D01*
X162411318Y-97724444D01*
X162485874Y-97926763D01*
X162560429Y-98128979D01*
X162634984Y-98331092D01*
X162709539Y-98533101D01*
X162784094Y-98735008D01*
X162858649Y-98936812D01*
X162908353Y-99071290D01*
X162982908Y-99272842D01*
X163057463Y-99474497D01*
X163132018Y-99676255D01*
X163206573Y-99878116D01*
X163281128Y-100080080D01*
X163355683Y-100282147D01*
X163430239Y-100484317D01*
X163504794Y-100686591D01*
X163579349Y-100888967D01*
X163653904Y-101091446D01*
X163703607Y-101226489D01*
X164409958Y-101226489D01*
X164335403Y-101023941D01*
X164260847Y-100821497D01*
X164186292Y-100619155D01*
X164111737Y-100416916D01*
X164037182Y-100214780D01*
X163962627Y-100012747D01*
X163888072Y-99810818D01*
X163813517Y-99608991D01*
X163738961Y-99407268D01*
X163664406Y-99205647D01*
X163614703Y-99071290D01*
X163540148Y-98869555D01*
X163465593Y-98667717D01*
X163391038Y-98465776D01*
X163316482Y-98263732D01*
X163241927Y-98061585D01*
X163167372Y-97859335D01*
X163092817Y-97656981D01*
X163018262Y-97454525D01*
X162943707Y-97251966D01*
X162869152Y-97049303D01*
X162819448Y-96914138D01*
X162113098Y-96914138D01*
G37*
G36*
X161744780Y-101120000D02*
G01*
X161744780Y-96701158D01*
X160961249Y-96701158D01*
X160961249Y-101120000D01*
X161744780Y-101120000D01*
G37*
G36*
X160339895Y-99457194D02*
G01*
X159231032Y-101120000D01*
X160143524Y-101120000D01*
X160854759Y-99904647D01*
X160339895Y-99457194D01*
G37*
G36*
X161196699Y-100441981D02*
G01*
X161274856Y-99697529D01*
X159796699Y-98611137D01*
X159319937Y-99031235D01*
X161196699Y-100441981D01*
G37*
G36*
X158688813Y-98672686D02*
G01*
X157905282Y-98672686D01*
X157905282Y-101120000D01*
X158688813Y-101120000D01*
X158688813Y-98672686D01*
G37*
G36*
X158706399Y-97817836D02*
G01*
X158652971Y-97624884D01*
X158569623Y-97532561D01*
X158389799Y-97436008D01*
X158274577Y-97420209D01*
X158079932Y-97468595D01*
X157986371Y-97532561D01*
X157873027Y-97696203D01*
X157854480Y-97817836D01*
X157906000Y-98010025D01*
X157986371Y-98101158D01*
X158160775Y-98194352D01*
X158274577Y-98209602D01*
X158472609Y-98162899D01*
X158569623Y-98101158D01*
X158687165Y-97939194D01*
X158706399Y-97817836D01*
G37*
G36*
X156902909Y-102296273D02*
G01*
X155273321Y-98672686D01*
X154566971Y-98672686D01*
X156146734Y-102296273D01*
X156902909Y-102296273D01*
G37*
G36*
X156247362Y-101130746D02*
G01*
X157446106Y-98672686D01*
X156566831Y-98672686D01*
X155642616Y-100738981D01*
X156247362Y-101130746D01*
G37*
G36*
X153134164Y-98559624D02*
G01*
X153351733Y-98588174D01*
X153554155Y-98643773D01*
X153741430Y-98726420D01*
X153799902Y-98759410D01*
X153960379Y-98871775D01*
X154112401Y-99020190D01*
X154236755Y-99193412D01*
X154277971Y-99268883D01*
X154356968Y-99468246D01*
X154398699Y-99660725D01*
X154412609Y-99865568D01*
X154408245Y-99992155D01*
X154378389Y-100205585D01*
X154320248Y-100400468D01*
X154233824Y-100576803D01*
X154210823Y-100613383D01*
X154079905Y-100779907D01*
X153922464Y-100919144D01*
X153738499Y-101031095D01*
X153616740Y-101084218D01*
X153422639Y-101143294D01*
X153214781Y-101177641D01*
X153018471Y-101187411D01*
X152861232Y-101181297D01*
X152665044Y-101154125D01*
X152462725Y-101097573D01*
X152279881Y-101013510D01*
X152241851Y-100991284D01*
X152068534Y-100865498D01*
X151923267Y-100715289D01*
X151806050Y-100540655D01*
X151767353Y-100464497D01*
X151693183Y-100263818D01*
X151654002Y-100070643D01*
X151641315Y-99871430D01*
X152430334Y-99871430D01*
X152442427Y-100020253D01*
X152503607Y-100216301D01*
X152566622Y-100322409D01*
X152710725Y-100459567D01*
X152827859Y-100517129D01*
X153029218Y-100548471D01*
X153150576Y-100535969D01*
X153332079Y-100459567D01*
X153431799Y-100376058D01*
X153545059Y-100216301D01*
X153598487Y-100074316D01*
X153623217Y-99871430D01*
X153610317Y-99719457D01*
X153545059Y-99524605D01*
X153478014Y-99419688D01*
X153332079Y-99283293D01*
X153226291Y-99228522D01*
X153029218Y-99193412D01*
X152897876Y-99206051D01*
X152710725Y-99283293D01*
X152618401Y-99359360D01*
X152503607Y-99524605D01*
X152451014Y-99675745D01*
X152430334Y-99871430D01*
X151641315Y-99871430D01*
X151640942Y-99865568D01*
X151642393Y-99795913D01*
X151664160Y-99595191D01*
X151718981Y-99386669D01*
X151806050Y-99193412D01*
X151827249Y-99156783D01*
X151950077Y-98988523D01*
X152100954Y-98845068D01*
X152279881Y-98726420D01*
X152399201Y-98668317D01*
X152592865Y-98603702D01*
X152804148Y-98566135D01*
X153006748Y-98555450D01*
X153134164Y-98559624D01*
G37*
G36*
X149937514Y-98559624D02*
G01*
X150155083Y-98588174D01*
X150357505Y-98643773D01*
X150544780Y-98726420D01*
X150603252Y-98759410D01*
X150763728Y-98871775D01*
X150915750Y-99020190D01*
X151040104Y-99193412D01*
X151081320Y-99268883D01*
X151160317Y-99468246D01*
X151202049Y-99660725D01*
X151215959Y-99865568D01*
X151211594Y-99992155D01*
X151181738Y-100205585D01*
X151123598Y-100400468D01*
X151037173Y-100576803D01*
X151014172Y-100613383D01*
X150883254Y-100779907D01*
X150725813Y-100919144D01*
X150541849Y-101031095D01*
X150420090Y-101084218D01*
X150225988Y-101143294D01*
X150018131Y-101177641D01*
X149821821Y-101187411D01*
X149664582Y-101181297D01*
X149468394Y-101154125D01*
X149266075Y-101097573D01*
X149083230Y-101013510D01*
X149045201Y-100991284D01*
X148871884Y-100865498D01*
X148726617Y-100715289D01*
X148609399Y-100540655D01*
X148570702Y-100464497D01*
X148496532Y-100263818D01*
X148457352Y-100070643D01*
X148444664Y-99871430D01*
X149233684Y-99871430D01*
X149245777Y-100020253D01*
X149306957Y-100216301D01*
X149369972Y-100322409D01*
X149514075Y-100459567D01*
X149631208Y-100517129D01*
X149832568Y-100548471D01*
X149953926Y-100535969D01*
X150135429Y-100459567D01*
X150235148Y-100376058D01*
X150348408Y-100216301D01*
X150401837Y-100074316D01*
X150426566Y-99871430D01*
X150413667Y-99719457D01*
X150348408Y-99524605D01*
X150281364Y-99419688D01*
X150135429Y-99283293D01*
X150029641Y-99228522D01*
X149832568Y-99193412D01*
X149701226Y-99206051D01*
X149514075Y-99283293D01*
X149421751Y-99359360D01*
X149306957Y-99524605D01*
X149254364Y-99675745D01*
X149233684Y-99871430D01*
X148444664Y-99871430D01*
X148444291Y-99865568D01*
X148445742Y-99795913D01*
X148467510Y-99595191D01*
X148522331Y-99386669D01*
X148609399Y-99193412D01*
X148630599Y-99156783D01*
X148753426Y-98988523D01*
X148904304Y-98845068D01*
X149083230Y-98726420D01*
X149202551Y-98668317D01*
X149396214Y-98603702D01*
X149607498Y-98566135D01*
X149810097Y-98555450D01*
X149937514Y-98559624D01*
G37*
G36*
X148148269Y-100716510D02*
G01*
X148099039Y-100522108D01*
X148022240Y-100426350D01*
X147854781Y-100324760D01*
X147744780Y-100308136D01*
X147551017Y-100369206D01*
X147479043Y-100426350D01*
X147370737Y-100594648D01*
X147353014Y-100716510D01*
X147397444Y-100909259D01*
X147479043Y-101010579D01*
X147650347Y-101107070D01*
X147744780Y-101120000D01*
X147940991Y-101068281D01*
X148022240Y-101010579D01*
X148130546Y-100844417D01*
X148148269Y-100716510D01*
G37*
G36*
X146156224Y-98672686D02*
G01*
X146094675Y-99103531D01*
X146106399Y-99070314D01*
X145987056Y-98901053D01*
X145847379Y-98762568D01*
X145742965Y-98687341D01*
X145566195Y-98603398D01*
X145364145Y-98558197D01*
X145215401Y-98549588D01*
X145015077Y-98565580D01*
X144860760Y-98606252D01*
X144686508Y-98696851D01*
X144599909Y-98771360D01*
X144489172Y-98941883D01*
X144454340Y-99053705D01*
X144481695Y-99059567D01*
X144355391Y-98900015D01*
X144210952Y-98765743D01*
X144104584Y-98690272D01*
X143921331Y-98599184D01*
X143717128Y-98553022D01*
X143642477Y-98549588D01*
X143429318Y-98569528D01*
X143228562Y-98637524D01*
X143063133Y-98753775D01*
X142939514Y-98908468D01*
X142865537Y-99091792D01*
X142841360Y-99283293D01*
X142841360Y-101120000D01*
X143620006Y-101120000D01*
X143620006Y-99607648D01*
X143645656Y-99412360D01*
X143669832Y-99341912D01*
X143838237Y-99231743D01*
X143876950Y-99227606D01*
X144072726Y-99269337D01*
X144199351Y-99359497D01*
X144320460Y-99519273D01*
X144395722Y-99694598D01*
X144442004Y-99889244D01*
X144459950Y-100090329D01*
X144460202Y-100117627D01*
X144460202Y-101120000D01*
X145243733Y-101120000D01*
X145243733Y-99607648D01*
X145274420Y-99412360D01*
X145303328Y-99341912D01*
X145470253Y-99233230D01*
X145518262Y-99227606D01*
X145716866Y-99274103D01*
X145828939Y-99359497D01*
X145945474Y-99518721D01*
X146019448Y-99692644D01*
X146065730Y-99883898D01*
X146083676Y-100080303D01*
X146083928Y-100106880D01*
X146083928Y-101120000D01*
X146867459Y-101120000D01*
X146867459Y-98672686D01*
X146156224Y-98672686D01*
G37*
G36*
X140949377Y-98559624D02*
G01*
X141166946Y-98588174D01*
X141369368Y-98643773D01*
X141556643Y-98726420D01*
X141615115Y-98759410D01*
X141775591Y-98871775D01*
X141927613Y-99020190D01*
X142051967Y-99193412D01*
X142093183Y-99268883D01*
X142172181Y-99468246D01*
X142213912Y-99660725D01*
X142227822Y-99865568D01*
X142223457Y-99992155D01*
X142193602Y-100205585D01*
X142135461Y-100400468D01*
X142049036Y-100576803D01*
X142026036Y-100613383D01*
X141895118Y-100779907D01*
X141737676Y-100919144D01*
X141553712Y-101031095D01*
X141431953Y-101084218D01*
X141237852Y-101143294D01*
X141029994Y-101177641D01*
X140833684Y-101187411D01*
X140676445Y-101181297D01*
X140480257Y-101154125D01*
X140277938Y-101097573D01*
X140095094Y-101013510D01*
X140057064Y-100991284D01*
X139883747Y-100865498D01*
X139738480Y-100715289D01*
X139621263Y-100540655D01*
X139582565Y-100464497D01*
X139508396Y-100263818D01*
X139469215Y-100070643D01*
X139456527Y-99871430D01*
X140245547Y-99871430D01*
X140257640Y-100020253D01*
X140318820Y-100216301D01*
X140381835Y-100322409D01*
X140525938Y-100459567D01*
X140643072Y-100517129D01*
X140844431Y-100548471D01*
X140965789Y-100535969D01*
X141147292Y-100459567D01*
X141247012Y-100376058D01*
X141360272Y-100216301D01*
X141413700Y-100074316D01*
X141438429Y-99871430D01*
X141425530Y-99719457D01*
X141360272Y-99524605D01*
X141293227Y-99419688D01*
X141147292Y-99283293D01*
X141041504Y-99228522D01*
X140844431Y-99193412D01*
X140713089Y-99206051D01*
X140525938Y-99283293D01*
X140433614Y-99359360D01*
X140318820Y-99524605D01*
X140266227Y-99675745D01*
X140245547Y-99871430D01*
X139456527Y-99871430D01*
X139456154Y-99865568D01*
X139457606Y-99795913D01*
X139479373Y-99595191D01*
X139534194Y-99386669D01*
X139621263Y-99193412D01*
X139642462Y-99156783D01*
X139765290Y-98988523D01*
X139916167Y-98845068D01*
X140095094Y-98726420D01*
X140214414Y-98668317D01*
X140408078Y-98603702D01*
X140619361Y-98566135D01*
X140821960Y-98555450D01*
X140949377Y-98559624D01*
G37*
G36*
X137637034Y-101187411D02*
G01*
X137852273Y-101176908D01*
X138050537Y-101145401D01*
X138253294Y-101084848D01*
X138396140Y-101019371D01*
X138575812Y-100901753D01*
X138726479Y-100758948D01*
X138848142Y-100590954D01*
X138868995Y-100554333D01*
X138954518Y-100360026D01*
X139004406Y-100170304D01*
X139028638Y-99966517D01*
X139031172Y-99871430D01*
X139016102Y-99669025D01*
X138970893Y-99478367D01*
X138885313Y-99280301D01*
X138840662Y-99205136D01*
X138723377Y-99047656D01*
X138569313Y-98895157D01*
X138409284Y-98778138D01*
X138331660Y-98732281D01*
X138146240Y-98646801D01*
X137949382Y-98589296D01*
X137741087Y-98559767D01*
X137620425Y-98555450D01*
X137399019Y-98570082D01*
X137195565Y-98613980D01*
X137010062Y-98687143D01*
X136842512Y-98789572D01*
X136754829Y-98861242D01*
X136617919Y-99007595D01*
X136503823Y-99179940D01*
X136412541Y-99378279D01*
X136352458Y-99568972D01*
X136315191Y-99742470D01*
X138219309Y-100347215D01*
X138393210Y-99921256D01*
X137015680Y-99457194D01*
X137177857Y-99529490D01*
X137267136Y-99354419D01*
X137338080Y-99275478D01*
X137514460Y-99184115D01*
X137681974Y-99166057D01*
X137882101Y-99197732D01*
X137986789Y-99247145D01*
X138133390Y-99382606D01*
X138189023Y-99476734D01*
X138246940Y-99671676D01*
X138258387Y-99826489D01*
X138239926Y-100025199D01*
X138174368Y-100210439D01*
X138052896Y-100366407D01*
X137944780Y-100442958D01*
X137760207Y-100508217D01*
X137620425Y-100521116D01*
X137424291Y-100493686D01*
X137371297Y-100476175D01*
X137191779Y-100392827D01*
X137132916Y-100357962D01*
X136786092Y-100941214D01*
X136963233Y-101030252D01*
X137152715Y-101102460D01*
X137209120Y-101120000D01*
X137402583Y-101166081D01*
X137599075Y-101186818D01*
X137637034Y-101187411D01*
G37*
G36*
X180168250Y-105270267D02*
G01*
X180363244Y-105294043D01*
X180551559Y-105351783D01*
X180733196Y-105443489D01*
X180768443Y-105465600D01*
X180932315Y-105591042D01*
X181075578Y-105741289D01*
X181198234Y-105916343D01*
X181249740Y-106012170D01*
X181320451Y-106195238D01*
X181362878Y-106391907D01*
X181377020Y-106602177D01*
X181375543Y-106671806D01*
X181353389Y-106872141D01*
X181297595Y-107079691D01*
X181208981Y-107271402D01*
X181187529Y-107307680D01*
X181066877Y-107474643D01*
X180923900Y-107617563D01*
X180758597Y-107736441D01*
X180722998Y-107757144D01*
X180539511Y-107840625D01*
X180346864Y-107890714D01*
X180145059Y-107907411D01*
X180098004Y-107906853D01*
X179900425Y-107890556D01*
X179708084Y-107845982D01*
X179529567Y-107764773D01*
X179472979Y-107728152D01*
X179320484Y-107599223D01*
X179232568Y-107472473D01*
X179232568Y-107829253D01*
X179246306Y-107959083D01*
X179330265Y-108136999D01*
X179412330Y-108221079D01*
X179588185Y-108324577D01*
X179732388Y-108368656D01*
X179932079Y-108389057D01*
X180000467Y-108387348D01*
X180199113Y-108358176D01*
X180383440Y-108279637D01*
X180524811Y-108182397D01*
X180682393Y-108052979D01*
X181141570Y-108590314D01*
X181027501Y-108680607D01*
X180862156Y-108803293D01*
X180842223Y-108817204D01*
X180663254Y-108918870D01*
X180478206Y-108993803D01*
X180326432Y-109035019D01*
X180117604Y-109064328D01*
X179921332Y-109071960D01*
X179796959Y-109068049D01*
X179581743Y-109041293D01*
X179377655Y-108989189D01*
X179184696Y-108911737D01*
X179123390Y-108880839D01*
X178953383Y-108775679D01*
X178788958Y-108636899D01*
X178650293Y-108475031D01*
X178614151Y-108422469D01*
X178519355Y-108236845D01*
X178464056Y-108035192D01*
X178448060Y-107840000D01*
X178448060Y-106300293D01*
X179232568Y-106300293D01*
X179232568Y-106899176D01*
X179263509Y-106951021D01*
X179397676Y-107103363D01*
X179441774Y-107136969D01*
X179621402Y-107226461D01*
X179712319Y-107250379D01*
X179909609Y-107268471D01*
X180069386Y-107251454D01*
X180254480Y-107179567D01*
X180377204Y-107088205D01*
X180498722Y-106933370D01*
X180562536Y-106777322D01*
X180587627Y-106579706D01*
X180570610Y-106417151D01*
X180498722Y-106232882D01*
X180415052Y-106120486D01*
X180254480Y-105994501D01*
X180112494Y-105935062D01*
X179909609Y-105907550D01*
X179811301Y-105912225D01*
X179616517Y-105955422D01*
X179552526Y-105981800D01*
X179383998Y-106090244D01*
X179342024Y-106130014D01*
X179232568Y-106300293D01*
X178448060Y-106300293D01*
X178448060Y-105392686D01*
X179171018Y-105392686D01*
X179230959Y-105584358D01*
X179241811Y-105572373D01*
X179395073Y-105450984D01*
X179576461Y-105362400D01*
X179714131Y-105317535D01*
X179919089Y-105280555D01*
X180128450Y-105269588D01*
X180168250Y-105270267D01*
G37*
G36*
X177642058Y-105392686D02*
G01*
X176858527Y-105392686D01*
X176858527Y-107840000D01*
X177642058Y-107840000D01*
X177642058Y-105392686D01*
G37*
G36*
X177659644Y-104537836D02*
G01*
X177606215Y-104344884D01*
X177522868Y-104252561D01*
X177343044Y-104156008D01*
X177227822Y-104140209D01*
X177033177Y-104188595D01*
X176939616Y-104252561D01*
X176826272Y-104416203D01*
X176807725Y-104537836D01*
X176859245Y-104730025D01*
X176939616Y-104821158D01*
X177114020Y-104914352D01*
X177227822Y-104929602D01*
X177425854Y-104882899D01*
X177522868Y-104821158D01*
X177640409Y-104659194D01*
X177659644Y-104537836D01*
G37*
G36*
X175821960Y-104318018D02*
G01*
X175038429Y-104318018D01*
X175038429Y-105381939D01*
X174444431Y-105381939D01*
X174444431Y-105991570D01*
X175038429Y-105991570D01*
X175038429Y-107840000D01*
X175821960Y-107840000D01*
X175821960Y-105991570D01*
X176202979Y-105991570D01*
X176202979Y-105381939D01*
X175821960Y-105381939D01*
X175821960Y-104318018D01*
G37*
G36*
X173847501Y-107840000D02*
G01*
X173847501Y-103421158D01*
X173080579Y-103421158D01*
X173080579Y-105886057D01*
X173086441Y-105790314D01*
X172964085Y-105618123D01*
X172819944Y-105484652D01*
X172722030Y-105418087D01*
X172530605Y-105331168D01*
X172329063Y-105286732D01*
X172145617Y-105275450D01*
X171939594Y-105295390D01*
X171739196Y-105363386D01*
X171566273Y-105479637D01*
X171433199Y-105634330D01*
X171353690Y-105817653D01*
X171327892Y-106009155D01*
X171327892Y-107840000D01*
X172111423Y-107840000D01*
X172111423Y-106300293D01*
X172155040Y-106106894D01*
X172198374Y-106039441D01*
X172381556Y-105947850D01*
X172469972Y-105941744D01*
X172667596Y-105983419D01*
X172784556Y-106059958D01*
X172915967Y-106218433D01*
X172991674Y-106378450D01*
X173043566Y-106580867D01*
X173062841Y-106778520D01*
X173063970Y-106843489D01*
X173063970Y-107840000D01*
X173847501Y-107840000D01*
G37*
G36*
X169732498Y-107957236D02*
G01*
X169928579Y-107937296D01*
X170120466Y-107869300D01*
X170287418Y-107753049D01*
X170416063Y-107598356D01*
X170494375Y-107415032D01*
X170521891Y-107223531D01*
X170521891Y-105392686D01*
X169738360Y-105392686D01*
X169738360Y-106932393D01*
X169693610Y-107125791D01*
X169654340Y-107193244D01*
X169479029Y-107286267D01*
X169408143Y-107290942D01*
X169209467Y-107245146D01*
X169108213Y-107173705D01*
X168984359Y-107014302D01*
X168912819Y-106852281D01*
X168864733Y-106662665D01*
X168843576Y-106452853D01*
X168842477Y-106389197D01*
X168842477Y-105392686D01*
X168057969Y-105392686D01*
X168057969Y-107840000D01*
X168769204Y-107840000D01*
X168830753Y-107391570D01*
X168820006Y-107442372D01*
X168935623Y-107610486D01*
X169032986Y-107712016D01*
X169192423Y-107826906D01*
X169337801Y-107892756D01*
X169537266Y-107943068D01*
X169732498Y-107957236D01*
G37*
G36*
X167254898Y-107840000D02*
G01*
X166471367Y-107840000D01*
X166471367Y-107591052D01*
X166339270Y-107700896D01*
X166165575Y-107803852D01*
X166039695Y-107853912D01*
X165847811Y-107895174D01*
X165647780Y-107907411D01*
X165605946Y-107906777D01*
X165402042Y-107884604D01*
X165206914Y-107830756D01*
X165020565Y-107745233D01*
X164984623Y-107724297D01*
X164818423Y-107603359D01*
X164674740Y-107455325D01*
X164553572Y-107280195D01*
X164493477Y-107162706D01*
X164426647Y-106971791D01*
X164387793Y-106763255D01*
X164376741Y-106563098D01*
X164376885Y-106557236D01*
X165171995Y-106557236D01*
X165189199Y-106721581D01*
X165261877Y-106910900D01*
X165343947Y-107026942D01*
X165499281Y-107157096D01*
X165624129Y-107214659D01*
X165821681Y-107246001D01*
X165904620Y-107242678D01*
X166096210Y-107203991D01*
X166141307Y-107186864D01*
X166312121Y-107080893D01*
X166356512Y-107037723D01*
X166471367Y-106876706D01*
X166471367Y-106277822D01*
X166447178Y-106225696D01*
X166328729Y-106067773D01*
X166279942Y-106026802D01*
X166105003Y-105933928D01*
X166020663Y-105908684D01*
X165821681Y-105886057D01*
X165684579Y-105900407D01*
X165499281Y-105973007D01*
X165388460Y-106053664D01*
X165261877Y-106210411D01*
X165197362Y-106362037D01*
X165171995Y-106557236D01*
X164376885Y-106557236D01*
X164379244Y-106461508D01*
X164403184Y-106247331D01*
X164452471Y-106053092D01*
X164536964Y-105860655D01*
X164646701Y-105693883D01*
X164790995Y-105541289D01*
X164959993Y-105421018D01*
X165129684Y-105341162D01*
X165328907Y-105287481D01*
X165541290Y-105269588D01*
X165691439Y-105274839D01*
X165900862Y-105302408D01*
X166091325Y-105353607D01*
X166120997Y-105364262D01*
X166307969Y-105447397D01*
X166477229Y-105560725D01*
X166477229Y-103421158D01*
X167254898Y-103421158D01*
X167254898Y-107840000D01*
G37*
G36*
X164080718Y-105841116D02*
G01*
X164031488Y-105645874D01*
X163954689Y-105549979D01*
X163787230Y-105448389D01*
X163677229Y-105431765D01*
X163483466Y-105492834D01*
X163411493Y-105549979D01*
X163303186Y-105718659D01*
X163285464Y-105841116D01*
X163329894Y-106033865D01*
X163411493Y-106135184D01*
X163582797Y-106230814D01*
X163677229Y-106243628D01*
X163873440Y-106192372D01*
X163954689Y-106135184D01*
X164062995Y-105969023D01*
X164080718Y-105841116D01*
G37*
G36*
X164080718Y-107436510D02*
G01*
X164031488Y-107242108D01*
X163954689Y-107146350D01*
X163787230Y-107044760D01*
X163677229Y-107028136D01*
X163483466Y-107089206D01*
X163411493Y-107146350D01*
X163303186Y-107314648D01*
X163285464Y-107436510D01*
X163329894Y-107629259D01*
X163411493Y-107730579D01*
X163582797Y-107827070D01*
X163677229Y-107840000D01*
X163873440Y-107788281D01*
X163954689Y-107730579D01*
X164062995Y-107564417D01*
X164080718Y-107436510D01*
G37*
G36*
X160943663Y-107840000D02*
G01*
X160943663Y-103421158D01*
X160160132Y-103421158D01*
X160160132Y-107840000D01*
X160943663Y-107840000D01*
G37*
G36*
X159538778Y-106177194D02*
G01*
X158429916Y-107840000D01*
X159342407Y-107840000D01*
X160053642Y-106624647D01*
X159538778Y-106177194D01*
G37*
G36*
X160395582Y-107161981D02*
G01*
X160473740Y-106417529D01*
X158995582Y-105331137D01*
X158518820Y-105751235D01*
X160395582Y-107161981D01*
G37*
G36*
X156854471Y-105279624D02*
G01*
X157072040Y-105308174D01*
X157274462Y-105363773D01*
X157461737Y-105446420D01*
X157520209Y-105479410D01*
X157680686Y-105591775D01*
X157832708Y-105740190D01*
X157957062Y-105913412D01*
X157998278Y-105988883D01*
X158077275Y-106188246D01*
X158119006Y-106380725D01*
X158132916Y-106585568D01*
X158128552Y-106712155D01*
X158098696Y-106925585D01*
X158040555Y-107120468D01*
X157954131Y-107296803D01*
X157931130Y-107333383D01*
X157800212Y-107499907D01*
X157642771Y-107639144D01*
X157458806Y-107751095D01*
X157337047Y-107804218D01*
X157142946Y-107863294D01*
X156935088Y-107897641D01*
X156738778Y-107907411D01*
X156581539Y-107901297D01*
X156385351Y-107874125D01*
X156183032Y-107817573D01*
X156000188Y-107733510D01*
X155962159Y-107711284D01*
X155788842Y-107585498D01*
X155643574Y-107435289D01*
X155526357Y-107260655D01*
X155487660Y-107184497D01*
X155413490Y-106983818D01*
X155374309Y-106790643D01*
X155361622Y-106591430D01*
X156150642Y-106591430D01*
X156162734Y-106740253D01*
X156223914Y-106936301D01*
X156286929Y-107042409D01*
X156431032Y-107179567D01*
X156548166Y-107237129D01*
X156749525Y-107268471D01*
X156870883Y-107255969D01*
X157052386Y-107179567D01*
X157152106Y-107096058D01*
X157265366Y-106936301D01*
X157318794Y-106794316D01*
X157343524Y-106591430D01*
X157330625Y-106439457D01*
X157265366Y-106244605D01*
X157198321Y-106139688D01*
X157052386Y-106003293D01*
X156946598Y-105948522D01*
X156749525Y-105913412D01*
X156618183Y-105926051D01*
X156431032Y-106003293D01*
X156338709Y-106079360D01*
X156223914Y-106244605D01*
X156171321Y-106395745D01*
X156150642Y-106591430D01*
X155361622Y-106591430D01*
X155361249Y-106585568D01*
X155362700Y-106515913D01*
X155384467Y-106315191D01*
X155439288Y-106106669D01*
X155526357Y-105913412D01*
X155547556Y-105876783D01*
X155670384Y-105708523D01*
X155821261Y-105565068D01*
X156000188Y-105446420D01*
X156119508Y-105388317D01*
X156313172Y-105323702D01*
X156524455Y-105286135D01*
X156727055Y-105275450D01*
X156854471Y-105279624D01*
G37*
G36*
X154040383Y-105392686D02*
G01*
X153968087Y-106064842D01*
X153984696Y-105964214D01*
X153876557Y-105785257D01*
X153738499Y-105631357D01*
X153693558Y-105591988D01*
X153532553Y-105470386D01*
X153361292Y-105369979D01*
X153327194Y-105353607D01*
X153140899Y-105283454D01*
X153048757Y-105269588D01*
X153088813Y-106053119D01*
X153298336Y-106051928D01*
X153495486Y-106108348D01*
X153558736Y-106143000D01*
X153713357Y-106265858D01*
X153840841Y-106431108D01*
X153861598Y-106468332D01*
X153938033Y-106659585D01*
X153967671Y-106855991D01*
X153968087Y-106882568D01*
X153968087Y-107840000D01*
X154745757Y-107840000D01*
X154745757Y-105392686D01*
X154040383Y-105392686D01*
G37*
G36*
X151361528Y-107907411D02*
G01*
X151576767Y-107896908D01*
X151775031Y-107865401D01*
X151977788Y-107804848D01*
X152120635Y-107739371D01*
X152300306Y-107621753D01*
X152450973Y-107478948D01*
X152572636Y-107310954D01*
X152593489Y-107274333D01*
X152679012Y-107080026D01*
X152728900Y-106890304D01*
X152753132Y-106686517D01*
X152755666Y-106591430D01*
X152740596Y-106389025D01*
X152695388Y-106198367D01*
X152609807Y-106000301D01*
X152565157Y-105925136D01*
X152447871Y-105767656D01*
X152293807Y-105615157D01*
X152133778Y-105498138D01*
X152056154Y-105452281D01*
X151870734Y-105366801D01*
X151673876Y-105309296D01*
X151465581Y-105279767D01*
X151344919Y-105275450D01*
X151123513Y-105290082D01*
X150920059Y-105333980D01*
X150734556Y-105407143D01*
X150567006Y-105509572D01*
X150479323Y-105581242D01*
X150342413Y-105727595D01*
X150228317Y-105899940D01*
X150137035Y-106098279D01*
X150076952Y-106288972D01*
X150039685Y-106462470D01*
X151943803Y-107067215D01*
X152117704Y-106641256D01*
X150740174Y-106177194D01*
X150902351Y-106249490D01*
X150991630Y-106074419D01*
X151062575Y-105995478D01*
X151238954Y-105904115D01*
X151406468Y-105886057D01*
X151606595Y-105917732D01*
X151711284Y-105967145D01*
X151857884Y-106102606D01*
X151913517Y-106196734D01*
X151971434Y-106391676D01*
X151982882Y-106546489D01*
X151964420Y-106745199D01*
X151898862Y-106930439D01*
X151777390Y-107086407D01*
X151669274Y-107162958D01*
X151484701Y-107228217D01*
X151344919Y-107241116D01*
X151148786Y-107213686D01*
X151095792Y-107196175D01*
X150916273Y-107112827D01*
X150857411Y-107077962D01*
X150510586Y-107661214D01*
X150687727Y-107750252D01*
X150877209Y-107822460D01*
X150933614Y-107840000D01*
X151127078Y-107886081D01*
X151323569Y-107906818D01*
X151361528Y-107907411D01*
G37*
G36*
X147805352Y-105392686D02*
G01*
X147268018Y-106652979D01*
X147413586Y-106663726D01*
X146942686Y-105392686D01*
X146181625Y-105392686D01*
X147284626Y-107985568D01*
X148068157Y-106361842D01*
X148785254Y-107985568D01*
X149899979Y-105392686D01*
X149137941Y-105392686D01*
X148544919Y-106753607D01*
X148813586Y-106714528D01*
X148342686Y-105673077D01*
X148471646Y-105392686D01*
X147805352Y-105392686D01*
G37*
G36*
X145023018Y-105285712D02*
G01*
X145223878Y-105340694D01*
X145416657Y-105434696D01*
X145450439Y-105455873D01*
X145606983Y-105577899D01*
X145742920Y-105726829D01*
X145858248Y-105902665D01*
X145915355Y-106019822D01*
X145978862Y-106210368D01*
X146015785Y-106418689D01*
X146026287Y-106618785D01*
X146022328Y-106753271D01*
X145999521Y-106952574D01*
X145949633Y-107153433D01*
X145864110Y-107347606D01*
X145751491Y-107511497D01*
X145601604Y-107658497D01*
X145424473Y-107770635D01*
X145407069Y-107779049D01*
X145207448Y-107853982D01*
X145012950Y-107894053D01*
X144806050Y-107907411D01*
X144625970Y-107895069D01*
X144427962Y-107842930D01*
X144332879Y-107800436D01*
X144159295Y-107691500D01*
X144139251Y-107675394D01*
X143994187Y-107540069D01*
X143988325Y-107534461D01*
X143988325Y-107840000D01*
X143203817Y-107840000D01*
X143203817Y-106300293D01*
X143988325Y-106300293D01*
X143988325Y-106899176D01*
X144012196Y-106943861D01*
X144133893Y-107103363D01*
X144160841Y-107127749D01*
X144330265Y-107226461D01*
X144380347Y-107242831D01*
X144581346Y-107268471D01*
X144718449Y-107253799D01*
X144903747Y-107179567D01*
X145022464Y-107088205D01*
X145142128Y-106933370D01*
X145205941Y-106777322D01*
X145231032Y-106579706D01*
X145214950Y-106417151D01*
X145147013Y-106232882D01*
X145075755Y-106128376D01*
X144920355Y-105994501D01*
X144809805Y-105941515D01*
X144609678Y-105907550D01*
X144526740Y-105911337D01*
X144335150Y-105955422D01*
X144290190Y-105974747D01*
X144123147Y-106090244D01*
X144085974Y-106130014D01*
X143988325Y-106300293D01*
X143203817Y-106300293D01*
X143203817Y-105392686D01*
X143931660Y-105392686D01*
X143982991Y-105643868D01*
X144120706Y-105508208D01*
X144282393Y-105389755D01*
X144432133Y-105321340D01*
X144623432Y-105281323D01*
X144833405Y-105269588D01*
X145023018Y-105285712D01*
G37*
G36*
X142400746Y-107840000D02*
G01*
X142400746Y-103421158D01*
X141617215Y-103421158D01*
X141617215Y-107840000D01*
X142400746Y-107840000D01*
G37*
G36*
X140995861Y-106177194D02*
G01*
X139886999Y-107840000D01*
X140799490Y-107840000D01*
X141510725Y-106624647D01*
X140995861Y-106177194D01*
G37*
G36*
X141852665Y-107161981D02*
G01*
X141930823Y-106417529D01*
X140452665Y-105331137D01*
X139975903Y-105751235D01*
X141852665Y-107161981D01*
G37*
G36*
X139344780Y-105392686D02*
G01*
X138561249Y-105392686D01*
X138561249Y-107840000D01*
X139344780Y-107840000D01*
X139344780Y-105392686D01*
G37*
G36*
X139362365Y-104537836D02*
G01*
X139308937Y-104344884D01*
X139225589Y-104252561D01*
X139045765Y-104156008D01*
X138930544Y-104140209D01*
X138735898Y-104188595D01*
X138642337Y-104252561D01*
X138528993Y-104416203D01*
X138510446Y-104537836D01*
X138561966Y-104730025D01*
X138642337Y-104821158D01*
X138816742Y-104914352D01*
X138930544Y-104929602D01*
X139128575Y-104882899D01*
X139225589Y-104821158D01*
X139343131Y-104659194D01*
X139362365Y-104537836D01*
G37*
G36*
X137558876Y-109016273D02*
G01*
X135929288Y-105392686D01*
X135222937Y-105392686D01*
X136802700Y-109016273D01*
X137558876Y-109016273D01*
G37*
G36*
X136903328Y-107850746D02*
G01*
X138102072Y-105392686D01*
X137222798Y-105392686D01*
X136298583Y-107458981D01*
X136903328Y-107850746D01*
G37*
G36*
X133790131Y-105279624D02*
G01*
X134007699Y-105308174D01*
X134210121Y-105363773D01*
X134397397Y-105446420D01*
X134455869Y-105479410D01*
X134616345Y-105591775D01*
X134768367Y-105740190D01*
X134892721Y-105913412D01*
X134933937Y-105988883D01*
X135012934Y-106188246D01*
X135054666Y-106380725D01*
X135068576Y-106585568D01*
X135064211Y-106712155D01*
X135034355Y-106925585D01*
X134976215Y-107120468D01*
X134889790Y-107296803D01*
X134866789Y-107333383D01*
X134735871Y-107499907D01*
X134578430Y-107639144D01*
X134394466Y-107751095D01*
X134272707Y-107804218D01*
X134078605Y-107863294D01*
X133870748Y-107897641D01*
X133674438Y-107907411D01*
X133517199Y-107901297D01*
X133321011Y-107874125D01*
X133118692Y-107817573D01*
X132935847Y-107733510D01*
X132897818Y-107711284D01*
X132724501Y-107585498D01*
X132579234Y-107435289D01*
X132462016Y-107260655D01*
X132423319Y-107184497D01*
X132349149Y-106983818D01*
X132309968Y-106790643D01*
X132297281Y-106591430D01*
X133086301Y-106591430D01*
X133098394Y-106740253D01*
X133159574Y-106936301D01*
X133222588Y-107042409D01*
X133366692Y-107179567D01*
X133483825Y-107237129D01*
X133685184Y-107268471D01*
X133806543Y-107255969D01*
X133988046Y-107179567D01*
X134087765Y-107096058D01*
X134201025Y-106936301D01*
X134254453Y-106794316D01*
X134279183Y-106591430D01*
X134266284Y-106439457D01*
X134201025Y-106244605D01*
X134133981Y-106139688D01*
X133988046Y-106003293D01*
X133882258Y-105948522D01*
X133685184Y-105913412D01*
X133553843Y-105926051D01*
X133366692Y-106003293D01*
X133274368Y-106079360D01*
X133159574Y-106244605D01*
X133106981Y-106395745D01*
X133086301Y-106591430D01*
X132297281Y-106591430D01*
X132296908Y-106585568D01*
X132298359Y-106515913D01*
X132320126Y-106315191D01*
X132374947Y-106106669D01*
X132462016Y-105913412D01*
X132483216Y-105876783D01*
X132606043Y-105708523D01*
X132756920Y-105565068D01*
X132935847Y-105446420D01*
X133055168Y-105388317D01*
X133248831Y-105323702D01*
X133460115Y-105286135D01*
X133662714Y-105275450D01*
X133790131Y-105279624D01*
G37*
G36*
X179277508Y-112286587D02*
G01*
X179295979Y-112267967D01*
X179452027Y-112148026D01*
X179638988Y-112062861D01*
X179693042Y-112045687D01*
X179887280Y-112003613D01*
X180089371Y-111989588D01*
X180157927Y-111990919D01*
X180355352Y-112010883D01*
X180560211Y-112061162D01*
X180749804Y-112141018D01*
X180785715Y-112160493D01*
X180950846Y-112274238D01*
X181091935Y-112415269D01*
X181208981Y-112583586D01*
X181266088Y-112697091D01*
X181329595Y-112883576D01*
X181366517Y-113089535D01*
X181377020Y-113288960D01*
X181374623Y-113390778D01*
X181351705Y-113607145D01*
X181304522Y-113805892D01*
X181223635Y-114006057D01*
X181213876Y-114024786D01*
X181104005Y-114196863D01*
X180971808Y-114341271D01*
X180800607Y-114468164D01*
X180783743Y-114477962D01*
X180588802Y-114565205D01*
X180396556Y-114611859D01*
X180190000Y-114627411D01*
X180040645Y-114620572D01*
X179833558Y-114584668D01*
X179646803Y-114517990D01*
X179560090Y-114475308D01*
X179383050Y-114371520D01*
X179282393Y-114297509D01*
X179282393Y-114560000D01*
X178498862Y-114560000D01*
X178498862Y-112997822D01*
X179282393Y-112997822D01*
X179282393Y-113596706D01*
X179313101Y-113648551D01*
X179442616Y-113800893D01*
X179478085Y-113829927D01*
X179655596Y-113923991D01*
X179734231Y-113946145D01*
X179932079Y-113966001D01*
X180069181Y-113951328D01*
X180254480Y-113877096D01*
X180373197Y-113785734D01*
X180492861Y-113630900D01*
X180556674Y-113474851D01*
X180581765Y-113277236D01*
X180564748Y-113114681D01*
X180492861Y-112930411D01*
X180410158Y-112818177D01*
X180254480Y-112693007D01*
X180129631Y-112636710D01*
X179932079Y-112606057D01*
X179836767Y-112610732D01*
X179643872Y-112653928D01*
X179588087Y-112676361D01*
X179420146Y-112787773D01*
X179381831Y-112827544D01*
X179282393Y-112997822D01*
X178498862Y-112997822D01*
X178498862Y-110141158D01*
X179277508Y-110141158D01*
X179277508Y-112286587D01*
G37*
G36*
X177692861Y-112112686D02*
G01*
X176909330Y-112112686D01*
X176909330Y-114560000D01*
X177692861Y-114560000D01*
X177692861Y-112112686D01*
G37*
G36*
X177710446Y-111257836D02*
G01*
X177657018Y-111064884D01*
X177573670Y-110972561D01*
X177393846Y-110876008D01*
X177278625Y-110860209D01*
X177083979Y-110908595D01*
X176990418Y-110972561D01*
X176877074Y-111136203D01*
X176858527Y-111257836D01*
X176910047Y-111450025D01*
X176990418Y-111541158D01*
X177164823Y-111634352D01*
X177278625Y-111649602D01*
X177476656Y-111602899D01*
X177573670Y-111541158D01*
X177691212Y-111379194D01*
X177710446Y-111257836D01*
G37*
G36*
X175307096Y-114610802D02*
G01*
X175510349Y-114598219D01*
X175703674Y-114560469D01*
X175870809Y-114504312D01*
X176054312Y-114412629D01*
X176215008Y-114297316D01*
X176309469Y-114207313D01*
X175985115Y-113776468D01*
X175832871Y-113900796D01*
X175661580Y-114004502D01*
X175651967Y-114008988D01*
X175462832Y-114070156D01*
X175374508Y-114078353D01*
X175204515Y-114058813D01*
X175083370Y-113997264D01*
X175038429Y-113887843D01*
X175114633Y-113737390D01*
X175293465Y-113649176D01*
X175308073Y-113644577D01*
X175501393Y-113585711D01*
X175559155Y-113568374D01*
X175750886Y-113492792D01*
X175919474Y-113387392D01*
X176043733Y-113258674D01*
X176139881Y-113086173D01*
X176188607Y-112887421D01*
X176192233Y-112813175D01*
X176164660Y-112615397D01*
X176094535Y-112439972D01*
X175976483Y-112277641D01*
X175820206Y-112150535D01*
X175780928Y-112126364D01*
X175584700Y-112044765D01*
X175386170Y-112008211D01*
X175223077Y-112000334D01*
X175022700Y-112007723D01*
X174814764Y-112035505D01*
X174702351Y-112062861D01*
X174507835Y-112137736D01*
X174335582Y-112238609D01*
X174299839Y-112264117D01*
X174595861Y-112723293D01*
X174762063Y-112615638D01*
X174834242Y-112580655D01*
X175027800Y-112521264D01*
X175077508Y-112516175D01*
X175249455Y-112538646D01*
X175357899Y-112610942D01*
X175396978Y-112706685D01*
X175315889Y-112874724D01*
X175135775Y-112958418D01*
X175095094Y-112969490D01*
X174904315Y-113023296D01*
X174831311Y-113047648D01*
X174645943Y-113123760D01*
X174523565Y-113200055D01*
X174379971Y-113340424D01*
X174325240Y-113426713D01*
X174263210Y-113621679D01*
X174254898Y-113742274D01*
X174280229Y-113946651D01*
X174356221Y-114140295D01*
X174370181Y-114165303D01*
X174492825Y-114324626D01*
X174647230Y-114447117D01*
X174717006Y-114487704D01*
X174908523Y-114562717D01*
X175115459Y-114601065D01*
X175307096Y-114610802D01*
G37*
G36*
X171524263Y-114341158D02*
G01*
X171694336Y-114451110D01*
X171885609Y-114533977D01*
X171930683Y-114549253D01*
X172126886Y-114599857D01*
X172334935Y-114625502D01*
X172408422Y-114627411D01*
X172611693Y-114617824D01*
X172824170Y-114584121D01*
X173019491Y-114526153D01*
X173140174Y-114474026D01*
X173320704Y-114364479D01*
X173473947Y-114228791D01*
X173599904Y-114066961D01*
X173621821Y-114031458D01*
X173711466Y-113839079D01*
X173763758Y-113646033D01*
X173789158Y-113434132D01*
X173791814Y-113333900D01*
X173780273Y-113136796D01*
X173739701Y-112933155D01*
X173669918Y-112748679D01*
X173607166Y-112636343D01*
X173480599Y-112469571D01*
X173331706Y-112329513D01*
X173160488Y-112216169D01*
X173123565Y-112196706D01*
X172933056Y-112116850D01*
X172736441Y-112066570D01*
X172533719Y-112045867D01*
X172492442Y-112045275D01*
X172294548Y-112054053D01*
X172096479Y-112083984D01*
X171918960Y-112135157D01*
X171732283Y-112217376D01*
X171557573Y-112326476D01*
X171501793Y-112370607D01*
X171882812Y-112874724D01*
X172057130Y-112768773D01*
X172098722Y-112748695D01*
X172288392Y-112693282D01*
X172420146Y-112684214D01*
X172621223Y-112720399D01*
X172717145Y-112768234D01*
X172869255Y-112905017D01*
X172930125Y-112997822D01*
X172995384Y-113186528D01*
X173008283Y-113333900D01*
X172978663Y-113536565D01*
X172924263Y-113664117D01*
X172801758Y-113821209D01*
X172691744Y-113902498D01*
X172507990Y-113972015D01*
X172341988Y-113988471D01*
X172145327Y-113964608D01*
X172103607Y-113952323D01*
X171925921Y-113857069D01*
X171916029Y-113848764D01*
X171524263Y-114341158D01*
G37*
G36*
X169832559Y-111999624D02*
G01*
X170050128Y-112028174D01*
X170252550Y-112083773D01*
X170439825Y-112166420D01*
X170498297Y-112199410D01*
X170658773Y-112311775D01*
X170810796Y-112460190D01*
X170935150Y-112633412D01*
X170976366Y-112708883D01*
X171055363Y-112908246D01*
X171097094Y-113100725D01*
X171111004Y-113305568D01*
X171106639Y-113432155D01*
X171076784Y-113645585D01*
X171018643Y-113840468D01*
X170932219Y-114016803D01*
X170909218Y-114053383D01*
X170778300Y-114219907D01*
X170620859Y-114359144D01*
X170436894Y-114471095D01*
X170315135Y-114524218D01*
X170121034Y-114583294D01*
X169913176Y-114617641D01*
X169716866Y-114627411D01*
X169559627Y-114621297D01*
X169363439Y-114594125D01*
X169161120Y-114537573D01*
X168978276Y-114453510D01*
X168940246Y-114431284D01*
X168766929Y-114305498D01*
X168621662Y-114155289D01*
X168504445Y-113980655D01*
X168465747Y-113904497D01*
X168391578Y-113703818D01*
X168352397Y-113510643D01*
X168339710Y-113311430D01*
X169128729Y-113311430D01*
X169140822Y-113460253D01*
X169202002Y-113656301D01*
X169265017Y-113762409D01*
X169409120Y-113899567D01*
X169526254Y-113957129D01*
X169727613Y-113988471D01*
X169848971Y-113975969D01*
X170030474Y-113899567D01*
X170130194Y-113816058D01*
X170243454Y-113656301D01*
X170296882Y-113514316D01*
X170321612Y-113311430D01*
X170308712Y-113159457D01*
X170243454Y-112964605D01*
X170176409Y-112859688D01*
X170030474Y-112723293D01*
X169924686Y-112668522D01*
X169727613Y-112633412D01*
X169596271Y-112646051D01*
X169409120Y-112723293D01*
X169316796Y-112799360D01*
X169202002Y-112964605D01*
X169149409Y-113115745D01*
X169128729Y-113311430D01*
X168339710Y-113311430D01*
X168339337Y-113305568D01*
X168340788Y-113235913D01*
X168362555Y-113035191D01*
X168417376Y-112826669D01*
X168504445Y-112633412D01*
X168525644Y-112596783D01*
X168648472Y-112428523D01*
X168799349Y-112285068D01*
X168978276Y-112166420D01*
X169097596Y-112108317D01*
X169291260Y-112043702D01*
X169502543Y-112006135D01*
X169705143Y-111995450D01*
X169832559Y-111999624D01*
G37*
G36*
X167018471Y-112112686D02*
G01*
X166946175Y-112784842D01*
X166962784Y-112684214D01*
X166854645Y-112505257D01*
X166716587Y-112351357D01*
X166671646Y-112311988D01*
X166510641Y-112190386D01*
X166339380Y-112089979D01*
X166305282Y-112073607D01*
X166118987Y-112003454D01*
X166026845Y-111989588D01*
X166066901Y-112773119D01*
X166276424Y-112771928D01*
X166473574Y-112828348D01*
X166536824Y-112863000D01*
X166691445Y-112985858D01*
X166818929Y-113151108D01*
X166839685Y-113188332D01*
X166916121Y-113379585D01*
X166945759Y-113575991D01*
X166946175Y-113602568D01*
X166946175Y-114560000D01*
X167723845Y-114560000D01*
X167723845Y-112112686D01*
X167018471Y-112112686D01*
G37*
G36*
X163634242Y-112286587D02*
G01*
X163652713Y-112267967D01*
X163808761Y-112148026D01*
X163995722Y-112062861D01*
X164049776Y-112045687D01*
X164244014Y-112003613D01*
X164446106Y-111989588D01*
X164514661Y-111990919D01*
X164712086Y-112010883D01*
X164916945Y-112061162D01*
X165106538Y-112141018D01*
X165142450Y-112160493D01*
X165307581Y-112274238D01*
X165448669Y-112415269D01*
X165565715Y-112583586D01*
X165622822Y-112697091D01*
X165686329Y-112883576D01*
X165723251Y-113089535D01*
X165733754Y-113288960D01*
X165731357Y-113390778D01*
X165708439Y-113607145D01*
X165661256Y-113805892D01*
X165580369Y-114006057D01*
X165570610Y-114024786D01*
X165460739Y-114196863D01*
X165328543Y-114341271D01*
X165157341Y-114468164D01*
X165140477Y-114477962D01*
X164945536Y-114565205D01*
X164753291Y-114611859D01*
X164546734Y-114627411D01*
X164397379Y-114620572D01*
X164190292Y-114584668D01*
X164003538Y-114517990D01*
X163916824Y-114475308D01*
X163739784Y-114371520D01*
X163639127Y-114297509D01*
X163639127Y-114560000D01*
X162855596Y-114560000D01*
X162855596Y-112997822D01*
X163639127Y-112997822D01*
X163639127Y-113596706D01*
X163669835Y-113648551D01*
X163799351Y-113800893D01*
X163834819Y-113829927D01*
X164012330Y-113923991D01*
X164090965Y-113946145D01*
X164288813Y-113966001D01*
X164425915Y-113951328D01*
X164611214Y-113877096D01*
X164729931Y-113785734D01*
X164849595Y-113630900D01*
X164913408Y-113474851D01*
X164938499Y-113277236D01*
X164921482Y-113114681D01*
X164849595Y-112930411D01*
X164766892Y-112818177D01*
X164611214Y-112693007D01*
X164486366Y-112636710D01*
X164288813Y-112606057D01*
X164193501Y-112610732D01*
X164000607Y-112653928D01*
X163944821Y-112676361D01*
X163776880Y-112787773D01*
X163738566Y-112827544D01*
X163639127Y-112997822D01*
X162855596Y-112997822D01*
X162855596Y-110141158D01*
X163634242Y-110141158D01*
X163634242Y-112286587D01*
G37*
G36*
X162369064Y-112561116D02*
G01*
X162319834Y-112365874D01*
X162243035Y-112269979D01*
X162075576Y-112168389D01*
X161965575Y-112151765D01*
X161771812Y-112212834D01*
X161699839Y-112269979D01*
X161591533Y-112438659D01*
X161573810Y-112561116D01*
X161618240Y-112753865D01*
X161699839Y-112855184D01*
X161871143Y-112950814D01*
X161965575Y-112963628D01*
X162161786Y-112912372D01*
X162243035Y-112855184D01*
X162351342Y-112689023D01*
X162369064Y-112561116D01*
G37*
G36*
X162369064Y-114156510D02*
G01*
X162319834Y-113962108D01*
X162243035Y-113866350D01*
X162075576Y-113764760D01*
X161965575Y-113748136D01*
X161771812Y-113809206D01*
X161699839Y-113866350D01*
X161591533Y-114034648D01*
X161573810Y-114156510D01*
X161618240Y-114349259D01*
X161699839Y-114450579D01*
X161871143Y-114547070D01*
X161965575Y-114560000D01*
X162161786Y-114508281D01*
X162243035Y-114450579D01*
X162351342Y-114284417D01*
X162369064Y-114156510D01*
G37*
G36*
X159232009Y-114560000D02*
G01*
X159232009Y-110141158D01*
X158448478Y-110141158D01*
X158448478Y-114560000D01*
X159232009Y-114560000D01*
G37*
G36*
X157827124Y-112897194D02*
G01*
X156718262Y-114560000D01*
X157630753Y-114560000D01*
X158341988Y-113344647D01*
X157827124Y-112897194D01*
G37*
G36*
X158683928Y-113881981D02*
G01*
X158762086Y-113137529D01*
X157283928Y-112051137D01*
X156807166Y-112471235D01*
X158683928Y-113881981D01*
G37*
G36*
X155142817Y-111999624D02*
G01*
X155360386Y-112028174D01*
X155562808Y-112083773D01*
X155750083Y-112166420D01*
X155808556Y-112199410D01*
X155969032Y-112311775D01*
X156121054Y-112460190D01*
X156245408Y-112633412D01*
X156286624Y-112708883D01*
X156365621Y-112908246D01*
X156407352Y-113100725D01*
X156421263Y-113305568D01*
X156416898Y-113432155D01*
X156387042Y-113645585D01*
X156328902Y-113840468D01*
X156242477Y-114016803D01*
X156219476Y-114053383D01*
X156088558Y-114219907D01*
X155931117Y-114359144D01*
X155747152Y-114471095D01*
X155625393Y-114524218D01*
X155431292Y-114583294D01*
X155223435Y-114617641D01*
X155027124Y-114627411D01*
X154869885Y-114621297D01*
X154673697Y-114594125D01*
X154471378Y-114537573D01*
X154288534Y-114453510D01*
X154250505Y-114431284D01*
X154077188Y-114305498D01*
X153931920Y-114155289D01*
X153814703Y-113980655D01*
X153776006Y-113904497D01*
X153701836Y-113703818D01*
X153662655Y-113510643D01*
X153649968Y-113311430D01*
X154438988Y-113311430D01*
X154451081Y-113460253D01*
X154512260Y-113656301D01*
X154575275Y-113762409D01*
X154719378Y-113899567D01*
X154836512Y-113957129D01*
X155037871Y-113988471D01*
X155159229Y-113975969D01*
X155340732Y-113899567D01*
X155440452Y-113816058D01*
X155553712Y-113656301D01*
X155607140Y-113514316D01*
X155631870Y-113311430D01*
X155618971Y-113159457D01*
X155553712Y-112964605D01*
X155486667Y-112859688D01*
X155340732Y-112723293D01*
X155234945Y-112668522D01*
X155037871Y-112633412D01*
X154906530Y-112646051D01*
X154719378Y-112723293D01*
X154627055Y-112799360D01*
X154512260Y-112964605D01*
X154459667Y-113115745D01*
X154438988Y-113311430D01*
X153649968Y-113311430D01*
X153649595Y-113305568D01*
X153651046Y-113235913D01*
X153672813Y-113035191D01*
X153727634Y-112826669D01*
X153814703Y-112633412D01*
X153835902Y-112596783D01*
X153958730Y-112428523D01*
X154109607Y-112285068D01*
X154288534Y-112166420D01*
X154407854Y-112108317D01*
X154601518Y-112043702D01*
X154812801Y-112006135D01*
X155015401Y-111995450D01*
X155142817Y-111999624D01*
G37*
G36*
X152328729Y-112112686D02*
G01*
X152256434Y-112784842D01*
X152273042Y-112684214D01*
X152164904Y-112505257D01*
X152026845Y-112351357D01*
X151981905Y-112311988D01*
X151820899Y-112190386D01*
X151649638Y-112089979D01*
X151615540Y-112073607D01*
X151429245Y-112003454D01*
X151337103Y-111989588D01*
X151377159Y-112773119D01*
X151586682Y-112771928D01*
X151783832Y-112828348D01*
X151847083Y-112863000D01*
X152001704Y-112985858D01*
X152129187Y-113151108D01*
X152149944Y-113188332D01*
X152226379Y-113379585D01*
X152256018Y-113575991D01*
X152256434Y-113602568D01*
X152256434Y-114560000D01*
X153034103Y-114560000D01*
X153034103Y-112112686D01*
X152328729Y-112112686D01*
G37*
G36*
X149649874Y-114627411D02*
G01*
X149865113Y-114616908D01*
X150063377Y-114585401D01*
X150266134Y-114524848D01*
X150408981Y-114459371D01*
X150588652Y-114341753D01*
X150739319Y-114198948D01*
X150860983Y-114030954D01*
X150881835Y-113994333D01*
X150967358Y-113800026D01*
X151017246Y-113610304D01*
X151041478Y-113406517D01*
X151044012Y-113311430D01*
X151028942Y-113109025D01*
X150983734Y-112918367D01*
X150898153Y-112720301D01*
X150853503Y-112645136D01*
X150736217Y-112487656D01*
X150582154Y-112335157D01*
X150422124Y-112218138D01*
X150344501Y-112172281D01*
X150159080Y-112086801D01*
X149962222Y-112029296D01*
X149753927Y-111999767D01*
X149633265Y-111995450D01*
X149411859Y-112010082D01*
X149208405Y-112053980D01*
X149022903Y-112127143D01*
X148855352Y-112229572D01*
X148767669Y-112301242D01*
X148630759Y-112447595D01*
X148516663Y-112619940D01*
X148425381Y-112818279D01*
X148365298Y-113008972D01*
X148328032Y-113182470D01*
X150232149Y-113787215D01*
X150406050Y-113361256D01*
X149028520Y-112897194D01*
X149190697Y-112969490D01*
X149279976Y-112794419D01*
X149350921Y-112715478D01*
X149527300Y-112624115D01*
X149694815Y-112606057D01*
X149894941Y-112637732D01*
X149999630Y-112687145D01*
X150146230Y-112822606D01*
X150201863Y-112916734D01*
X150259780Y-113111676D01*
X150271228Y-113266489D01*
X150252766Y-113465199D01*
X150187208Y-113650439D01*
X150065736Y-113806407D01*
X149957620Y-113882958D01*
X149773047Y-113948217D01*
X149633265Y-113961116D01*
X149437132Y-113933686D01*
X149384138Y-113916175D01*
X149204619Y-113832827D01*
X149145757Y-113797962D01*
X148798932Y-114381214D01*
X148976073Y-114470252D01*
X149165556Y-114542460D01*
X149221960Y-114560000D01*
X149415424Y-114606081D01*
X149611915Y-114626818D01*
X149649874Y-114627411D01*
G37*
G36*
X146093698Y-112112686D02*
G01*
X145556364Y-113372979D01*
X145701933Y-113383726D01*
X145231032Y-112112686D01*
X144469972Y-112112686D01*
X145572972Y-114705568D01*
X146356503Y-113081842D01*
X147073600Y-114705568D01*
X148188325Y-112112686D01*
X147426287Y-112112686D01*
X146833265Y-113473607D01*
X147101933Y-113434528D01*
X146631032Y-112393077D01*
X146759993Y-112112686D01*
X146093698Y-112112686D01*
G37*
G36*
X143311364Y-112005712D02*
G01*
X143512224Y-112060694D01*
X143705003Y-112154696D01*
X143738785Y-112175873D01*
X143895329Y-112297899D01*
X144031266Y-112446829D01*
X144146594Y-112622665D01*
X144203701Y-112739822D01*
X144267208Y-112930368D01*
X144304131Y-113138689D01*
X144314633Y-113338785D01*
X144310674Y-113473271D01*
X144287868Y-113672574D01*
X144237979Y-113873433D01*
X144152456Y-114067606D01*
X144039837Y-114231497D01*
X143889950Y-114378497D01*
X143712819Y-114490635D01*
X143695416Y-114499049D01*
X143495794Y-114573982D01*
X143301296Y-114614053D01*
X143094396Y-114627411D01*
X142914316Y-114615069D01*
X142716308Y-114562930D01*
X142621225Y-114520436D01*
X142447641Y-114411500D01*
X142427597Y-114395394D01*
X142282533Y-114260069D01*
X142276671Y-114254461D01*
X142276671Y-114560000D01*
X141492163Y-114560000D01*
X141492163Y-113020293D01*
X142276671Y-113020293D01*
X142276671Y-113619176D01*
X142300542Y-113663861D01*
X142422240Y-113823363D01*
X142449187Y-113847749D01*
X142618611Y-113946461D01*
X142668693Y-113962831D01*
X142869692Y-113988471D01*
X143006795Y-113973799D01*
X143192093Y-113899567D01*
X143310810Y-113808205D01*
X143430474Y-113653370D01*
X143494287Y-113497322D01*
X143519378Y-113299706D01*
X143503297Y-113137151D01*
X143435359Y-112952882D01*
X143364101Y-112848376D01*
X143208702Y-112714501D01*
X143098151Y-112661515D01*
X142898025Y-112627550D01*
X142815086Y-112631337D01*
X142623496Y-112675422D01*
X142578536Y-112694747D01*
X142411493Y-112810244D01*
X142374320Y-112850014D01*
X142276671Y-113020293D01*
X141492163Y-113020293D01*
X141492163Y-112112686D01*
X142220006Y-112112686D01*
X142271337Y-112363868D01*
X142409052Y-112228208D01*
X142570739Y-112109755D01*
X142720479Y-112041340D01*
X142911779Y-112001323D01*
X143121751Y-111989588D01*
X143311364Y-112005712D01*
G37*
G36*
X140689092Y-114560000D02*
G01*
X140689092Y-110141158D01*
X139905561Y-110141158D01*
X139905561Y-114560000D01*
X140689092Y-114560000D01*
G37*
G36*
X139284207Y-112897194D02*
G01*
X138175345Y-114560000D01*
X139087836Y-114560000D01*
X139799071Y-113344647D01*
X139284207Y-112897194D01*
G37*
G36*
X140141011Y-113881981D02*
G01*
X140219169Y-113137529D01*
X138741011Y-112051137D01*
X138264249Y-112471235D01*
X140141011Y-113881981D01*
G37*
G36*
X137633126Y-112112686D02*
G01*
X136849595Y-112112686D01*
X136849595Y-114560000D01*
X137633126Y-114560000D01*
X137633126Y-112112686D01*
G37*
G36*
X137650711Y-111257836D02*
G01*
X137597283Y-111064884D01*
X137513935Y-110972561D01*
X137334112Y-110876008D01*
X137218890Y-110860209D01*
X137024245Y-110908595D01*
X136930683Y-110972561D01*
X136817339Y-111136203D01*
X136798792Y-111257836D01*
X136850312Y-111450025D01*
X136930683Y-111541158D01*
X137105088Y-111634352D01*
X137218890Y-111649602D01*
X137416921Y-111602899D01*
X137513935Y-111541158D01*
X137631477Y-111379194D01*
X137650711Y-111257836D01*
G37*
G36*
X135847222Y-115736273D02*
G01*
X134217634Y-112112686D01*
X133511284Y-112112686D01*
X135091046Y-115736273D01*
X135847222Y-115736273D01*
G37*
G36*
X135191674Y-114570746D02*
G01*
X136390418Y-112112686D01*
X135511144Y-112112686D01*
X134586929Y-114178981D01*
X135191674Y-114570746D01*
G37*
G36*
X132078477Y-111999624D02*
G01*
X132296046Y-112028174D01*
X132498468Y-112083773D01*
X132685743Y-112166420D01*
X132744215Y-112199410D01*
X132904691Y-112311775D01*
X133056713Y-112460190D01*
X133181067Y-112633412D01*
X133222283Y-112708883D01*
X133301280Y-112908246D01*
X133343012Y-113100725D01*
X133356922Y-113305568D01*
X133352557Y-113432155D01*
X133322701Y-113645585D01*
X133264561Y-113840468D01*
X133178136Y-114016803D01*
X133155135Y-114053383D01*
X133024217Y-114219907D01*
X132866776Y-114359144D01*
X132682812Y-114471095D01*
X132561053Y-114524218D01*
X132366951Y-114583294D01*
X132159094Y-114617641D01*
X131962784Y-114627411D01*
X131805545Y-114621297D01*
X131609357Y-114594125D01*
X131407038Y-114537573D01*
X131224193Y-114453510D01*
X131186164Y-114431284D01*
X131012847Y-114305498D01*
X130867580Y-114155289D01*
X130750362Y-113980655D01*
X130711665Y-113904497D01*
X130637495Y-113703818D01*
X130598315Y-113510643D01*
X130585627Y-113311430D01*
X131374647Y-113311430D01*
X131386740Y-113460253D01*
X131447920Y-113656301D01*
X131510935Y-113762409D01*
X131655038Y-113899567D01*
X131772171Y-113957129D01*
X131973531Y-113988471D01*
X132094889Y-113975969D01*
X132276392Y-113899567D01*
X132376111Y-113816058D01*
X132489371Y-113656301D01*
X132542800Y-113514316D01*
X132567529Y-113311430D01*
X132554630Y-113159457D01*
X132489371Y-112964605D01*
X132422327Y-112859688D01*
X132276392Y-112723293D01*
X132170604Y-112668522D01*
X131973531Y-112633412D01*
X131842189Y-112646051D01*
X131655038Y-112723293D01*
X131562714Y-112799360D01*
X131447920Y-112964605D01*
X131395327Y-113115745D01*
X131374647Y-113311430D01*
X130585627Y-113311430D01*
X130585254Y-113305568D01*
X130586705Y-113235913D01*
X130608473Y-113035191D01*
X130663294Y-112826669D01*
X130750362Y-112633412D01*
X130771562Y-112596783D01*
X130894389Y-112428523D01*
X131045267Y-112285068D01*
X131224193Y-112166420D01*
X131343514Y-112108317D01*
X131537177Y-112043702D01*
X131748461Y-112006135D01*
X131951060Y-111995450D01*
X132078477Y-111999624D01*
G37*
%LPC*%
D10*
%TO.C,kibuzzard-68265CF0*%
G36*
X120494506Y-70407639D02*
G01*
X120540644Y-70517082D01*
X120492361Y-70623305D01*
X120379700Y-70669442D01*
X120275622Y-70623305D01*
X120231631Y-70514936D01*
X120275622Y-70405494D01*
X120383991Y-70360429D01*
X120494506Y-70407639D01*
G37*
G36*
X124103352Y-70310000D02*
G01*
X123468398Y-71262432D01*
X123021330Y-71262432D01*
X122463391Y-71262432D01*
X121233777Y-71262432D01*
X120025622Y-71262432D01*
X119117897Y-71262432D01*
X117886137Y-71262432D01*
X117156524Y-71262432D01*
X116658670Y-71262432D01*
X116211602Y-71262432D01*
X115576648Y-71262432D01*
X115944792Y-70710215D01*
X116677983Y-70710215D01*
X116697124Y-70843863D01*
X116754549Y-70947811D01*
X116850258Y-71022060D01*
X116984249Y-71066609D01*
X117156524Y-71081459D01*
X117298423Y-71066974D01*
X117445150Y-71023519D01*
X117557006Y-70958605D01*
X117594292Y-70879742D01*
X117574442Y-70803562D01*
X117514893Y-70703777D01*
X117431202Y-70660858D01*
X117282060Y-70713433D01*
X117122189Y-70766009D01*
X117040644Y-70731674D01*
X117071760Y-70694120D01*
X117177983Y-70664077D01*
X117293863Y-70635107D01*
X117409340Y-70582935D01*
X117491824Y-70507961D01*
X117541314Y-70410188D01*
X117557811Y-70289614D01*
X117533285Y-70165150D01*
X117690858Y-70165150D01*
X117690858Y-70871159D01*
X117691931Y-70928026D01*
X117703734Y-70977382D01*
X117733777Y-71021373D01*
X117791717Y-71048197D01*
X117886137Y-71060000D01*
X118014356Y-71034785D01*
X118072833Y-70959142D01*
X118177446Y-71033176D01*
X118293863Y-71057854D01*
X118425002Y-71040448D01*
X118540882Y-70988231D01*
X118641502Y-70901202D01*
X118718994Y-70788660D01*
X118765489Y-70659905D01*
X118780987Y-70514936D01*
X118780987Y-70171588D01*
X118866824Y-70171588D01*
X118882918Y-70277811D01*
X118930129Y-70336824D01*
X118989142Y-70359356D01*
X119062103Y-70364721D01*
X119173691Y-70362575D01*
X119173691Y-70611502D01*
X119161888Y-70675880D01*
X119115751Y-70693047D01*
X119036352Y-70697339D01*
X118978412Y-70717725D01*
X118935494Y-70770300D01*
X118922618Y-70869013D01*
X118938712Y-70979528D01*
X118989142Y-71038541D01*
X119048155Y-71058927D01*
X119117897Y-71062146D01*
X119256309Y-71050463D01*
X119368255Y-71015412D01*
X119453734Y-70956996D01*
X119513939Y-70874020D01*
X119550062Y-70765293D01*
X119562103Y-70630815D01*
X119562103Y-70358283D01*
X119615751Y-70358283D01*
X119715536Y-70311073D01*
X119744506Y-70169442D01*
X119743974Y-70167296D01*
X119830343Y-70167296D01*
X119830343Y-70864721D01*
X119833562Y-70937682D01*
X119853948Y-70994549D01*
X119914034Y-71042833D01*
X120025622Y-71057854D01*
X120147403Y-71038541D01*
X120208026Y-70980601D01*
X120310494Y-71038541D01*
X120433348Y-71057854D01*
X120557454Y-71039495D01*
X120672260Y-70984416D01*
X120777768Y-70892618D01*
X120861817Y-70776977D01*
X120912246Y-70650367D01*
X120929056Y-70512790D01*
X120912127Y-70378789D01*
X120861340Y-70254325D01*
X120800403Y-70171588D01*
X120982704Y-70171588D01*
X120998798Y-70277811D01*
X121046009Y-70336824D01*
X121105021Y-70359356D01*
X121177983Y-70364721D01*
X121289571Y-70362575D01*
X121289571Y-70611502D01*
X121277768Y-70675880D01*
X121231631Y-70693047D01*
X121152232Y-70697339D01*
X121094292Y-70717725D01*
X121051373Y-70770300D01*
X121038498Y-70869013D01*
X121054592Y-70979528D01*
X121105021Y-71038541D01*
X121164034Y-71058927D01*
X121233777Y-71062146D01*
X121372189Y-71050463D01*
X121484134Y-71015412D01*
X121569614Y-70956996D01*
X121629819Y-70874020D01*
X121665942Y-70765293D01*
X121677983Y-70630815D01*
X121677983Y-70577167D01*
X121911888Y-70577167D01*
X121921009Y-70679635D01*
X121948369Y-70772446D01*
X122041717Y-70917296D01*
X122173691Y-71012790D01*
X122320687Y-71067511D01*
X122463391Y-71083605D01*
X122583562Y-71073948D01*
X122684421Y-71050343D01*
X122767039Y-71014936D01*
X122833562Y-70974163D01*
X122885064Y-70932318D01*
X122922618Y-70894764D01*
X122946223Y-70864721D01*
X122959099Y-70849700D01*
X123012747Y-70710215D01*
X122922618Y-70572876D01*
X122833443Y-70523281D01*
X122740453Y-70537587D01*
X122643648Y-70615794D01*
X122556738Y-70694120D01*
X122471974Y-70714506D01*
X122345365Y-70683391D01*
X122306738Y-70583605D01*
X122362532Y-70517082D01*
X122530987Y-70466652D01*
X122633187Y-70439024D01*
X122714464Y-70409785D01*
X122834635Y-70341116D01*
X122920472Y-70248841D01*
X122971974Y-70132961D01*
X122989142Y-69993476D01*
X122973166Y-69869371D01*
X122925241Y-69760286D01*
X122845365Y-69666223D01*
X122741168Y-69594096D01*
X122620281Y-69550820D01*
X122482704Y-69536395D01*
X122320806Y-69550701D01*
X122184182Y-69593619D01*
X122072833Y-69665150D01*
X121995579Y-69775665D01*
X122047082Y-69907639D01*
X122173691Y-70011717D01*
X122317468Y-69972017D01*
X122342146Y-69951631D01*
X122372189Y-69926953D01*
X122414034Y-69910858D01*
X122484850Y-69903348D01*
X122564249Y-69930172D01*
X122598584Y-69995622D01*
X122561030Y-70065365D01*
X122476266Y-70102918D01*
X122345365Y-70129742D01*
X122208026Y-70163004D01*
X122086513Y-70218798D01*
X121992361Y-70300343D01*
X121932006Y-70416760D01*
X121911888Y-70577167D01*
X121677983Y-70577167D01*
X121677983Y-70358283D01*
X121731631Y-70358283D01*
X121831416Y-70311073D01*
X121860386Y-70169442D01*
X121826052Y-70031030D01*
X121723047Y-69984893D01*
X121677983Y-69984893D01*
X121677983Y-69798197D01*
X121674764Y-69726309D01*
X121654378Y-69670515D01*
X121595365Y-69625451D01*
X121482704Y-69611502D01*
X121374335Y-69626524D01*
X121315322Y-69674807D01*
X121293863Y-69734893D01*
X121289571Y-69806781D01*
X121289571Y-69978455D01*
X121175837Y-69974163D01*
X121118970Y-69975236D01*
X121068541Y-69987039D01*
X121022403Y-70017082D01*
X120994506Y-70076094D01*
X120982704Y-70171588D01*
X120800403Y-70171588D01*
X120776695Y-70139399D01*
X120670830Y-70047601D01*
X120556381Y-69992523D01*
X120433348Y-69974163D01*
X120307275Y-69995622D01*
X120208026Y-70060000D01*
X120153305Y-69994013D01*
X120023476Y-69972017D01*
X119912961Y-69987039D01*
X119853948Y-70036395D01*
X119833562Y-70095408D01*
X119830343Y-70167296D01*
X119743974Y-70167296D01*
X119710172Y-70031030D01*
X119607167Y-69984893D01*
X119562103Y-69984893D01*
X119562103Y-69798197D01*
X119558884Y-69726309D01*
X119538498Y-69670515D01*
X119479485Y-69625451D01*
X119366824Y-69611502D01*
X119258455Y-69626524D01*
X119199442Y-69674807D01*
X119177983Y-69734893D01*
X119173691Y-69806781D01*
X119173691Y-69978455D01*
X119059957Y-69974163D01*
X119003090Y-69975236D01*
X118952661Y-69987039D01*
X118906524Y-70017082D01*
X118878627Y-70076094D01*
X118866824Y-70171588D01*
X118780987Y-70171588D01*
X118780987Y-70165150D01*
X118777768Y-70091116D01*
X118757382Y-70033176D01*
X118697296Y-69984893D01*
X118585708Y-69969871D01*
X118474120Y-69984893D01*
X118414034Y-70034249D01*
X118393648Y-70093262D01*
X118390429Y-70167296D01*
X118390429Y-70514936D01*
X118349657Y-70628670D01*
X118235923Y-70669442D01*
X118123262Y-70627597D01*
X118081416Y-70514936D01*
X118081416Y-70163004D01*
X118078197Y-70091116D01*
X118057811Y-70033176D01*
X117998798Y-69984893D01*
X117886137Y-69969871D01*
X117774549Y-69984893D01*
X117714464Y-70034249D01*
X117694077Y-70093262D01*
X117690858Y-70165150D01*
X117533285Y-70165150D01*
X117529109Y-70143959D01*
X117443004Y-70037468D01*
X117354425Y-69989185D01*
X117241764Y-69960215D01*
X117105021Y-69950558D01*
X116956416Y-69968262D01*
X116806738Y-70021373D01*
X116723584Y-70110429D01*
X116770258Y-70244549D01*
X116877554Y-70326094D01*
X116995579Y-70287468D01*
X117128627Y-70248841D01*
X117208026Y-70291760D01*
X117204807Y-70311073D01*
X117195150Y-70326094D01*
X117181202Y-70337897D01*
X117160815Y-70347554D01*
X117137210Y-70355064D01*
X117109313Y-70362575D01*
X117079270Y-70369013D01*
X117044936Y-70374378D01*
X117010601Y-70379742D01*
X116893648Y-70407639D01*
X116790644Y-70456996D01*
X116706953Y-70555708D01*
X116677983Y-70710215D01*
X115944792Y-70710215D01*
X116211602Y-70310000D01*
X115576648Y-69357568D01*
X116211602Y-69357568D01*
X116658670Y-69357568D01*
X123021330Y-69357568D01*
X123468398Y-69357568D01*
X124103352Y-70310000D01*
G37*
%TO.C,kibuzzard-68265B48*%
G36*
X169563970Y-72020479D02*
G01*
X169631209Y-72147804D01*
X169310751Y-72147804D01*
X169233498Y-72079134D01*
X169279277Y-71994728D01*
X169402310Y-71964685D01*
X169563970Y-72020479D01*
G37*
G36*
X175749950Y-72116330D02*
G01*
X175811466Y-72262253D01*
X175747089Y-72403884D01*
X175596874Y-72465400D01*
X175458104Y-72403884D01*
X175399449Y-72259392D01*
X175458104Y-72113469D01*
X175602596Y-72053383D01*
X175749950Y-72116330D01*
G37*
G36*
X182006348Y-71987575D02*
G01*
X180522959Y-74212658D01*
X179330780Y-74212658D01*
X178586860Y-74212658D01*
X176990293Y-74212658D01*
X175124771Y-74212658D01*
X173499592Y-74212658D01*
X172149091Y-74212658D01*
X169399449Y-74212658D01*
X168337933Y-74212658D01*
X168063254Y-74212658D01*
X166871075Y-74212658D01*
X165387686Y-74212658D01*
X166382758Y-72720050D01*
X168063254Y-72720050D01*
X168068977Y-72820193D01*
X168097589Y-72901738D01*
X168180565Y-72970408D01*
X168337933Y-72991867D01*
X168474199Y-72976488D01*
X168556817Y-72930350D01*
X168612611Y-72714328D01*
X168609749Y-72637074D01*
X168592582Y-72565544D01*
X168551094Y-72499735D01*
X168469549Y-72459678D01*
X168337933Y-72442876D01*
X168335071Y-72442511D01*
X168199163Y-72457532D01*
X168117618Y-72502596D01*
X168063254Y-72720050D01*
X166382758Y-72720050D01*
X166871075Y-71987575D01*
X166356054Y-71215043D01*
X168074699Y-71215043D01*
X168074699Y-72059106D01*
X168078991Y-72144943D01*
X168106173Y-72213612D01*
X168186287Y-72270837D01*
X168337933Y-72288004D01*
X168486717Y-72270837D01*
X168566831Y-72213612D01*
X168594013Y-72143512D01*
X168597039Y-72081996D01*
X168735644Y-72081996D01*
X168755315Y-72223984D01*
X168814327Y-72329492D01*
X168905529Y-72394943D01*
X169021767Y-72416760D01*
X169631209Y-72416760D01*
X169545372Y-72525486D01*
X169376559Y-72565544D01*
X169144800Y-72528348D01*
X169013183Y-72491152D01*
X168918762Y-72525486D01*
X168841509Y-72628491D01*
X168804313Y-72760107D01*
X168841509Y-72874020D01*
X168953097Y-72955386D01*
X169139077Y-73004206D01*
X169399449Y-73020479D01*
X169591151Y-73002954D01*
X169759964Y-72950379D01*
X169899807Y-72869192D01*
X170004599Y-72765830D01*
X170081137Y-72648519D01*
X170136216Y-72525486D01*
X170169478Y-72398162D01*
X170180565Y-72267976D01*
X170179906Y-72262253D01*
X170300737Y-72262253D01*
X170300737Y-72728634D01*
X170305028Y-72827346D01*
X170332210Y-72904599D01*
X170412325Y-72968977D01*
X170563970Y-72989006D01*
X170711323Y-72968977D01*
X170790007Y-72903169D01*
X170817189Y-72823054D01*
X170821481Y-72725772D01*
X170821481Y-72259392D01*
X170855815Y-72107031D01*
X170958820Y-72056245D01*
X171063254Y-72102024D01*
X171093297Y-72262253D01*
X171093297Y-72728634D01*
X171097589Y-72827346D01*
X171124771Y-72904599D01*
X171204885Y-72968977D01*
X171356531Y-72989006D01*
X171503884Y-72968977D01*
X171582568Y-72903169D01*
X171609749Y-72823054D01*
X171614041Y-72725772D01*
X171614041Y-72259392D01*
X171648376Y-72107031D01*
X171751380Y-72056245D01*
X171852239Y-72107031D01*
X171885858Y-72259392D01*
X171885858Y-72731495D01*
X171890150Y-72828777D01*
X171917332Y-72904599D01*
X171997446Y-72968977D01*
X172149091Y-72989006D01*
X172296445Y-72968977D01*
X172375129Y-72904599D01*
X172402310Y-72827346D01*
X172406602Y-72728634D01*
X172406602Y-72259392D01*
X173239220Y-72259392D01*
X173239220Y-72728634D01*
X173243512Y-72824485D01*
X173270694Y-72901738D01*
X173349378Y-72966116D01*
X173499592Y-72986144D01*
X173651237Y-72966116D01*
X173731352Y-72900307D01*
X173758533Y-72821624D01*
X173762825Y-72725772D01*
X173762825Y-72259392D01*
X173815758Y-72107747D01*
X173965973Y-72053383D01*
X174117618Y-72109177D01*
X174174842Y-72259392D01*
X174174842Y-72728634D01*
X174179134Y-72824485D01*
X174206316Y-72901738D01*
X174286430Y-72966116D01*
X174435214Y-72986144D01*
X174582568Y-72966116D01*
X174661252Y-72901738D01*
X174688433Y-72824485D01*
X174692725Y-72725772D01*
X174692725Y-71795873D01*
X174864399Y-71795873D01*
X174864399Y-72725772D01*
X174868691Y-72823054D01*
X174895873Y-72898877D01*
X174975987Y-72963255D01*
X175124771Y-72983283D01*
X175287146Y-72957532D01*
X175367976Y-72880279D01*
X175504599Y-72957532D01*
X175668405Y-72983283D01*
X175833879Y-72958804D01*
X175986955Y-72885365D01*
X176127632Y-72762968D01*
X176239697Y-72608780D01*
X176306936Y-72439967D01*
X176329349Y-72256531D01*
X176306777Y-72077863D01*
X176239061Y-71911911D01*
X176178885Y-71830207D01*
X176443798Y-71830207D01*
X176503884Y-71993297D01*
X176606888Y-72111323D01*
X176709893Y-72150665D01*
X176851523Y-72099163D01*
X176996016Y-72047661D01*
X177144800Y-72109177D01*
X177207747Y-72259392D01*
X177146230Y-72411037D01*
X177001738Y-72473984D01*
X176875844Y-72436788D01*
X176727060Y-72373841D01*
X176627632Y-72411752D01*
X176512468Y-72525486D01*
X176447295Y-72657739D01*
X176476861Y-72779818D01*
X176601166Y-72891724D01*
X176795729Y-72975415D01*
X176990293Y-73003312D01*
X177114399Y-72991152D01*
X177240651Y-72954671D01*
X177364757Y-72896016D01*
X177482425Y-72817332D01*
X177586144Y-72713970D01*
X177668405Y-72581280D01*
X177722053Y-72426416D01*
X177730900Y-72342368D01*
X177851523Y-72342368D01*
X177863684Y-72478991D01*
X177900164Y-72602740D01*
X178024628Y-72795873D01*
X178200594Y-72923197D01*
X178396588Y-72996159D01*
X178586860Y-73017618D01*
X178747089Y-73004742D01*
X178881566Y-72973269D01*
X178991724Y-72926059D01*
X179080422Y-72871695D01*
X179149091Y-72815901D01*
X179199163Y-72765830D01*
X179230636Y-72725772D01*
X179247804Y-72705744D01*
X179319335Y-72519764D01*
X179199163Y-72336645D01*
X179080263Y-72270519D01*
X178956276Y-72289594D01*
X178827203Y-72393870D01*
X178711323Y-72498305D01*
X178598305Y-72525486D01*
X178429492Y-72483998D01*
X178377990Y-72350951D01*
X178452382Y-72262253D01*
X178676988Y-72195014D01*
X178813254Y-72158176D01*
X178921624Y-72119192D01*
X179081852Y-72027632D01*
X179196302Y-71904599D01*
X179264971Y-71750093D01*
X179287861Y-71564113D01*
X179266561Y-71398638D01*
X179202660Y-71253193D01*
X179096159Y-71127775D01*
X178957230Y-71031606D01*
X178796047Y-70973905D01*
X178612611Y-70954671D01*
X178396747Y-70973746D01*
X178214582Y-71030970D01*
X178066116Y-71126345D01*
X177963111Y-71273698D01*
X178031781Y-71449664D01*
X178200594Y-71588433D01*
X178392296Y-71535501D01*
X178425200Y-71508319D01*
X178465257Y-71475415D01*
X178521051Y-71453956D01*
X178615472Y-71443941D01*
X178721337Y-71479707D01*
X178767117Y-71566974D01*
X178717046Y-71659964D01*
X178604027Y-71710036D01*
X178429492Y-71745801D01*
X178246373Y-71790150D01*
X178084356Y-71864542D01*
X177958820Y-71973269D01*
X177878347Y-72128491D01*
X177851523Y-72342368D01*
X177730900Y-72342368D01*
X177739935Y-72256531D01*
X177722053Y-72089149D01*
X177668405Y-71936073D01*
X177586502Y-71804814D01*
X177483855Y-71702883D01*
X177367260Y-71625272D01*
X177243512Y-71566974D01*
X177117976Y-71530493D01*
X176996016Y-71518333D01*
X176791438Y-71546946D01*
X176601166Y-71632782D01*
X176525343Y-71682854D01*
X176470980Y-71744370D01*
X176443798Y-71830207D01*
X176178885Y-71830207D01*
X176126202Y-71758677D01*
X175985048Y-71636279D01*
X175832449Y-71562841D01*
X175668405Y-71538362D01*
X175500307Y-71566974D01*
X175367976Y-71652811D01*
X175295014Y-71564828D01*
X175121910Y-71535501D01*
X174974556Y-71555529D01*
X174895873Y-71621338D01*
X174868691Y-71700021D01*
X174864399Y-71795873D01*
X174692725Y-71795873D01*
X174692725Y-71784428D01*
X174687003Y-71690007D01*
X174659821Y-71615615D01*
X174581137Y-71554099D01*
X174432353Y-71535501D01*
X174297875Y-71552668D01*
X174220622Y-71599878D01*
X174189149Y-71654242D01*
X174180565Y-71712897D01*
X174027489Y-71589864D01*
X173820050Y-71535501D01*
X173649012Y-71558073D01*
X173505950Y-71625788D01*
X173390865Y-71738648D01*
X173306618Y-71886796D01*
X173256070Y-72060377D01*
X173239220Y-72259392D01*
X172406602Y-72259392D01*
X172406602Y-71793011D01*
X172402310Y-71695730D01*
X172375129Y-71619907D01*
X172295014Y-71555529D01*
X172143369Y-71535501D01*
X171980279Y-71570551D01*
X171903026Y-71675701D01*
X171772840Y-71568405D01*
X171622625Y-71532639D01*
X171459217Y-71555847D01*
X171323785Y-71625470D01*
X171216330Y-71741509D01*
X171095841Y-71625470D01*
X170967085Y-71555847D01*
X170830064Y-71532639D01*
X170674763Y-71553781D01*
X170544577Y-71617205D01*
X170439506Y-71722911D01*
X170362412Y-71867403D01*
X170316155Y-72047184D01*
X170300737Y-72262253D01*
X170179906Y-72262253D01*
X170156244Y-72056721D01*
X170083283Y-71873126D01*
X169961681Y-71717189D01*
X169801611Y-71598766D01*
X169613247Y-71527712D01*
X169396588Y-71504027D01*
X169199640Y-71524692D01*
X169036073Y-71586685D01*
X168905887Y-71690007D01*
X168778204Y-71880994D01*
X168735644Y-72081996D01*
X168597039Y-72081996D01*
X168598305Y-72056245D01*
X168598305Y-71212182D01*
X168594013Y-71124914D01*
X168566831Y-71053383D01*
X168486717Y-70993297D01*
X168335071Y-70974699D01*
X168186287Y-70993297D01*
X168106173Y-71054814D01*
X168078991Y-71127775D01*
X168074699Y-71215043D01*
X166356054Y-71215043D01*
X165387686Y-69762492D01*
X166871075Y-69762492D01*
X168063254Y-69762492D01*
X179330780Y-69762492D01*
X180522959Y-69762492D01*
X182006348Y-71987575D01*
G37*
%TO.C,kibuzzard-68265CCE*%
G36*
X131170043Y-72631202D02*
G01*
X131254092Y-72790358D01*
X130853519Y-72790358D01*
X130756953Y-72704521D01*
X130814177Y-72599013D01*
X130967969Y-72561459D01*
X131170043Y-72631202D01*
G37*
G36*
X134628555Y-72631202D02*
G01*
X134712604Y-72790358D01*
X134312031Y-72790358D01*
X134215465Y-72704521D01*
X134272690Y-72599013D01*
X134426481Y-72561459D01*
X134628555Y-72631202D01*
G37*
G36*
X141345293Y-72720615D02*
G01*
X141429342Y-72929843D01*
X141336352Y-73148011D01*
X141139642Y-73219542D01*
X140939356Y-73148011D01*
X140842790Y-72926266D01*
X140925050Y-72715250D01*
X141143219Y-72636567D01*
X141345293Y-72720615D01*
G37*
G36*
X143341001Y-72720615D02*
G01*
X143425050Y-72929843D01*
X143332060Y-73148011D01*
X143135351Y-73219542D01*
X142935064Y-73148011D01*
X142838498Y-72926266D01*
X142920758Y-72715250D01*
X143138927Y-72636567D01*
X143341001Y-72720615D01*
G37*
G36*
X147823794Y-72540000D02*
G01*
X146730963Y-74179247D01*
X145985851Y-74179247D01*
X145660386Y-74179247D01*
X143128197Y-74179247D01*
X141132489Y-74179247D01*
X138696867Y-74179247D01*
X135878555Y-74179247D01*
X134422904Y-74179247D01*
X133110315Y-74179247D01*
X130964392Y-74179247D01*
X129637496Y-74179247D01*
X129294149Y-74179247D01*
X128549037Y-74179247D01*
X127456206Y-74179247D01*
X127905261Y-73505665D01*
X129294149Y-73505665D01*
X129301302Y-73630844D01*
X129337067Y-73732775D01*
X129440787Y-73818612D01*
X129637496Y-73845436D01*
X129807829Y-73826212D01*
X129911102Y-73768541D01*
X129980844Y-73498512D01*
X129977268Y-73401946D01*
X129955808Y-73312532D01*
X129903948Y-73230272D01*
X129802017Y-73180200D01*
X129637496Y-73159198D01*
X129633920Y-73158741D01*
X129464034Y-73177518D01*
X129362103Y-73233848D01*
X129294149Y-73505665D01*
X127905261Y-73505665D01*
X128549037Y-72540000D01*
X127938641Y-71624406D01*
X129308455Y-71624406D01*
X129308455Y-72679485D01*
X129313820Y-72786781D01*
X129347797Y-72872618D01*
X129447940Y-72944149D01*
X129637496Y-72965608D01*
X129823476Y-72944149D01*
X129923619Y-72872618D01*
X129957597Y-72784993D01*
X129961378Y-72708097D01*
X130134635Y-72708097D01*
X130159224Y-72885583D01*
X130232990Y-73017468D01*
X130346992Y-73099281D01*
X130492289Y-73126552D01*
X131254092Y-73126552D01*
X131146795Y-73262461D01*
X130935780Y-73312532D01*
X130646080Y-73266037D01*
X130481559Y-73219542D01*
X130363534Y-73262461D01*
X130266967Y-73391216D01*
X130220472Y-73555737D01*
X130266967Y-73698128D01*
X130406452Y-73799835D01*
X130638927Y-73860860D01*
X130964392Y-73881202D01*
X131204020Y-73859295D01*
X131415036Y-73793577D01*
X131589839Y-73692092D01*
X131720830Y-73562890D01*
X131816502Y-73416252D01*
X131885351Y-73262461D01*
X131926928Y-73103305D01*
X131940787Y-72940572D01*
X131910386Y-72676505D01*
X131819185Y-72447010D01*
X131676944Y-72264607D01*
X132030200Y-72264607D01*
X132049871Y-72432257D01*
X132108884Y-72570401D01*
X132309170Y-72693791D01*
X132446867Y-72666967D01*
X132534492Y-72640143D01*
X132711531Y-72692003D01*
X132781273Y-72822546D01*
X132781273Y-73519971D01*
X132786638Y-73641574D01*
X132820615Y-73736352D01*
X132920758Y-73816824D01*
X133110315Y-73841860D01*
X133294506Y-73816824D01*
X133392861Y-73734564D01*
X133426838Y-73636209D01*
X133432203Y-73512818D01*
X133432203Y-72708097D01*
X133593147Y-72708097D01*
X133617736Y-72885583D01*
X133691502Y-73017468D01*
X133805504Y-73099281D01*
X133950801Y-73126552D01*
X134712604Y-73126552D01*
X134605308Y-73262461D01*
X134394292Y-73312532D01*
X134104592Y-73266037D01*
X133940072Y-73219542D01*
X133822046Y-73262461D01*
X133725479Y-73391216D01*
X133678984Y-73555737D01*
X133725479Y-73698128D01*
X133864964Y-73799835D01*
X134097439Y-73860860D01*
X134422904Y-73881202D01*
X134662532Y-73859295D01*
X134873548Y-73793577D01*
X135048351Y-73692092D01*
X135179342Y-73562890D01*
X135275014Y-73416252D01*
X135343863Y-73262461D01*
X135385440Y-73103305D01*
X135399299Y-72940572D01*
X135398476Y-72933419D01*
X135553090Y-72933419D01*
X135553090Y-73519971D01*
X135558455Y-73639785D01*
X135592432Y-73736352D01*
X135692575Y-73816824D01*
X135878555Y-73841860D01*
X136062747Y-73816824D01*
X136161102Y-73738140D01*
X136196867Y-73639785D01*
X136204020Y-73512818D01*
X136204020Y-72929843D01*
X136268398Y-72745651D01*
X136443648Y-72675908D01*
X136622475Y-72736710D01*
X136719041Y-72876195D01*
X136719041Y-73519971D01*
X136724406Y-73641574D01*
X136758383Y-73736352D01*
X136858526Y-73816824D01*
X137044506Y-73841860D01*
X137228698Y-73816824D01*
X137327053Y-73736352D01*
X137361030Y-73639785D01*
X137366395Y-73516395D01*
X137366395Y-73477053D01*
X138342790Y-73477053D01*
X138460815Y-73716681D01*
X138589571Y-73826660D01*
X138696867Y-73863319D01*
X138925765Y-73734564D01*
X139365680Y-73323262D01*
X139365680Y-73519971D01*
X139371044Y-73641574D01*
X139405021Y-73736352D01*
X139503376Y-73816824D01*
X139691144Y-73841860D01*
X139875336Y-73816824D01*
X139973691Y-73734564D01*
X140007668Y-73636209D01*
X140013033Y-73516395D01*
X140013033Y-72929843D01*
X140188283Y-72929843D01*
X140221068Y-73193314D01*
X140319423Y-73421021D01*
X140483348Y-73612961D01*
X140686614Y-73758010D01*
X140902995Y-73845039D01*
X141132489Y-73874049D01*
X141364169Y-73844443D01*
X141582338Y-73755625D01*
X141786996Y-73607597D01*
X141951914Y-73414265D01*
X142050865Y-73189539D01*
X142083848Y-72933419D01*
X142083401Y-72929843D01*
X142183991Y-72929843D01*
X142216776Y-73193314D01*
X142315131Y-73421021D01*
X142479056Y-73612961D01*
X142682322Y-73758010D01*
X142898703Y-73845039D01*
X143128197Y-73874049D01*
X143359878Y-73844443D01*
X143578046Y-73755625D01*
X143782704Y-73607597D01*
X143820840Y-73562890D01*
X144183276Y-73562890D01*
X144204735Y-73720258D01*
X144274478Y-73806094D01*
X144360315Y-73836495D01*
X144462246Y-73841860D01*
X145660386Y-73841860D01*
X145846366Y-73816824D01*
X145946509Y-73734564D01*
X145980486Y-73636209D01*
X145985851Y-73512818D01*
X145985851Y-71663748D01*
X145980486Y-71543934D01*
X145946509Y-71445579D01*
X145846366Y-71363319D01*
X145656810Y-71338283D01*
X145470830Y-71363319D01*
X145370687Y-71445579D01*
X145336710Y-71543934D01*
X145331345Y-71667325D01*
X145331345Y-73283920D01*
X144458670Y-73283920D01*
X144356738Y-73289285D01*
X144274478Y-73317897D01*
X144204735Y-73401946D01*
X144183276Y-73562890D01*
X143820840Y-73562890D01*
X143947622Y-73414265D01*
X144046573Y-73189539D01*
X144079557Y-72933419D01*
X144048560Y-72685645D01*
X143955570Y-72462111D01*
X143800587Y-72262818D01*
X143602685Y-72106842D01*
X143380939Y-72013255D01*
X143135351Y-71982060D01*
X142883999Y-72012659D01*
X142659274Y-72104457D01*
X142461173Y-72257454D01*
X142307183Y-72454560D01*
X142214789Y-72678690D01*
X142183991Y-72929843D01*
X142083401Y-72929843D01*
X142052852Y-72685645D01*
X141959862Y-72462111D01*
X141804878Y-72262818D01*
X141606977Y-72106842D01*
X141385231Y-72013255D01*
X141139642Y-71982060D01*
X140888291Y-72012659D01*
X140663565Y-72104457D01*
X140465465Y-72257454D01*
X140311475Y-72454560D01*
X140219081Y-72678690D01*
X140188283Y-72929843D01*
X140013033Y-72929843D01*
X140013033Y-71524263D01*
X140007668Y-71400873D01*
X139973691Y-71304306D01*
X139873548Y-71223834D01*
X139687568Y-71198798D01*
X139503376Y-71223834D01*
X139405021Y-71306094D01*
X139371044Y-71404449D01*
X139365680Y-71527840D01*
X139365680Y-72514964D01*
X139061674Y-72218112D01*
X138827411Y-72091144D01*
X138596724Y-72218112D01*
X138462604Y-72461316D01*
X138596724Y-72683062D01*
X138886423Y-72936996D01*
X138482275Y-73251731D01*
X138342790Y-73477053D01*
X137366395Y-73477053D01*
X137366395Y-71527840D01*
X137361030Y-71408026D01*
X137327053Y-71311459D01*
X137228698Y-71230987D01*
X137040930Y-71205951D01*
X136856738Y-71230987D01*
X136758383Y-71311459D01*
X136724406Y-71408026D01*
X136719041Y-71531416D01*
X136719041Y-72182346D01*
X136549156Y-72067003D01*
X136361388Y-72028555D01*
X136144808Y-72057565D01*
X135952868Y-72144594D01*
X135785565Y-72289642D01*
X135656412Y-72477212D01*
X135578921Y-72691804D01*
X135553090Y-72933419D01*
X135398476Y-72933419D01*
X135368898Y-72676505D01*
X135277697Y-72447010D01*
X135125694Y-72252089D01*
X134925606Y-72104060D01*
X134690151Y-72015242D01*
X134419328Y-71985637D01*
X134173143Y-72011467D01*
X133968684Y-72088959D01*
X133805951Y-72218112D01*
X133646348Y-72456845D01*
X133593147Y-72708097D01*
X133432203Y-72708097D01*
X133432203Y-72346867D01*
X133426838Y-72225265D01*
X133392861Y-72130486D01*
X133294506Y-72050014D01*
X133106738Y-72024979D01*
X132899299Y-72061638D01*
X132799156Y-72171617D01*
X132618541Y-72048226D01*
X132427196Y-72007096D01*
X132319900Y-72016037D01*
X132191144Y-72048226D01*
X132074907Y-72128698D01*
X132030200Y-72264607D01*
X131676944Y-72264607D01*
X131667182Y-72252089D01*
X131467094Y-72104060D01*
X131231639Y-72015242D01*
X130960815Y-71985637D01*
X130714630Y-72011467D01*
X130510172Y-72088959D01*
X130347439Y-72218112D01*
X130187836Y-72456845D01*
X130134635Y-72708097D01*
X129961378Y-72708097D01*
X129962961Y-72675908D01*
X129962961Y-71620830D01*
X129957597Y-71511745D01*
X129923619Y-71422332D01*
X129823476Y-71347225D01*
X129633920Y-71323977D01*
X129447940Y-71347225D01*
X129347797Y-71424120D01*
X129313820Y-71515322D01*
X129308455Y-71624406D01*
X127938641Y-71624406D01*
X127456206Y-70900753D01*
X128549037Y-70900753D01*
X129294149Y-70900753D01*
X145985851Y-70900753D01*
X146730963Y-70900753D01*
X147823794Y-72540000D01*
G37*
%TD*%
D12*
%TO.C,D1*%
X125460000Y-70350000D03*
%TD*%
D13*
%TO.C,BT1*%
X124495000Y-84150000D03*
X124495000Y-109550000D03*
%TD*%
D14*
%TO.C,J3*%
X189395000Y-92890000D03*
X189395000Y-87110000D03*
D15*
X188895000Y-94320000D03*
D16*
X193075000Y-94320000D03*
D15*
X188895000Y-85680000D03*
D16*
X193075000Y-85680000D03*
%TD*%
%LPD*%
M02*
